%TF.GenerationSoftware,KiCad,Pcbnew,7.0.8*%
%TF.CreationDate,2023-12-07T19:05:12+01:00*%
%TF.ProjectId,MecProInverter,4d656350-726f-4496-9e76-65727465722e,rev?*%
%TF.SameCoordinates,Original*%
%TF.FileFunction,Soldermask,Bot*%
%TF.FilePolarity,Negative*%
%FSLAX46Y46*%
G04 Gerber Fmt 4.6, Leading zero omitted, Abs format (unit mm)*
G04 Created by KiCad (PCBNEW 7.0.8) date 2023-12-07 19:05:12*
%MOMM*%
%LPD*%
G01*
G04 APERTURE LIST*
%ADD10C,2.000000*%
%ADD11R,1.500000X1.500000*%
%ADD12C,1.500000*%
%ADD13R,1.700000X1.700000*%
%ADD14O,1.700000X1.700000*%
%ADD15C,3.600000*%
%ADD16C,5.600000*%
%ADD17O,3.000000X2.000000*%
%ADD18R,2.000000X3.000000*%
%ADD19O,2.000000X3.000000*%
%ADD20R,2.600000X2.600000*%
%ADD21C,2.600000*%
%ADD22R,2.200000X2.200000*%
%ADD23C,2.200000*%
%ADD24C,0.700025*%
%ADD25O,1.200000X2.000000*%
%ADD26O,1.200000X1.800000*%
%ADD27C,1.800000*%
%ADD28O,2.800000X3.500000*%
%ADD29C,3.000000*%
%ADD30R,3.000000X3.000000*%
%ADD31R,1.800000X1.800000*%
%ADD32R,2.794000X2.794000*%
%ADD33C,2.794000*%
%ADD34C,1.600000*%
%ADD35C,2.500000*%
G04 APERTURE END LIST*
D10*
%TO.C,Fan1*%
X98000000Y-122540005D03*
X98000000Y-120000000D03*
X98000000Y-117459995D03*
%TD*%
D11*
%TO.C,U12*%
X154750000Y-205500000D03*
D12*
X154750000Y-202960000D03*
X154750000Y-195340000D03*
X154750000Y-190260000D03*
%TD*%
D13*
%TO.C,J7*%
X96000000Y-111700000D03*
D14*
X96000000Y-109160000D03*
X96000000Y-106620000D03*
X96000000Y-104080000D03*
X96000000Y-101540000D03*
X96000000Y-99000000D03*
X96000000Y-96460000D03*
X96000000Y-93920000D03*
X96000000Y-91380000D03*
X96000000Y-88840000D03*
X96000000Y-86300000D03*
%TD*%
D15*
%TO.C,H1*%
X99000000Y-216000000D03*
D16*
X99000000Y-216000000D03*
%TD*%
D17*
%TO.C,K2*%
X107000000Y-176650000D03*
X99500000Y-176650000D03*
X107000000Y-171610000D03*
X99500000Y-171610000D03*
X107000000Y-181690000D03*
X99500000Y-181690000D03*
D18*
X99500000Y-156350000D03*
D19*
X107000000Y-156350000D03*
%TD*%
D10*
%TO.C,Fan2*%
X98000000Y-139459995D03*
X98000000Y-142000000D03*
X98000000Y-144540005D03*
%TD*%
D20*
%TO.C,J4*%
X128500000Y-215500000D03*
D21*
X133500000Y-215500000D03*
X138500000Y-215500000D03*
X143500000Y-215500000D03*
%TD*%
D15*
%TO.C,H6*%
X193000000Y-58000000D03*
D16*
X193000000Y-58000000D03*
%TD*%
D22*
%TO.C,J3*%
X173460000Y-217500000D03*
D23*
X176000000Y-217500000D03*
X178540000Y-217500000D03*
X181080000Y-217500000D03*
X183620000Y-217500000D03*
X186160000Y-217500000D03*
%TD*%
D15*
%TO.C,H5*%
X99000000Y-58000000D03*
D16*
X99000000Y-58000000D03*
%TD*%
D24*
%TO.C,U3*%
X160110109Y-214695072D03*
X165890145Y-214695072D03*
D25*
X158675006Y-214174879D03*
D26*
X158675006Y-218375032D03*
D25*
X167324994Y-214174879D03*
D26*
X167324994Y-218375032D03*
%TD*%
D15*
%TO.C,H4*%
X99000000Y-131000000D03*
D16*
X99000000Y-131000000D03*
%TD*%
D13*
%TO.C,J8*%
X155500000Y-165250000D03*
%TD*%
D15*
%TO.C,H2*%
X193000000Y-131000000D03*
D16*
X193000000Y-131000000D03*
%TD*%
D13*
%TO.C,J5*%
X137110000Y-88600000D03*
D14*
X139650000Y-88600000D03*
X142190000Y-88600000D03*
X144730000Y-88600000D03*
X147270000Y-88600000D03*
X149810000Y-88600000D03*
X152350000Y-88600000D03*
X154890000Y-88600000D03*
%TD*%
D13*
%TO.C,J9*%
X150000000Y-105250000D03*
%TD*%
D15*
%TO.C,H3*%
X193000000Y-216000000D03*
D16*
X193000000Y-216000000D03*
%TD*%
D27*
%TO.C,U21*%
X105500127Y-68064478D03*
X103000000Y-68064478D03*
X100500127Y-68064478D03*
D28*
X108080010Y-75064478D03*
X97919990Y-75064478D03*
%TD*%
D20*
%TO.C,J10*%
X107000000Y-215500000D03*
D21*
X112000000Y-215500000D03*
X117000000Y-215500000D03*
X122000000Y-215500000D03*
%TD*%
D13*
%TO.C,J6*%
X148000000Y-195525000D03*
D14*
X148000000Y-192985000D03*
X148000000Y-190445000D03*
%TD*%
D29*
%TO.C,PS1*%
X108800000Y-119482500D03*
X108800000Y-111482500D03*
X153800000Y-111482500D03*
D30*
X153800000Y-132282500D03*
%TD*%
D31*
%TO.C,R1*%
X100250000Y-187375000D03*
D27*
X105330000Y-187375000D03*
%TD*%
D32*
%TO.C,C2*%
X171000000Y-112666750D03*
D33*
X181000000Y-112666750D03*
%TD*%
D32*
%TO.C,C1*%
X171000000Y-74666750D03*
D33*
X181000000Y-74666750D03*
%TD*%
D32*
%TO.C,C4*%
X171000000Y-188333500D03*
D33*
X181000000Y-188333500D03*
%TD*%
D32*
%TO.C,C3*%
X171000000Y-150333500D03*
D33*
X181000000Y-150333500D03*
%TD*%
D34*
%TO.C,U13*%
X148100203Y-140700025D03*
X146099949Y-143700025D03*
X142700152Y-140700025D03*
X141099949Y-143700025D03*
X137699898Y-140700025D03*
X136099949Y-143700025D03*
X132699898Y-140700025D03*
X131099949Y-143700025D03*
X129500000Y-140700025D03*
X127900051Y-143700025D03*
X126300102Y-140700025D03*
X124699898Y-143700025D03*
X123099949Y-140700025D03*
X121500000Y-143700025D03*
X119900051Y-140700025D03*
X117900051Y-143700025D03*
D10*
X116444882Y-169299975D03*
X121175133Y-169299975D03*
X125905131Y-169299975D03*
X130635128Y-169299975D03*
X135365126Y-169299975D03*
X140095123Y-169299975D03*
X144825121Y-169299975D03*
X149555118Y-169299975D03*
%TD*%
D35*
%TO.C,U4*%
X142000000Y-178000000D03*
X142000000Y-185500000D03*
X142000000Y-193000000D03*
X142000000Y-203000000D03*
%TD*%
M02*
