%TF.GenerationSoftware,KiCad,Pcbnew,7.0.8*%
%TF.CreationDate,2023-12-07T15:12:16+01:00*%
%TF.ProjectId,MecProInverter,4d656350-726f-4496-9e76-65727465722e,rev?*%
%TF.SameCoordinates,Original*%
%TF.FileFunction,Paste,Top*%
%TF.FilePolarity,Positive*%
%FSLAX46Y46*%
G04 Gerber Fmt 4.6, Leading zero omitted, Abs format (unit mm)*
G04 Created by KiCad (PCBNEW 7.0.8) date 2023-12-07 15:12:16*
%MOMM*%
%LPD*%
G01*
G04 APERTURE LIST*
G04 Aperture macros list*
%AMRoundRect*
0 Rectangle with rounded corners*
0 $1 Rounding radius*
0 $2 $3 $4 $5 $6 $7 $8 $9 X,Y pos of 4 corners*
0 Add a 4 corners polygon primitive as box body*
4,1,4,$2,$3,$4,$5,$6,$7,$8,$9,$2,$3,0*
0 Add four circle primitives for the rounded corners*
1,1,$1+$1,$2,$3*
1,1,$1+$1,$4,$5*
1,1,$1+$1,$6,$7*
1,1,$1+$1,$8,$9*
0 Add four rect primitives between the rounded corners*
20,1,$1+$1,$2,$3,$4,$5,0*
20,1,$1+$1,$4,$5,$6,$7,0*
20,1,$1+$1,$6,$7,$8,$9,0*
20,1,$1+$1,$8,$9,$2,$3,0*%
%AMFreePoly0*
4,1,6,0.850038,-0.850038,-0.849987,-0.850038,-0.849987,0.499975,-0.499975,0.849987,0.850038,0.849987,0.850038,-0.850038,0.850038,-0.850038,$1*%
G04 Aperture macros list end*
%ADD10RoundRect,0.225000X-0.250000X0.225000X-0.250000X-0.225000X0.250000X-0.225000X0.250000X0.225000X0*%
%ADD11RoundRect,0.225000X0.250000X-0.225000X0.250000X0.225000X-0.250000X0.225000X-0.250000X-0.225000X0*%
%ADD12RoundRect,0.200000X0.200000X0.275000X-0.200000X0.275000X-0.200000X-0.275000X0.200000X-0.275000X0*%
%ADD13RoundRect,0.218750X-0.256250X0.218750X-0.256250X-0.218750X0.256250X-0.218750X0.256250X0.218750X0*%
%ADD14RoundRect,0.225000X-0.225000X-0.250000X0.225000X-0.250000X0.225000X0.250000X-0.225000X0.250000X0*%
%ADD15RoundRect,0.200000X0.275000X-0.200000X0.275000X0.200000X-0.275000X0.200000X-0.275000X-0.200000X0*%
%ADD16RoundRect,0.218750X-0.218750X-0.256250X0.218750X-0.256250X0.218750X0.256250X-0.218750X0.256250X0*%
%ADD17RoundRect,0.225000X0.225000X0.250000X-0.225000X0.250000X-0.225000X-0.250000X0.225000X-0.250000X0*%
%ADD18RoundRect,0.200000X-0.275000X0.200000X-0.275000X-0.200000X0.275000X-0.200000X0.275000X0.200000X0*%
%ADD19R,0.532004X1.072009*%
%ADD20R,1.900000X1.300000*%
%ADD21RoundRect,0.250000X0.312500X0.625000X-0.312500X0.625000X-0.312500X-0.625000X0.312500X-0.625000X0*%
%ADD22RoundRect,0.250000X0.625000X-0.312500X0.625000X0.312500X-0.625000X0.312500X-0.625000X-0.312500X0*%
%ADD23RoundRect,0.150000X-0.150000X0.587500X-0.150000X-0.587500X0.150000X-0.587500X0.150000X0.587500X0*%
%ADD24R,1.500000X0.900000*%
%ADD25RoundRect,0.250000X-0.625000X0.312500X-0.625000X-0.312500X0.625000X-0.312500X0.625000X0.312500X0*%
%ADD26R,1.070003X0.532004*%
%ADD27RoundRect,0.225000X0.225000X0.375000X-0.225000X0.375000X-0.225000X-0.375000X0.225000X-0.375000X0*%
%ADD28RoundRect,0.200000X-0.200000X-0.275000X0.200000X-0.275000X0.200000X0.275000X-0.200000X0.275000X0*%
%ADD29RoundRect,0.225000X-0.225000X-0.375000X0.225000X-0.375000X0.225000X0.375000X-0.225000X0.375000X0*%
%ADD30R,1.229997X1.359995*%
%ADD31R,1.072009X0.532004*%
%ADD32RoundRect,0.218750X0.218750X0.256250X-0.218750X0.256250X-0.218750X-0.256250X0.218750X-0.256250X0*%
%ADD33R,0.600000X1.100000*%
%ADD34R,0.300000X1.100000*%
%ADD35RoundRect,0.150000X0.150000X-0.875000X0.150000X0.875000X-0.150000X0.875000X-0.150000X-0.875000X0*%
%ADD36O,0.588011X2.045009*%
%ADD37RoundRect,0.218750X0.256250X-0.218750X0.256250X0.218750X-0.256250X0.218750X-0.256250X-0.218750X0*%
%ADD38O,1.864999X0.629997*%
%ADD39R,0.800000X0.280010*%
%ADD40R,0.280010X0.800000*%
%ADD41FreePoly0,0.000000*%
%ADD42R,3.500000X2.950000*%
%ADD43O,0.629997X1.864999*%
%ADD44R,0.800000X0.400000*%
%ADD45R,0.400000X0.800000*%
%ADD46R,0.800000X0.800000*%
%ADD47R,1.200000X1.200000*%
%ADD48RoundRect,0.225000X-0.375000X0.225000X-0.375000X-0.225000X0.375000X-0.225000X0.375000X0.225000X0*%
G04 APERTURE END LIST*
D10*
%TO.C,C49*%
X195000000Y-204975000D03*
X195000000Y-206525000D03*
%TD*%
D11*
%TO.C,C23*%
X137250000Y-61775000D03*
X137250000Y-60225000D03*
%TD*%
D12*
%TO.C,R19*%
X101500000Y-104750000D03*
X99850000Y-104750000D03*
%TD*%
D13*
%TO.C,D8*%
X128000000Y-162462500D03*
X128000000Y-164037500D03*
%TD*%
D14*
%TO.C,C35*%
X167627000Y-195326000D03*
X169177000Y-195326000D03*
%TD*%
D10*
%TO.C,C25*%
X147700000Y-95825000D03*
X147700000Y-97375000D03*
%TD*%
D11*
%TO.C,C22*%
X149600000Y-102175000D03*
X149600000Y-100625000D03*
%TD*%
D15*
%TO.C,R57*%
X99250000Y-112825000D03*
X99250000Y-111175000D03*
%TD*%
D16*
%TO.C,D9*%
X136712500Y-189500000D03*
X138287500Y-189500000D03*
%TD*%
D17*
%TO.C,C18*%
X137675000Y-147500000D03*
X136125000Y-147500000D03*
%TD*%
D15*
%TO.C,R29*%
X111500000Y-105575000D03*
X111500000Y-103925000D03*
%TD*%
D18*
%TO.C,R26*%
X137250000Y-84175000D03*
X137250000Y-85825000D03*
%TD*%
D19*
%TO.C,U20*%
X100050038Y-100899098D03*
X101000000Y-100899098D03*
X101949962Y-100899098D03*
X101949962Y-98600902D03*
X101000000Y-98600902D03*
X100050038Y-98600902D03*
%TD*%
D10*
%TO.C,C11*%
X129500000Y-146000000D03*
X129500000Y-147550000D03*
%TD*%
%TO.C,C5*%
X177800000Y-64125000D03*
X177800000Y-65675000D03*
%TD*%
D12*
%TO.C,R23*%
X122075000Y-58750000D03*
X120425000Y-58750000D03*
%TD*%
D20*
%TO.C,SW2*%
X114799924Y-72749987D03*
X123199975Y-72749987D03*
X114799924Y-77249860D03*
X123199975Y-77249860D03*
%TD*%
D21*
%TO.C,R64*%
X144462500Y-153750000D03*
X141537500Y-153750000D03*
%TD*%
D19*
%TO.C,U14*%
X162300038Y-206149098D03*
X163250000Y-206149098D03*
X164199962Y-206149098D03*
X164199962Y-203850902D03*
X163250000Y-203850902D03*
X162300038Y-203850902D03*
%TD*%
D15*
%TO.C,R54*%
X144750000Y-85825000D03*
X144750000Y-84175000D03*
%TD*%
%TO.C,R4*%
X133000000Y-75575000D03*
X133000000Y-73925000D03*
%TD*%
D14*
%TO.C,C54*%
X131300000Y-150250000D03*
X132850000Y-150250000D03*
%TD*%
D22*
%TO.C,R63*%
X144250000Y-163675000D03*
X144250000Y-160750000D03*
%TD*%
D11*
%TO.C,C45*%
X120500000Y-201275000D03*
X120500000Y-199725000D03*
%TD*%
D23*
%TO.C,Q1*%
X109400000Y-148000000D03*
X107500000Y-148000000D03*
X108450000Y-149875000D03*
%TD*%
D11*
%TO.C,C30*%
X125500000Y-85025000D03*
X125500000Y-83475000D03*
%TD*%
D12*
%TO.C,R62*%
X126575000Y-155750000D03*
X124925000Y-155750000D03*
%TD*%
D14*
%TO.C,C56*%
X126475000Y-161000000D03*
X128025000Y-161000000D03*
%TD*%
D24*
%TO.C,D3*%
X170550000Y-63350000D03*
X170550000Y-66650000D03*
X175450000Y-66650000D03*
X175450000Y-63350000D03*
%TD*%
D15*
%TO.C,R49*%
X181500000Y-212075000D03*
X181500000Y-210425000D03*
%TD*%
D18*
%TO.C,R50*%
X183000000Y-210425000D03*
X183000000Y-212075000D03*
%TD*%
D25*
%TO.C,R31*%
X103000000Y-115037500D03*
X103000000Y-117962500D03*
%TD*%
D18*
%TO.C,R14*%
X148000000Y-214425000D03*
X148000000Y-216075000D03*
%TD*%
D26*
%TO.C,U18*%
X101009779Y-111050038D03*
X101009779Y-112949962D03*
X102990221Y-112000000D03*
%TD*%
D27*
%TO.C,D6*%
X139400000Y-105000000D03*
X136100000Y-105000000D03*
%TD*%
D28*
%TO.C,R66*%
X165175000Y-211000000D03*
X166825000Y-211000000D03*
%TD*%
D20*
%TO.C,SW1*%
X114799924Y-61749987D03*
X123199975Y-61749987D03*
X114799924Y-66249860D03*
X123199975Y-66249860D03*
%TD*%
D15*
%TO.C,R8*%
X128000000Y-138825000D03*
X128000000Y-137175000D03*
%TD*%
D12*
%TO.C,R11*%
X151125000Y-93600000D03*
X149475000Y-93600000D03*
%TD*%
D17*
%TO.C,C41*%
X138275000Y-187750000D03*
X136725000Y-187750000D03*
%TD*%
D29*
%TO.C,D4*%
X101800000Y-149687500D03*
X105100000Y-149687500D03*
%TD*%
D18*
%TO.C,R51*%
X184500000Y-210425000D03*
X184500000Y-212075000D03*
%TD*%
D11*
%TO.C,C38*%
X134750000Y-159750000D03*
X134750000Y-158200000D03*
%TD*%
D28*
%TO.C,R35*%
X132175000Y-162250000D03*
X133825000Y-162250000D03*
%TD*%
D11*
%TO.C,C43*%
X138682499Y-193430004D03*
X138682499Y-191880004D03*
%TD*%
D28*
%TO.C,R41*%
X114675000Y-138500000D03*
X116325000Y-138500000D03*
%TD*%
D14*
%TO.C,C24*%
X155350000Y-97900000D03*
X156900000Y-97900000D03*
%TD*%
D17*
%TO.C,C55*%
X139800000Y-157750000D03*
X138250000Y-157750000D03*
%TD*%
D30*
%TO.C,U7*%
X115315088Y-55750000D03*
X119684912Y-55750000D03*
%TD*%
D31*
%TO.C,U5*%
X152950902Y-99650038D03*
X152950902Y-100600000D03*
X152950902Y-101549962D03*
X155249098Y-101549962D03*
X155249098Y-100600000D03*
X155249098Y-99650038D03*
%TD*%
D18*
%TO.C,R17*%
X127250000Y-83425000D03*
X127250000Y-85075000D03*
%TD*%
D17*
%TO.C,C31*%
X111525000Y-58750000D03*
X109975000Y-58750000D03*
%TD*%
D15*
%TO.C,R10*%
X124500000Y-138825000D03*
X124500000Y-137175000D03*
%TD*%
D28*
%TO.C,R40*%
X119675000Y-138500000D03*
X121325000Y-138500000D03*
%TD*%
D15*
%TO.C,R58*%
X113250000Y-105575000D03*
X113250000Y-103925000D03*
%TD*%
D28*
%TO.C,R2*%
X99175000Y-86250000D03*
X100825000Y-86250000D03*
%TD*%
D32*
%TO.C,D10*%
X123787500Y-200500000D03*
X122212500Y-200500000D03*
%TD*%
D18*
%TO.C,R27*%
X139750000Y-84175000D03*
X139750000Y-85825000D03*
%TD*%
D11*
%TO.C,C37*%
X169500000Y-215275000D03*
X169500000Y-213725000D03*
%TD*%
D33*
%TO.C,U3*%
X159799975Y-213624968D03*
X160600076Y-213624968D03*
D34*
X161250064Y-213624968D03*
X161750191Y-213624968D03*
X162250064Y-213624968D03*
X162749936Y-213624968D03*
X163250064Y-213624968D03*
X163749936Y-213624968D03*
X164250064Y-213624968D03*
X164750191Y-213624968D03*
D33*
X165400178Y-213624968D03*
X166200025Y-213624968D03*
%TD*%
D17*
%TO.C,C32*%
X99025000Y-114750000D03*
X97475000Y-114750000D03*
%TD*%
D35*
%TO.C,U2*%
X167805000Y-206900000D03*
X169075000Y-206900000D03*
X170345000Y-206900000D03*
X171615000Y-206900000D03*
X172885000Y-206900000D03*
X174155000Y-206900000D03*
X175425000Y-206900000D03*
X176695000Y-206900000D03*
X176695000Y-197600000D03*
X175425000Y-197600000D03*
X174155000Y-197600000D03*
X172885000Y-197600000D03*
X171615000Y-197600000D03*
X170345000Y-197600000D03*
X169075000Y-197600000D03*
X167805000Y-197600000D03*
%TD*%
D18*
%TO.C,R37*%
X162000000Y-207675000D03*
X162000000Y-209325000D03*
%TD*%
%TO.C,R36*%
X164500000Y-207675000D03*
X164500000Y-209325000D03*
%TD*%
D36*
%TO.C,U15*%
X185655004Y-197477584D03*
X184385001Y-197477584D03*
X183114999Y-197477584D03*
X181844996Y-197477584D03*
X181844996Y-203022416D03*
X183114999Y-203022416D03*
X184385001Y-203022416D03*
X185655004Y-203022416D03*
%TD*%
D15*
%TO.C,R55*%
X147250000Y-85825000D03*
X147250000Y-84175000D03*
%TD*%
D17*
%TO.C,C20*%
X122525000Y-147750000D03*
X120975000Y-147750000D03*
%TD*%
D14*
%TO.C,C39*%
X131475000Y-160500000D03*
X133025000Y-160500000D03*
%TD*%
D15*
%TO.C,R15*%
X129000000Y-67825000D03*
X129000000Y-66175000D03*
%TD*%
D36*
%TO.C,U16*%
X194905004Y-197477584D03*
X193635001Y-197477584D03*
X192364999Y-197477584D03*
X191094996Y-197477584D03*
X191094996Y-203022416D03*
X192364999Y-203022416D03*
X193635001Y-203022416D03*
X194905004Y-203022416D03*
%TD*%
D15*
%TO.C,R53*%
X142250000Y-85825000D03*
X142250000Y-84175000D03*
%TD*%
D21*
%TO.C,R18*%
X99412500Y-149687500D03*
X96487500Y-149687500D03*
%TD*%
D18*
%TO.C,R44*%
X122250000Y-202175000D03*
X122250000Y-203825000D03*
%TD*%
D17*
%TO.C,C7*%
X118275000Y-58750000D03*
X116725000Y-58750000D03*
%TD*%
D18*
%TO.C,R30*%
X116750000Y-103925000D03*
X116750000Y-105575000D03*
%TD*%
D15*
%TO.C,R48*%
X109450000Y-144262500D03*
X109450000Y-142612500D03*
%TD*%
D20*
%TO.C,SW3*%
X114799924Y-83749987D03*
X123199975Y-83749987D03*
X114799924Y-88249860D03*
X123199975Y-88249860D03*
%TD*%
D37*
%TO.C,D1*%
X150750000Y-219287500D03*
X150750000Y-217712500D03*
%TD*%
D28*
%TO.C,R33*%
X131250000Y-152250000D03*
X132900000Y-152250000D03*
%TD*%
D19*
%TO.C,U19*%
X100800038Y-92899098D03*
X101750000Y-92899098D03*
X102699962Y-92899098D03*
X102699962Y-90600902D03*
X101750000Y-90600902D03*
X100800038Y-90600902D03*
%TD*%
D11*
%TO.C,C29*%
X125500000Y-74025000D03*
X125500000Y-72475000D03*
%TD*%
D22*
%TO.C,R46*%
X144250000Y-158925000D03*
X144250000Y-156000000D03*
%TD*%
D11*
%TO.C,C42*%
X124000000Y-203775000D03*
X124000000Y-202225000D03*
%TD*%
D18*
%TO.C,R16*%
X127250000Y-72425000D03*
X127250000Y-74075000D03*
%TD*%
D12*
%TO.C,R24*%
X136325000Y-77250000D03*
X134675000Y-77250000D03*
%TD*%
D16*
%TO.C,D11*%
X139962500Y-156000000D03*
X141537500Y-156000000D03*
%TD*%
D15*
%TO.C,R6*%
X131500000Y-138825000D03*
X131500000Y-137175000D03*
%TD*%
D14*
%TO.C,C47*%
X187225000Y-196000000D03*
X188775000Y-196000000D03*
%TD*%
%TO.C,C15*%
X140925000Y-145900000D03*
X142475000Y-145900000D03*
%TD*%
D38*
%TO.C,U10*%
X131500000Y-191250000D03*
X131500000Y-192520003D03*
X131500000Y-193790005D03*
X131500000Y-195060008D03*
X136864998Y-195060008D03*
X136864998Y-193790005D03*
X136864998Y-192520003D03*
X136864998Y-191250000D03*
%TD*%
D15*
%TO.C,R42*%
X150750000Y-195325000D03*
X150750000Y-193675000D03*
%TD*%
D38*
%TO.C,U11*%
X113067501Y-199094996D03*
X113067501Y-200364999D03*
X113067501Y-201635001D03*
X113067501Y-202905004D03*
X118432499Y-202905004D03*
X118432499Y-201635001D03*
X118432499Y-200364999D03*
X118432499Y-199094996D03*
%TD*%
D14*
%TO.C,C46*%
X187475000Y-203000000D03*
X189025000Y-203000000D03*
%TD*%
D11*
%TO.C,C48*%
X195000000Y-195275000D03*
X195000000Y-193725000D03*
%TD*%
D10*
%TO.C,C51*%
X116250000Y-140225000D03*
X116250000Y-141775000D03*
%TD*%
D17*
%TO.C,C6*%
X122525000Y-146000000D03*
X120975000Y-146000000D03*
%TD*%
D10*
%TO.C,C8*%
X124250000Y-145975000D03*
X124250000Y-147525000D03*
%TD*%
D39*
%TO.C,U8*%
X130000000Y-156750064D03*
X130000000Y-157249936D03*
X130000000Y-157750064D03*
X130000000Y-158249936D03*
D40*
X130750064Y-159000000D03*
X131249936Y-159000000D03*
X131750064Y-159000000D03*
X132249936Y-159000000D03*
D39*
X133000000Y-158249936D03*
X133000000Y-157750064D03*
X133000000Y-157249936D03*
X133000000Y-156750064D03*
D40*
X132249936Y-156000000D03*
X131750064Y-156000000D03*
X131249936Y-156000000D03*
X130750064Y-156000000D03*
D41*
X131500127Y-157500127D03*
%TD*%
D15*
%TO.C,R9*%
X126250000Y-138825000D03*
X126250000Y-137175000D03*
%TD*%
D10*
%TO.C,C28*%
X130750000Y-66225000D03*
X130750000Y-67775000D03*
%TD*%
D15*
%TO.C,R56*%
X149750000Y-85825000D03*
X149750000Y-84175000D03*
%TD*%
D10*
%TO.C,C9*%
X126000000Y-145975000D03*
X126000000Y-147525000D03*
%TD*%
D18*
%TO.C,R13*%
X150750000Y-214500000D03*
X150750000Y-216150000D03*
%TD*%
D12*
%TO.C,R38*%
X105000000Y-104750000D03*
X103350000Y-104750000D03*
%TD*%
%TO.C,R28*%
X109275000Y-145937500D03*
X107625000Y-145937500D03*
%TD*%
D18*
%TO.C,R52*%
X186000000Y-210425000D03*
X186000000Y-212075000D03*
%TD*%
D15*
%TO.C,R59*%
X115000000Y-105575000D03*
X115000000Y-103925000D03*
%TD*%
D14*
%TO.C,C19*%
X136125000Y-145900000D03*
X137675000Y-145900000D03*
%TD*%
D17*
%TO.C,C26*%
X150275000Y-172750000D03*
X148725000Y-172750000D03*
%TD*%
D14*
%TO.C,C33*%
X167627000Y-209042000D03*
X169177000Y-209042000D03*
%TD*%
D28*
%TO.C,R39*%
X134675000Y-156500000D03*
X136325000Y-156500000D03*
%TD*%
D17*
%TO.C,C53*%
X126525000Y-154000000D03*
X124975000Y-154000000D03*
%TD*%
%TO.C,C50*%
X102475000Y-65400000D03*
X100925000Y-65400000D03*
%TD*%
D14*
%TO.C,C34*%
X172707000Y-210058000D03*
X174257000Y-210058000D03*
%TD*%
D18*
%TO.C,R60*%
X118000000Y-136925000D03*
X118000000Y-138575000D03*
%TD*%
D28*
%TO.C,R20*%
X125675000Y-66250000D03*
X127325000Y-66250000D03*
%TD*%
D37*
%TO.C,D2*%
X148000000Y-219287500D03*
X148000000Y-217712500D03*
%TD*%
D42*
%TO.C,L1*%
X143100000Y-100800000D03*
X143100000Y-95350000D03*
%TD*%
D28*
%TO.C,R43*%
X136675000Y-186000000D03*
X138325000Y-186000000D03*
%TD*%
D18*
%TO.C,R47*%
X141500000Y-157675000D03*
X141500000Y-159325000D03*
%TD*%
D15*
%TO.C,R21*%
X125500000Y-77325000D03*
X125500000Y-75675000D03*
%TD*%
D10*
%TO.C,C13*%
X132750000Y-145975000D03*
X132750000Y-147525000D03*
%TD*%
D15*
%TO.C,R22*%
X125500000Y-88325000D03*
X125500000Y-86675000D03*
%TD*%
D11*
%TO.C,C21*%
X147800000Y-102175000D03*
X147800000Y-100625000D03*
%TD*%
D12*
%TO.C,R67*%
X161325000Y-211000000D03*
X159675000Y-211000000D03*
%TD*%
D15*
%TO.C,R5*%
X133250000Y-138825000D03*
X133250000Y-137175000D03*
%TD*%
D43*
%TO.C,U9*%
X148344996Y-180182499D03*
X149614999Y-180182499D03*
X150885001Y-180182499D03*
X152155004Y-180182499D03*
X152155004Y-174817501D03*
X150885001Y-174817501D03*
X149614999Y-174817501D03*
X148344996Y-174817501D03*
%TD*%
D15*
%TO.C,R32*%
X134750000Y-75575000D03*
X134750000Y-73925000D03*
%TD*%
%TO.C,R7*%
X129750000Y-138825000D03*
X129750000Y-137175000D03*
%TD*%
D12*
%TO.C,R61*%
X129825000Y-154000000D03*
X128175000Y-154000000D03*
%TD*%
%TO.C,R65*%
X128075000Y-159500000D03*
X126425000Y-159500000D03*
%TD*%
%TO.C,R45*%
X139850000Y-159500000D03*
X138200000Y-159500000D03*
%TD*%
%TO.C,R25*%
X133075000Y-77250000D03*
X131425000Y-77250000D03*
%TD*%
D17*
%TO.C,C14*%
X142475000Y-147500000D03*
X140925000Y-147500000D03*
%TD*%
%TO.C,C36*%
X172479000Y-195326000D03*
X170929000Y-195326000D03*
%TD*%
D18*
%TO.C,R12*%
X152600000Y-94775000D03*
X152600000Y-96425000D03*
%TD*%
D10*
%TO.C,C10*%
X127750000Y-145975000D03*
X127750000Y-147525000D03*
%TD*%
%TO.C,C12*%
X131250000Y-145975000D03*
X131250000Y-147525000D03*
%TD*%
D44*
%TO.C,U1*%
X139024892Y-60024892D03*
X139024892Y-60874778D03*
X139024892Y-61724917D03*
X139024892Y-62574803D03*
X139024892Y-63424943D03*
X139024892Y-64274829D03*
X139024892Y-65124968D03*
X139024892Y-65974854D03*
X139024892Y-66824740D03*
X139024892Y-67674879D03*
X139024892Y-68524765D03*
X139024892Y-69374905D03*
X139024892Y-70224790D03*
X139024892Y-71074930D03*
X139024892Y-71924816D03*
D45*
X140050038Y-73000000D03*
X140899924Y-73000000D03*
X141750064Y-73000000D03*
X142599949Y-73000000D03*
X143450089Y-73000000D03*
X144299975Y-73000000D03*
X145150114Y-73000000D03*
X146000000Y-73000000D03*
X146849886Y-73000000D03*
X147700025Y-73000000D03*
X148549911Y-73000000D03*
X149400051Y-73000000D03*
X150249936Y-73000000D03*
X151100076Y-73000000D03*
X151949962Y-73000000D03*
D44*
X152975108Y-71924816D03*
X152975108Y-71074930D03*
X152975108Y-70224790D03*
X152975108Y-69374905D03*
X152975108Y-68524765D03*
X152975108Y-67674879D03*
X152975108Y-66824740D03*
X152975108Y-65974854D03*
X152975108Y-65124968D03*
X152975108Y-64274829D03*
X152975108Y-63424943D03*
X152975108Y-62574803D03*
X152975108Y-61724917D03*
X152975108Y-60874778D03*
X152975108Y-60024892D03*
D45*
X151949962Y-58949962D03*
X151100076Y-58949962D03*
X150249936Y-58949962D03*
X149400051Y-58949962D03*
X148549911Y-58949962D03*
X147700025Y-58949962D03*
X146849886Y-58949962D03*
X146000000Y-58949962D03*
X145150114Y-58949962D03*
X144299975Y-58949962D03*
X143450089Y-58949962D03*
X142599949Y-58949962D03*
X141750064Y-58949962D03*
X140899924Y-58949962D03*
X140050038Y-58949962D03*
D46*
X139000000Y-58974854D03*
X139000000Y-72974854D03*
D47*
X144350013Y-64324867D03*
X144350013Y-65974854D03*
X144350013Y-67624841D03*
X146000000Y-64324867D03*
X146000000Y-65974854D03*
X146000000Y-67624841D03*
X147649987Y-64324867D03*
X147649987Y-65974854D03*
X147649987Y-67624841D03*
D46*
X153000000Y-58974854D03*
X153000000Y-72974854D03*
%TD*%
D17*
%TO.C,C17*%
X147675000Y-147500000D03*
X146125000Y-147500000D03*
%TD*%
D30*
%TO.C,U6*%
X108315088Y-55750000D03*
X112684912Y-55750000D03*
%TD*%
D31*
%TO.C,U17*%
X189649098Y-207699962D03*
X189649098Y-206750000D03*
X189649098Y-205800038D03*
X187350902Y-205800038D03*
X187350902Y-206750000D03*
X187350902Y-207699962D03*
%TD*%
D48*
%TO.C,D5*%
X103000000Y-119850000D03*
X103000000Y-123150000D03*
%TD*%
D11*
%TO.C,C27*%
X135500000Y-61775000D03*
X135500000Y-60225000D03*
%TD*%
D14*
%TO.C,C16*%
X146125000Y-145900000D03*
X147675000Y-145900000D03*
%TD*%
D28*
%TO.C,R34*%
X128000000Y-152250000D03*
X129650000Y-152250000D03*
%TD*%
D11*
%TO.C,C52*%
X129750000Y-162025000D03*
X129750000Y-160475000D03*
%TD*%
D23*
%TO.C,Q2*%
X101700000Y-106875000D03*
X99800000Y-106875000D03*
X100750000Y-108750000D03*
%TD*%
D28*
%TO.C,R3*%
X99175000Y-88750000D03*
X100825000Y-88750000D03*
%TD*%
D10*
%TO.C,C40*%
X149300000Y-95825000D03*
X149300000Y-97375000D03*
%TD*%
D29*
%TO.C,D7*%
X155850000Y-105000000D03*
X159150000Y-105000000D03*
%TD*%
M02*
