%TF.GenerationSoftware,KiCad,Pcbnew,7.0.6*%
%TF.CreationDate,2023-12-09T00:06:20+01:00*%
%TF.ProjectId,MecProInverter,4d656350-726f-4496-9e76-65727465722e,rev?*%
%TF.SameCoordinates,Original*%
%TF.FileFunction,Drillmap*%
%TF.FilePolarity,Positive*%
%FSLAX45Y45*%
G04 Gerber Fmt 4.5, Leading zero omitted, Abs format (unit mm)*
G04 Created by KiCad (PCBNEW 7.0.6) date 2023-12-09 00:06:20*
%MOMM*%
%LPD*%
G01*
G04 APERTURE LIST*
%ADD10C,0.100000*%
%ADD11C,0.200000*%
%ADD12C,0.070002*%
G04 APERTURE END LIST*
D10*
X19700000Y-16275000D02*
X19400000Y-16275000D01*
X9400000Y-21900000D02*
X9400000Y-5500000D01*
X19800000Y-17650000D02*
G75*
G03*
X19700000Y-17550000I-100000J0D01*
G01*
X19400000Y-16275000D02*
G75*
G03*
X19300000Y-16375000I0J-100000D01*
G01*
X9600000Y-5300000D02*
G75*
G03*
X9400000Y-5500000I0J-200000D01*
G01*
X19300000Y-17450000D02*
X19300000Y-16375000D01*
X19600000Y-22100000D02*
G75*
G03*
X19800000Y-21900000I0J200000D01*
G01*
X19300000Y-17450000D02*
G75*
G03*
X19400000Y-17550000I100000J0D01*
G01*
X19600000Y-22100000D02*
X9600000Y-22100000D01*
X9600000Y-5300000D02*
X19600000Y-5300000D01*
X19400000Y-17550000D02*
X19700000Y-17550000D01*
X19800000Y-21900000D02*
X19800000Y-17650000D01*
X9400000Y-21900000D02*
G75*
G03*
X9600000Y-22100000I200000J0D01*
G01*
X19800000Y-5500000D02*
X19800000Y-16175000D01*
X19800000Y-5500000D02*
G75*
G03*
X19600000Y-5300000I-200000J0D01*
G01*
X19700000Y-16275000D02*
G75*
G03*
X19800000Y-16175000I0J100000D01*
G01*
D11*
D12*
X15976010Y-21434506D02*
X16046012Y-21504508D01*
X16046012Y-21434506D02*
X15976010Y-21504508D01*
X16554013Y-21434506D02*
X16624016Y-21504508D01*
X16624016Y-21434506D02*
X16554013Y-21504508D01*
D11*
X9655777Y-22416484D02*
X9655777Y-22216484D01*
X9655777Y-22216484D02*
X9703396Y-22216484D01*
X9703396Y-22216484D02*
X9731967Y-22226008D01*
X9731967Y-22226008D02*
X9751015Y-22245055D01*
X9751015Y-22245055D02*
X9760539Y-22264103D01*
X9760539Y-22264103D02*
X9770063Y-22302198D01*
X9770063Y-22302198D02*
X9770063Y-22330770D01*
X9770063Y-22330770D02*
X9760539Y-22368865D01*
X9760539Y-22368865D02*
X9751015Y-22387912D01*
X9751015Y-22387912D02*
X9731967Y-22406960D01*
X9731967Y-22406960D02*
X9703396Y-22416484D01*
X9703396Y-22416484D02*
X9655777Y-22416484D01*
X9855777Y-22416484D02*
X9855777Y-22283150D01*
X9855777Y-22321246D02*
X9865301Y-22302198D01*
X9865301Y-22302198D02*
X9874825Y-22292674D01*
X9874825Y-22292674D02*
X9893872Y-22283150D01*
X9893872Y-22283150D02*
X9912920Y-22283150D01*
X9979586Y-22416484D02*
X9979586Y-22283150D01*
X9979586Y-22216484D02*
X9970063Y-22226008D01*
X9970063Y-22226008D02*
X9979586Y-22235531D01*
X9979586Y-22235531D02*
X9989110Y-22226008D01*
X9989110Y-22226008D02*
X9979586Y-22216484D01*
X9979586Y-22216484D02*
X9979586Y-22235531D01*
X10103396Y-22416484D02*
X10084348Y-22406960D01*
X10084348Y-22406960D02*
X10074825Y-22387912D01*
X10074825Y-22387912D02*
X10074825Y-22216484D01*
X10208158Y-22416484D02*
X10189110Y-22406960D01*
X10189110Y-22406960D02*
X10179586Y-22387912D01*
X10179586Y-22387912D02*
X10179586Y-22216484D01*
X10436729Y-22416484D02*
X10436729Y-22216484D01*
X10436729Y-22216484D02*
X10503396Y-22359341D01*
X10503396Y-22359341D02*
X10570063Y-22216484D01*
X10570063Y-22216484D02*
X10570063Y-22416484D01*
X10751015Y-22416484D02*
X10751015Y-22311722D01*
X10751015Y-22311722D02*
X10741491Y-22292674D01*
X10741491Y-22292674D02*
X10722444Y-22283150D01*
X10722444Y-22283150D02*
X10684348Y-22283150D01*
X10684348Y-22283150D02*
X10665301Y-22292674D01*
X10751015Y-22406960D02*
X10731967Y-22416484D01*
X10731967Y-22416484D02*
X10684348Y-22416484D01*
X10684348Y-22416484D02*
X10665301Y-22406960D01*
X10665301Y-22406960D02*
X10655777Y-22387912D01*
X10655777Y-22387912D02*
X10655777Y-22368865D01*
X10655777Y-22368865D02*
X10665301Y-22349817D01*
X10665301Y-22349817D02*
X10684348Y-22340293D01*
X10684348Y-22340293D02*
X10731967Y-22340293D01*
X10731967Y-22340293D02*
X10751015Y-22330770D01*
X10846253Y-22283150D02*
X10846253Y-22483150D01*
X10846253Y-22292674D02*
X10865301Y-22283150D01*
X10865301Y-22283150D02*
X10903396Y-22283150D01*
X10903396Y-22283150D02*
X10922444Y-22292674D01*
X10922444Y-22292674D02*
X10931967Y-22302198D01*
X10931967Y-22302198D02*
X10941491Y-22321246D01*
X10941491Y-22321246D02*
X10941491Y-22378388D01*
X10941491Y-22378388D02*
X10931967Y-22397436D01*
X10931967Y-22397436D02*
X10922444Y-22406960D01*
X10922444Y-22406960D02*
X10903396Y-22416484D01*
X10903396Y-22416484D02*
X10865301Y-22416484D01*
X10865301Y-22416484D02*
X10846253Y-22406960D01*
X11027206Y-22397436D02*
X11036729Y-22406960D01*
X11036729Y-22406960D02*
X11027206Y-22416484D01*
X11027206Y-22416484D02*
X11017682Y-22406960D01*
X11017682Y-22406960D02*
X11027206Y-22397436D01*
X11027206Y-22397436D02*
X11027206Y-22416484D01*
X11027206Y-22292674D02*
X11036729Y-22302198D01*
X11036729Y-22302198D02*
X11027206Y-22311722D01*
X11027206Y-22311722D02*
X11017682Y-22302198D01*
X11017682Y-22302198D02*
X11027206Y-22292674D01*
X11027206Y-22292674D02*
X11027206Y-22311722D01*
D12*
X9324998Y-22709999D02*
X9395000Y-22780001D01*
X9395000Y-22709999D02*
X9324998Y-22780001D01*
D11*
X9693872Y-22636484D02*
X9712920Y-22636484D01*
X9712920Y-22636484D02*
X9731967Y-22646008D01*
X9731967Y-22646008D02*
X9741491Y-22655531D01*
X9741491Y-22655531D02*
X9751015Y-22674579D01*
X9751015Y-22674579D02*
X9760539Y-22712674D01*
X9760539Y-22712674D02*
X9760539Y-22760293D01*
X9760539Y-22760293D02*
X9751015Y-22798388D01*
X9751015Y-22798388D02*
X9741491Y-22817436D01*
X9741491Y-22817436D02*
X9731967Y-22826960D01*
X9731967Y-22826960D02*
X9712920Y-22836484D01*
X9712920Y-22836484D02*
X9693872Y-22836484D01*
X9693872Y-22836484D02*
X9674825Y-22826960D01*
X9674825Y-22826960D02*
X9665301Y-22817436D01*
X9665301Y-22817436D02*
X9655777Y-22798388D01*
X9655777Y-22798388D02*
X9646253Y-22760293D01*
X9646253Y-22760293D02*
X9646253Y-22712674D01*
X9646253Y-22712674D02*
X9655777Y-22674579D01*
X9655777Y-22674579D02*
X9665301Y-22655531D01*
X9665301Y-22655531D02*
X9674825Y-22646008D01*
X9674825Y-22646008D02*
X9693872Y-22636484D01*
X9846253Y-22817436D02*
X9855777Y-22826960D01*
X9855777Y-22826960D02*
X9846253Y-22836484D01*
X9846253Y-22836484D02*
X9836729Y-22826960D01*
X9836729Y-22826960D02*
X9846253Y-22817436D01*
X9846253Y-22817436D02*
X9846253Y-22836484D01*
X9922444Y-22636484D02*
X10055777Y-22636484D01*
X10055777Y-22636484D02*
X9970063Y-22836484D01*
X10170063Y-22636484D02*
X10189110Y-22636484D01*
X10189110Y-22636484D02*
X10208158Y-22646008D01*
X10208158Y-22646008D02*
X10217682Y-22655531D01*
X10217682Y-22655531D02*
X10227206Y-22674579D01*
X10227206Y-22674579D02*
X10236729Y-22712674D01*
X10236729Y-22712674D02*
X10236729Y-22760293D01*
X10236729Y-22760293D02*
X10227206Y-22798388D01*
X10227206Y-22798388D02*
X10217682Y-22817436D01*
X10217682Y-22817436D02*
X10208158Y-22826960D01*
X10208158Y-22826960D02*
X10189110Y-22836484D01*
X10189110Y-22836484D02*
X10170063Y-22836484D01*
X10170063Y-22836484D02*
X10151015Y-22826960D01*
X10151015Y-22826960D02*
X10141491Y-22817436D01*
X10141491Y-22817436D02*
X10131967Y-22798388D01*
X10131967Y-22798388D02*
X10122444Y-22760293D01*
X10122444Y-22760293D02*
X10122444Y-22712674D01*
X10122444Y-22712674D02*
X10131967Y-22674579D01*
X10131967Y-22674579D02*
X10141491Y-22655531D01*
X10141491Y-22655531D02*
X10151015Y-22646008D01*
X10151015Y-22646008D02*
X10170063Y-22636484D01*
X10360539Y-22636484D02*
X10379587Y-22636484D01*
X10379587Y-22636484D02*
X10398634Y-22646008D01*
X10398634Y-22646008D02*
X10408158Y-22655531D01*
X10408158Y-22655531D02*
X10417682Y-22674579D01*
X10417682Y-22674579D02*
X10427206Y-22712674D01*
X10427206Y-22712674D02*
X10427206Y-22760293D01*
X10427206Y-22760293D02*
X10417682Y-22798388D01*
X10417682Y-22798388D02*
X10408158Y-22817436D01*
X10408158Y-22817436D02*
X10398634Y-22826960D01*
X10398634Y-22826960D02*
X10379587Y-22836484D01*
X10379587Y-22836484D02*
X10360539Y-22836484D01*
X10360539Y-22836484D02*
X10341491Y-22826960D01*
X10341491Y-22826960D02*
X10331967Y-22817436D01*
X10331967Y-22817436D02*
X10322444Y-22798388D01*
X10322444Y-22798388D02*
X10312920Y-22760293D01*
X10312920Y-22760293D02*
X10312920Y-22712674D01*
X10312920Y-22712674D02*
X10322444Y-22674579D01*
X10322444Y-22674579D02*
X10331967Y-22655531D01*
X10331967Y-22655531D02*
X10341491Y-22646008D01*
X10341491Y-22646008D02*
X10360539Y-22636484D01*
X10512920Y-22836484D02*
X10512920Y-22703150D01*
X10512920Y-22722198D02*
X10522444Y-22712674D01*
X10522444Y-22712674D02*
X10541491Y-22703150D01*
X10541491Y-22703150D02*
X10570063Y-22703150D01*
X10570063Y-22703150D02*
X10589110Y-22712674D01*
X10589110Y-22712674D02*
X10598634Y-22731722D01*
X10598634Y-22731722D02*
X10598634Y-22836484D01*
X10598634Y-22731722D02*
X10608158Y-22712674D01*
X10608158Y-22712674D02*
X10627206Y-22703150D01*
X10627206Y-22703150D02*
X10655777Y-22703150D01*
X10655777Y-22703150D02*
X10674825Y-22712674D01*
X10674825Y-22712674D02*
X10684348Y-22731722D01*
X10684348Y-22731722D02*
X10684348Y-22836484D01*
X10779587Y-22836484D02*
X10779587Y-22703150D01*
X10779587Y-22722198D02*
X10789110Y-22712674D01*
X10789110Y-22712674D02*
X10808158Y-22703150D01*
X10808158Y-22703150D02*
X10836729Y-22703150D01*
X10836729Y-22703150D02*
X10855777Y-22712674D01*
X10855777Y-22712674D02*
X10865301Y-22731722D01*
X10865301Y-22731722D02*
X10865301Y-22836484D01*
X10865301Y-22731722D02*
X10874825Y-22712674D01*
X10874825Y-22712674D02*
X10893872Y-22703150D01*
X10893872Y-22703150D02*
X10922444Y-22703150D01*
X10922444Y-22703150D02*
X10941491Y-22712674D01*
X10941491Y-22712674D02*
X10951015Y-22731722D01*
X10951015Y-22731722D02*
X10951015Y-22836484D01*
X11341491Y-22626960D02*
X11170063Y-22884103D01*
X11598634Y-22636484D02*
X11617682Y-22636484D01*
X11617682Y-22636484D02*
X11636729Y-22646008D01*
X11636729Y-22646008D02*
X11646253Y-22655531D01*
X11646253Y-22655531D02*
X11655777Y-22674579D01*
X11655777Y-22674579D02*
X11665301Y-22712674D01*
X11665301Y-22712674D02*
X11665301Y-22760293D01*
X11665301Y-22760293D02*
X11655777Y-22798388D01*
X11655777Y-22798388D02*
X11646253Y-22817436D01*
X11646253Y-22817436D02*
X11636729Y-22826960D01*
X11636729Y-22826960D02*
X11617682Y-22836484D01*
X11617682Y-22836484D02*
X11598634Y-22836484D01*
X11598634Y-22836484D02*
X11579587Y-22826960D01*
X11579587Y-22826960D02*
X11570063Y-22817436D01*
X11570063Y-22817436D02*
X11560539Y-22798388D01*
X11560539Y-22798388D02*
X11551015Y-22760293D01*
X11551015Y-22760293D02*
X11551015Y-22712674D01*
X11551015Y-22712674D02*
X11560539Y-22674579D01*
X11560539Y-22674579D02*
X11570063Y-22655531D01*
X11570063Y-22655531D02*
X11579587Y-22646008D01*
X11579587Y-22646008D02*
X11598634Y-22636484D01*
X11751015Y-22817436D02*
X11760539Y-22826960D01*
X11760539Y-22826960D02*
X11751015Y-22836484D01*
X11751015Y-22836484D02*
X11741491Y-22826960D01*
X11741491Y-22826960D02*
X11751015Y-22817436D01*
X11751015Y-22817436D02*
X11751015Y-22836484D01*
X11884348Y-22636484D02*
X11903396Y-22636484D01*
X11903396Y-22636484D02*
X11922444Y-22646008D01*
X11922444Y-22646008D02*
X11931968Y-22655531D01*
X11931968Y-22655531D02*
X11941491Y-22674579D01*
X11941491Y-22674579D02*
X11951015Y-22712674D01*
X11951015Y-22712674D02*
X11951015Y-22760293D01*
X11951015Y-22760293D02*
X11941491Y-22798388D01*
X11941491Y-22798388D02*
X11931968Y-22817436D01*
X11931968Y-22817436D02*
X11922444Y-22826960D01*
X11922444Y-22826960D02*
X11903396Y-22836484D01*
X11903396Y-22836484D02*
X11884348Y-22836484D01*
X11884348Y-22836484D02*
X11865301Y-22826960D01*
X11865301Y-22826960D02*
X11855777Y-22817436D01*
X11855777Y-22817436D02*
X11846253Y-22798388D01*
X11846253Y-22798388D02*
X11836729Y-22760293D01*
X11836729Y-22760293D02*
X11836729Y-22712674D01*
X11836729Y-22712674D02*
X11846253Y-22674579D01*
X11846253Y-22674579D02*
X11855777Y-22655531D01*
X11855777Y-22655531D02*
X11865301Y-22646008D01*
X11865301Y-22646008D02*
X11884348Y-22636484D01*
X12027206Y-22655531D02*
X12036729Y-22646008D01*
X12036729Y-22646008D02*
X12055777Y-22636484D01*
X12055777Y-22636484D02*
X12103396Y-22636484D01*
X12103396Y-22636484D02*
X12122444Y-22646008D01*
X12122444Y-22646008D02*
X12131968Y-22655531D01*
X12131968Y-22655531D02*
X12141491Y-22674579D01*
X12141491Y-22674579D02*
X12141491Y-22693627D01*
X12141491Y-22693627D02*
X12131968Y-22722198D01*
X12131968Y-22722198D02*
X12017682Y-22836484D01*
X12017682Y-22836484D02*
X12141491Y-22836484D01*
X12208158Y-22636484D02*
X12341491Y-22636484D01*
X12341491Y-22636484D02*
X12255777Y-22836484D01*
X12503396Y-22636484D02*
X12465301Y-22636484D01*
X12465301Y-22636484D02*
X12446253Y-22646008D01*
X12446253Y-22646008D02*
X12436729Y-22655531D01*
X12436729Y-22655531D02*
X12417682Y-22684103D01*
X12417682Y-22684103D02*
X12408158Y-22722198D01*
X12408158Y-22722198D02*
X12408158Y-22798388D01*
X12408158Y-22798388D02*
X12417682Y-22817436D01*
X12417682Y-22817436D02*
X12427206Y-22826960D01*
X12427206Y-22826960D02*
X12446253Y-22836484D01*
X12446253Y-22836484D02*
X12484349Y-22836484D01*
X12484349Y-22836484D02*
X12503396Y-22826960D01*
X12503396Y-22826960D02*
X12512920Y-22817436D01*
X12512920Y-22817436D02*
X12522444Y-22798388D01*
X12522444Y-22798388D02*
X12522444Y-22750769D01*
X12522444Y-22750769D02*
X12512920Y-22731722D01*
X12512920Y-22731722D02*
X12503396Y-22722198D01*
X12503396Y-22722198D02*
X12484349Y-22712674D01*
X12484349Y-22712674D02*
X12446253Y-22712674D01*
X12446253Y-22712674D02*
X12427206Y-22722198D01*
X12427206Y-22722198D02*
X12417682Y-22731722D01*
X12417682Y-22731722D02*
X12408158Y-22750769D01*
X12598634Y-22636484D02*
X12598634Y-22674579D01*
X12674825Y-22636484D02*
X12674825Y-22674579D01*
X12970063Y-22912674D02*
X12960539Y-22903150D01*
X12960539Y-22903150D02*
X12941491Y-22874579D01*
X12941491Y-22874579D02*
X12931968Y-22855531D01*
X12931968Y-22855531D02*
X12922444Y-22826960D01*
X12922444Y-22826960D02*
X12912920Y-22779341D01*
X12912920Y-22779341D02*
X12912920Y-22741246D01*
X12912920Y-22741246D02*
X12922444Y-22693627D01*
X12922444Y-22693627D02*
X12931968Y-22665055D01*
X12931968Y-22665055D02*
X12941491Y-22646008D01*
X12941491Y-22646008D02*
X12960539Y-22617436D01*
X12960539Y-22617436D02*
X12970063Y-22607912D01*
X13036730Y-22655531D02*
X13046253Y-22646008D01*
X13046253Y-22646008D02*
X13065301Y-22636484D01*
X13065301Y-22636484D02*
X13112920Y-22636484D01*
X13112920Y-22636484D02*
X13131968Y-22646008D01*
X13131968Y-22646008D02*
X13141491Y-22655531D01*
X13141491Y-22655531D02*
X13151015Y-22674579D01*
X13151015Y-22674579D02*
X13151015Y-22693627D01*
X13151015Y-22693627D02*
X13141491Y-22722198D01*
X13141491Y-22722198D02*
X13027206Y-22836484D01*
X13027206Y-22836484D02*
X13151015Y-22836484D01*
X13389111Y-22836484D02*
X13389111Y-22636484D01*
X13474825Y-22836484D02*
X13474825Y-22731722D01*
X13474825Y-22731722D02*
X13465301Y-22712674D01*
X13465301Y-22712674D02*
X13446253Y-22703150D01*
X13446253Y-22703150D02*
X13417682Y-22703150D01*
X13417682Y-22703150D02*
X13398634Y-22712674D01*
X13398634Y-22712674D02*
X13389111Y-22722198D01*
X13598634Y-22836484D02*
X13579587Y-22826960D01*
X13579587Y-22826960D02*
X13570063Y-22817436D01*
X13570063Y-22817436D02*
X13560539Y-22798388D01*
X13560539Y-22798388D02*
X13560539Y-22741246D01*
X13560539Y-22741246D02*
X13570063Y-22722198D01*
X13570063Y-22722198D02*
X13579587Y-22712674D01*
X13579587Y-22712674D02*
X13598634Y-22703150D01*
X13598634Y-22703150D02*
X13627206Y-22703150D01*
X13627206Y-22703150D02*
X13646253Y-22712674D01*
X13646253Y-22712674D02*
X13655777Y-22722198D01*
X13655777Y-22722198D02*
X13665301Y-22741246D01*
X13665301Y-22741246D02*
X13665301Y-22798388D01*
X13665301Y-22798388D02*
X13655777Y-22817436D01*
X13655777Y-22817436D02*
X13646253Y-22826960D01*
X13646253Y-22826960D02*
X13627206Y-22836484D01*
X13627206Y-22836484D02*
X13598634Y-22836484D01*
X13779587Y-22836484D02*
X13760539Y-22826960D01*
X13760539Y-22826960D02*
X13751015Y-22807912D01*
X13751015Y-22807912D02*
X13751015Y-22636484D01*
X13931968Y-22826960D02*
X13912920Y-22836484D01*
X13912920Y-22836484D02*
X13874825Y-22836484D01*
X13874825Y-22836484D02*
X13855777Y-22826960D01*
X13855777Y-22826960D02*
X13846253Y-22807912D01*
X13846253Y-22807912D02*
X13846253Y-22731722D01*
X13846253Y-22731722D02*
X13855777Y-22712674D01*
X13855777Y-22712674D02*
X13874825Y-22703150D01*
X13874825Y-22703150D02*
X13912920Y-22703150D01*
X13912920Y-22703150D02*
X13931968Y-22712674D01*
X13931968Y-22712674D02*
X13941492Y-22731722D01*
X13941492Y-22731722D02*
X13941492Y-22750769D01*
X13941492Y-22750769D02*
X13846253Y-22769817D01*
X14017682Y-22826960D02*
X14036730Y-22836484D01*
X14036730Y-22836484D02*
X14074825Y-22836484D01*
X14074825Y-22836484D02*
X14093873Y-22826960D01*
X14093873Y-22826960D02*
X14103396Y-22807912D01*
X14103396Y-22807912D02*
X14103396Y-22798388D01*
X14103396Y-22798388D02*
X14093873Y-22779341D01*
X14093873Y-22779341D02*
X14074825Y-22769817D01*
X14074825Y-22769817D02*
X14046253Y-22769817D01*
X14046253Y-22769817D02*
X14027206Y-22760293D01*
X14027206Y-22760293D02*
X14017682Y-22741246D01*
X14017682Y-22741246D02*
X14017682Y-22731722D01*
X14017682Y-22731722D02*
X14027206Y-22712674D01*
X14027206Y-22712674D02*
X14046253Y-22703150D01*
X14046253Y-22703150D02*
X14074825Y-22703150D01*
X14074825Y-22703150D02*
X14093873Y-22712674D01*
X14170063Y-22912674D02*
X14179587Y-22903150D01*
X14179587Y-22903150D02*
X14198634Y-22874579D01*
X14198634Y-22874579D02*
X14208158Y-22855531D01*
X14208158Y-22855531D02*
X14217682Y-22826960D01*
X14217682Y-22826960D02*
X14227206Y-22779341D01*
X14227206Y-22779341D02*
X14227206Y-22741246D01*
X14227206Y-22741246D02*
X14217682Y-22693627D01*
X14217682Y-22693627D02*
X14208158Y-22665055D01*
X14208158Y-22665055D02*
X14198634Y-22646008D01*
X14198634Y-22646008D02*
X14179587Y-22617436D01*
X14179587Y-22617436D02*
X14170063Y-22607912D01*
X14531968Y-22912674D02*
X14522444Y-22903150D01*
X14522444Y-22903150D02*
X14503396Y-22874579D01*
X14503396Y-22874579D02*
X14493873Y-22855531D01*
X14493873Y-22855531D02*
X14484349Y-22826960D01*
X14484349Y-22826960D02*
X14474825Y-22779341D01*
X14474825Y-22779341D02*
X14474825Y-22741246D01*
X14474825Y-22741246D02*
X14484349Y-22693627D01*
X14484349Y-22693627D02*
X14493873Y-22665055D01*
X14493873Y-22665055D02*
X14503396Y-22646008D01*
X14503396Y-22646008D02*
X14522444Y-22617436D01*
X14522444Y-22617436D02*
X14531968Y-22607912D01*
X14608158Y-22703150D02*
X14608158Y-22836484D01*
X14608158Y-22722198D02*
X14617682Y-22712674D01*
X14617682Y-22712674D02*
X14636730Y-22703150D01*
X14636730Y-22703150D02*
X14665301Y-22703150D01*
X14665301Y-22703150D02*
X14684349Y-22712674D01*
X14684349Y-22712674D02*
X14693873Y-22731722D01*
X14693873Y-22731722D02*
X14693873Y-22836484D01*
X14817682Y-22836484D02*
X14798634Y-22826960D01*
X14798634Y-22826960D02*
X14789111Y-22817436D01*
X14789111Y-22817436D02*
X14779587Y-22798388D01*
X14779587Y-22798388D02*
X14779587Y-22741246D01*
X14779587Y-22741246D02*
X14789111Y-22722198D01*
X14789111Y-22722198D02*
X14798634Y-22712674D01*
X14798634Y-22712674D02*
X14817682Y-22703150D01*
X14817682Y-22703150D02*
X14846254Y-22703150D01*
X14846254Y-22703150D02*
X14865301Y-22712674D01*
X14865301Y-22712674D02*
X14874825Y-22722198D01*
X14874825Y-22722198D02*
X14884349Y-22741246D01*
X14884349Y-22741246D02*
X14884349Y-22798388D01*
X14884349Y-22798388D02*
X14874825Y-22817436D01*
X14874825Y-22817436D02*
X14865301Y-22826960D01*
X14865301Y-22826960D02*
X14846254Y-22836484D01*
X14846254Y-22836484D02*
X14817682Y-22836484D01*
X14941492Y-22703150D02*
X15017682Y-22703150D01*
X14970063Y-22636484D02*
X14970063Y-22807912D01*
X14970063Y-22807912D02*
X14979587Y-22826960D01*
X14979587Y-22826960D02*
X14998634Y-22836484D01*
X14998634Y-22836484D02*
X15017682Y-22836484D01*
X15236730Y-22703150D02*
X15236730Y-22903150D01*
X15236730Y-22712674D02*
X15255777Y-22703150D01*
X15255777Y-22703150D02*
X15293873Y-22703150D01*
X15293873Y-22703150D02*
X15312920Y-22712674D01*
X15312920Y-22712674D02*
X15322444Y-22722198D01*
X15322444Y-22722198D02*
X15331968Y-22741246D01*
X15331968Y-22741246D02*
X15331968Y-22798388D01*
X15331968Y-22798388D02*
X15322444Y-22817436D01*
X15322444Y-22817436D02*
X15312920Y-22826960D01*
X15312920Y-22826960D02*
X15293873Y-22836484D01*
X15293873Y-22836484D02*
X15255777Y-22836484D01*
X15255777Y-22836484D02*
X15236730Y-22826960D01*
X15446254Y-22836484D02*
X15427206Y-22826960D01*
X15427206Y-22826960D02*
X15417682Y-22807912D01*
X15417682Y-22807912D02*
X15417682Y-22636484D01*
X15608158Y-22836484D02*
X15608158Y-22731722D01*
X15608158Y-22731722D02*
X15598635Y-22712674D01*
X15598635Y-22712674D02*
X15579587Y-22703150D01*
X15579587Y-22703150D02*
X15541492Y-22703150D01*
X15541492Y-22703150D02*
X15522444Y-22712674D01*
X15608158Y-22826960D02*
X15589111Y-22836484D01*
X15589111Y-22836484D02*
X15541492Y-22836484D01*
X15541492Y-22836484D02*
X15522444Y-22826960D01*
X15522444Y-22826960D02*
X15512920Y-22807912D01*
X15512920Y-22807912D02*
X15512920Y-22788865D01*
X15512920Y-22788865D02*
X15522444Y-22769817D01*
X15522444Y-22769817D02*
X15541492Y-22760293D01*
X15541492Y-22760293D02*
X15589111Y-22760293D01*
X15589111Y-22760293D02*
X15608158Y-22750769D01*
X15674825Y-22703150D02*
X15751015Y-22703150D01*
X15703396Y-22636484D02*
X15703396Y-22807912D01*
X15703396Y-22807912D02*
X15712920Y-22826960D01*
X15712920Y-22826960D02*
X15731968Y-22836484D01*
X15731968Y-22836484D02*
X15751015Y-22836484D01*
X15893873Y-22826960D02*
X15874825Y-22836484D01*
X15874825Y-22836484D02*
X15836730Y-22836484D01*
X15836730Y-22836484D02*
X15817682Y-22826960D01*
X15817682Y-22826960D02*
X15808158Y-22807912D01*
X15808158Y-22807912D02*
X15808158Y-22731722D01*
X15808158Y-22731722D02*
X15817682Y-22712674D01*
X15817682Y-22712674D02*
X15836730Y-22703150D01*
X15836730Y-22703150D02*
X15874825Y-22703150D01*
X15874825Y-22703150D02*
X15893873Y-22712674D01*
X15893873Y-22712674D02*
X15903396Y-22731722D01*
X15903396Y-22731722D02*
X15903396Y-22750769D01*
X15903396Y-22750769D02*
X15808158Y-22769817D01*
X16074825Y-22836484D02*
X16074825Y-22636484D01*
X16074825Y-22826960D02*
X16055777Y-22836484D01*
X16055777Y-22836484D02*
X16017682Y-22836484D01*
X16017682Y-22836484D02*
X15998635Y-22826960D01*
X15998635Y-22826960D02*
X15989111Y-22817436D01*
X15989111Y-22817436D02*
X15979587Y-22798388D01*
X15979587Y-22798388D02*
X15979587Y-22741246D01*
X15979587Y-22741246D02*
X15989111Y-22722198D01*
X15989111Y-22722198D02*
X15998635Y-22712674D01*
X15998635Y-22712674D02*
X16017682Y-22703150D01*
X16017682Y-22703150D02*
X16055777Y-22703150D01*
X16055777Y-22703150D02*
X16074825Y-22712674D01*
X16151016Y-22912674D02*
X16160539Y-22903150D01*
X16160539Y-22903150D02*
X16179587Y-22874579D01*
X16179587Y-22874579D02*
X16189111Y-22855531D01*
X16189111Y-22855531D02*
X16198635Y-22826960D01*
X16198635Y-22826960D02*
X16208158Y-22779341D01*
X16208158Y-22779341D02*
X16208158Y-22741246D01*
X16208158Y-22741246D02*
X16198635Y-22693627D01*
X16198635Y-22693627D02*
X16189111Y-22665055D01*
X16189111Y-22665055D02*
X16179587Y-22646008D01*
X16179587Y-22646008D02*
X16160539Y-22617436D01*
X16160539Y-22617436D02*
X16151016Y-22607912D01*
M02*
