%TF.GenerationSoftware,KiCad,Pcbnew,7.0.6*%
%TF.CreationDate,2023-12-09T00:20:43+01:00*%
%TF.ProjectId,MecProInverter,4d656350-726f-4496-9e76-65727465722e,rev?*%
%TF.SameCoordinates,Original*%
%TF.FileFunction,Component,L4,Bot*%
%TF.FilePolarity,Positive*%
%FSLAX46Y46*%
G04 Gerber Fmt 4.6, Leading zero omitted, Abs format (unit mm)*
G04 Created by KiCad (PCBNEW 7.0.6) date 2023-12-09 00:20:43*
%MOMM*%
%LPD*%
G01*
G04 APERTURE LIST*
%TA.AperFunction,ComponentMain*%
%ADD10C,0.300000*%
%TD*%
%TA.AperFunction,ComponentOutline,Footprint*%
%ADD11C,0.100000*%
%TD*%
%TA.AperFunction,ComponentPin*%
%ADD12P,0.360000X4X0.000000*%
%TD*%
%TA.AperFunction,ComponentPin*%
%ADD13C,0.000000*%
%TD*%
%TA.AperFunction,ComponentOutline,Courtyard*%
%ADD14C,0.100000*%
%TD*%
G04 APERTURE END LIST*
D10*
%TO.C,"R1"*%
%TO.CFtp,"PWR220T-20"*%
%TO.CVal,"14.4"*%
%TO.CLbN,"Own_Footprint"*%
%TO.CMnt,TH*%
%TO.CRot,180*%
X100250000Y-187375000D03*
D11*
X99350000Y-188275000D02*
X99350000Y-186475000D01*
X106230000Y-186475000D01*
X106230000Y-188275000D01*
X99350000Y-188275000D01*
D12*
%TO.P,"R1","1"*%
X100250000Y-187375000D03*
D13*
%TO.P,"R1","2"*%
X105330000Y-187375000D03*
%TD*%
D10*
%TO.C,"C2"*%
%TO.CFtp,"ESMQ351VSN102MA50S"*%
%TO.CVal,"1mF"*%
%TO.CLbN,"Own_Footprint"*%
%TO.CMnt,TH*%
%TO.CRot,-90*%
X171000000Y-112666750D03*
D14*
X183310716Y-94912151D02*
X193754599Y-105356034D01*
X193754599Y-119977466D01*
X183310716Y-130421349D01*
X168689285Y-130421349D01*
X158245401Y-119977466D01*
X158245401Y-105356034D01*
X168689285Y-94912151D01*
X183310716Y-94912151D01*
D12*
%TO.P,"C2","1"*%
X171000000Y-112666750D03*
D13*
%TO.P,"C2","2"*%
X181000000Y-112666750D03*
%TD*%
D10*
%TO.C,"C1"*%
%TO.CFtp,"ESMQ351VSN102MA50S"*%
%TO.CVal,"1mF"*%
%TO.CLbN,"Own_Footprint"*%
%TO.CMnt,TH*%
%TO.CRot,-90*%
X171000000Y-74666750D03*
D14*
X183310716Y-56912151D02*
X193754599Y-67356034D01*
X193754599Y-81977466D01*
X183310716Y-92421349D01*
X168689285Y-92421349D01*
X158245401Y-81977466D01*
X158245401Y-67356034D01*
X168689285Y-56912151D01*
X183310716Y-56912151D01*
D12*
%TO.P,"C1","1"*%
X171000000Y-74666750D03*
D13*
%TO.P,"C1","2"*%
X181000000Y-74666750D03*
%TD*%
D10*
%TO.C,"C4"*%
%TO.CFtp,"ESMQ351VSN102MA50S"*%
%TO.CVal,"1mF"*%
%TO.CLbN,"Own_Footprint"*%
%TO.CMnt,TH*%
%TO.CRot,-90*%
X171000000Y-188333500D03*
D14*
X183310716Y-170578901D02*
X193754599Y-181022784D01*
X193754599Y-195644216D01*
X183310716Y-206088099D01*
X168689285Y-206088099D01*
X158245401Y-195644216D01*
X158245401Y-181022784D01*
X168689285Y-170578901D01*
X183310716Y-170578901D01*
D12*
%TO.P,"C4","1"*%
X171000000Y-188333500D03*
D13*
%TO.P,"C4","2"*%
X181000000Y-188333500D03*
%TD*%
D10*
%TO.C,"C3"*%
%TO.CFtp,"ESMQ351VSN102MA50S"*%
%TO.CVal,"1mF"*%
%TO.CLbN,"Own_Footprint"*%
%TO.CMnt,TH*%
%TO.CRot,-90*%
X171000000Y-150333500D03*
D14*
X183310716Y-132578901D02*
X193754599Y-143022784D01*
X193754599Y-157644216D01*
X183310716Y-168088099D01*
X168689285Y-168088099D01*
X158245401Y-157644216D01*
X158245401Y-143022784D01*
X168689285Y-132578901D01*
X183310716Y-132578901D01*
D12*
%TO.P,"C3","1"*%
X171000000Y-150333500D03*
D13*
%TO.P,"C3","2"*%
X181000000Y-150333500D03*
%TD*%
D10*
%TO.C,"U13"*%
%TO.CFtp,"DIP-24_L36.0-W21.0-P1.60-LS28.6-TL"*%
%TO.CVal,"IKCM20L60GA"*%
%TO.CLbN,"footprint"*%
%TO.CMnt,TH*%
%TO.CRot,0*%
X133000000Y-155000000D03*
D11*
X150555118Y-139900025D02*
X150555118Y-170299975D01*
X115444882Y-170299975D01*
X115444882Y-139900025D01*
X150555118Y-139900025D01*
D12*
%TO.P,"U13","1","VS(U)"*%
X148100203Y-140700025D03*
D13*
%TO.P,"U13","2","VB(U)"*%
X146099949Y-143700025D03*
%TO.P,"U13","3","VS(V)"*%
X142700152Y-140700025D03*
%TO.P,"U13","4","VB(V)"*%
X141099949Y-143700025D03*
%TO.P,"U13","5","VS(W)"*%
X137699898Y-140700025D03*
%TO.P,"U13","6","VB(W)"*%
X136099949Y-143700025D03*
%TO.P,"U13","7","HIN(U)"*%
X132699898Y-140700025D03*
%TO.P,"U13","8","HIN(V)"*%
X131099949Y-143700025D03*
%TO.P,"U13","9","HIN(W)"*%
X129500000Y-140700025D03*
%TO.P,"U13","10","LIN(U)"*%
X127900051Y-143700025D03*
%TO.P,"U13","11","LIN(V)"*%
X126300102Y-140700025D03*
%TO.P,"U13","12","LIN(W)"*%
X124699898Y-143700025D03*
%TO.P,"U13","13","VDD"*%
X123099949Y-140700025D03*
%TO.P,"U13","14","VFO"*%
X121500000Y-143700025D03*
%TO.P,"U13","15","ITRIP"*%
X119900051Y-140700025D03*
%TO.P,"U13","16","VSS"*%
X117900051Y-143700025D03*
%TO.P,"U13","17","NW"*%
X116444882Y-169299975D03*
%TO.P,"U13","18","NV"*%
X121175133Y-169299975D03*
%TO.P,"U13","19","NU"*%
X125905131Y-169299975D03*
%TO.P,"U13","20","W"*%
X130635128Y-169299975D03*
%TO.P,"U13","21","V"*%
X135365126Y-169299975D03*
%TO.P,"U13","22","U"*%
X140095123Y-169299975D03*
%TO.P,"U13","23","P"*%
X144825121Y-169299975D03*
%TO.P,"U13","24","NC"*%
X149555118Y-169299975D03*
%TD*%
D10*
%TO.C,"U4"*%
%TO.CFtp,"LVE2560E"*%
%TO.CVal," LVE2560E"*%
%TO.CLbN,"Own_Footprint"*%
%TO.CMnt,TH*%
%TO.CRot,90*%
X142000000Y-178000000D03*
D11*
X140750000Y-176750000D02*
X143250000Y-176750000D01*
X143250000Y-204250000D01*
X140750000Y-204250000D01*
X140750000Y-176750000D01*
D12*
%TO.P,"U4","1","VDD"*%
X142000000Y-178000000D03*
D13*
%TO.P,"U4","2","~Phase"*%
X142000000Y-185500000D03*
%TO.P,"U4","3","~Neutral"*%
X142000000Y-193000000D03*
%TO.P,"U4","4","GND"*%
X142000000Y-203000000D03*
%TD*%
M02*
