%TF.GenerationSoftware,KiCad,Pcbnew,7.0.8*%
%TF.CreationDate,2023-12-07T15:12:16+01:00*%
%TF.ProjectId,MecProInverter,4d656350-726f-4496-9e76-65727465722e,rev?*%
%TF.SameCoordinates,Original*%
%TF.FileFunction,Copper,L1,Top*%
%TF.FilePolarity,Positive*%
%FSLAX46Y46*%
G04 Gerber Fmt 4.6, Leading zero omitted, Abs format (unit mm)*
G04 Created by KiCad (PCBNEW 7.0.8) date 2023-12-07 15:12:16*
%MOMM*%
%LPD*%
G01*
G04 APERTURE LIST*
G04 Aperture macros list*
%AMRoundRect*
0 Rectangle with rounded corners*
0 $1 Rounding radius*
0 $2 $3 $4 $5 $6 $7 $8 $9 X,Y pos of 4 corners*
0 Add a 4 corners polygon primitive as box body*
4,1,4,$2,$3,$4,$5,$6,$7,$8,$9,$2,$3,0*
0 Add four circle primitives for the rounded corners*
1,1,$1+$1,$2,$3*
1,1,$1+$1,$4,$5*
1,1,$1+$1,$6,$7*
1,1,$1+$1,$8,$9*
0 Add four rect primitives between the rounded corners*
20,1,$1+$1,$2,$3,$4,$5,0*
20,1,$1+$1,$4,$5,$6,$7,0*
20,1,$1+$1,$6,$7,$8,$9,0*
20,1,$1+$1,$8,$9,$2,$3,0*%
%AMFreePoly0*
4,1,6,0.850038,-0.850038,-0.849987,-0.850038,-0.849987,0.499975,-0.499975,0.849987,0.850038,0.849987,0.850038,-0.850038,0.850038,-0.850038,$1*%
G04 Aperture macros list end*
%TA.AperFunction,SMDPad,CuDef*%
%ADD10RoundRect,0.225000X-0.250000X0.225000X-0.250000X-0.225000X0.250000X-0.225000X0.250000X0.225000X0*%
%TD*%
%TA.AperFunction,SMDPad,CuDef*%
%ADD11C,1.500000*%
%TD*%
%TA.AperFunction,SMDPad,CuDef*%
%ADD12RoundRect,0.225000X0.250000X-0.225000X0.250000X0.225000X-0.250000X0.225000X-0.250000X-0.225000X0*%
%TD*%
%TA.AperFunction,SMDPad,CuDef*%
%ADD13RoundRect,0.200000X0.200000X0.275000X-0.200000X0.275000X-0.200000X-0.275000X0.200000X-0.275000X0*%
%TD*%
%TA.AperFunction,SMDPad,CuDef*%
%ADD14RoundRect,0.218750X-0.256250X0.218750X-0.256250X-0.218750X0.256250X-0.218750X0.256250X0.218750X0*%
%TD*%
%TA.AperFunction,SMDPad,CuDef*%
%ADD15RoundRect,0.225000X-0.225000X-0.250000X0.225000X-0.250000X0.225000X0.250000X-0.225000X0.250000X0*%
%TD*%
%TA.AperFunction,SMDPad,CuDef*%
%ADD16RoundRect,0.200000X0.275000X-0.200000X0.275000X0.200000X-0.275000X0.200000X-0.275000X-0.200000X0*%
%TD*%
%TA.AperFunction,SMDPad,CuDef*%
%ADD17RoundRect,0.218750X-0.218750X-0.256250X0.218750X-0.256250X0.218750X0.256250X-0.218750X0.256250X0*%
%TD*%
%TA.AperFunction,SMDPad,CuDef*%
%ADD18RoundRect,0.225000X0.225000X0.250000X-0.225000X0.250000X-0.225000X-0.250000X0.225000X-0.250000X0*%
%TD*%
%TA.AperFunction,ComponentPad*%
%ADD19C,2.000000*%
%TD*%
%TA.AperFunction,ComponentPad*%
%ADD20R,1.500000X1.500000*%
%TD*%
%TA.AperFunction,ComponentPad*%
%ADD21C,1.500000*%
%TD*%
%TA.AperFunction,SMDPad,CuDef*%
%ADD22RoundRect,0.200000X-0.275000X0.200000X-0.275000X-0.200000X0.275000X-0.200000X0.275000X0.200000X0*%
%TD*%
%TA.AperFunction,SMDPad,CuDef*%
%ADD23R,0.532004X1.072009*%
%TD*%
%TA.AperFunction,SMDPad,CuDef*%
%ADD24R,1.900000X1.300000*%
%TD*%
%TA.AperFunction,SMDPad,CuDef*%
%ADD25RoundRect,0.250000X0.312500X0.625000X-0.312500X0.625000X-0.312500X-0.625000X0.312500X-0.625000X0*%
%TD*%
%TA.AperFunction,ComponentPad*%
%ADD26R,1.700000X1.700000*%
%TD*%
%TA.AperFunction,ComponentPad*%
%ADD27O,1.700000X1.700000*%
%TD*%
%TA.AperFunction,SMDPad,CuDef*%
%ADD28RoundRect,0.250000X0.625000X-0.312500X0.625000X0.312500X-0.625000X0.312500X-0.625000X-0.312500X0*%
%TD*%
%TA.AperFunction,SMDPad,CuDef*%
%ADD29RoundRect,0.150000X-0.150000X0.587500X-0.150000X-0.587500X0.150000X-0.587500X0.150000X0.587500X0*%
%TD*%
%TA.AperFunction,ComponentPad*%
%ADD30C,3.600000*%
%TD*%
%TA.AperFunction,ConnectorPad*%
%ADD31C,5.600000*%
%TD*%
%TA.AperFunction,SMDPad,CuDef*%
%ADD32R,1.500000X0.900000*%
%TD*%
%TA.AperFunction,SMDPad,CuDef*%
%ADD33RoundRect,0.250000X-0.625000X0.312500X-0.625000X-0.312500X0.625000X-0.312500X0.625000X0.312500X0*%
%TD*%
%TA.AperFunction,ComponentPad*%
%ADD34O,3.000000X2.000000*%
%TD*%
%TA.AperFunction,ComponentPad*%
%ADD35R,2.000000X3.000000*%
%TD*%
%TA.AperFunction,ComponentPad*%
%ADD36O,2.000000X3.000000*%
%TD*%
%TA.AperFunction,SMDPad,CuDef*%
%ADD37R,1.070003X0.532004*%
%TD*%
%TA.AperFunction,SMDPad,CuDef*%
%ADD38RoundRect,0.225000X0.225000X0.375000X-0.225000X0.375000X-0.225000X-0.375000X0.225000X-0.375000X0*%
%TD*%
%TA.AperFunction,SMDPad,CuDef*%
%ADD39RoundRect,0.200000X-0.200000X-0.275000X0.200000X-0.275000X0.200000X0.275000X-0.200000X0.275000X0*%
%TD*%
%TA.AperFunction,ComponentPad*%
%ADD40R,2.600000X2.600000*%
%TD*%
%TA.AperFunction,ComponentPad*%
%ADD41C,2.600000*%
%TD*%
%TA.AperFunction,SMDPad,CuDef*%
%ADD42RoundRect,0.225000X-0.225000X-0.375000X0.225000X-0.375000X0.225000X0.375000X-0.225000X0.375000X0*%
%TD*%
%TA.AperFunction,SMDPad,CuDef*%
%ADD43R,1.229997X1.359995*%
%TD*%
%TA.AperFunction,SMDPad,CuDef*%
%ADD44R,1.072009X0.532004*%
%TD*%
%TA.AperFunction,SMDPad,CuDef*%
%ADD45RoundRect,0.218750X0.218750X0.256250X-0.218750X0.256250X-0.218750X-0.256250X0.218750X-0.256250X0*%
%TD*%
%TA.AperFunction,ComponentPad*%
%ADD46R,2.200000X2.200000*%
%TD*%
%TA.AperFunction,ComponentPad*%
%ADD47C,2.200000*%
%TD*%
%TA.AperFunction,SMDPad,CuDef*%
%ADD48R,0.600000X1.100000*%
%TD*%
%TA.AperFunction,SMDPad,CuDef*%
%ADD49R,0.300000X1.100000*%
%TD*%
%TA.AperFunction,ComponentPad*%
%ADD50O,1.200000X2.000000*%
%TD*%
%TA.AperFunction,ComponentPad*%
%ADD51O,1.200000X1.800000*%
%TD*%
%TA.AperFunction,SMDPad,CuDef*%
%ADD52RoundRect,0.150000X0.150000X-0.875000X0.150000X0.875000X-0.150000X0.875000X-0.150000X-0.875000X0*%
%TD*%
%TA.AperFunction,SMDPad,CuDef*%
%ADD53O,0.588011X2.045009*%
%TD*%
%TA.AperFunction,SMDPad,CuDef*%
%ADD54RoundRect,0.218750X0.256250X-0.218750X0.256250X0.218750X-0.256250X0.218750X-0.256250X-0.218750X0*%
%TD*%
%TA.AperFunction,SMDPad,CuDef*%
%ADD55O,1.864999X0.629997*%
%TD*%
%TA.AperFunction,SMDPad,CuDef*%
%ADD56R,0.800000X0.280010*%
%TD*%
%TA.AperFunction,SMDPad,CuDef*%
%ADD57R,0.280010X0.800000*%
%TD*%
%TA.AperFunction,SMDPad,CuDef*%
%ADD58FreePoly0,0.000000*%
%TD*%
%TA.AperFunction,ComponentPad*%
%ADD59C,1.800000*%
%TD*%
%TA.AperFunction,ComponentPad*%
%ADD60O,2.800000X3.500000*%
%TD*%
%TA.AperFunction,SMDPad,CuDef*%
%ADD61R,3.500000X2.950000*%
%TD*%
%TA.AperFunction,SMDPad,CuDef*%
%ADD62O,0.629997X1.864999*%
%TD*%
%TA.AperFunction,SMDPad,CuDef*%
%ADD63R,0.800000X0.400000*%
%TD*%
%TA.AperFunction,SMDPad,CuDef*%
%ADD64R,0.400000X0.800000*%
%TD*%
%TA.AperFunction,SMDPad,CuDef*%
%ADD65R,0.800000X0.800000*%
%TD*%
%TA.AperFunction,SMDPad,CuDef*%
%ADD66R,1.200000X1.200000*%
%TD*%
%TA.AperFunction,SMDPad,CuDef*%
%ADD67RoundRect,0.225000X-0.375000X0.225000X-0.375000X-0.225000X0.375000X-0.225000X0.375000X0.225000X0*%
%TD*%
%TA.AperFunction,ComponentPad*%
%ADD68R,3.000000X3.000000*%
%TD*%
%TA.AperFunction,ComponentPad*%
%ADD69C,3.000000*%
%TD*%
%TA.AperFunction,ComponentPad*%
%ADD70R,1.800000X1.800000*%
%TD*%
%TA.AperFunction,ComponentPad*%
%ADD71R,2.794000X2.794000*%
%TD*%
%TA.AperFunction,ComponentPad*%
%ADD72C,2.794000*%
%TD*%
%TA.AperFunction,ComponentPad*%
%ADD73C,1.600000*%
%TD*%
%TA.AperFunction,ComponentPad*%
%ADD74C,2.500000*%
%TD*%
%TA.AperFunction,ViaPad*%
%ADD75C,0.800000*%
%TD*%
%TA.AperFunction,ViaPad*%
%ADD76C,0.450000*%
%TD*%
%TA.AperFunction,ViaPad*%
%ADD77C,2.000000*%
%TD*%
%TA.AperFunction,Conductor*%
%ADD78C,0.250000*%
%TD*%
%TA.AperFunction,Conductor*%
%ADD79C,0.400000*%
%TD*%
%TA.AperFunction,Conductor*%
%ADD80C,1.250000*%
%TD*%
G04 APERTURE END LIST*
D10*
%TO.P,C49,1*%
%TO.N,VSS*%
X195000000Y-204975000D03*
%TO.P,C49,2*%
%TO.N,GNDS*%
X195000000Y-206525000D03*
%TD*%
D11*
%TO.P,TP1,1,1*%
%TO.N,Net-(R53-Pad2)*%
X142250000Y-79750000D03*
%TD*%
D12*
%TO.P,C23,1*%
%TO.N,+3.3V*%
X137250000Y-61775000D03*
%TO.P,C23,2*%
%TO.N,GND*%
X137250000Y-60225000D03*
%TD*%
D13*
%TO.P,R19,1*%
%TO.N,Net-(Q2-G)*%
X101500000Y-104750000D03*
%TO.P,R19,2*%
%TO.N,GND*%
X99850000Y-104750000D03*
%TD*%
D14*
%TO.P,D8,1,K*%
%TO.N,/Power/CURRENT_AC*%
X128000000Y-162462500D03*
%TO.P,D8,2,A*%
%TO.N,Net-(D8-A)*%
X128000000Y-164037500D03*
%TD*%
D15*
%TO.P,C35,1*%
%TO.N,+3.3V*%
X167627000Y-195326000D03*
%TO.P,C35,2*%
%TO.N,GND*%
X169177000Y-195326000D03*
%TD*%
D10*
%TO.P,C25,1*%
%TO.N,+3.3V*%
X147700000Y-95825000D03*
%TO.P,C25,2*%
%TO.N,GND*%
X147700000Y-97375000D03*
%TD*%
D12*
%TO.P,C22,1*%
%TO.N,VS*%
X149600000Y-102175000D03*
%TO.P,C22,2*%
%TO.N,GND*%
X149600000Y-100625000D03*
%TD*%
D16*
%TO.P,R57,1*%
%TO.N,+15V*%
X99250000Y-112825000D03*
%TO.P,R57,2*%
%TO.N,Net-(Q2-D)*%
X99250000Y-111175000D03*
%TD*%
D17*
%TO.P,D9,1,K*%
%TO.N,Net-(D9-K)*%
X136712500Y-189500000D03*
%TO.P,D9,2,A*%
%TO.N,Net-(D9-A)*%
X138287500Y-189500000D03*
%TD*%
D18*
%TO.P,C18,1*%
%TO.N,Net-(U13-VS(W))*%
X137675000Y-147500000D03*
%TO.P,C18,2*%
%TO.N,Net-(U13-VB(W))*%
X136125000Y-147500000D03*
%TD*%
D16*
%TO.P,R29,1*%
%TO.N,Net-(Fan1-Pad3)*%
X111500000Y-105575000D03*
%TO.P,R29,2*%
%TO.N,/Control/FAN1_PWM_FB*%
X111500000Y-103925000D03*
%TD*%
D19*
%TO.P,Fan1,1*%
%TO.N,GND*%
X98000000Y-122540005D03*
%TO.P,Fan1,2*%
%TO.N,Net-(D5-K)*%
X98000000Y-120000000D03*
%TO.P,Fan1,3*%
%TO.N,Net-(Fan1-Pad3)*%
X98000000Y-117459995D03*
%TD*%
D20*
%TO.P,U12,1,+Vin*%
%TO.N,+5VD*%
X154750000Y-205500000D03*
D21*
%TO.P,U12,2,-Vin*%
%TO.N,GNDD*%
X154750000Y-202960000D03*
%TO.P,U12,5,-Vout*%
%TO.N,GND*%
X154750000Y-195340000D03*
%TO.P,U12,7,+Vout*%
%TO.N,+5V*%
X154750000Y-190260000D03*
%TD*%
D22*
%TO.P,R26,1*%
%TO.N,I2C_SDA*%
X137250000Y-84175000D03*
%TO.P,R26,2*%
%TO.N,Net-(J5-Pin_1)*%
X137250000Y-85825000D03*
%TD*%
D23*
%TO.P,U20,1,1*%
%TO.N,/Control/SPI_CLK*%
X100050038Y-100899098D03*
%TO.P,U20,2,2*%
%TO.N,GND*%
X101000000Y-100899098D03*
%TO.P,U20,3,3*%
%TO.N,/Control/SPI_CS*%
X101949962Y-100899098D03*
%TO.P,U20,4,4*%
%TO.N,/Control/SPI_MISO*%
X101949962Y-98600902D03*
%TO.P,U20,5,5*%
%TO.N,+3.3V*%
X101000000Y-98600902D03*
%TO.P,U20,6,6*%
%TO.N,/Control/SPI_MOSI*%
X100050038Y-98600902D03*
%TD*%
D10*
%TO.P,C11,1*%
%TO.N,Net-(U13-HIN(W))*%
X129500000Y-146000000D03*
%TO.P,C11,2*%
%TO.N,GND*%
X129500000Y-147550000D03*
%TD*%
%TO.P,C5,1*%
%TO.N,/Control/RGBLED*%
X177800000Y-64125000D03*
%TO.P,C5,2*%
%TO.N,GND*%
X177800000Y-65675000D03*
%TD*%
D13*
%TO.P,R23,1*%
%TO.N,+3.3V*%
X122075000Y-58750000D03*
%TO.P,R23,2*%
%TO.N,Net-(U1-EN)*%
X120425000Y-58750000D03*
%TD*%
D24*
%TO.P,SW2,1,1*%
%TO.N,+3.3V*%
X114799924Y-72749987D03*
%TO.P,SW2,2,2*%
%TO.N,unconnected-(SW2-Pad2)*%
X123199975Y-72749987D03*
%TO.P,SW2,3,3*%
%TO.N,unconnected-(SW2-Pad3)*%
X114799924Y-77249860D03*
%TO.P,SW2,4,4*%
%TO.N,Net-(R21-Pad1)*%
X123199975Y-77249860D03*
%TD*%
D25*
%TO.P,R64,1*%
%TO.N,Net-(R46-Pad2)*%
X144462500Y-153750000D03*
%TO.P,R64,2*%
%TO.N,Net-(D11-A)*%
X141537500Y-153750000D03*
%TD*%
D23*
%TO.P,U14,1,1*%
%TO.N,unconnected-(U14-Pad1)*%
X162300038Y-206149098D03*
%TO.P,U14,2,2*%
%TO.N,GNDD*%
X163250000Y-206149098D03*
%TO.P,U14,3,3*%
%TO.N,unconnected-(U14-Pad3)*%
X164199962Y-206149098D03*
%TO.P,U14,4,4*%
%TO.N,Net-(U2-UD+)*%
X164199962Y-203850902D03*
%TO.P,U14,5,5*%
%TO.N,+5VD*%
X163250000Y-203850902D03*
%TO.P,U14,6,6*%
%TO.N,Net-(U2-UD-)*%
X162300038Y-203850902D03*
%TD*%
D11*
%TO.P,TP2,1,1*%
%TO.N,Net-(R54-Pad2)*%
X144750000Y-82000000D03*
%TD*%
D16*
%TO.P,R54,1*%
%TO.N,Net-(J5-Pin_4)*%
X144750000Y-85825000D03*
%TO.P,R54,2*%
%TO.N,Net-(R54-Pad2)*%
X144750000Y-84175000D03*
%TD*%
%TO.P,R4,1*%
%TO.N,I2C_SDA*%
X133000000Y-75575000D03*
%TO.P,R4,2*%
%TO.N,Net-(U1-IO8)*%
X133000000Y-73925000D03*
%TD*%
D26*
%TO.P,J7,1,Pin_1*%
%TO.N,GND*%
X96000000Y-111700000D03*
D27*
%TO.P,J7,2,Pin_2*%
%TO.N,+15V*%
X96000000Y-109160000D03*
%TO.P,J7,3,Pin_3*%
%TO.N,+3.3V*%
X96000000Y-106620000D03*
%TO.P,J7,4,Pin_4*%
%TO.N,/Control/SPI_CS*%
X96000000Y-104080000D03*
%TO.P,J7,5,Pin_5*%
%TO.N,/Control/SPI_CLK*%
X96000000Y-101540000D03*
%TO.P,J7,6,Pin_6*%
%TO.N,/Control/SPI_MOSI*%
X96000000Y-99000000D03*
%TO.P,J7,7,Pin_7*%
%TO.N,/Control/SPI_MISO*%
X96000000Y-96460000D03*
%TO.P,J7,8,Pin_8*%
%TO.N,/Control/UART_TX*%
X96000000Y-93920000D03*
%TO.P,J7,9,Pin_9*%
%TO.N,/Control/UART_RX*%
X96000000Y-91380000D03*
%TO.P,J7,10,Pin_10*%
%TO.N,Net-(J7-Pin_10)*%
X96000000Y-88840000D03*
%TO.P,J7,11,Pin_11*%
%TO.N,Net-(J7-Pin_11)*%
X96000000Y-86300000D03*
%TD*%
D15*
%TO.P,C54,1*%
%TO.N,Net-(U8-AIN0{slash}GPIO0)*%
X131300000Y-150250000D03*
%TO.P,C54,2*%
%TO.N,GND*%
X132850000Y-150250000D03*
%TD*%
D28*
%TO.P,R63,1*%
%TO.N,Net-(J8-Pin_1)*%
X144250000Y-163675000D03*
%TO.P,R63,2*%
%TO.N,Net-(R46-Pad1)*%
X144250000Y-160750000D03*
%TD*%
D12*
%TO.P,C45,1*%
%TO.N,GND*%
X120500000Y-201275000D03*
%TO.P,C45,2*%
%TO.N,+3.3V*%
X120500000Y-199725000D03*
%TD*%
D29*
%TO.P,Q1,1,G*%
%TO.N,Net-(Q1-G)*%
X109400000Y-148000000D03*
%TO.P,Q1,2,S*%
%TO.N,GND*%
X107500000Y-148000000D03*
%TO.P,Q1,3,D*%
%TO.N,Net-(D4-A)*%
X108450000Y-149875000D03*
%TD*%
D12*
%TO.P,C30,1*%
%TO.N,/Control/SW3OUT*%
X125500000Y-85025000D03*
%TO.P,C30,2*%
%TO.N,GND*%
X125500000Y-83475000D03*
%TD*%
D13*
%TO.P,R62,1*%
%TO.N,Net-(U8-AIN1{slash}GPIO1)*%
X126575000Y-155750000D03*
%TO.P,R62,2*%
%TO.N,GND*%
X124925000Y-155750000D03*
%TD*%
D30*
%TO.P,H1,1,1*%
%TO.N,Earth*%
X99000000Y-216000000D03*
D31*
X99000000Y-216000000D03*
%TD*%
D15*
%TO.P,C56,1*%
%TO.N,GND*%
X126475000Y-161000000D03*
%TO.P,C56,2*%
%TO.N,/Power/CURRENT_AC*%
X128025000Y-161000000D03*
%TD*%
D32*
%TO.P,D3,1,VDD*%
%TO.N,+3.3V*%
X170550000Y-63350000D03*
%TO.P,D3,2,DOUT*%
%TO.N,unconnected-(D3-DOUT-Pad2)*%
X170550000Y-66650000D03*
%TO.P,D3,3,VSS*%
%TO.N,GND*%
X175450000Y-66650000D03*
%TO.P,D3,4,DIN*%
%TO.N,/Control/RGBLED*%
X175450000Y-63350000D03*
%TD*%
D16*
%TO.P,R49,1*%
%TO.N,Net-(J3-Pin_1)*%
X181500000Y-212075000D03*
%TO.P,R49,2*%
%TO.N,Net-(U15-VIA)*%
X181500000Y-210425000D03*
%TD*%
D22*
%TO.P,R50,1*%
%TO.N,Net-(U15-VOB)*%
X183000000Y-210425000D03*
%TO.P,R50,2*%
%TO.N,Net-(J3-Pin_2)*%
X183000000Y-212075000D03*
%TD*%
D33*
%TO.P,R31,1*%
%TO.N,Net-(U18-D)*%
X103000000Y-115037500D03*
%TO.P,R31,2*%
%TO.N,Net-(D5-K)*%
X103000000Y-117962500D03*
%TD*%
D11*
%TO.P,TP3,1,1*%
%TO.N,Net-(R55-Pad2)*%
X147250000Y-79750000D03*
%TD*%
D34*
%TO.P,K2,11*%
%TO.N,Net-(U4-~Phase)*%
X107000000Y-176650000D03*
X99500000Y-176650000D03*
%TO.P,K2,12*%
%TO.N,unconnected-(K2-Pad12)*%
X107000000Y-171610000D03*
X99500000Y-171610000D03*
%TO.P,K2,14*%
%TO.N,/Power/AC_L*%
X107000000Y-181690000D03*
X99500000Y-181690000D03*
D35*
%TO.P,K2,A1*%
%TO.N,Net-(D4-K)*%
X99500000Y-156350000D03*
D36*
%TO.P,K2,A2*%
%TO.N,Net-(D4-A)*%
X107000000Y-156350000D03*
%TD*%
D19*
%TO.P,Fan2,1*%
%TO.N,GND*%
X98000000Y-144540005D03*
%TO.P,Fan2,2*%
%TO.N,Net-(D5-K)*%
X98000000Y-142000000D03*
%TO.P,Fan2,3*%
%TO.N,Net-(Fan2-Pad3)*%
X98000000Y-139459995D03*
%TD*%
D22*
%TO.P,R14,1*%
%TO.N,+15V*%
X148000000Y-214425000D03*
%TO.P,R14,2*%
%TO.N,Net-(D2-A)*%
X148000000Y-216075000D03*
%TD*%
D37*
%TO.P,U18,1,G*%
%TO.N,Net-(Q2-D)*%
X101009779Y-111050038D03*
%TO.P,U18,2,S*%
%TO.N,+15V*%
X101009779Y-112949962D03*
%TO.P,U18,3,D*%
%TO.N,Net-(U18-D)*%
X102990221Y-112000000D03*
%TD*%
D38*
%TO.P,D6,1,K*%
%TO.N,VS*%
X139400000Y-105000000D03*
%TO.P,D6,2,A*%
%TO.N,+15V*%
X136100000Y-105000000D03*
%TD*%
D39*
%TO.P,R66,1*%
%TO.N,Net-(U3-CC2)*%
X165175000Y-211000000D03*
%TO.P,R66,2*%
%TO.N,GNDD*%
X166825000Y-211000000D03*
%TD*%
D24*
%TO.P,SW1,1,1*%
%TO.N,+3.3V*%
X114799924Y-61749987D03*
%TO.P,SW1,2,2*%
%TO.N,unconnected-(SW1-Pad2)*%
X123199975Y-61749987D03*
%TO.P,SW1,3,3*%
%TO.N,unconnected-(SW1-Pad3)*%
X114799924Y-66249860D03*
%TO.P,SW1,4,4*%
%TO.N,Net-(R20-Pad1)*%
X123199975Y-66249860D03*
%TD*%
D16*
%TO.P,R8,1*%
%TO.N,Net-(U13-LIN(U))*%
X128000000Y-138825000D03*
%TO.P,R8,2*%
%TO.N,LINU*%
X128000000Y-137175000D03*
%TD*%
D40*
%TO.P,J4,1,Pin_1*%
%TO.N,GND*%
X128500000Y-215500000D03*
D41*
%TO.P,J4,2,Pin_2*%
%TO.N,/Power/W*%
X133500000Y-215500000D03*
%TO.P,J4,3,Pin_3*%
%TO.N,/Power/V*%
X138500000Y-215500000D03*
%TO.P,J4,4,Pin_4*%
%TO.N,/Power/U*%
X143500000Y-215500000D03*
%TD*%
D13*
%TO.P,R11,1*%
%TO.N,Net-(U5-VFB)*%
X151125000Y-93600000D03*
%TO.P,R11,2*%
%TO.N,+3.3V*%
X149475000Y-93600000D03*
%TD*%
D18*
%TO.P,C41,1*%
%TO.N,GND*%
X138275000Y-187750000D03*
%TO.P,C41,2*%
%TO.N,Net-(D9-K)*%
X136725000Y-187750000D03*
%TD*%
D42*
%TO.P,D4,1,K*%
%TO.N,Net-(D4-K)*%
X101800000Y-149687500D03*
%TO.P,D4,2,A*%
%TO.N,Net-(D4-A)*%
X105100000Y-149687500D03*
%TD*%
D22*
%TO.P,R51,1*%
%TO.N,Net-(U16-VIA)*%
X184500000Y-210425000D03*
%TO.P,R51,2*%
%TO.N,Net-(J3-Pin_3)*%
X184500000Y-212075000D03*
%TD*%
D30*
%TO.P,H6,1,1*%
%TO.N,Earth*%
X193000000Y-58000000D03*
D31*
X193000000Y-58000000D03*
%TD*%
D12*
%TO.P,C38,1*%
%TO.N,GND*%
X134750000Y-159750000D03*
%TO.P,C38,2*%
%TO.N,+3.3V*%
X134750000Y-158200000D03*
%TD*%
D39*
%TO.P,R35,1*%
%TO.N,Net-(U8-DECAP)*%
X132175000Y-162250000D03*
%TO.P,R35,2*%
%TO.N,Net-(U8-ADDR)*%
X133825000Y-162250000D03*
%TD*%
D12*
%TO.P,C43,1*%
%TO.N,GND*%
X138682499Y-193430004D03*
%TO.P,C43,2*%
%TO.N,+3.3V*%
X138682499Y-191880004D03*
%TD*%
D39*
%TO.P,R41,1*%
%TO.N,+3.3V*%
X114675000Y-138500000D03*
%TO.P,R41,2*%
%TO.N,Net-(U13-ITRIP)*%
X116325000Y-138500000D03*
%TD*%
D15*
%TO.P,C24,1*%
%TO.N,+3.3V*%
X155350000Y-97900000D03*
%TO.P,C24,2*%
%TO.N,Net-(U5-VBST)*%
X156900000Y-97900000D03*
%TD*%
D18*
%TO.P,C55,1*%
%TO.N,Net-(D11-K)*%
X139800000Y-157750000D03*
%TO.P,C55,2*%
%TO.N,GND*%
X138250000Y-157750000D03*
%TD*%
D43*
%TO.P,U7,1,1*%
%TO.N,GND*%
X115315088Y-55750000D03*
%TO.P,U7,2,2*%
%TO.N,Net-(U1-EN)*%
X119684912Y-55750000D03*
%TD*%
D44*
%TO.P,U5,1,GND*%
%TO.N,GND*%
X152950902Y-99650038D03*
%TO.P,U5,2,SW*%
%TO.N,Net-(U5-SW)*%
X152950902Y-100600000D03*
%TO.P,U5,3,VIN*%
%TO.N,VS*%
X152950902Y-101549962D03*
%TO.P,U5,4,VFB*%
%TO.N,Net-(U5-VFB)*%
X155249098Y-101549962D03*
%TO.P,U5,5,EN*%
%TO.N,VS*%
X155249098Y-100600000D03*
%TO.P,U5,6,VBST*%
%TO.N,Net-(U5-VBST)*%
X155249098Y-99650038D03*
%TD*%
D22*
%TO.P,R17,1*%
%TO.N,GND*%
X127250000Y-83425000D03*
%TO.P,R17,2*%
%TO.N,/Control/SW3OUT*%
X127250000Y-85075000D03*
%TD*%
D18*
%TO.P,C31,1*%
%TO.N,Net-(U1-IO0)*%
X111525000Y-58750000D03*
%TO.P,C31,2*%
%TO.N,GND*%
X109975000Y-58750000D03*
%TD*%
D16*
%TO.P,R10,1*%
%TO.N,Net-(U13-LIN(W))*%
X124500000Y-138825000D03*
%TO.P,R10,2*%
%TO.N,LINW*%
X124500000Y-137175000D03*
%TD*%
D39*
%TO.P,R40,1*%
%TO.N,+3.3V*%
X119675000Y-138500000D03*
%TO.P,R40,2*%
%TO.N,VFO*%
X121325000Y-138500000D03*
%TD*%
D16*
%TO.P,R58,1*%
%TO.N,+3.3V*%
X113250000Y-105575000D03*
%TO.P,R58,2*%
%TO.N,/Control/FAN1_PWM_FB*%
X113250000Y-103925000D03*
%TD*%
D39*
%TO.P,R2,1*%
%TO.N,Net-(J7-Pin_11)*%
X99175000Y-86250000D03*
%TO.P,R2,2*%
%TO.N,I2C_SDA*%
X100825000Y-86250000D03*
%TD*%
D45*
%TO.P,D10,1,K*%
%TO.N,Net-(D10-K)*%
X123787500Y-200500000D03*
%TO.P,D10,2,A*%
%TO.N,Net-(D10-A)*%
X122212500Y-200500000D03*
%TD*%
D22*
%TO.P,R27,1*%
%TO.N,I2C_SCL*%
X139750000Y-84175000D03*
%TO.P,R27,2*%
%TO.N,Net-(J5-Pin_2)*%
X139750000Y-85825000D03*
%TD*%
D46*
%TO.P,J3,1,Pin_1*%
%TO.N,Net-(J3-Pin_1)*%
X173460000Y-217500000D03*
D47*
%TO.P,J3,2,Pin_2*%
%TO.N,Net-(J3-Pin_2)*%
X176000000Y-217500000D03*
%TO.P,J3,3,Pin_3*%
%TO.N,Net-(J3-Pin_3)*%
X178540000Y-217500000D03*
%TO.P,J3,4,Pin_4*%
%TO.N,Net-(J3-Pin_4)*%
X181080000Y-217500000D03*
%TO.P,J3,5,Pin_5*%
%TO.N,VSS*%
X183620000Y-217500000D03*
%TO.P,J3,6,Pin_6*%
%TO.N,GNDS*%
X186160000Y-217500000D03*
%TD*%
D12*
%TO.P,C37,1*%
%TO.N,+5VD*%
X169500000Y-215275000D03*
%TO.P,C37,2*%
%TO.N,GNDD*%
X169500000Y-213725000D03*
%TD*%
D30*
%TO.P,H5,1,1*%
%TO.N,Earth*%
X99000000Y-58000000D03*
D31*
X99000000Y-58000000D03*
%TD*%
D48*
%TO.P,U3,1,GND*%
%TO.N,GNDD*%
X159799975Y-213624968D03*
%TO.P,U3,2,VBUS*%
%TO.N,+5VD*%
X160600076Y-213624968D03*
D49*
%TO.P,U3,3,SBU2*%
%TO.N,unconnected-(U3-SBU2-Pad3)*%
X161250064Y-213624968D03*
%TO.P,U3,4,CC1*%
%TO.N,Net-(U3-CC1)*%
X161750191Y-213624968D03*
%TO.P,U3,5,DN2*%
%TO.N,Net-(U3-DN1)*%
X162250064Y-213624968D03*
%TO.P,U3,6,DP1*%
%TO.N,Net-(U3-DP1)*%
X162749936Y-213624968D03*
%TO.P,U3,7,DN1*%
%TO.N,Net-(U3-DN1)*%
X163250064Y-213624968D03*
%TO.P,U3,8,DP2*%
%TO.N,Net-(U3-DP1)*%
X163749936Y-213624968D03*
%TO.P,U3,9,SBU1*%
%TO.N,unconnected-(U3-SBU1-Pad9)*%
X164250064Y-213624968D03*
%TO.P,U3,10,CC2*%
%TO.N,Net-(U3-CC2)*%
X164750191Y-213624968D03*
D48*
%TO.P,U3,11,VBUS*%
%TO.N,+5VD*%
X165400178Y-213624968D03*
%TO.P,U3,12,GND*%
%TO.N,GNDD*%
X166200025Y-213624968D03*
D50*
%TO.P,U3,13,SHELL*%
X158675006Y-214174879D03*
D51*
X158675006Y-218375032D03*
D50*
%TO.P,U3,14,SHELL*%
X167324994Y-214174879D03*
D51*
X167324994Y-218375032D03*
%TD*%
D18*
%TO.P,C32,1*%
%TO.N,+15V*%
X99025000Y-114750000D03*
%TO.P,C32,2*%
%TO.N,GND*%
X97475000Y-114750000D03*
%TD*%
D52*
%TO.P,U2,1,VBUS1*%
%TO.N,+5VD*%
X167805000Y-206900000D03*
%TO.P,U2,2,GND1*%
%TO.N,GNDD*%
X169075000Y-206900000D03*
%TO.P,U2,3,VDD1*%
%TO.N,Net-(U2-PDEN)*%
X170345000Y-206900000D03*
%TO.P,U2,4,PDEN*%
X171615000Y-206900000D03*
%TO.P,U2,5,SPU*%
X172885000Y-206900000D03*
%TO.P,U2,6,UD-*%
%TO.N,Net-(U2-UD-)*%
X174155000Y-206900000D03*
%TO.P,U2,7,UD+*%
%TO.N,Net-(U2-UD+)*%
X175425000Y-206900000D03*
%TO.P,U2,8,GND1*%
%TO.N,GNDD*%
X176695000Y-206900000D03*
%TO.P,U2,9,GND2*%
%TO.N,GND*%
X176695000Y-197600000D03*
%TO.P,U2,10,DD+*%
%TO.N,/Control/USB_P*%
X175425000Y-197600000D03*
%TO.P,U2,11,DD-*%
%TO.N,/Control/USB_N*%
X174155000Y-197600000D03*
%TO.P,U2,12,PIN*%
%TO.N,+3.3V*%
X172885000Y-197600000D03*
%TO.P,U2,13,SPD*%
X171615000Y-197600000D03*
%TO.P,U2,14,VDD2*%
X170345000Y-197600000D03*
%TO.P,U2,15,GND2*%
%TO.N,GND*%
X169075000Y-197600000D03*
%TO.P,U2,16,VBUS2*%
%TO.N,+3.3V*%
X167805000Y-197600000D03*
%TD*%
D22*
%TO.P,R37,1*%
%TO.N,Net-(U2-UD-)*%
X162000000Y-207675000D03*
%TO.P,R37,2*%
%TO.N,Net-(U3-DN1)*%
X162000000Y-209325000D03*
%TD*%
%TO.P,R36,1*%
%TO.N,Net-(U2-UD+)*%
X164500000Y-207675000D03*
%TO.P,R36,2*%
%TO.N,Net-(U3-DP1)*%
X164500000Y-209325000D03*
%TD*%
D53*
%TO.P,U15,1,VDD1*%
%TO.N,+3.3V*%
X185655004Y-197477584D03*
%TO.P,U15,2,VOA*%
%TO.N,/Control/ISO_GPIO_1*%
X184385001Y-197477584D03*
%TO.P,U15,3,VIB*%
%TO.N,/Control/ISO_GPIO_2*%
X183114999Y-197477584D03*
%TO.P,U15,4,GND1*%
%TO.N,GND*%
X181844996Y-197477584D03*
%TO.P,U15,5,GND2*%
%TO.N,GNDS*%
X181844996Y-203022416D03*
%TO.P,U15,6,VOB*%
%TO.N,Net-(U15-VOB)*%
X183114999Y-203022416D03*
%TO.P,U15,7,VIA*%
%TO.N,Net-(U15-VIA)*%
X184385001Y-203022416D03*
%TO.P,U15,8,VDD2*%
%TO.N,VSS*%
X185655004Y-203022416D03*
%TD*%
D16*
%TO.P,R55,1*%
%TO.N,Net-(J5-Pin_5)*%
X147250000Y-85825000D03*
%TO.P,R55,2*%
%TO.N,Net-(R55-Pad2)*%
X147250000Y-84175000D03*
%TD*%
D18*
%TO.P,C20,1*%
%TO.N,+15V*%
X122525000Y-147750000D03*
%TO.P,C20,2*%
%TO.N,GND*%
X120975000Y-147750000D03*
%TD*%
D15*
%TO.P,C39,1*%
%TO.N,+3.3V*%
X131475000Y-160500000D03*
%TO.P,C39,2*%
%TO.N,GND*%
X133025000Y-160500000D03*
%TD*%
D16*
%TO.P,R15,1*%
%TO.N,GND*%
X129000000Y-67825000D03*
%TO.P,R15,2*%
%TO.N,/Control/SW1OUT*%
X129000000Y-66175000D03*
%TD*%
D53*
%TO.P,U16,1,VDD1*%
%TO.N,+3.3V*%
X194905004Y-197477584D03*
%TO.P,U16,2,VOA*%
%TO.N,/Control/UART_RX*%
X193635001Y-197477584D03*
%TO.P,U16,3,VIB*%
%TO.N,/Control/UART_TX*%
X192364999Y-197477584D03*
%TO.P,U16,4,GND1*%
%TO.N,GND*%
X191094996Y-197477584D03*
%TO.P,U16,5,GND2*%
%TO.N,GNDS*%
X191094996Y-203022416D03*
%TO.P,U16,6,VOB*%
%TO.N,Net-(U16-VOB)*%
X192364999Y-203022416D03*
%TO.P,U16,7,VIA*%
%TO.N,Net-(U16-VIA)*%
X193635001Y-203022416D03*
%TO.P,U16,8,VDD2*%
%TO.N,VSS*%
X194905004Y-203022416D03*
%TD*%
D16*
%TO.P,R53,1*%
%TO.N,Net-(J5-Pin_3)*%
X142250000Y-85825000D03*
%TO.P,R53,2*%
%TO.N,Net-(R53-Pad2)*%
X142250000Y-84175000D03*
%TD*%
D30*
%TO.P,H4,1,1*%
%TO.N,Earth*%
X99000000Y-131000000D03*
D31*
X99000000Y-131000000D03*
%TD*%
D25*
%TO.P,R18,1*%
%TO.N,Net-(D4-K)*%
X99412500Y-149687500D03*
%TO.P,R18,2*%
%TO.N,+15V*%
X96487500Y-149687500D03*
%TD*%
D22*
%TO.P,R44,1*%
%TO.N,Net-(D10-K)*%
X122250000Y-202175000D03*
%TO.P,R44,2*%
%TO.N,GND*%
X122250000Y-203825000D03*
%TD*%
D18*
%TO.P,C7,1*%
%TO.N,Net-(U1-EN)*%
X118275000Y-58750000D03*
%TO.P,C7,2*%
%TO.N,GND*%
X116725000Y-58750000D03*
%TD*%
D22*
%TO.P,R30,1*%
%TO.N,/Control/FAN2_PWM_FB*%
X116750000Y-103925000D03*
%TO.P,R30,2*%
%TO.N,Net-(Fan2-Pad3)*%
X116750000Y-105575000D03*
%TD*%
D16*
%TO.P,R48,1*%
%TO.N,Net-(Q1-G)*%
X109450000Y-144262500D03*
%TO.P,R48,2*%
%TO.N,RELAY*%
X109450000Y-142612500D03*
%TD*%
D24*
%TO.P,SW3,1,1*%
%TO.N,+3.3V*%
X114799924Y-83749987D03*
%TO.P,SW3,2,2*%
%TO.N,unconnected-(SW3-Pad2)*%
X123199975Y-83749987D03*
%TO.P,SW3,3,3*%
%TO.N,unconnected-(SW3-Pad3)*%
X114799924Y-88249860D03*
%TO.P,SW3,4,4*%
%TO.N,Net-(R22-Pad1)*%
X123199975Y-88249860D03*
%TD*%
D26*
%TO.P,J8,1,Pin_1*%
%TO.N,Net-(J8-Pin_1)*%
X155500000Y-165250000D03*
%TD*%
D54*
%TO.P,D1,1,K*%
%TO.N,GND*%
X150750000Y-219287500D03*
%TO.P,D1,2,A*%
%TO.N,Net-(D1-A)*%
X150750000Y-217712500D03*
%TD*%
D39*
%TO.P,R33,1*%
%TO.N,Net-(U8-AIN0{slash}GPIO0)*%
X131250000Y-152250000D03*
%TO.P,R33,2*%
%TO.N,GND*%
X132900000Y-152250000D03*
%TD*%
D23*
%TO.P,U19,1,1*%
%TO.N,/Control/UART_RX*%
X100800038Y-92899098D03*
%TO.P,U19,2,2*%
%TO.N,GND*%
X101750000Y-92899098D03*
%TO.P,U19,3,3*%
%TO.N,/Control/UART_TX*%
X102699962Y-92899098D03*
%TO.P,U19,4,4*%
%TO.N,I2C_SDA*%
X102699962Y-90600902D03*
%TO.P,U19,5,5*%
%TO.N,+3.3V*%
X101750000Y-90600902D03*
%TO.P,U19,6,6*%
%TO.N,I2C_SCL*%
X100800038Y-90600902D03*
%TD*%
D12*
%TO.P,C29,1*%
%TO.N,/Control/SW2OUT*%
X125500000Y-74025000D03*
%TO.P,C29,2*%
%TO.N,GND*%
X125500000Y-72475000D03*
%TD*%
D28*
%TO.P,R46,1*%
%TO.N,Net-(R46-Pad1)*%
X144250000Y-158925000D03*
%TO.P,R46,2*%
%TO.N,Net-(R46-Pad2)*%
X144250000Y-156000000D03*
%TD*%
D12*
%TO.P,C42,1*%
%TO.N,GND*%
X124000000Y-203775000D03*
%TO.P,C42,2*%
%TO.N,Net-(D10-K)*%
X124000000Y-202225000D03*
%TD*%
D11*
%TO.P,TP5,1,1*%
%TO.N,Net-(U1-IO39)*%
X182000000Y-55000000D03*
%TD*%
D22*
%TO.P,R16,1*%
%TO.N,GND*%
X127250000Y-72425000D03*
%TO.P,R16,2*%
%TO.N,/Control/SW2OUT*%
X127250000Y-74075000D03*
%TD*%
D13*
%TO.P,R24,1*%
%TO.N,+3.3V*%
X136325000Y-77250000D03*
%TO.P,R24,2*%
%TO.N,I2C_SCL*%
X134675000Y-77250000D03*
%TD*%
D17*
%TO.P,D11,1,K*%
%TO.N,Net-(D11-K)*%
X139962500Y-156000000D03*
%TO.P,D11,2,A*%
%TO.N,Net-(D11-A)*%
X141537500Y-156000000D03*
%TD*%
D11*
%TO.P,TP8,1,1*%
%TO.N,Net-(U1-IO41)*%
X174000000Y-55000000D03*
%TD*%
D16*
%TO.P,R6,1*%
%TO.N,Net-(U13-HIN(V))*%
X131500000Y-138825000D03*
%TO.P,R6,2*%
%TO.N,HINV*%
X131500000Y-137175000D03*
%TD*%
D15*
%TO.P,C47,1*%
%TO.N,+3.3V*%
X187225000Y-196000000D03*
%TO.P,C47,2*%
%TO.N,GND*%
X188775000Y-196000000D03*
%TD*%
%TO.P,C15,1*%
%TO.N,Net-(U13-VB(V))*%
X140925000Y-145900000D03*
%TO.P,C15,2*%
%TO.N,Net-(U13-VS(V))*%
X142475000Y-145900000D03*
%TD*%
D55*
%TO.P,U10,1,IP+*%
%TO.N,Net-(U13-U)*%
X131500000Y-191250000D03*
%TO.P,U10,2,IP+*%
X131500000Y-192520003D03*
%TO.P,U10,3,IP-*%
%TO.N,/Power/U*%
X131500000Y-193790005D03*
%TO.P,U10,4,IP-*%
X131500000Y-195060008D03*
%TO.P,U10,5,GND*%
%TO.N,GND*%
X136864998Y-195060008D03*
%TO.P,U10,6,NC*%
%TO.N,unconnected-(U10-NC-Pad6)*%
X136864998Y-193790005D03*
%TO.P,U10,7,OUT*%
%TO.N,Net-(D9-A)*%
X136864998Y-192520003D03*
%TO.P,U10,8,VCC*%
%TO.N,+3.3V*%
X136864998Y-191250000D03*
%TD*%
D30*
%TO.P,H2,1,1*%
%TO.N,Earth*%
X193000000Y-131000000D03*
D31*
X193000000Y-131000000D03*
%TD*%
D16*
%TO.P,R42,1*%
%TO.N,+3.3V*%
X150750000Y-195325000D03*
%TO.P,R42,2*%
%TO.N,/Control/TEMP_HEATSINK*%
X150750000Y-193675000D03*
%TD*%
D55*
%TO.P,U11,1,IP+*%
%TO.N,Net-(U13-W)*%
X113067501Y-199094996D03*
%TO.P,U11,2,IP+*%
X113067501Y-200364999D03*
%TO.P,U11,3,IP-*%
%TO.N,/Power/W*%
X113067501Y-201635001D03*
%TO.P,U11,4,IP-*%
X113067501Y-202905004D03*
%TO.P,U11,5,GND*%
%TO.N,GND*%
X118432499Y-202905004D03*
%TO.P,U11,6,NC*%
%TO.N,unconnected-(U11-NC-Pad6)*%
X118432499Y-201635001D03*
%TO.P,U11,7,OUT*%
%TO.N,Net-(D10-A)*%
X118432499Y-200364999D03*
%TO.P,U11,8,VCC*%
%TO.N,+3.3V*%
X118432499Y-199094996D03*
%TD*%
D15*
%TO.P,C46,1*%
%TO.N,VSS*%
X187475000Y-203000000D03*
%TO.P,C46,2*%
%TO.N,GNDS*%
X189025000Y-203000000D03*
%TD*%
D12*
%TO.P,C48,1*%
%TO.N,+3.3V*%
X195000000Y-195275000D03*
%TO.P,C48,2*%
%TO.N,GND*%
X195000000Y-193725000D03*
%TD*%
D10*
%TO.P,C51,1*%
%TO.N,Net-(U13-ITRIP)*%
X116250000Y-140225000D03*
%TO.P,C51,2*%
%TO.N,GND*%
X116250000Y-141775000D03*
%TD*%
D26*
%TO.P,J5,1,Pin_1*%
%TO.N,Net-(J5-Pin_1)*%
X137110000Y-88600000D03*
D27*
%TO.P,J5,2,Pin_2*%
%TO.N,Net-(J5-Pin_2)*%
X139650000Y-88600000D03*
%TO.P,J5,3,Pin_3*%
%TO.N,Net-(J5-Pin_3)*%
X142190000Y-88600000D03*
%TO.P,J5,4,Pin_4*%
%TO.N,Net-(J5-Pin_4)*%
X144730000Y-88600000D03*
%TO.P,J5,5,Pin_5*%
%TO.N,Net-(J5-Pin_5)*%
X147270000Y-88600000D03*
%TO.P,J5,6,Pin_6*%
%TO.N,Net-(J5-Pin_6)*%
X149810000Y-88600000D03*
%TO.P,J5,7,Pin_7*%
%TO.N,+3.3V*%
X152350000Y-88600000D03*
%TO.P,J5,8,Pin_8*%
%TO.N,GND*%
X154890000Y-88600000D03*
%TD*%
D18*
%TO.P,C6,1*%
%TO.N,+15V*%
X122525000Y-146000000D03*
%TO.P,C6,2*%
%TO.N,GND*%
X120975000Y-146000000D03*
%TD*%
D26*
%TO.P,J9,1,Pin_1*%
%TO.N,VS*%
X150000000Y-105250000D03*
%TD*%
D10*
%TO.P,C8,1*%
%TO.N,Net-(U13-LIN(W))*%
X124250000Y-145975000D03*
%TO.P,C8,2*%
%TO.N,GND*%
X124250000Y-147525000D03*
%TD*%
D56*
%TO.P,U8,1,AIN2/GPIO2*%
%TO.N,Net-(D11-K)*%
X130000000Y-156750064D03*
%TO.P,U8,2,AIN3/GPIO3*%
%TO.N,Net-(D9-K)*%
X130000000Y-157249936D03*
%TO.P,U8,3,AIN4/GPIO4*%
%TO.N,Net-(D10-K)*%
X130000000Y-157750064D03*
%TO.P,U8,4,AIN5/GPIO5*%
%TO.N,/Power/CURRENT_AC*%
X130000000Y-158249936D03*
D57*
%TO.P,U8,5,AIN6/GPIO6*%
%TO.N,unconnected-(U8-AIN6{slash}GPIO6-Pad5)*%
X130750064Y-159000000D03*
%TO.P,U8,6,AIN7/GPIO7*%
%TO.N,unconnected-(U8-AIN7{slash}GPIO7-Pad6)*%
X131249936Y-159000000D03*
%TO.P,U8,7,AVDD*%
%TO.N,+3.3V*%
X131750064Y-159000000D03*
%TO.P,U8,8,DECAP*%
%TO.N,Net-(U8-DECAP)*%
X132249936Y-159000000D03*
D56*
%TO.P,U8,9,GND*%
%TO.N,GND*%
X133000000Y-158249936D03*
%TO.P,U8,10,DVDD*%
%TO.N,+3.3V*%
X133000000Y-157750064D03*
%TO.P,U8,11,ADDR*%
%TO.N,Net-(U8-ADDR)*%
X133000000Y-157249936D03*
%TO.P,U8,12,NC*%
%TO.N,unconnected-(U8-NC-Pad12)*%
X133000000Y-156750064D03*
D57*
%TO.P,U8,13,SCL*%
%TO.N,I2C_SCL*%
X132249936Y-156000000D03*
%TO.P,U8,14,SDA*%
%TO.N,I2C_SDA*%
X131750064Y-156000000D03*
%TO.P,U8,15,AIN0/GPIO0*%
%TO.N,Net-(U8-AIN0{slash}GPIO0)*%
X131249936Y-156000000D03*
%TO.P,U8,16,AIN1/GPIO1*%
%TO.N,Net-(U8-AIN1{slash}GPIO1)*%
X130750064Y-156000000D03*
D58*
%TO.P,U8,17,GND*%
%TO.N,GND*%
X131500127Y-157500127D03*
%TD*%
D16*
%TO.P,R9,1*%
%TO.N,Net-(U13-LIN(V))*%
X126250000Y-138825000D03*
%TO.P,R9,2*%
%TO.N,LINV*%
X126250000Y-137175000D03*
%TD*%
D10*
%TO.P,C28,1*%
%TO.N,/Control/SW1OUT*%
X130750000Y-66225000D03*
%TO.P,C28,2*%
%TO.N,GND*%
X130750000Y-67775000D03*
%TD*%
D16*
%TO.P,R56,1*%
%TO.N,Net-(J5-Pin_6)*%
X149750000Y-85825000D03*
%TO.P,R56,2*%
%TO.N,Net-(R56-Pad2)*%
X149750000Y-84175000D03*
%TD*%
D30*
%TO.P,H3,1,1*%
%TO.N,Earth*%
X193000000Y-216000000D03*
D31*
X193000000Y-216000000D03*
%TD*%
D10*
%TO.P,C9,1*%
%TO.N,Net-(U13-LIN(V))*%
X126000000Y-145975000D03*
%TO.P,C9,2*%
%TO.N,GND*%
X126000000Y-147525000D03*
%TD*%
D22*
%TO.P,R13,1*%
%TO.N,+3.3V*%
X150750000Y-214500000D03*
%TO.P,R13,2*%
%TO.N,Net-(D1-A)*%
X150750000Y-216150000D03*
%TD*%
D13*
%TO.P,R38,1*%
%TO.N,/Control/FAN_CONTROL*%
X105000000Y-104750000D03*
%TO.P,R38,2*%
%TO.N,Net-(Q2-G)*%
X103350000Y-104750000D03*
%TD*%
%TO.P,R28,1*%
%TO.N,Net-(Q1-G)*%
X109275000Y-145937500D03*
%TO.P,R28,2*%
%TO.N,GND*%
X107625000Y-145937500D03*
%TD*%
D22*
%TO.P,R52,1*%
%TO.N,Net-(U16-VOB)*%
X186000000Y-210425000D03*
%TO.P,R52,2*%
%TO.N,Net-(J3-Pin_4)*%
X186000000Y-212075000D03*
%TD*%
D16*
%TO.P,R59,1*%
%TO.N,+3.3V*%
X115000000Y-105575000D03*
%TO.P,R59,2*%
%TO.N,/Control/FAN2_PWM_FB*%
X115000000Y-103925000D03*
%TD*%
D15*
%TO.P,C19,1*%
%TO.N,Net-(U13-VB(W))*%
X136125000Y-145900000D03*
%TO.P,C19,2*%
%TO.N,Net-(U13-VS(W))*%
X137675000Y-145900000D03*
%TD*%
D18*
%TO.P,C26,1*%
%TO.N,GND*%
X150275000Y-172750000D03*
%TO.P,C26,2*%
%TO.N,+3.3V*%
X148725000Y-172750000D03*
%TD*%
D15*
%TO.P,C33,1*%
%TO.N,+5VD*%
X167627000Y-209042000D03*
%TO.P,C33,2*%
%TO.N,GNDD*%
X169177000Y-209042000D03*
%TD*%
D39*
%TO.P,R39,1*%
%TO.N,Net-(U8-ADDR)*%
X134675000Y-156500000D03*
%TO.P,R39,2*%
%TO.N,GND*%
X136325000Y-156500000D03*
%TD*%
D18*
%TO.P,C53,1*%
%TO.N,Net-(U8-AIN1{slash}GPIO1)*%
X126525000Y-154000000D03*
%TO.P,C53,2*%
%TO.N,GND*%
X124975000Y-154000000D03*
%TD*%
%TO.P,C50,1*%
%TO.N,/Control/POT1OUT*%
X102475000Y-65400000D03*
%TO.P,C50,2*%
%TO.N,GND*%
X100925000Y-65400000D03*
%TD*%
D15*
%TO.P,C34,1*%
%TO.N,Net-(U2-PDEN)*%
X172707000Y-210058000D03*
%TO.P,C34,2*%
%TO.N,GNDD*%
X174257000Y-210058000D03*
%TD*%
D22*
%TO.P,R60,1*%
%TO.N,ITRIP*%
X118000000Y-136925000D03*
%TO.P,R60,2*%
%TO.N,Net-(U13-ITRIP)*%
X118000000Y-138575000D03*
%TD*%
D39*
%TO.P,R20,1*%
%TO.N,Net-(R20-Pad1)*%
X125675000Y-66250000D03*
%TO.P,R20,2*%
%TO.N,/Control/SW1OUT*%
X127325000Y-66250000D03*
%TD*%
D59*
%TO.P,U21,1,1*%
%TO.N,+3.3V*%
X105500127Y-68064478D03*
%TO.P,U21,2,2*%
%TO.N,/Control/POT1OUT*%
X103000000Y-68064478D03*
%TO.P,U21,3,3*%
%TO.N,GND*%
X100500127Y-68064478D03*
D60*
%TO.P,U21,4,4*%
X108080010Y-75064478D03*
%TO.P,U21,5,5*%
X97919990Y-75064478D03*
%TD*%
D54*
%TO.P,D2,1,K*%
%TO.N,GND*%
X148000000Y-219287500D03*
%TO.P,D2,2,A*%
%TO.N,Net-(D2-A)*%
X148000000Y-217712500D03*
%TD*%
D61*
%TO.P,L1,1,1*%
%TO.N,Net-(U5-SW)*%
X143100000Y-100800000D03*
%TO.P,L1,2,2*%
%TO.N,+3.3V*%
X143100000Y-95350000D03*
%TD*%
D39*
%TO.P,R43,1*%
%TO.N,Net-(D9-K)*%
X136675000Y-186000000D03*
%TO.P,R43,2*%
%TO.N,GND*%
X138325000Y-186000000D03*
%TD*%
D40*
%TO.P,J10,1,Pin_1*%
%TO.N,/Power/AC_L*%
X107000000Y-215500000D03*
D41*
%TO.P,J10,2,Pin_2*%
%TO.N,/Power/AC_N*%
X112000000Y-215500000D03*
%TO.P,J10,3,Pin_3*%
%TO.N,Earth*%
X117000000Y-215500000D03*
%TO.P,J10,4,Pin_4*%
X122000000Y-215500000D03*
%TD*%
D22*
%TO.P,R47,1*%
%TO.N,Net-(D11-A)*%
X141500000Y-157675000D03*
%TO.P,R47,2*%
%TO.N,GND*%
X141500000Y-159325000D03*
%TD*%
D16*
%TO.P,R21,1*%
%TO.N,Net-(R21-Pad1)*%
X125500000Y-77325000D03*
%TO.P,R21,2*%
%TO.N,/Control/SW2OUT*%
X125500000Y-75675000D03*
%TD*%
D10*
%TO.P,C13,1*%
%TO.N,Net-(U13-HIN(U))*%
X132750000Y-145975000D03*
%TO.P,C13,2*%
%TO.N,GND*%
X132750000Y-147525000D03*
%TD*%
D16*
%TO.P,R22,1*%
%TO.N,Net-(R22-Pad1)*%
X125500000Y-88325000D03*
%TO.P,R22,2*%
%TO.N,/Control/SW3OUT*%
X125500000Y-86675000D03*
%TD*%
D12*
%TO.P,C21,1*%
%TO.N,VS*%
X147800000Y-102175000D03*
%TO.P,C21,2*%
%TO.N,GND*%
X147800000Y-100625000D03*
%TD*%
D13*
%TO.P,R67,1*%
%TO.N,Net-(U3-CC1)*%
X161325000Y-211000000D03*
%TO.P,R67,2*%
%TO.N,GNDD*%
X159675000Y-211000000D03*
%TD*%
D11*
%TO.P,TP6,1,1*%
%TO.N,Net-(U1-IO40)*%
X178000000Y-55000000D03*
%TD*%
D16*
%TO.P,R5,1*%
%TO.N,Net-(U13-HIN(U))*%
X133250000Y-138825000D03*
%TO.P,R5,2*%
%TO.N,HINU*%
X133250000Y-137175000D03*
%TD*%
D62*
%TO.P,U9,1,IP+*%
%TO.N,Net-(U4-VDD)*%
X148344996Y-180182499D03*
%TO.P,U9,2,IP+*%
X149614999Y-180182499D03*
%TO.P,U9,3,IP-*%
%TO.N,Net-(J8-Pin_1)*%
X150885001Y-180182499D03*
%TO.P,U9,4,IP-*%
X152155004Y-180182499D03*
%TO.P,U9,5,GND*%
%TO.N,GND*%
X152155004Y-174817501D03*
%TO.P,U9,6,NC*%
%TO.N,unconnected-(U9-NC-Pad6)*%
X150885001Y-174817501D03*
%TO.P,U9,7,OUT*%
%TO.N,Net-(D8-A)*%
X149614999Y-174817501D03*
%TO.P,U9,8,VCC*%
%TO.N,+3.3V*%
X148344996Y-174817501D03*
%TD*%
D16*
%TO.P,R32,1*%
%TO.N,I2C_SCL*%
X134750000Y-75575000D03*
%TO.P,R32,2*%
%TO.N,Net-(U1-IO9)*%
X134750000Y-73925000D03*
%TD*%
D11*
%TO.P,TP7,1,1*%
%TO.N,Net-(U1-IO42)*%
X170000000Y-55000000D03*
%TD*%
D16*
%TO.P,R7,1*%
%TO.N,Net-(U13-HIN(W))*%
X129750000Y-138825000D03*
%TO.P,R7,2*%
%TO.N,HINW*%
X129750000Y-137175000D03*
%TD*%
D13*
%TO.P,R61,1*%
%TO.N,+3.3V*%
X129825000Y-154000000D03*
%TO.P,R61,2*%
%TO.N,Net-(U8-AIN1{slash}GPIO1)*%
X128175000Y-154000000D03*
%TD*%
D11*
%TO.P,TP4,1,1*%
%TO.N,Net-(R56-Pad2)*%
X149750000Y-82000000D03*
%TD*%
D13*
%TO.P,R65,1*%
%TO.N,/Power/CURRENT_AC*%
X128075000Y-159500000D03*
%TO.P,R65,2*%
%TO.N,GND*%
X126425000Y-159500000D03*
%TD*%
%TO.P,R45,1*%
%TO.N,Net-(D11-K)*%
X139850000Y-159500000D03*
%TO.P,R45,2*%
%TO.N,GND*%
X138200000Y-159500000D03*
%TD*%
%TO.P,R25,1*%
%TO.N,I2C_SDA*%
X133075000Y-77250000D03*
%TO.P,R25,2*%
%TO.N,+3.3V*%
X131425000Y-77250000D03*
%TD*%
D18*
%TO.P,C14,1*%
%TO.N,Net-(U13-VS(V))*%
X142475000Y-147500000D03*
%TO.P,C14,2*%
%TO.N,Net-(U13-VB(V))*%
X140925000Y-147500000D03*
%TD*%
%TO.P,C36,1*%
%TO.N,+3.3V*%
X172479000Y-195326000D03*
%TO.P,C36,2*%
%TO.N,GND*%
X170929000Y-195326000D03*
%TD*%
D22*
%TO.P,R12,1*%
%TO.N,Net-(U5-VFB)*%
X152600000Y-94775000D03*
%TO.P,R12,2*%
%TO.N,GND*%
X152600000Y-96425000D03*
%TD*%
D10*
%TO.P,C10,1*%
%TO.N,Net-(U13-LIN(U))*%
X127750000Y-145975000D03*
%TO.P,C10,2*%
%TO.N,GND*%
X127750000Y-147525000D03*
%TD*%
%TO.P,C12,1*%
%TO.N,Net-(U13-HIN(V))*%
X131250000Y-145975000D03*
%TO.P,C12,2*%
%TO.N,GND*%
X131250000Y-147525000D03*
%TD*%
D63*
%TO.P,U1,1,GND*%
%TO.N,GND*%
X139024892Y-60024892D03*
%TO.P,U1,2,GND*%
X139024892Y-60874778D03*
%TO.P,U1,3,3V3*%
%TO.N,+3.3V*%
X139024892Y-61724917D03*
%TO.P,U1,4,IO0*%
%TO.N,Net-(U1-IO0)*%
X139024892Y-62574803D03*
%TO.P,U1,5,IO1*%
%TO.N,/Control/FAN_CONTROL*%
X139024892Y-63424943D03*
%TO.P,U1,6,IO2*%
%TO.N,VFO*%
X139024892Y-64274829D03*
%TO.P,U1,7,IO3*%
%TO.N,unconnected-(U1-IO3-Pad7)*%
X139024892Y-65124968D03*
%TO.P,U1,8,IO4*%
%TO.N,/Control/POT1OUT*%
X139024892Y-65974854D03*
%TO.P,U1,9,IO5*%
%TO.N,/Control/SW1OUT*%
X139024892Y-66824740D03*
%TO.P,U1,10,IO6*%
%TO.N,/Control/SW2OUT*%
X139024892Y-67674879D03*
%TO.P,U1,11,IO7*%
%TO.N,/Control/SW3OUT*%
X139024892Y-68524765D03*
%TO.P,U1,12,IO8*%
%TO.N,Net-(U1-IO8)*%
X139024892Y-69374905D03*
%TO.P,U1,13,IO9*%
%TO.N,Net-(U1-IO9)*%
X139024892Y-70224790D03*
%TO.P,U1,14,IO10*%
%TO.N,LINW*%
X139024892Y-71074930D03*
%TO.P,U1,15,IO11*%
%TO.N,LINV*%
X139024892Y-71924816D03*
D64*
%TO.P,U1,16,IO12*%
%TO.N,LINU*%
X140050038Y-73000000D03*
%TO.P,U1,17,IO13*%
%TO.N,HINW*%
X140899924Y-73000000D03*
%TO.P,U1,18,IO14*%
%TO.N,HINV*%
X141750064Y-73000000D03*
%TO.P,U1,19,IO15*%
%TO.N,HINU*%
X142599949Y-73000000D03*
%TO.P,U1,20,IO16*%
%TO.N,RELAY*%
X143450089Y-73000000D03*
%TO.P,U1,21,IO17*%
%TO.N,/Control/RGBLED*%
X144299975Y-73000000D03*
%TO.P,U1,22,IO18*%
%TO.N,/Control/TEMP_HEATSINK*%
X145150114Y-73000000D03*
%TO.P,U1,23,IO19*%
%TO.N,/Control/USB_N*%
X146000000Y-73000000D03*
%TO.P,U1,24,IO20*%
%TO.N,/Control/USB_P*%
X146849886Y-73000000D03*
%TO.P,U1,25,IO21*%
%TO.N,/Control/ISO_GPIO_1*%
X147700025Y-73000000D03*
%TO.P,U1,26,IO26*%
%TO.N,unconnected-(U1-IO26-Pad26)*%
X148549911Y-73000000D03*
%TO.P,U1,27,IO47*%
%TO.N,/Control/FAN2_PWM_FB*%
X149400051Y-73000000D03*
%TO.P,U1,28,IO33*%
%TO.N,ITRIP*%
X150249936Y-73000000D03*
%TO.P,U1,29,IO34*%
%TO.N,/Control/SPI_CS*%
X151100076Y-73000000D03*
%TO.P,U1,30,IO48*%
%TO.N,/Control/FAN1_PWM_FB*%
X151949962Y-73000000D03*
D63*
%TO.P,U1,31,IO35*%
%TO.N,/Control/SPI_MOSI*%
X152975108Y-71924816D03*
%TO.P,U1,32,IO36*%
%TO.N,/Control/SPI_CLK*%
X152975108Y-71074930D03*
%TO.P,U1,33,IO37*%
%TO.N,/Control/SPI_MISO*%
X152975108Y-70224790D03*
%TO.P,U1,34,IO38*%
%TO.N,/Control/ISO_GPIO_2*%
X152975108Y-69374905D03*
%TO.P,U1,35,IO39*%
%TO.N,Net-(U1-IO39)*%
X152975108Y-68524765D03*
%TO.P,U1,36,IO40*%
%TO.N,Net-(U1-IO40)*%
X152975108Y-67674879D03*
%TO.P,U1,37,IO41*%
%TO.N,Net-(U1-IO41)*%
X152975108Y-66824740D03*
%TO.P,U1,38,IO42*%
%TO.N,Net-(U1-IO42)*%
X152975108Y-65974854D03*
%TO.P,U1,39,TXD0*%
%TO.N,/Control/UART_TX*%
X152975108Y-65124968D03*
%TO.P,U1,40,RXD0*%
%TO.N,/Control/UART_RX*%
X152975108Y-64274829D03*
%TO.P,U1,41,IO45*%
%TO.N,unconnected-(U1-IO45-Pad41)*%
X152975108Y-63424943D03*
%TO.P,U1,42,GND*%
%TO.N,GND*%
X152975108Y-62574803D03*
%TO.P,U1,43,GND*%
X152975108Y-61724917D03*
%TO.P,U1,44,IO46*%
%TO.N,unconnected-(U1-IO46-Pad44)*%
X152975108Y-60874778D03*
%TO.P,U1,45,EN*%
%TO.N,Net-(U1-EN)*%
X152975108Y-60024892D03*
D64*
%TO.P,U1,46,GND*%
%TO.N,GND*%
X151949962Y-58949962D03*
%TO.P,U1,47,GND*%
X151100076Y-58949962D03*
%TO.P,U1,48,GND*%
X150249936Y-58949962D03*
%TO.P,U1,49,GND*%
X149400051Y-58949962D03*
%TO.P,U1,50,GND*%
X148549911Y-58949962D03*
%TO.P,U1,51,GND*%
X147700025Y-58949962D03*
%TO.P,U1,52,GND*%
X146849886Y-58949962D03*
%TO.P,U1,53,GND*%
X146000000Y-58949962D03*
%TO.P,U1,54,GND*%
X145150114Y-58949962D03*
%TO.P,U1,55,GND*%
X144299975Y-58949962D03*
%TO.P,U1,56,GND*%
X143450089Y-58949962D03*
%TO.P,U1,57,GND*%
X142599949Y-58949962D03*
%TO.P,U1,58,GND*%
X141750064Y-58949962D03*
%TO.P,U1,59,GND*%
X140899924Y-58949962D03*
%TO.P,U1,60,GND*%
X140050038Y-58949962D03*
D65*
%TO.P,U1,GND*%
%TO.N,N/C*%
X139000000Y-58974854D03*
X139000000Y-72974854D03*
D66*
X144350013Y-64324867D03*
X144350013Y-65974854D03*
X144350013Y-67624841D03*
X146000000Y-64324867D03*
X146000000Y-65974854D03*
X146000000Y-67624841D03*
X147649987Y-64324867D03*
X147649987Y-65974854D03*
X147649987Y-67624841D03*
D65*
X153000000Y-58974854D03*
X153000000Y-72974854D03*
%TD*%
D18*
%TO.P,C17,1*%
%TO.N,Net-(U13-VS(U))*%
X147675000Y-147500000D03*
%TO.P,C17,2*%
%TO.N,Net-(U13-VB(U))*%
X146125000Y-147500000D03*
%TD*%
D43*
%TO.P,U6,1,1*%
%TO.N,GND*%
X108315088Y-55750000D03*
%TO.P,U6,2,2*%
%TO.N,Net-(U1-IO0)*%
X112684912Y-55750000D03*
%TD*%
D44*
%TO.P,U17,1,1*%
%TO.N,Net-(U16-VOB)*%
X189649098Y-207699962D03*
%TO.P,U17,2,2*%
%TO.N,GNDS*%
X189649098Y-206750000D03*
%TO.P,U17,3,3*%
%TO.N,Net-(U16-VIA)*%
X189649098Y-205800038D03*
%TO.P,U17,4,4*%
%TO.N,Net-(U15-VIA)*%
X187350902Y-205800038D03*
%TO.P,U17,5,5*%
%TO.N,VSS*%
X187350902Y-206750000D03*
%TO.P,U17,6,6*%
%TO.N,Net-(U15-VOB)*%
X187350902Y-207699962D03*
%TD*%
D67*
%TO.P,D5,1,K*%
%TO.N,Net-(D5-K)*%
X103000000Y-119850000D03*
%TO.P,D5,2,A*%
%TO.N,GND*%
X103000000Y-123150000D03*
%TD*%
D12*
%TO.P,C27,1*%
%TO.N,+3.3V*%
X135500000Y-61775000D03*
%TO.P,C27,2*%
%TO.N,GND*%
X135500000Y-60225000D03*
%TD*%
D26*
%TO.P,J6,1,Pin_1*%
%TO.N,+3.3V*%
X148000000Y-195525000D03*
D27*
%TO.P,J6,2,Pin_2*%
%TO.N,/Control/TEMP_HEATSINK*%
X148000000Y-192985000D03*
%TO.P,J6,3,Pin_3*%
%TO.N,GND*%
X148000000Y-190445000D03*
%TD*%
D15*
%TO.P,C16,1*%
%TO.N,Net-(U13-VB(U))*%
X146125000Y-145900000D03*
%TO.P,C16,2*%
%TO.N,Net-(U13-VS(U))*%
X147675000Y-145900000D03*
%TD*%
D39*
%TO.P,R34,1*%
%TO.N,+15V*%
X128000000Y-152250000D03*
%TO.P,R34,2*%
%TO.N,Net-(U8-AIN0{slash}GPIO0)*%
X129650000Y-152250000D03*
%TD*%
D12*
%TO.P,C52,1*%
%TO.N,Net-(U8-DECAP)*%
X129750000Y-162025000D03*
%TO.P,C52,2*%
%TO.N,GND*%
X129750000Y-160475000D03*
%TD*%
D29*
%TO.P,Q2,1,G*%
%TO.N,Net-(Q2-G)*%
X101700000Y-106875000D03*
%TO.P,Q2,2,S*%
%TO.N,GND*%
X99800000Y-106875000D03*
%TO.P,Q2,3,D*%
%TO.N,Net-(Q2-D)*%
X100750000Y-108750000D03*
%TD*%
D39*
%TO.P,R3,1*%
%TO.N,Net-(J7-Pin_10)*%
X99175000Y-88750000D03*
%TO.P,R3,2*%
%TO.N,I2C_SCL*%
X100825000Y-88750000D03*
%TD*%
D10*
%TO.P,C40,1*%
%TO.N,+3.3V*%
X149300000Y-95825000D03*
%TO.P,C40,2*%
%TO.N,GND*%
X149300000Y-97375000D03*
%TD*%
D42*
%TO.P,D7,1,K*%
%TO.N,VS*%
X155850000Y-105000000D03*
%TO.P,D7,2,A*%
%TO.N,+5V*%
X159150000Y-105000000D03*
%TD*%
D68*
%TO.P,PS1,1,AC/L*%
%TO.N,/Power/AC_L*%
X153800000Y-132282500D03*
D69*
%TO.P,PS1,2,AC/N*%
%TO.N,/Power/AC_N*%
X153800000Y-111482500D03*
%TO.P,PS1,3,-Vo*%
%TO.N,GND*%
X108800000Y-111482500D03*
%TO.P,PS1,4,+Vo*%
%TO.N,+15V*%
X108800000Y-119482500D03*
%TD*%
D70*
%TO.P,R1,1*%
%TO.N,/Power/AC_L*%
X100250000Y-187375000D03*
D59*
%TO.P,R1,2*%
%TO.N,Net-(U4-~Phase)*%
X105330000Y-187375000D03*
%TD*%
D71*
%TO.P,C2,1*%
%TO.N,Net-(J8-Pin_1)*%
X171000000Y-112666750D03*
D72*
%TO.P,C2,2*%
%TO.N,GND*%
X181000000Y-112666750D03*
%TD*%
D71*
%TO.P,C1,1*%
%TO.N,Net-(J8-Pin_1)*%
X171000000Y-74666750D03*
D72*
%TO.P,C1,2*%
%TO.N,GND*%
X181000000Y-74666750D03*
%TD*%
D71*
%TO.P,C4,1*%
%TO.N,Net-(J8-Pin_1)*%
X171000000Y-188333500D03*
D72*
%TO.P,C4,2*%
%TO.N,GND*%
X181000000Y-188333500D03*
%TD*%
D71*
%TO.P,C3,1*%
%TO.N,Net-(J8-Pin_1)*%
X171000000Y-150333500D03*
D72*
%TO.P,C3,2*%
%TO.N,GND*%
X181000000Y-150333500D03*
%TD*%
D73*
%TO.P,U13,1,VS(U)*%
%TO.N,Net-(U13-VS(U))*%
X148100203Y-140700025D03*
%TO.P,U13,2,VB(U)*%
%TO.N,Net-(U13-VB(U))*%
X146099949Y-143700025D03*
%TO.P,U13,3,VS(V)*%
%TO.N,Net-(U13-VS(V))*%
X142700152Y-140700025D03*
%TO.P,U13,4,VB(V)*%
%TO.N,Net-(U13-VB(V))*%
X141099949Y-143700025D03*
%TO.P,U13,5,VS(W)*%
%TO.N,Net-(U13-VS(W))*%
X137699898Y-140700025D03*
%TO.P,U13,6,VB(W)*%
%TO.N,Net-(U13-VB(W))*%
X136099949Y-143700025D03*
%TO.P,U13,7,HIN(U)*%
%TO.N,Net-(U13-HIN(U))*%
X132699898Y-140700025D03*
%TO.P,U13,8,HIN(V)*%
%TO.N,Net-(U13-HIN(V))*%
X131099949Y-143700025D03*
%TO.P,U13,9,HIN(W)*%
%TO.N,Net-(U13-HIN(W))*%
X129500000Y-140700025D03*
%TO.P,U13,10,LIN(U)*%
%TO.N,Net-(U13-LIN(U))*%
X127900051Y-143700025D03*
%TO.P,U13,11,LIN(V)*%
%TO.N,Net-(U13-LIN(V))*%
X126300102Y-140700025D03*
%TO.P,U13,12,LIN(W)*%
%TO.N,Net-(U13-LIN(W))*%
X124699898Y-143700025D03*
%TO.P,U13,13,VDD*%
%TO.N,+15V*%
X123099949Y-140700025D03*
%TO.P,U13,14,VFO*%
%TO.N,VFO*%
X121500000Y-143700025D03*
%TO.P,U13,15,ITRIP*%
%TO.N,Net-(U13-ITRIP)*%
X119900051Y-140700025D03*
%TO.P,U13,16,VSS*%
%TO.N,GND*%
X117900051Y-143700025D03*
D19*
%TO.P,U13,17,NW*%
X116444882Y-169299975D03*
%TO.P,U13,18,NV*%
X121175133Y-169299975D03*
%TO.P,U13,19,NU*%
X125905131Y-169299975D03*
%TO.P,U13,20,W*%
%TO.N,Net-(U13-W)*%
X130635128Y-169299975D03*
%TO.P,U13,21,V*%
%TO.N,/Power/V*%
X135365126Y-169299975D03*
%TO.P,U13,22,U*%
%TO.N,Net-(U13-U)*%
X140095123Y-169299975D03*
%TO.P,U13,23,P*%
%TO.N,Net-(J8-Pin_1)*%
X144825121Y-169299975D03*
%TO.P,U13,24,NC*%
%TO.N,unconnected-(U13-NC-Pad24)*%
X149555118Y-169299975D03*
%TD*%
D74*
%TO.P,U4,1,VDD*%
%TO.N,Net-(U4-VDD)*%
X142000000Y-178000000D03*
%TO.P,U4,2,~Phase*%
%TO.N,Net-(U4-~Phase)*%
X142000000Y-185500000D03*
%TO.P,U4,3,~Neutral*%
%TO.N,/Power/AC_N*%
X142000000Y-193000000D03*
%TO.P,U4,4,GND*%
%TO.N,GND*%
X142000000Y-203000000D03*
%TD*%
D75*
%TO.N,*%
X146000000Y-69250000D03*
X154750000Y-59000000D03*
X146000000Y-63000000D03*
X143000000Y-66000000D03*
X137500000Y-59000000D03*
X153000000Y-74500000D03*
X149250000Y-66000000D03*
X137500000Y-73750000D03*
%TO.N,+15V*%
X163250000Y-184000000D03*
X96500000Y-147500000D03*
X163500000Y-153750000D03*
X163250000Y-111250000D03*
X133350000Y-108250000D03*
X100750000Y-114500000D03*
D76*
%TO.N,GND*%
X154100000Y-100800000D03*
X154100000Y-100100000D03*
X153500000Y-97800000D03*
X149300000Y-98800000D03*
D75*
X124750000Y-81250000D03*
X131500127Y-157500127D03*
X130000000Y-69000000D03*
X133250000Y-159000000D03*
X171000000Y-194000000D03*
X123250000Y-154750000D03*
D76*
X147300000Y-98800000D03*
D75*
X149500000Y-218000000D03*
X132750000Y-148750000D03*
D76*
X148300000Y-98800000D03*
X154100000Y-99400000D03*
D75*
X146000000Y-60250000D03*
X129750000Y-159250000D03*
X175450000Y-65750000D03*
X195000000Y-192500000D03*
X126500000Y-162250000D03*
X141500000Y-160500000D03*
D76*
X154100000Y-101500000D03*
D75*
X99000000Y-102500000D03*
X182000000Y-195500000D03*
X141500000Y-60250000D03*
D76*
X150300000Y-98800000D03*
D75*
X148000000Y-60250000D03*
X143750000Y-60250000D03*
X115315088Y-57340088D03*
X105950000Y-145937500D03*
X126750000Y-205250000D03*
D76*
X152700000Y-97800000D03*
D75*
X102250000Y-103250000D03*
X124250000Y-148750000D03*
X150500000Y-60250000D03*
X154700000Y-61700000D03*
X99250000Y-93750000D03*
X190500000Y-196000000D03*
X108315088Y-57090088D03*
X177800000Y-196088000D03*
X137250000Y-156500000D03*
D76*
X151900000Y-97800000D03*
D75*
X152500000Y-173250000D03*
X126250000Y-71250000D03*
%TO.N,+3.3V*%
X99000000Y-97250000D03*
X196250000Y-195250000D03*
X131000000Y-162000000D03*
D76*
X143100000Y-92900000D03*
D75*
X130280959Y-155081361D03*
X113000000Y-61749987D03*
X136000000Y-158750000D03*
D76*
X140300000Y-95300000D03*
D75*
X191250000Y-194500000D03*
X166000000Y-195326000D03*
D76*
X140300000Y-96000000D03*
X145900000Y-95300000D03*
D75*
X170500000Y-65000000D03*
D76*
X145900000Y-96000000D03*
X140300000Y-94600000D03*
X145900000Y-94600000D03*
D75*
X129750000Y-76250000D03*
X150750000Y-213250000D03*
X147250000Y-172750000D03*
X150250000Y-184250000D03*
X137500000Y-81000000D03*
X134250000Y-61750000D03*
X186750000Y-106750000D03*
D76*
X143900000Y-92900000D03*
D75*
X101975462Y-88750000D03*
X123500000Y-157500000D03*
X128000000Y-202000000D03*
X113000000Y-72750000D03*
X114000000Y-107000000D03*
X113000000Y-83750000D03*
X146025000Y-195525000D03*
X150750000Y-197750000D03*
X174750000Y-195250000D03*
X124250000Y-107000000D03*
D76*
X155100000Y-96800000D03*
D75*
X122075000Y-57575000D03*
D76*
X142300000Y-92900000D03*
D75*
%TO.N,Net-(Fan1-Pad3)*%
X106250000Y-115750000D03*
%TO.N,/Control/RGBLED*%
X158000000Y-66250000D03*
X144250000Y-71500000D03*
D77*
%TO.N,/Power/AC_L*%
X110250000Y-165250000D03*
D75*
%TO.N,Net-(U1-IO0)*%
X123250000Y-54250000D03*
%TO.N,/Control/FAN_CONTROL*%
X136250000Y-71000000D03*
X136500000Y-65250000D03*
%TO.N,/Control/FAN2_PWM_FB*%
X130750000Y-99250000D03*
X145474500Y-78750000D03*
%TO.N,/Control/FAN1_PWM_FB*%
X131474500Y-98250000D03*
X151750000Y-77500000D03*
%TO.N,LINW*%
X125750000Y-105500000D03*
X137250000Y-71250000D03*
%TO.N,LINV*%
X137500000Y-72250000D03*
X126525970Y-104870019D03*
%TO.N,LINU*%
X138500000Y-74750000D03*
X127275500Y-104209440D03*
%TO.N,HINW*%
X140250000Y-74500000D03*
X127831172Y-103378637D03*
%TO.N,HINV*%
X140012299Y-75762299D03*
X128559470Y-102694103D03*
%TO.N,HINU*%
X141274952Y-75524952D03*
X129264399Y-101985527D03*
%TO.N,RELAY*%
X130000000Y-100000000D03*
X140750000Y-78000000D03*
%TO.N,/Control/TEMP_HEATSINK*%
X146000000Y-75750000D03*
%TO.N,/Control/USB_N*%
X146000000Y-74500000D03*
X189000000Y-93500000D03*
%TO.N,/Control/USB_P*%
X147250000Y-74500000D03*
X189994685Y-92606367D03*
%TO.N,/Control/SPI_MISO*%
X133750000Y-84750000D03*
X154250000Y-84750000D03*
%TO.N,/Control/SPI_MOSI*%
X135250000Y-83250000D03*
X152000000Y-83250000D03*
%TO.N,/Control/SPI_CLK*%
X153250000Y-83250000D03*
X135897208Y-84011661D03*
%TO.N,/Control/SPI_CS*%
X152000000Y-79500000D03*
X135750000Y-85000000D03*
%TO.N,/Control/UART_TX*%
X154776915Y-63798448D03*
X151500000Y-65250000D03*
X106000000Y-92250000D03*
X191014452Y-63500000D03*
%TO.N,/Control/UART_RX*%
X193750000Y-64750000D03*
X104762299Y-92012299D03*
X154750000Y-62750000D03*
X151500000Y-64250000D03*
%TO.N,Net-(U1-EN)*%
X151000000Y-61250000D03*
X121000000Y-55750000D03*
%TO.N,Net-(U2-UD-)*%
X173482000Y-208788000D03*
X162750000Y-205000000D03*
%TO.N,Net-(U2-UD+)*%
X176022000Y-208788000D03*
X166116000Y-205994000D03*
D76*
%TO.N,Net-(U5-SW)*%
X145500000Y-100275000D03*
X151000000Y-100300000D03*
X151600000Y-100900000D03*
X145500000Y-100875000D03*
X146100000Y-100875000D03*
X151600000Y-100300000D03*
X146100000Y-100275000D03*
X151000000Y-100900000D03*
%TO.N,Net-(U5-VFB)*%
X156150500Y-101300000D03*
X154300000Y-94800000D03*
D75*
%TO.N,I2C_SDA*%
X130750000Y-116000000D03*
X121500000Y-90525500D03*
%TO.N,I2C_SCL*%
X131750000Y-115000000D03*
X122750000Y-91325402D03*
D77*
%TO.N,/Power/AC_N*%
X114750000Y-153500000D03*
D75*
%TO.N,VFO*%
X137500000Y-64250000D03*
X125000000Y-106250000D03*
%TO.N,ITRIP*%
X148250000Y-77250000D03*
X129250000Y-100750000D03*
%TO.N,+5VD*%
X160500000Y-212250000D03*
X168402000Y-210566000D03*
X165500000Y-212250000D03*
X169250000Y-216750000D03*
X163250000Y-202500000D03*
%TO.N,GNDD*%
X169926000Y-210566000D03*
X163250000Y-208500000D03*
X176276000Y-209804000D03*
%TO.N,/Control/ISO_GPIO_1*%
X191974284Y-65482278D03*
X151750000Y-68000000D03*
%TO.N,VSS*%
X192987701Y-206987701D03*
X187250000Y-204500000D03*
%TO.N,Net-(U15-VIA)*%
X182000000Y-209000000D03*
X185444767Y-205555233D03*
%TO.N,GNDS*%
X182500000Y-205000000D03*
X193000000Y-208000000D03*
X190000000Y-204250000D03*
%TO.N,+5V*%
X161750000Y-155000000D03*
%TO.N,Net-(U16-VIA)*%
X193500000Y-205000000D03*
X191000000Y-205750000D03*
X186000000Y-208750000D03*
%TO.N,Net-(D9-K)*%
X126637299Y-157474564D03*
X153250000Y-182750000D03*
%TO.N,Net-(D10-K)*%
X128000000Y-203250000D03*
X128000000Y-158000000D03*
%TO.N,Net-(D8-A)*%
X151750000Y-172500000D03*
X131250000Y-165750000D03*
%TD*%
D78*
%TO.N,/Control/UART_RX*%
X189000000Y-126250000D02*
X189000000Y-134250000D01*
X193635001Y-138885001D02*
X193635001Y-197477584D01*
X193750000Y-121500000D02*
X189000000Y-126250000D01*
X193750000Y-64750000D02*
X193750000Y-121500000D01*
X189000000Y-134250000D02*
X193635001Y-138885001D01*
%TO.N,/Control/UART_TX*%
X192364999Y-196385001D02*
X192364999Y-197477584D01*
X192750000Y-139000000D02*
X192750000Y-196000000D01*
X188250000Y-125750000D02*
X188250000Y-134500000D01*
X188250000Y-134500000D02*
X192750000Y-139000000D01*
X192750000Y-196000000D02*
X192364999Y-196385001D01*
X193000000Y-65482689D02*
X193000000Y-121000000D01*
X193000000Y-121000000D02*
X188250000Y-125750000D01*
X191017311Y-63500000D02*
X193000000Y-65482689D01*
X191014452Y-63500000D02*
X191017311Y-63500000D01*
D79*
%TO.N,GND*%
X149500000Y-219287500D02*
X150750000Y-219287500D01*
X149500000Y-218000000D02*
X149500000Y-219287500D01*
D78*
%TO.N,VSS*%
X192987701Y-206987701D02*
X192987701Y-206987299D01*
X192987701Y-206987299D02*
X195000000Y-204975000D01*
%TO.N,GNDS*%
X194475000Y-206525000D02*
X195000000Y-206525000D01*
X193000000Y-208000000D02*
X194475000Y-206525000D01*
%TO.N,Net-(U1-IO0)*%
X133675197Y-62574803D02*
X139024892Y-62574803D01*
X127500000Y-58500000D02*
X127500000Y-62250000D01*
X129000000Y-63750000D02*
X132500000Y-63750000D01*
X123250000Y-54250000D02*
X127500000Y-58500000D01*
X127500000Y-62250000D02*
X129000000Y-63750000D01*
X132500000Y-63750000D02*
X133675197Y-62574803D01*
X114184912Y-54250000D02*
X112684912Y-55750000D01*
X123250000Y-54250000D02*
X114184912Y-54250000D01*
%TO.N,Net-(U1-IO42)*%
X170000000Y-58000000D02*
X170000000Y-55000000D01*
X164650127Y-63349873D02*
X170000000Y-58000000D01*
X156250089Y-63349873D02*
X164650127Y-63349873D01*
X153625108Y-65974854D02*
X156250089Y-63349873D01*
X152975108Y-65974854D02*
X153625108Y-65974854D01*
%TO.N,Net-(U1-IO41)*%
X173727208Y-55000000D02*
X174000000Y-55000000D01*
X156649975Y-63799873D02*
X164927335Y-63799873D01*
X153625108Y-66824740D02*
X156649975Y-63799873D01*
X164927335Y-63799873D02*
X173727208Y-55000000D01*
X152975108Y-66824740D02*
X153625108Y-66824740D01*
%TO.N,Net-(U1-IO40)*%
X176000000Y-57000000D02*
X178000000Y-55000000D01*
X165113731Y-64249873D02*
X172363604Y-57000000D01*
X157050114Y-64249873D02*
X165113731Y-64249873D01*
X172363604Y-57000000D02*
X176000000Y-57000000D01*
X153625108Y-67674879D02*
X157050114Y-64249873D01*
X152975108Y-67674879D02*
X153625108Y-67674879D01*
%TO.N,Net-(U1-IO39)*%
X153625108Y-68524765D02*
X152975108Y-68524765D01*
X165300127Y-64699873D02*
X157450000Y-64699873D01*
X157450000Y-64699873D02*
X153625108Y-68524765D01*
X179500000Y-57500000D02*
X172500000Y-57500000D01*
X172500000Y-57500000D02*
X165300127Y-64699873D01*
X182000000Y-55000000D02*
X179500000Y-57500000D01*
%TO.N,/Control/ISO_GPIO_2*%
X183114999Y-196635001D02*
X183114999Y-197477584D01*
X186750000Y-193000000D02*
X183114999Y-196635001D01*
X189750000Y-193000000D02*
X186750000Y-193000000D01*
X191250000Y-191500000D02*
X189750000Y-193000000D01*
X191250000Y-139942000D02*
X191250000Y-191500000D01*
X186750000Y-135442000D02*
X191250000Y-139942000D01*
X191250000Y-65500000D02*
X191250000Y-120000000D01*
X186750000Y-124500000D02*
X186750000Y-135442000D01*
X191250000Y-120000000D02*
X186750000Y-124500000D01*
X165500000Y-65500000D02*
X169500000Y-61500000D01*
X157500000Y-65500000D02*
X165500000Y-65500000D01*
X169500000Y-61500000D02*
X187250000Y-61500000D01*
X153625095Y-69374905D02*
X157500000Y-65500000D01*
X152975108Y-69374905D02*
X153625095Y-69374905D01*
X187250000Y-61500000D02*
X191250000Y-65500000D01*
%TO.N,/Control/RGBLED*%
X175000000Y-62250000D02*
X169750000Y-62250000D01*
X175450000Y-62700000D02*
X175000000Y-62250000D01*
X169750000Y-62250000D02*
X165750000Y-66250000D01*
X175450000Y-63350000D02*
X175450000Y-62700000D01*
X165750000Y-66250000D02*
X158000000Y-66250000D01*
D79*
%TO.N,*%
X146000000Y-64324867D02*
X146000000Y-65974854D01*
X137525146Y-58974854D02*
X137500000Y-59000000D01*
X144350013Y-64324867D02*
X144350013Y-65974854D01*
X147649987Y-67624841D02*
X147649987Y-65974854D01*
X146000000Y-65974854D02*
X147649987Y-65974854D01*
X144350013Y-67624841D02*
X146000000Y-67624841D01*
X137500000Y-73750000D02*
X138275146Y-72974854D01*
X146000000Y-67624841D02*
X146000000Y-65974854D01*
X144350013Y-64324867D02*
X146000000Y-64324867D01*
X154724854Y-58974854D02*
X153000000Y-58974854D01*
X149224854Y-65974854D02*
X149250000Y-66000000D01*
X143025146Y-65974854D02*
X143000000Y-66000000D01*
X146000000Y-67624841D02*
X146000000Y-69250000D01*
X146000000Y-67624841D02*
X147649987Y-67624841D01*
X144350013Y-65974854D02*
X144350013Y-67624841D01*
X146000000Y-64324867D02*
X146000000Y-63000000D01*
X147649987Y-64324867D02*
X146000000Y-64324867D01*
X147649987Y-65974854D02*
X147649987Y-64324867D01*
X154750000Y-59000000D02*
X154724854Y-58974854D01*
X144350013Y-65974854D02*
X146000000Y-65974854D01*
X144350013Y-65974854D02*
X143025146Y-65974854D01*
X138275146Y-72974854D02*
X139000000Y-72974854D01*
X147649987Y-65974854D02*
X149224854Y-65974854D01*
X153000000Y-74500000D02*
X153000000Y-72974854D01*
X139000000Y-58974854D02*
X137525146Y-58974854D01*
D78*
%TO.N,+15V*%
X122500000Y-147775000D02*
X122525000Y-147750000D01*
D79*
X99025000Y-114750000D02*
X99025000Y-113050000D01*
D78*
X163500000Y-153750000D02*
X163250000Y-153500000D01*
D79*
X123099949Y-145425051D02*
X122525000Y-146000000D01*
D78*
X152000000Y-214467462D02*
X151217462Y-215250000D01*
X151217462Y-215250000D02*
X148825000Y-215250000D01*
D80*
X136100000Y-105400000D02*
X136100000Y-105000000D01*
D78*
X163250000Y-153500000D02*
X163250000Y-111250000D01*
D80*
X133350000Y-108150000D02*
X136100000Y-105400000D01*
D78*
X152525000Y-196717462D02*
X152000000Y-197242462D01*
D80*
X133350000Y-108250000D02*
X133350000Y-108150000D01*
D78*
X148825000Y-215250000D02*
X148000000Y-214425000D01*
X152000000Y-197242462D02*
X152000000Y-214467462D01*
D79*
X122525000Y-147750000D02*
X122525000Y-146000000D01*
X96487500Y-149687500D02*
X96487500Y-147512500D01*
D78*
X122500000Y-149250000D02*
X122500000Y-147775000D01*
X155500000Y-185250000D02*
X152525000Y-188225000D01*
X128000000Y-152250000D02*
X125500000Y-152250000D01*
D79*
X99025000Y-114750000D02*
X100500000Y-114750000D01*
D78*
X152525000Y-188225000D02*
X152525000Y-196717462D01*
D79*
X99025000Y-113050000D02*
X99250000Y-112825000D01*
X99250000Y-112825000D02*
X100884817Y-112825000D01*
D78*
X162000000Y-185250000D02*
X155500000Y-185250000D01*
D79*
X123099949Y-140700025D02*
X123099949Y-145425051D01*
X96487500Y-147512500D02*
X96500000Y-147500000D01*
D78*
X163250000Y-184000000D02*
X162000000Y-185250000D01*
D79*
X100500000Y-114750000D02*
X100750000Y-114500000D01*
D78*
X125500000Y-152250000D02*
X122500000Y-149250000D01*
D79*
X100884817Y-112825000D02*
X101009779Y-112949962D01*
%TO.N,GND*%
X107500000Y-146062500D02*
X107625000Y-145937500D01*
D78*
X195000000Y-193725000D02*
X195000000Y-192500000D01*
X101750000Y-92899098D02*
X101750000Y-93685102D01*
X133750000Y-158750000D02*
X134750000Y-159750000D01*
D79*
X151100076Y-58949962D02*
X150249936Y-58949962D01*
X103000000Y-123150000D02*
X102390005Y-122540005D01*
D78*
X132900000Y-152250000D02*
X132900000Y-150300000D01*
X170929000Y-194071000D02*
X170929000Y-195326000D01*
X181844996Y-195655004D02*
X182000000Y-195500000D01*
X126500000Y-71500000D02*
X126250000Y-71250000D01*
D79*
X120200026Y-146000000D02*
X117900051Y-143700025D01*
X154675083Y-61724917D02*
X154700000Y-61700000D01*
X102390005Y-122540005D02*
X98000000Y-122540005D01*
D78*
X124250000Y-147525000D02*
X124250000Y-148750000D01*
D79*
X146000000Y-58949962D02*
X146849886Y-58949962D01*
D78*
X132900000Y-150300000D02*
X132850000Y-150250000D01*
X116250000Y-142049974D02*
X117900051Y-143700025D01*
X138682499Y-193795009D02*
X137417500Y-195060008D01*
X127750000Y-147525000D02*
X126000000Y-147525000D01*
X125500000Y-82000000D02*
X124750000Y-81250000D01*
X99000000Y-102500000D02*
X100185102Y-102500000D01*
X169075000Y-197600000D02*
X169075000Y-195428000D01*
D79*
X139824892Y-60024892D02*
X140050038Y-59799746D01*
D78*
X132750000Y-147525000D02*
X132750000Y-148750000D01*
D79*
X139024892Y-60874778D02*
X139024892Y-60024892D01*
D78*
X138682499Y-193430004D02*
X138682499Y-193795009D01*
X132750000Y-147525000D02*
X131250000Y-147525000D01*
X130000000Y-67775000D02*
X129050000Y-67775000D01*
X118869996Y-202905004D02*
X118432499Y-202905004D01*
X152155004Y-174200000D02*
X152155004Y-174817501D01*
X190500000Y-196000000D02*
X191094996Y-196594996D01*
X129750000Y-160475000D02*
X129750000Y-159250000D01*
X99850000Y-104750000D02*
X99850000Y-106825000D01*
X120500000Y-201275000D02*
X118869996Y-202905004D01*
X101000000Y-101685102D02*
X101000000Y-100899098D01*
X100185102Y-102500000D02*
X101000000Y-101685102D01*
X140250000Y-188250000D02*
X145805000Y-188250000D01*
D79*
X143450089Y-58949962D02*
X143450089Y-59950089D01*
X120975000Y-147750000D02*
X120975000Y-146000000D01*
D78*
X133750000Y-158750000D02*
X133500000Y-159000000D01*
X145805000Y-188250000D02*
X148000000Y-190445000D01*
X133249936Y-158249936D02*
X133750000Y-158750000D01*
X100500127Y-65824873D02*
X100500127Y-68064478D01*
X99850000Y-106825000D02*
X99800000Y-106875000D01*
X138200000Y-159500000D02*
X138200000Y-157800000D01*
D79*
X147700025Y-58949962D02*
X148549911Y-58949962D01*
D78*
X138682499Y-193932499D02*
X142000000Y-197250000D01*
D79*
X143450089Y-59950089D02*
X143750000Y-60250000D01*
X175450000Y-65750000D02*
X175525000Y-65675000D01*
D78*
X126425000Y-160950000D02*
X126475000Y-161000000D01*
X132750000Y-150150000D02*
X132850000Y-150250000D01*
X115315088Y-55750000D02*
X115315088Y-57340088D01*
X133500000Y-159000000D02*
X133250000Y-159000000D01*
X133000000Y-158249936D02*
X133249936Y-158249936D01*
X133025000Y-159225000D02*
X133250000Y-159000000D01*
D79*
X107625000Y-145937500D02*
X105950000Y-145937500D01*
D78*
X176695000Y-197193000D02*
X177800000Y-196088000D01*
D79*
X146000000Y-58949962D02*
X146000000Y-60250000D01*
X142599949Y-58949962D02*
X143450089Y-58949962D01*
D78*
X132750000Y-148750000D02*
X132750000Y-150150000D01*
D79*
X152975108Y-61724917D02*
X154675083Y-61724917D01*
X175525000Y-65675000D02*
X177800000Y-65675000D01*
D78*
X170929000Y-195326000D02*
X169177000Y-195326000D01*
X126000000Y-147525000D02*
X124250000Y-147525000D01*
X127250000Y-83425000D02*
X126500000Y-83425000D01*
X129525000Y-147525000D02*
X129500000Y-147550000D01*
X101435102Y-94000000D02*
X99500000Y-94000000D01*
X100925000Y-65400000D02*
X100500127Y-65824873D01*
X191094996Y-196594996D02*
X191094996Y-197477584D01*
X138325000Y-186000000D02*
X138325000Y-187700000D01*
X99850000Y-104750000D02*
X101350000Y-103250000D01*
D79*
X138824784Y-60225000D02*
X139024892Y-60024892D01*
X137250000Y-60225000D02*
X138824784Y-60225000D01*
D78*
X125550000Y-83425000D02*
X125500000Y-83475000D01*
X101350000Y-103250000D02*
X102250000Y-103250000D01*
X126425000Y-159500000D02*
X126425000Y-160950000D01*
X124975000Y-154000000D02*
X124000000Y-154000000D01*
X127775000Y-147550000D02*
X127750000Y-147525000D01*
D79*
X140899924Y-58949962D02*
X141750064Y-58949962D01*
D78*
X124000000Y-154000000D02*
X123250000Y-154750000D01*
X131250000Y-147525000D02*
X129525000Y-147525000D01*
D79*
X96750000Y-114750000D02*
X96000000Y-114000000D01*
X148549911Y-58949962D02*
X149400051Y-58949962D01*
D78*
X126475000Y-161000000D02*
X126475000Y-162225000D01*
X124925000Y-154050000D02*
X124975000Y-154000000D01*
X132249936Y-158249936D02*
X131500127Y-157500127D01*
X133025000Y-160500000D02*
X133025000Y-159225000D01*
X126500000Y-72425000D02*
X126500000Y-71500000D01*
X181844996Y-197477584D02*
X181844996Y-195655004D01*
X129050000Y-67775000D02*
X129000000Y-67825000D01*
D79*
X120975000Y-146000000D02*
X120200026Y-146000000D01*
D78*
X152155004Y-173594996D02*
X152155004Y-174817501D01*
X116250000Y-141775000D02*
X116250000Y-142049974D01*
D79*
X148549911Y-58949962D02*
X148549911Y-59700089D01*
D78*
X126750000Y-205250000D02*
X125475000Y-205250000D01*
X101750000Y-93685102D02*
X101435102Y-94000000D01*
X109975000Y-58750000D02*
X108315088Y-57090088D01*
X138682499Y-193430004D02*
X138682499Y-193932499D01*
X129500000Y-147550000D02*
X127775000Y-147550000D01*
X126500000Y-72425000D02*
X125550000Y-72425000D01*
D79*
X135500000Y-60225000D02*
X137250000Y-60225000D01*
D78*
X138325000Y-187700000D02*
X138275000Y-187750000D01*
X142000000Y-197250000D02*
X142000000Y-203000000D01*
D79*
X140899924Y-59649924D02*
X141500000Y-60250000D01*
D78*
X121330004Y-202905004D02*
X118432499Y-202905004D01*
D79*
X175450000Y-65750000D02*
X175450000Y-66650000D01*
D78*
X127250000Y-72425000D02*
X126500000Y-72425000D01*
X150275000Y-172750000D02*
X150705004Y-172750000D01*
D79*
X144299975Y-58949962D02*
X145150114Y-58949962D01*
X140050038Y-58949962D02*
X140899924Y-58949962D01*
D78*
X130750000Y-67775000D02*
X130000000Y-67775000D01*
D79*
X143450089Y-58949962D02*
X144299975Y-58949962D01*
D78*
X126475000Y-162225000D02*
X126500000Y-162250000D01*
X139750000Y-187750000D02*
X140250000Y-188250000D01*
X171000000Y-194000000D02*
X170929000Y-194071000D01*
D79*
X148000000Y-219287500D02*
X150750000Y-219287500D01*
D78*
X125550000Y-72425000D02*
X125500000Y-72475000D01*
X137250000Y-156500000D02*
X136325000Y-156500000D01*
D79*
X151100076Y-58949962D02*
X151100076Y-59649924D01*
D78*
X138200000Y-157800000D02*
X138250000Y-157750000D01*
X125475000Y-205250000D02*
X124000000Y-203775000D01*
X130000000Y-67775000D02*
X130000000Y-69000000D01*
D79*
X97475000Y-114750000D02*
X96750000Y-114750000D01*
D78*
X137417500Y-195060008D02*
X136864998Y-195060008D01*
X152500000Y-173250000D02*
X152155004Y-173594996D01*
X137250000Y-156500000D02*
X137250000Y-156750000D01*
X169075000Y-195428000D02*
X169177000Y-195326000D01*
X108315088Y-57090088D02*
X108315088Y-55750000D01*
X150705004Y-172750000D02*
X152155004Y-174200000D01*
X125500000Y-83475000D02*
X125500000Y-82000000D01*
X124925000Y-155750000D02*
X124925000Y-154050000D01*
X115315088Y-57340088D02*
X116725000Y-58750000D01*
D79*
X151100076Y-58949962D02*
X151949962Y-58949962D01*
D78*
X141500000Y-159325000D02*
X141500000Y-160500000D01*
D79*
X139024892Y-60024892D02*
X139824892Y-60024892D01*
X146849886Y-58949962D02*
X147700025Y-58949962D01*
X141750064Y-58949962D02*
X142599949Y-58949962D01*
X145150114Y-58949962D02*
X146000000Y-58949962D01*
X107500000Y-148000000D02*
X107500000Y-146062500D01*
X148549911Y-59700089D02*
X148000000Y-60250000D01*
D78*
X188775000Y-196000000D02*
X190500000Y-196000000D01*
D79*
X149400051Y-58949962D02*
X150249936Y-58949962D01*
X96000000Y-114000000D02*
X96000000Y-111700000D01*
X140899924Y-58949962D02*
X140899924Y-59649924D01*
X151100076Y-59649924D02*
X150500000Y-60250000D01*
D78*
X126500000Y-83425000D02*
X125550000Y-83425000D01*
X122300000Y-203775000D02*
X122250000Y-203825000D01*
X122250000Y-203825000D02*
X121330004Y-202905004D01*
X124000000Y-203775000D02*
X122300000Y-203775000D01*
D79*
X140050038Y-59799746D02*
X140050038Y-58949962D01*
D78*
X138275000Y-187750000D02*
X139750000Y-187750000D01*
X137250000Y-156750000D02*
X138250000Y-157750000D01*
X99500000Y-94000000D02*
X99250000Y-93750000D01*
X176695000Y-197600000D02*
X176695000Y-197193000D01*
D79*
X152975108Y-62574803D02*
X152975108Y-61724917D01*
D78*
X133000000Y-158249936D02*
X132249936Y-158249936D01*
D79*
%TO.N,+3.3V*%
X174674000Y-195326000D02*
X172479000Y-195326000D01*
D78*
X148344996Y-174817501D02*
X148344996Y-173130004D01*
D79*
X124250000Y-133925000D02*
X124250000Y-107000000D01*
D78*
X120500000Y-199725000D02*
X121225000Y-199000000D01*
X136325000Y-77250000D02*
X136250000Y-77325000D01*
D79*
X152000000Y-196500000D02*
X152000000Y-188250000D01*
D78*
X124000000Y-199000000D02*
X125000000Y-199000000D01*
D79*
X174750000Y-195250000D02*
X174674000Y-195326000D01*
D78*
X136000000Y-158750000D02*
X135300000Y-158750000D01*
X130750000Y-77250000D02*
X129750000Y-76250000D01*
X113250000Y-105575000D02*
X114000000Y-105575000D01*
X170345000Y-197600000D02*
X170345000Y-198717000D01*
X143750000Y-190000000D02*
X145250000Y-191500000D01*
X125000000Y-199000000D02*
X128000000Y-202000000D01*
X167894000Y-195593000D02*
X167894000Y-197511000D01*
X138052495Y-191250000D02*
X138682499Y-191880004D01*
X101000000Y-97814898D02*
X100435102Y-97250000D01*
D79*
X114750000Y-146000000D02*
X114750000Y-148750000D01*
D78*
X194905004Y-195369996D02*
X195000000Y-195275000D01*
D79*
X150250000Y-186500000D02*
X150250000Y-184250000D01*
D78*
X186500000Y-196000000D02*
X187225000Y-196000000D01*
X155350000Y-97900000D02*
X155350000Y-97050000D01*
X114799924Y-72749987D02*
X113000013Y-72749987D01*
D79*
X135500000Y-61775000D02*
X137250000Y-61775000D01*
D78*
X131475000Y-160500000D02*
X131475000Y-161525000D01*
X171615000Y-196431000D02*
X171615000Y-197600000D01*
X172479000Y-195326000D02*
X172479000Y-195567000D01*
X133000000Y-157750064D02*
X134300064Y-157750064D01*
X114000000Y-105575000D02*
X114000000Y-107000000D01*
X118432499Y-199094996D02*
X119869996Y-199094996D01*
X101000000Y-98600902D02*
X101000000Y-97814898D01*
X136250000Y-79750000D02*
X137500000Y-81000000D01*
X119869996Y-199094996D02*
X120500000Y-199725000D01*
X113000013Y-83749987D02*
X113000000Y-83750000D01*
X145250000Y-191500000D02*
X145250000Y-194750000D01*
X167894000Y-197511000D02*
X167805000Y-197600000D01*
D79*
X166000000Y-195326000D02*
X167627000Y-195326000D01*
D78*
X136864998Y-191250000D02*
X138052495Y-191250000D01*
D79*
X134275000Y-61775000D02*
X134250000Y-61750000D01*
X147250000Y-172750000D02*
X148725000Y-172750000D01*
D78*
X134300064Y-157750064D02*
X134750000Y-158200000D01*
D79*
X187225000Y-196000000D02*
X188725000Y-194500000D01*
D78*
X167627000Y-195326000D02*
X167894000Y-195593000D01*
D79*
X188725000Y-194500000D02*
X191250000Y-194500000D01*
D78*
X135300000Y-158750000D02*
X134750000Y-158200000D01*
X138682499Y-191567501D02*
X140250000Y-190000000D01*
D79*
X196250000Y-195250000D02*
X195025000Y-195250000D01*
D78*
X114799924Y-83749987D02*
X113000013Y-83749987D01*
X122075000Y-58750000D02*
X122075000Y-57575000D01*
X131425000Y-77250000D02*
X130750000Y-77250000D01*
D79*
X195025000Y-195250000D02*
X195000000Y-195275000D01*
D78*
X172479000Y-195567000D02*
X171615000Y-196431000D01*
X146025000Y-195525000D02*
X148000000Y-195525000D01*
X170345000Y-198717000D02*
X169926000Y-199136000D01*
D79*
X114675000Y-138500000D02*
X114750000Y-138575000D01*
D78*
X145250000Y-194750000D02*
X146025000Y-195525000D01*
D79*
X114750000Y-148750000D02*
X123500000Y-157500000D01*
X117175000Y-137625000D02*
X117275000Y-137725000D01*
X114750000Y-138575000D02*
X114750000Y-146000000D01*
D78*
X122000000Y-57500000D02*
X122075000Y-57575000D01*
X168148000Y-199136000D02*
X167805000Y-198793000D01*
X171615000Y-197600000D02*
X172885000Y-197600000D01*
X194905004Y-197477584D02*
X194905004Y-195369996D01*
D79*
X150750000Y-197750000D02*
X150750000Y-195325000D01*
D78*
X185655004Y-197477584D02*
X185655004Y-196844996D01*
D80*
X143375000Y-95625000D02*
X143100000Y-95350000D01*
D78*
X167805000Y-198793000D02*
X167805000Y-197600000D01*
X148344996Y-173130004D02*
X148725000Y-172750000D01*
X148275000Y-195250000D02*
X150675000Y-195250000D01*
X170345000Y-197600000D02*
X171615000Y-197600000D01*
X113000013Y-72749987D02*
X113000000Y-72750000D01*
X155350000Y-97050000D02*
X155100000Y-96800000D01*
D79*
X139024892Y-61724917D02*
X137300083Y-61724917D01*
D78*
X129825000Y-154625402D02*
X130280959Y-155081361D01*
X129825000Y-154000000D02*
X129825000Y-154625402D01*
X138682499Y-191880004D02*
X138682499Y-191567501D01*
X121225000Y-199000000D02*
X124000000Y-199000000D01*
X131750064Y-160224936D02*
X131750064Y-159000000D01*
X101975462Y-88750000D02*
X101750000Y-88975462D01*
X185655004Y-196844996D02*
X186500000Y-196000000D01*
X140250000Y-190000000D02*
X143750000Y-190000000D01*
D79*
X150750000Y-197750000D02*
X152000000Y-196500000D01*
X118900000Y-137725000D02*
X119675000Y-138500000D01*
D78*
X131475000Y-160500000D02*
X131750064Y-160224936D01*
X101750000Y-88975462D02*
X101750000Y-90600902D01*
X100435102Y-97250000D02*
X99000000Y-97250000D01*
D79*
X152000000Y-188250000D02*
X150250000Y-186500000D01*
X170550000Y-63350000D02*
X170550000Y-64950000D01*
D78*
X113000000Y-61749987D02*
X114799924Y-61749987D01*
D79*
X135500000Y-61775000D02*
X134275000Y-61775000D01*
D78*
X114000000Y-105575000D02*
X115000000Y-105575000D01*
D79*
X117275000Y-137725000D02*
X118900000Y-137725000D01*
D78*
X169926000Y-199136000D02*
X168148000Y-199136000D01*
X136250000Y-77325000D02*
X136250000Y-79750000D01*
D79*
X137300083Y-61724917D02*
X137250000Y-61775000D01*
X150750000Y-213250000D02*
X150750000Y-214500000D01*
D78*
X150675000Y-195250000D02*
X150750000Y-195325000D01*
D79*
X170550000Y-64950000D02*
X170500000Y-65000000D01*
X115550000Y-137625000D02*
X117175000Y-137625000D01*
X119675000Y-138500000D02*
X124250000Y-133925000D01*
D78*
X131475000Y-161525000D02*
X131000000Y-162000000D01*
D79*
X115475000Y-137700000D02*
X115550000Y-137625000D01*
X114675000Y-138500000D02*
X115475000Y-137700000D01*
D78*
X148000000Y-195525000D02*
X148275000Y-195250000D01*
D79*
%TO.N,Net-(D5-K)*%
X98000000Y-120000000D02*
X95000000Y-123000000D01*
X95000000Y-140750000D02*
X96250000Y-142000000D01*
D78*
X103000000Y-119850000D02*
X102850000Y-120000000D01*
D79*
X102850000Y-120000000D02*
X98000000Y-120000000D01*
X103000000Y-117962500D02*
X103000000Y-119850000D01*
X96250000Y-142000000D02*
X98000000Y-142000000D01*
X95000000Y-123000000D02*
X95000000Y-140750000D01*
D78*
%TO.N,Net-(Fan1-Pad3)*%
X112000000Y-106075000D02*
X111500000Y-105575000D01*
X112000000Y-112750000D02*
X112000000Y-106075000D01*
X106250000Y-115750000D02*
X109000000Y-115750000D01*
X109000000Y-115750000D02*
X112000000Y-112750000D01*
%TO.N,/Control/RGBLED*%
X144250000Y-71500000D02*
X144250000Y-72950025D01*
X177800000Y-64125000D02*
X177025000Y-63350000D01*
X144250000Y-72950025D02*
X144299975Y-73000000D01*
X177025000Y-63350000D02*
X175450000Y-63350000D01*
D80*
%TO.N,/Power/AC_L*%
X110250000Y-165250000D02*
X110750000Y-165750000D01*
X110750000Y-165750000D02*
X110750000Y-180750000D01*
X110750000Y-180750000D02*
X109810000Y-181690000D01*
X109810000Y-181690000D02*
X107000000Y-181690000D01*
D78*
%TO.N,Net-(U13-ITRIP)*%
X118700025Y-140700025D02*
X118250000Y-140250000D01*
X119900051Y-140700025D02*
X118700025Y-140700025D01*
X119900051Y-140700025D02*
X116725025Y-140700025D01*
X118250000Y-138825000D02*
X118000000Y-138575000D01*
X116325000Y-138500000D02*
X117925000Y-138500000D01*
X118250000Y-140250000D02*
X118250000Y-138825000D01*
X116725025Y-140700025D02*
X116250000Y-140225000D01*
X117925000Y-138500000D02*
X118000000Y-138575000D01*
D79*
%TO.N,Net-(D4-K)*%
X99412500Y-149687500D02*
X101800000Y-149687500D01*
X99412500Y-149687500D02*
X99700000Y-149975000D01*
X99500000Y-149775000D02*
X99412500Y-149687500D01*
X99500000Y-156350000D02*
X99500000Y-149775000D01*
%TO.N,Net-(D4-A)*%
X108262500Y-149687500D02*
X108450000Y-149875000D01*
X107000000Y-149887500D02*
X107200000Y-149687500D01*
X105100000Y-149687500D02*
X108262500Y-149687500D01*
X107200000Y-149687500D02*
X108262500Y-149687500D01*
X107000000Y-156350000D02*
X107000000Y-149887500D01*
D78*
%TO.N,Net-(Q1-G)*%
X109400000Y-148000000D02*
X109400000Y-146062500D01*
X109400000Y-146062500D02*
X109275000Y-145937500D01*
X109275000Y-144437500D02*
X109450000Y-144262500D01*
X109275000Y-145937500D02*
X109275000Y-144437500D01*
%TO.N,Net-(Q2-G)*%
X101500000Y-105500000D02*
X101750000Y-105750000D01*
X103350000Y-104750000D02*
X101500000Y-104750000D01*
X101500000Y-104750000D02*
X101500000Y-105500000D01*
X101750000Y-105750000D02*
X101750000Y-106825000D01*
X101750000Y-106825000D02*
X101700000Y-106875000D01*
%TO.N,Net-(Fan2-Pad3)*%
X112750000Y-110250000D02*
X116750000Y-106250000D01*
X101540005Y-139459995D02*
X112750000Y-128250000D01*
X112750000Y-128250000D02*
X112750000Y-110250000D01*
X98000000Y-139459995D02*
X101540005Y-139459995D01*
X116750000Y-106250000D02*
X116750000Y-105575000D01*
%TO.N,Net-(R20-Pad1)*%
X123199975Y-66249860D02*
X125674860Y-66249860D01*
X125674860Y-66249860D02*
X125675000Y-66250000D01*
%TO.N,Net-(R21-Pad1)*%
X125424860Y-77249860D02*
X125500000Y-77325000D01*
X123199975Y-77249860D02*
X125424860Y-77249860D01*
%TO.N,Net-(R22-Pad1)*%
X125424860Y-88249860D02*
X125500000Y-88325000D01*
X123199975Y-88249860D02*
X125424860Y-88249860D01*
%TO.N,Net-(U1-IO0)*%
X111525000Y-58750000D02*
X112684912Y-57590088D01*
X112684912Y-57590088D02*
X112684912Y-55750000D01*
%TO.N,Net-(D1-A)*%
X150750000Y-217787500D02*
X150750000Y-216150000D01*
%TO.N,Net-(D2-A)*%
X148000000Y-216075000D02*
X148000000Y-217787500D01*
%TO.N,/Control/FAN_CONTROL*%
X112500000Y-97250000D02*
X105000000Y-104750000D01*
X136250000Y-71000000D02*
X136250000Y-74250000D01*
X141000000Y-81000000D02*
X141000000Y-89250000D01*
X138125000Y-91000000D02*
X131875000Y-97250000D01*
X137299752Y-63424943D02*
X139024892Y-63424943D01*
X140000000Y-78000000D02*
X140000000Y-80000000D01*
X136500000Y-65250000D02*
X136500000Y-64224695D01*
X140000000Y-80000000D02*
X141000000Y-81000000D01*
X136250000Y-74250000D02*
X140000000Y-78000000D01*
X141000000Y-89250000D02*
X139250000Y-91000000D01*
X139250000Y-91000000D02*
X138125000Y-91000000D01*
X136500000Y-64224695D02*
X137299752Y-63424943D01*
X131875000Y-97250000D02*
X112500000Y-97250000D01*
%TO.N,/Control/FAN2_PWM_FB*%
X148224694Y-76000000D02*
X149400051Y-74824643D01*
X130750000Y-99250000D02*
X128750000Y-99250000D01*
X145474500Y-78750000D02*
X148224500Y-76000000D01*
X148224500Y-76000000D02*
X148224694Y-76000000D01*
X128750000Y-99250000D02*
X125500000Y-102500000D01*
X118250000Y-102500000D02*
X116825000Y-103925000D01*
X125500000Y-102500000D02*
X118250000Y-102500000D01*
X149400051Y-74824643D02*
X149400051Y-73000000D01*
X115000000Y-103925000D02*
X116750000Y-103925000D01*
X116825000Y-103925000D02*
X116750000Y-103925000D01*
%TO.N,/Control/FAN1_PWM_FB*%
X113250000Y-103925000D02*
X111500000Y-103925000D01*
X114425000Y-102750000D02*
X113250000Y-103925000D01*
X151750000Y-77500000D02*
X151949962Y-77300038D01*
X117000000Y-102750000D02*
X114425000Y-102750000D01*
X128750000Y-98250000D02*
X125250000Y-101750000D01*
X125250000Y-101750000D02*
X118000000Y-101750000D01*
X118000000Y-101750000D02*
X117000000Y-102750000D01*
X151949962Y-77300038D02*
X151949962Y-73000000D01*
X131474500Y-98250000D02*
X128750000Y-98250000D01*
%TO.N,/Control/POT1OUT*%
X107164478Y-63900000D02*
X127500000Y-63900000D01*
X103000000Y-68064478D02*
X103000000Y-65925000D01*
X134074854Y-65974854D02*
X139024892Y-65974854D01*
X128700000Y-65100000D02*
X133200000Y-65100000D01*
X103000000Y-68064478D02*
X107164478Y-63900000D01*
X103000000Y-65925000D02*
X102475000Y-65400000D01*
X133200000Y-65100000D02*
X134074854Y-65974854D01*
X127500000Y-63900000D02*
X128700000Y-65100000D01*
%TO.N,LINW*%
X139024892Y-71074930D02*
X137425070Y-71074930D01*
X124500000Y-136500000D02*
X124500000Y-137175000D01*
X137425070Y-71074930D02*
X137250000Y-71250000D01*
X125750000Y-135250000D02*
X124500000Y-136500000D01*
X125750000Y-105500000D02*
X125750000Y-135250000D01*
%TO.N,LINV*%
X126250000Y-136500000D02*
X126250000Y-137175000D01*
X137825184Y-71924816D02*
X137500000Y-72250000D01*
X139024892Y-71924816D02*
X137825184Y-71924816D01*
X126525970Y-104870019D02*
X126500000Y-104844049D01*
X126525970Y-104870019D02*
X126500000Y-104895989D01*
X126500000Y-136250000D02*
X126250000Y-136500000D01*
X126500000Y-104895989D02*
X126500000Y-136250000D01*
%TO.N,LINU*%
X138500000Y-74750000D02*
X140050038Y-73199962D01*
X127250000Y-135750000D02*
X128000000Y-136500000D01*
X127275500Y-104209440D02*
X127250000Y-104234940D01*
X140050038Y-73199962D02*
X140050038Y-73000000D01*
X128000000Y-136500000D02*
X128000000Y-137175000D01*
X127250000Y-104234940D02*
X127250000Y-135750000D01*
%TO.N,HINW*%
X128000000Y-103547465D02*
X128000000Y-134750000D01*
X140250000Y-74500000D02*
X140899924Y-73850076D01*
X140899924Y-73850076D02*
X140899924Y-73000000D01*
X127831172Y-103378637D02*
X128000000Y-103547465D01*
X129750000Y-136500000D02*
X129750000Y-137175000D01*
X128000000Y-134750000D02*
X129750000Y-136500000D01*
%TO.N,HINV*%
X131500000Y-136500000D02*
X131500000Y-137175000D01*
X140013006Y-75762299D02*
X141750064Y-74025241D01*
X128750000Y-133750000D02*
X131500000Y-136500000D01*
X128559470Y-102694103D02*
X128750000Y-102884633D01*
X140012299Y-75762299D02*
X140013006Y-75762299D01*
X141750064Y-74025241D02*
X141750064Y-73000000D01*
X128750000Y-102884633D02*
X128750000Y-133750000D01*
%TO.N,HINU*%
X133250000Y-136500000D02*
X133250000Y-137175000D01*
X142599949Y-74199955D02*
X141274952Y-75524952D01*
X129500000Y-132750000D02*
X133250000Y-136500000D01*
X142599949Y-73000000D02*
X142599949Y-74199955D01*
X129264399Y-101985527D02*
X129500000Y-102221128D01*
X129500000Y-102221128D02*
X129500000Y-132750000D01*
%TO.N,RELAY*%
X130000000Y-100000000D02*
X128974695Y-100000000D01*
X109500000Y-142562500D02*
X109450000Y-142612500D01*
X128525000Y-100449695D02*
X128525000Y-100475000D01*
X113500000Y-128750000D02*
X109500000Y-132750000D01*
X140750000Y-78000000D02*
X143450089Y-75299911D01*
X117750000Y-106500000D02*
X113500000Y-110750000D01*
X122500000Y-106500000D02*
X117750000Y-106500000D01*
X128974695Y-100000000D02*
X128525000Y-100449695D01*
X109500000Y-132750000D02*
X109500000Y-142562500D01*
X128525000Y-100475000D02*
X122500000Y-106500000D01*
X113500000Y-110750000D02*
X113500000Y-128750000D01*
X143450089Y-75299911D02*
X143450089Y-73000000D01*
%TO.N,/Control/TEMP_HEATSINK*%
X150750000Y-193675000D02*
X149675000Y-193675000D01*
X145150114Y-73000000D02*
X145150114Y-74900114D01*
X148985000Y-192985000D02*
X148000000Y-192985000D01*
X149675000Y-193675000D02*
X148985000Y-192985000D01*
X145150114Y-74900114D02*
X146000000Y-75750000D01*
%TO.N,Net-(J3-Pin_1)*%
X173460000Y-217500000D02*
X173500000Y-217500000D01*
X181500000Y-212075000D02*
X181500000Y-212750000D01*
X181500000Y-212750000D02*
X181000000Y-213250000D01*
X177710000Y-213250000D02*
X173460000Y-217500000D01*
X181000000Y-213250000D02*
X177710000Y-213250000D01*
%TO.N,Net-(J3-Pin_2)*%
X182000000Y-214000000D02*
X179500000Y-214000000D01*
X179500000Y-214000000D02*
X176000000Y-217500000D01*
X183000000Y-213000000D02*
X182000000Y-214000000D01*
X176000000Y-216500000D02*
X176000000Y-217500000D01*
X183000000Y-212075000D02*
X183000000Y-213000000D01*
%TO.N,/Control/USB_N*%
X189500000Y-119743604D02*
X185478000Y-123765604D01*
X185478000Y-136076396D02*
X190050000Y-140648396D01*
X177278249Y-194050000D02*
X174155000Y-197173249D01*
X186063604Y-191800000D02*
X183813604Y-194050000D01*
X189500000Y-94000000D02*
X189500000Y-119743604D01*
X190050000Y-190813604D02*
X189063604Y-191800000D01*
X189000000Y-93500000D02*
X189500000Y-94000000D01*
X185478000Y-123765604D02*
X185478000Y-136076396D01*
X190050000Y-140648396D02*
X190050000Y-190813604D01*
X174155000Y-197173249D02*
X174155000Y-197600000D01*
X183813604Y-194050000D02*
X177278249Y-194050000D01*
X189063604Y-191800000D02*
X186063604Y-191800000D01*
X146000000Y-73000000D02*
X146000000Y-74500000D01*
%TO.N,/Control/USB_P*%
X175425000Y-196539645D02*
X175425000Y-197600000D01*
X189950000Y-92651052D02*
X189950000Y-92944695D01*
X184000000Y-194500000D02*
X177464645Y-194500000D01*
X189994685Y-92606367D02*
X189950000Y-92651052D01*
X189950000Y-92944695D02*
X189955000Y-92949695D01*
X189950000Y-93555305D02*
X189950000Y-119930000D01*
X177464645Y-194500000D02*
X175425000Y-196539645D01*
X190500000Y-140462000D02*
X190500000Y-191000000D01*
X190500000Y-191000000D02*
X189250000Y-192250000D01*
X146849886Y-73000000D02*
X146849886Y-74099886D01*
X185928000Y-135890000D02*
X190500000Y-140462000D01*
X146849886Y-74099886D02*
X147250000Y-74500000D01*
X189955000Y-92949695D02*
X189955000Y-93550305D01*
X186250000Y-192250000D02*
X184000000Y-194500000D01*
X185928000Y-123952000D02*
X185928000Y-135890000D01*
X189950000Y-119930000D02*
X185928000Y-123952000D01*
X189250000Y-192250000D02*
X186250000Y-192250000D01*
X189955000Y-93550305D02*
X189950000Y-93555305D01*
%TO.N,Net-(J3-Pin_3)*%
X184500000Y-212750000D02*
X182500000Y-214750000D01*
X182500000Y-214750000D02*
X181290000Y-214750000D01*
X184500000Y-212075000D02*
X184500000Y-212750000D01*
X181290000Y-214750000D02*
X178540000Y-217500000D01*
%TO.N,/Control/SW1OUT*%
X129000000Y-66175000D02*
X130700000Y-66175000D01*
X133824740Y-66824740D02*
X139024892Y-66824740D01*
X130750000Y-66225000D02*
X133225000Y-66225000D01*
X130700000Y-66175000D02*
X130750000Y-66225000D01*
X127325000Y-66250000D02*
X128925000Y-66250000D01*
X128925000Y-66250000D02*
X129000000Y-66175000D01*
X133225000Y-66225000D02*
X133824740Y-66824740D01*
%TO.N,Net-(J3-Pin_4)*%
X186000000Y-212075000D02*
X186000000Y-212580000D01*
X186000000Y-212580000D02*
X181080000Y-217500000D01*
%TO.N,/Control/SW2OUT*%
X127250000Y-74075000D02*
X127250000Y-74000000D01*
X127200000Y-74025000D02*
X127250000Y-74075000D01*
X125500000Y-74025000D02*
X127200000Y-74025000D01*
X125500000Y-75675000D02*
X125500000Y-74025000D01*
X139000013Y-67650000D02*
X139024892Y-67674879D01*
X127250000Y-74000000D02*
X133600000Y-67650000D01*
X133600000Y-67650000D02*
X139000013Y-67650000D01*
%TO.N,/Control/SW3OUT*%
X133875235Y-68524765D02*
X139024892Y-68524765D01*
X127250000Y-85075000D02*
X128225000Y-85075000D01*
X125500000Y-86675000D02*
X125500000Y-85025000D01*
X125500000Y-85025000D02*
X127200000Y-85025000D01*
X127200000Y-85025000D02*
X127250000Y-85075000D01*
X128225000Y-85075000D02*
X128700000Y-84600000D01*
X128700000Y-73700000D02*
X133875235Y-68524765D01*
X128700000Y-84600000D02*
X128700000Y-73700000D01*
%TO.N,Net-(R46-Pad1)*%
X144250000Y-160750000D02*
X144250000Y-158925000D01*
%TO.N,/Control/SPI_MISO*%
X134000000Y-85000000D02*
X134000000Y-89500000D01*
X133750000Y-84750000D02*
X134000000Y-85000000D01*
X134000000Y-89500000D02*
X130250000Y-93250000D01*
X154250000Y-83000000D02*
X154250000Y-84750000D01*
X153625108Y-70224790D02*
X156000000Y-72599682D01*
X109500000Y-93250000D02*
X104000000Y-98750000D01*
X152975108Y-70224790D02*
X153625108Y-70224790D01*
X100595064Y-96460000D02*
X101949962Y-97814898D01*
X96000000Y-96460000D02*
X100595064Y-96460000D01*
X130250000Y-93250000D02*
X109500000Y-93250000D01*
X156000000Y-81250000D02*
X154250000Y-83000000D01*
X104000000Y-98750000D02*
X102099060Y-98750000D01*
X156000000Y-72599682D02*
X156000000Y-81250000D01*
X102099060Y-98750000D02*
X101949962Y-98600902D01*
X101949962Y-97814898D02*
X101949962Y-98600902D01*
%TO.N,/Control/SPI_MOSI*%
X100125038Y-99461906D02*
X100050038Y-99386906D01*
X98399098Y-98600902D02*
X100050038Y-98600902D01*
X96000000Y-99000000D02*
X98000000Y-99000000D01*
X155000000Y-73299708D02*
X155000000Y-80250000D01*
X134550000Y-83950000D02*
X134550000Y-89950000D01*
X153625108Y-71924816D02*
X155000000Y-73299708D01*
X134550000Y-89950000D02*
X130750000Y-93750000D01*
X98000000Y-99000000D02*
X98399098Y-98600902D01*
X135250000Y-83250000D02*
X134550000Y-83950000D01*
X109750000Y-93750000D02*
X104038094Y-99461906D01*
X100050038Y-99386906D02*
X100050038Y-98600902D01*
X152975108Y-71924816D02*
X153625108Y-71924816D01*
X155000000Y-80250000D02*
X152000000Y-83250000D01*
X104038094Y-99461906D02*
X100125038Y-99461906D01*
X130750000Y-93750000D02*
X109750000Y-93750000D01*
%TO.N,/Control/SPI_CLK*%
X155500000Y-79250000D02*
X155500000Y-80775305D01*
X110000000Y-94250000D02*
X104250000Y-100000000D01*
X152975108Y-71074930D02*
X153625108Y-71074930D01*
X155500000Y-80775305D02*
X153250000Y-83025305D01*
X100050038Y-100113094D02*
X100050038Y-100899098D01*
X135897208Y-84011661D02*
X135238339Y-84011661D01*
X155500000Y-72949822D02*
X155500000Y-79250000D01*
X100163132Y-100000000D02*
X100050038Y-100113094D01*
X135238339Y-84011661D02*
X135000000Y-84250000D01*
X99409136Y-101540000D02*
X100050038Y-100899098D01*
X153625108Y-71074930D02*
X155500000Y-72949822D01*
X135000000Y-90136396D02*
X130886396Y-94250000D01*
X153250000Y-83025305D02*
X153250000Y-83250000D01*
X96000000Y-101540000D02*
X99409136Y-101540000D01*
X104250000Y-100000000D02*
X100163132Y-100000000D01*
X130886396Y-94250000D02*
X110000000Y-94250000D01*
X135000000Y-84250000D02*
X135000000Y-90136396D01*
%TO.N,/Control/SPI_CS*%
X101949962Y-101685102D02*
X101949962Y-100899098D01*
X150500000Y-76512653D02*
X151100076Y-75912577D01*
X135500000Y-90500000D02*
X131250000Y-94750000D01*
X135750000Y-85000000D02*
X135500000Y-85250000D01*
X152000000Y-79500000D02*
X150500000Y-78000000D01*
X96000000Y-104080000D02*
X96580000Y-103500000D01*
X96580000Y-103500000D02*
X100135064Y-103500000D01*
X100135064Y-103500000D02*
X101949962Y-101685102D01*
X150500000Y-78000000D02*
X150500000Y-76512653D01*
X131250000Y-94750000D02*
X110500000Y-94750000D01*
X110500000Y-94750000D02*
X104350902Y-100899098D01*
X151100076Y-75912577D02*
X151100076Y-73000000D01*
X104350902Y-100899098D02*
X101949962Y-100899098D01*
X135500000Y-85250000D02*
X135500000Y-90500000D01*
%TO.N,/Control/UART_TX*%
X96830000Y-94750000D02*
X102000000Y-94750000D01*
X96000000Y-93920000D02*
X96830000Y-94750000D01*
X105350902Y-92899098D02*
X102699962Y-92899098D01*
X153450395Y-65124968D02*
X154776915Y-63798448D01*
X106000000Y-92250000D02*
X105350902Y-92899098D01*
X102699962Y-94050038D02*
X102699962Y-92899098D01*
X152975108Y-65124968D02*
X153450395Y-65124968D01*
X102000000Y-94750000D02*
X102699962Y-94050038D01*
X151625032Y-65124968D02*
X151500000Y-65250000D01*
X152975108Y-65124968D02*
X151625032Y-65124968D01*
%TO.N,/Control/UART_RX*%
X100963132Y-91950000D02*
X100800038Y-92113094D01*
X153225171Y-64274829D02*
X152975108Y-64274829D01*
X104562299Y-92012299D02*
X104500000Y-91950000D01*
X152975108Y-64274829D02*
X151524829Y-64274829D01*
X104762299Y-92012299D02*
X104562299Y-92012299D01*
X104500000Y-91950000D02*
X100963132Y-91950000D01*
X96000000Y-91380000D02*
X97519098Y-92899098D01*
X100800038Y-92113094D02*
X100800038Y-92899098D01*
X97519098Y-92899098D02*
X100800038Y-92899098D01*
X154750000Y-62750000D02*
X153225171Y-64274829D01*
X151524829Y-64274829D02*
X151500000Y-64250000D01*
%TO.N,Net-(U1-EN)*%
X151000000Y-61250000D02*
X152225108Y-60024892D01*
X118944824Y-58750000D02*
X119684912Y-58009912D01*
X118275000Y-58750000D02*
X118944824Y-58750000D01*
X121000000Y-55750000D02*
X119684912Y-55750000D01*
X119684912Y-55750000D02*
X119684912Y-58009912D01*
X152225108Y-60024892D02*
X152975108Y-60024892D01*
X119684912Y-58009912D02*
X120425000Y-58750000D01*
%TO.N,Net-(U2-PDEN)*%
X172707000Y-210058000D02*
X172707000Y-209791000D01*
X172707000Y-209791000D02*
X171704000Y-208788000D01*
X171615000Y-206900000D02*
X172885000Y-206900000D01*
X170345000Y-206900000D02*
X171615000Y-206900000D01*
X171704000Y-206989000D02*
X171615000Y-206900000D01*
X171704000Y-208788000D02*
X171704000Y-206989000D01*
%TO.N,Net-(U2-UD-)*%
X161250000Y-205000000D02*
X162750000Y-205000000D01*
X161250000Y-206925000D02*
X162000000Y-207675000D01*
X173482000Y-208788000D02*
X174155000Y-208115000D01*
X161250000Y-205000000D02*
X161250000Y-206925000D01*
X162300038Y-203949962D02*
X161250000Y-205000000D01*
X162300038Y-203850902D02*
X162300038Y-203949962D01*
X174155000Y-208115000D02*
X174155000Y-206900000D01*
%TO.N,Net-(U2-UD+)*%
X164199962Y-203850902D02*
X165250000Y-204900940D01*
X165250000Y-205994000D02*
X165250000Y-206925000D01*
X165250000Y-204900940D02*
X165250000Y-205994000D01*
X166116000Y-205994000D02*
X165250000Y-205994000D01*
X175425000Y-208191000D02*
X175425000Y-206900000D01*
X176022000Y-208788000D02*
X175425000Y-208191000D01*
X165250000Y-206925000D02*
X164500000Y-207675000D01*
%TO.N,Net-(U3-CC2)*%
X164750191Y-213624968D02*
X164750191Y-211424809D01*
X164750191Y-211424809D02*
X165175000Y-211000000D01*
%TO.N,Net-(U3-DN1)*%
X163250064Y-214447936D02*
X163250064Y-213624968D01*
X162578400Y-214750000D02*
X162948000Y-214750000D01*
X162948000Y-214750000D02*
X163250064Y-214447936D01*
X162250064Y-209325064D02*
X162250000Y-209325000D01*
X162250064Y-214421664D02*
X162578400Y-214750000D01*
X162250064Y-209575064D02*
X162000000Y-209325000D01*
X162250064Y-213624968D02*
X162250064Y-209575064D01*
X162250064Y-213624968D02*
X162250064Y-214421664D01*
%TO.N,Net-(U3-DP1)*%
X162749936Y-213624968D02*
X162749936Y-212775096D01*
X163749936Y-212774840D02*
X163749936Y-213624968D01*
X162749936Y-212775096D02*
X163025032Y-212500000D01*
X163475096Y-210349904D02*
X163475096Y-212500000D01*
X163025032Y-212500000D02*
X163475096Y-212500000D01*
X164500000Y-209325000D02*
X163475096Y-210349904D01*
X163475096Y-212500000D02*
X163749936Y-212774840D01*
%TO.N,Net-(U3-CC1)*%
X161750191Y-213624968D02*
X161750191Y-211425191D01*
X161750191Y-211425191D02*
X161325000Y-211000000D01*
%TO.N,Net-(U8-AIN1{slash}GPIO1)*%
X126575000Y-155750000D02*
X126575000Y-154050000D01*
X128175000Y-154000000D02*
X130175000Y-156000000D01*
X126525000Y-154000000D02*
X128175000Y-154000000D01*
X126575000Y-154050000D02*
X126525000Y-154000000D01*
X130175000Y-156000000D02*
X130750064Y-156000000D01*
%TO.N,VS*%
X152950902Y-102350902D02*
X153200000Y-102600000D01*
X156400000Y-100600000D02*
X155249098Y-100600000D01*
D80*
X150000000Y-105250000D02*
X139650000Y-105250000D01*
D78*
X156700000Y-100900000D02*
X156400000Y-100600000D01*
X156100000Y-102600000D02*
X156700000Y-102000000D01*
X153200000Y-102600000D02*
X156100000Y-102600000D01*
X156700000Y-102000000D02*
X156700000Y-100900000D01*
X152950902Y-101549962D02*
X152950902Y-102350902D01*
D80*
X150000000Y-105250000D02*
X150250000Y-105000000D01*
X150250000Y-105000000D02*
X155850000Y-105000000D01*
X139650000Y-105250000D02*
X139400000Y-105000000D01*
D78*
%TO.N,Net-(U5-VFB)*%
X152600000Y-94775000D02*
X152600000Y-93900000D01*
X154300000Y-94800000D02*
X152625000Y-94800000D01*
X152600000Y-93900000D02*
X152300000Y-93600000D01*
X152300000Y-93600000D02*
X151125000Y-93600000D01*
X155249098Y-101549962D02*
X155900538Y-101549962D01*
X152625000Y-94800000D02*
X152600000Y-94775000D01*
X155900538Y-101549962D02*
X156150500Y-101300000D01*
%TO.N,Net-(U5-VBST)*%
X155249098Y-99650038D02*
X156449962Y-99650038D01*
X156449962Y-99650038D02*
X156900000Y-99200000D01*
X156900000Y-99200000D02*
X156900000Y-97900000D01*
%TO.N,Net-(U8-AIN0{slash}GPIO0)*%
X131300000Y-152200000D02*
X131250000Y-152250000D01*
X129650000Y-152250000D02*
X131250000Y-152250000D01*
X131249936Y-152250064D02*
X131249936Y-156000000D01*
X131250000Y-152250000D02*
X131249936Y-152250064D01*
X131300000Y-150250000D02*
X131300000Y-152200000D01*
%TO.N,I2C_SDA*%
X100825000Y-86250000D02*
X101750000Y-86250000D01*
X140550000Y-84592462D02*
X140550000Y-81550000D01*
X137250000Y-84750000D02*
X137500000Y-85000000D01*
X133000000Y-75575000D02*
X133000000Y-77175000D01*
X139500000Y-78136396D02*
X136013604Y-74650000D01*
X102699962Y-87199962D02*
X102699962Y-90600902D01*
X133750000Y-141500000D02*
X135000000Y-140250000D01*
X136013604Y-74650000D02*
X133925000Y-74650000D01*
X133075000Y-77250000D02*
X133075000Y-81175000D01*
X135000000Y-140250000D02*
X135000000Y-135500000D01*
X137500000Y-85000000D02*
X140142462Y-85000000D01*
X140550000Y-81550000D02*
X139500000Y-80500000D01*
X131750064Y-155309867D02*
X133750000Y-153309931D01*
X131750064Y-156000000D02*
X131750064Y-155309867D01*
X127000000Y-87250000D02*
X127000000Y-88750000D01*
X135000000Y-135500000D02*
X130750000Y-131250000D01*
X101750000Y-86250000D02*
X102699962Y-87199962D01*
X133075000Y-81175000D02*
X127000000Y-87250000D01*
X140142462Y-85000000D02*
X140550000Y-84592462D01*
X133750000Y-153309931D02*
X133750000Y-141500000D01*
X133925000Y-74650000D02*
X133000000Y-75575000D01*
X139500000Y-80500000D02*
X139500000Y-78136396D01*
X125149098Y-90600902D02*
X102699962Y-90600902D01*
X130750000Y-131250000D02*
X130750000Y-116000000D01*
X127000000Y-88750000D02*
X125149098Y-90600902D01*
X133000000Y-77175000D02*
X133075000Y-77250000D01*
X137250000Y-84175000D02*
X137250000Y-84750000D01*
%TO.N,I2C_SCL*%
X125250000Y-91250000D02*
X109250000Y-91250000D01*
X122674598Y-91250000D02*
X122750000Y-91325402D01*
X100913132Y-91500000D02*
X100800038Y-91386906D01*
X138750000Y-80750000D02*
X139750000Y-81750000D01*
X134750000Y-75575000D02*
X134750000Y-77175000D01*
X138750000Y-78457538D02*
X138750000Y-80750000D01*
X134500000Y-153499968D02*
X132249936Y-155750032D01*
X133525000Y-78400000D02*
X133525000Y-81475000D01*
X127500000Y-87500000D02*
X127500000Y-89000000D01*
X127500000Y-89000000D02*
X125250000Y-91250000D01*
X134750000Y-75575000D02*
X135867462Y-75575000D01*
X104000000Y-91250000D02*
X103750000Y-91500000D01*
X139750000Y-81750000D02*
X139750000Y-84175000D01*
X103750000Y-91500000D02*
X100913132Y-91500000D01*
X109250000Y-91250000D02*
X104000000Y-91250000D01*
X100800038Y-90600902D02*
X100800038Y-88774962D01*
X133525000Y-81475000D02*
X127500000Y-87500000D01*
X100800038Y-88774962D02*
X100825000Y-88750000D01*
X109250000Y-91250000D02*
X122674598Y-91250000D01*
X134675000Y-77250000D02*
X133525000Y-78400000D01*
X135867462Y-75575000D02*
X138750000Y-78457538D01*
X132249936Y-155750032D02*
X132249936Y-156000000D01*
X136000000Y-135250000D02*
X136000000Y-140500000D01*
X131750000Y-131000000D02*
X136000000Y-135250000D01*
X136000000Y-140500000D02*
X134500000Y-142000000D01*
X134500000Y-142000000D02*
X134500000Y-153499968D01*
X100800038Y-91386906D02*
X100800038Y-90600902D01*
X131750000Y-115000000D02*
X131750000Y-131000000D01*
%TO.N,Net-(U8-ADDR)*%
X135000000Y-156500000D02*
X134675000Y-156500000D01*
X136750000Y-158250000D02*
X135000000Y-156500000D01*
X136750000Y-159750000D02*
X136750000Y-158250000D01*
X133825000Y-162250000D02*
X134250000Y-162250000D01*
X134675000Y-156500000D02*
X133925064Y-157249936D01*
X134250000Y-162250000D02*
X136750000Y-159750000D01*
X133925064Y-157249936D02*
X133000000Y-157249936D01*
%TO.N,Net-(U8-DECAP)*%
X129750000Y-162025000D02*
X130475000Y-162750000D01*
X132249936Y-159000000D02*
X132249936Y-162175064D01*
X130475000Y-162750000D02*
X131675000Y-162750000D01*
X132249936Y-162175064D02*
X132175000Y-162250000D01*
X131675000Y-162750000D02*
X132175000Y-162250000D01*
%TO.N,Net-(U1-IO8)*%
X133000000Y-70750000D02*
X133000000Y-73925000D01*
X139024892Y-69374905D02*
X134375095Y-69374905D01*
X134375095Y-69374905D02*
X133000000Y-70750000D01*
%TO.N,/Power/CURRENT_AC*%
X128075000Y-160950000D02*
X128025000Y-161000000D01*
X129325064Y-158249936D02*
X130000000Y-158249936D01*
X128075000Y-159500000D02*
X128075000Y-160950000D01*
X128000000Y-162462500D02*
X128000000Y-161025000D01*
X128075000Y-159500000D02*
X129325064Y-158249936D01*
X128000000Y-161025000D02*
X128025000Y-161000000D01*
D80*
%TO.N,Net-(U13-VS(U))*%
X147675000Y-145900000D02*
X148100203Y-145474797D01*
X147675000Y-147500000D02*
X147675000Y-145900000D01*
X148100203Y-145474797D02*
X148100203Y-140700025D01*
%TO.N,Net-(U13-VB(U))*%
X146125000Y-145900000D02*
X146125000Y-143725076D01*
X146125000Y-143725076D02*
X146099949Y-143700025D01*
X146125000Y-147500000D02*
X146125000Y-145900000D01*
%TO.N,Net-(U13-VS(V))*%
X142724949Y-140724822D02*
X142700152Y-140700025D01*
X142475000Y-145900000D02*
X142724949Y-145650051D01*
X142475000Y-147500000D02*
X142475000Y-145900000D01*
X142724949Y-145650051D02*
X142724949Y-140724822D01*
%TO.N,Net-(U13-VB(V))*%
X140925000Y-143874974D02*
X141099949Y-143700025D01*
X140925000Y-145900000D02*
X140925000Y-143874974D01*
X140925000Y-147500000D02*
X140925000Y-145900000D01*
%TO.N,Net-(U13-VS(W))*%
X137724949Y-145850051D02*
X137724949Y-140725076D01*
X137675000Y-145900000D02*
X137724949Y-145850051D01*
X137724949Y-140725076D02*
X137699898Y-140700025D01*
X137675000Y-147500000D02*
X137675000Y-145900000D01*
%TO.N,Net-(U13-VB(W))*%
X136125000Y-145900000D02*
X136125000Y-143725076D01*
X136125000Y-147500000D02*
X136125000Y-145900000D01*
X136125000Y-143725076D02*
X136099949Y-143700025D01*
D78*
%TO.N,Net-(U13-HIN(U))*%
X133250000Y-138825000D02*
X133250000Y-140149923D01*
X133250000Y-140149923D02*
X132699898Y-140700025D01*
X132750000Y-145975000D02*
X132699898Y-145924898D01*
X132699898Y-145924898D02*
X132699898Y-140700025D01*
%TO.N,Net-(U13-HIN(V))*%
X131099949Y-143700025D02*
X131099949Y-139225051D01*
X131250000Y-143850076D02*
X131099949Y-143700025D01*
X131099949Y-139225051D02*
X131500000Y-138825000D01*
X131250000Y-145975000D02*
X131250000Y-143850076D01*
%TO.N,Net-(U13-HIN(W))*%
X129500000Y-146000000D02*
X129500000Y-140700025D01*
X129750000Y-140450025D02*
X129500000Y-140700025D01*
X129750000Y-138825000D02*
X129750000Y-140450025D01*
%TO.N,Net-(U13-LIN(U))*%
X127900051Y-138924949D02*
X128000000Y-138825000D01*
X127750000Y-143850076D02*
X127900051Y-143700025D01*
X127750000Y-145975000D02*
X127750000Y-143850076D01*
X127900051Y-143700025D02*
X127900051Y-138924949D01*
%TO.N,Net-(U13-LIN(V))*%
X126000000Y-145975000D02*
X126300102Y-145674898D01*
X126300102Y-145674898D02*
X126300102Y-140700025D01*
X126300102Y-140700025D02*
X126300102Y-138875102D01*
X126300102Y-138875102D02*
X126250000Y-138825000D01*
%TO.N,Net-(U13-LIN(W))*%
X124250000Y-144149923D02*
X124699898Y-143700025D01*
X124250000Y-145975000D02*
X124250000Y-144149923D01*
X124500000Y-138825000D02*
X124699898Y-139024898D01*
X124699898Y-139024898D02*
X124699898Y-143700025D01*
%TO.N,Net-(U1-IO9)*%
X135525210Y-70224790D02*
X134750000Y-71000000D01*
X134750000Y-71000000D02*
X134750000Y-73925000D01*
X139024892Y-70224790D02*
X135525210Y-70224790D01*
%TO.N,Net-(J5-Pin_1)*%
X137110000Y-85965000D02*
X137250000Y-85825000D01*
X137110000Y-88600000D02*
X137110000Y-85965000D01*
%TO.N,Net-(J5-Pin_2)*%
X139650000Y-85925000D02*
X139750000Y-85825000D01*
X139650000Y-88600000D02*
X139650000Y-85925000D01*
D80*
%TO.N,/Power/AC_N*%
X153982500Y-111482500D02*
X153800000Y-111482500D01*
X113000000Y-184500000D02*
X107000000Y-190500000D01*
X112000000Y-163250000D02*
X113000000Y-164250000D01*
X114750000Y-153500000D02*
X112000000Y-156250000D01*
X113000000Y-164250000D02*
X113000000Y-184500000D01*
X112000000Y-156250000D02*
X112000000Y-163250000D01*
X107000000Y-210500000D02*
X112000000Y-215500000D01*
X107000000Y-190500000D02*
X107000000Y-210500000D01*
D78*
%TO.N,Net-(J5-Pin_3)*%
X142190000Y-85885000D02*
X142250000Y-85825000D01*
X142190000Y-88600000D02*
X142190000Y-85885000D01*
%TO.N,Net-(J5-Pin_4)*%
X144730000Y-88600000D02*
X144730000Y-85845000D01*
X144730000Y-85845000D02*
X144750000Y-85825000D01*
%TO.N,Net-(J5-Pin_5)*%
X147270000Y-88600000D02*
X147270000Y-85845000D01*
X147270000Y-85845000D02*
X147250000Y-85825000D01*
%TO.N,VFO*%
X137524829Y-64274829D02*
X137500000Y-64250000D01*
X139024892Y-64274829D02*
X137524829Y-64274829D01*
X121500000Y-143700025D02*
X121500000Y-138675000D01*
X125000000Y-106250000D02*
X125000000Y-134825000D01*
X121500000Y-138675000D02*
X121325000Y-138500000D01*
X125000000Y-134825000D02*
X121325000Y-138500000D01*
%TO.N,ITRIP*%
X123500000Y-133500000D02*
X120075000Y-136925000D01*
X129237347Y-100750000D02*
X123500000Y-106487347D01*
X129250000Y-100750000D02*
X129237347Y-100750000D01*
X123500000Y-106487347D02*
X123500000Y-133500000D01*
X150249936Y-75250064D02*
X150249936Y-73000000D01*
X120075000Y-136925000D02*
X118000000Y-136925000D01*
X148250000Y-77250000D02*
X150249936Y-75250064D01*
%TO.N,Net-(J7-Pin_10)*%
X96000000Y-88840000D02*
X99085000Y-88840000D01*
X99085000Y-88840000D02*
X99175000Y-88750000D01*
%TO.N,Net-(J7-Pin_11)*%
X99125000Y-86300000D02*
X99175000Y-86250000D01*
X96000000Y-86300000D02*
X99125000Y-86300000D01*
%TO.N,Net-(J5-Pin_6)*%
X149810000Y-88600000D02*
X149810000Y-85885000D01*
X149810000Y-85885000D02*
X149750000Y-85825000D01*
%TO.N,Net-(Q2-D)*%
X99250000Y-111175000D02*
X100884817Y-111175000D01*
X100884817Y-111175000D02*
X101009779Y-111050038D01*
X100750000Y-110790259D02*
X101009779Y-111050038D01*
X100750000Y-108750000D02*
X100750000Y-110790259D01*
%TO.N,Net-(R53-Pad2)*%
X142250000Y-84175000D02*
X142250000Y-79750000D01*
%TO.N,Net-(R54-Pad2)*%
X144750000Y-84175000D02*
X144750000Y-82000000D01*
%TO.N,Net-(R55-Pad2)*%
X147250000Y-84175000D02*
X147250000Y-79750000D01*
%TO.N,Net-(R56-Pad2)*%
X149750000Y-84175000D02*
X149750000Y-82000000D01*
%TO.N,+5VD*%
X167627000Y-209791000D02*
X168402000Y-210566000D01*
D79*
X169500000Y-215275000D02*
X169500000Y-216500000D01*
X160600076Y-213624968D02*
X160600076Y-212350076D01*
D78*
X167627000Y-209042000D02*
X167627000Y-209791000D01*
D79*
X160600076Y-212350076D02*
X160500000Y-212250000D01*
X169500000Y-216500000D02*
X169250000Y-216750000D01*
D78*
X167805000Y-206900000D02*
X167805000Y-208864000D01*
X167805000Y-208864000D02*
X167627000Y-209042000D01*
D79*
X165400178Y-212349822D02*
X165400178Y-213624968D01*
X165500000Y-212250000D02*
X165400178Y-212349822D01*
D78*
X163250000Y-203850902D02*
X163250000Y-202500000D01*
%TO.N,GNDD*%
X166200025Y-213624968D02*
X166825000Y-212999993D01*
X169164000Y-209804000D02*
X169164000Y-209055000D01*
X169075000Y-206900000D02*
X169075000Y-208940000D01*
X159799975Y-213624968D02*
X159675000Y-213499993D01*
X166775083Y-213624968D02*
X167324994Y-214174879D01*
X169500000Y-213725000D02*
X167774873Y-213725000D01*
X166200025Y-213624968D02*
X166775083Y-213624968D01*
X169164000Y-209055000D02*
X169177000Y-209042000D01*
X174257000Y-210058000D02*
X176022000Y-210058000D01*
X159675000Y-213499993D02*
X159675000Y-211000000D01*
X176747000Y-206952000D02*
X176695000Y-206900000D01*
X159224917Y-213624968D02*
X158675006Y-214174879D01*
X176022000Y-210058000D02*
X176276000Y-209804000D01*
X159799975Y-213624968D02*
X159224917Y-213624968D01*
X169075000Y-208940000D02*
X169177000Y-209042000D01*
X176276000Y-209804000D02*
X176747000Y-209333000D01*
X163250000Y-206149098D02*
X163250000Y-208500000D01*
X176747000Y-209333000D02*
X176747000Y-206952000D01*
X167774873Y-213725000D02*
X167324994Y-214174879D01*
X169926000Y-210566000D02*
X169164000Y-209804000D01*
X166825000Y-212999993D02*
X166825000Y-211000000D01*
%TO.N,/Control/ISO_GPIO_1*%
X192000000Y-139500000D02*
X192000000Y-191770000D01*
X187500000Y-135000000D02*
X192000000Y-139500000D01*
X192000000Y-191770000D02*
X190020000Y-193750000D01*
X192000000Y-65456562D02*
X191974284Y-65482278D01*
X187250000Y-193750000D02*
X184385001Y-196614999D01*
X190020000Y-193750000D02*
X187250000Y-193750000D01*
X184385001Y-196614999D02*
X184385001Y-197477584D01*
X192000000Y-65254000D02*
X192000000Y-65456562D01*
X187500000Y-125000000D02*
X187500000Y-135000000D01*
X147700025Y-72049975D02*
X147700025Y-73000000D01*
X192000000Y-120500000D02*
X187500000Y-125000000D01*
X151750000Y-68000000D02*
X147700025Y-72049975D01*
X192000000Y-65254000D02*
X192000000Y-120500000D01*
%TO.N,VSS*%
X187500000Y-204500000D02*
X187250000Y-204500000D01*
X188250000Y-205250000D02*
X187500000Y-204500000D01*
X194905004Y-204880004D02*
X195000000Y-204975000D01*
X187452584Y-203022416D02*
X187475000Y-203000000D01*
X187250000Y-203225000D02*
X187475000Y-203000000D01*
X187250000Y-204500000D02*
X187250000Y-203225000D01*
X187350902Y-206750000D02*
X188136906Y-206750000D01*
X188136906Y-206750000D02*
X188250000Y-206636906D01*
X188250000Y-206636906D02*
X188250000Y-205250000D01*
X185655004Y-203022416D02*
X187452584Y-203022416D01*
X194905004Y-203022416D02*
X194905004Y-204880004D01*
%TO.N,Net-(U15-VIA)*%
X185444767Y-205305233D02*
X185757430Y-204992570D01*
X187350902Y-205800038D02*
X186564898Y-205800038D01*
X181500000Y-209500000D02*
X182000000Y-209000000D01*
X186564898Y-205800038D02*
X185757430Y-204992570D01*
X185757430Y-204992570D02*
X184385001Y-203620141D01*
X184385001Y-203620141D02*
X184385001Y-203022416D01*
X181500000Y-210425000D02*
X181500000Y-209500000D01*
X185444767Y-205555233D02*
X185444767Y-205305233D01*
%TO.N,Net-(U15-VOB)*%
X183000000Y-210425000D02*
X185725038Y-207699962D01*
X185725038Y-207699962D02*
X186564898Y-207699962D01*
X187350902Y-207699962D02*
X186564898Y-207699962D01*
X183114999Y-204250063D02*
X183114999Y-203022416D01*
X186564898Y-207699962D02*
X183114999Y-204250063D01*
%TO.N,GNDS*%
X188788094Y-203236906D02*
X188788094Y-204500000D01*
X188863094Y-206750000D02*
X189649098Y-206750000D01*
X191072580Y-203000000D02*
X191094996Y-203022416D01*
X181844996Y-203022416D02*
X181844996Y-204344996D01*
X191094996Y-203022416D02*
X191094996Y-203155004D01*
X188788094Y-204500000D02*
X188788094Y-206675000D01*
X191094996Y-203155004D02*
X190000000Y-204250000D01*
X189750000Y-204500000D02*
X190000000Y-204250000D01*
X181844996Y-204344996D02*
X182500000Y-205000000D01*
X188788094Y-204500000D02*
X189750000Y-204500000D01*
X189025000Y-203000000D02*
X188788094Y-203236906D01*
X188788094Y-206675000D02*
X188863094Y-206750000D01*
D80*
%TO.N,+5V*%
X160000000Y-105000000D02*
X159150000Y-105000000D01*
X161750000Y-155000000D02*
X161750000Y-106750000D01*
X161750000Y-106750000D02*
X160000000Y-105000000D01*
D78*
%TO.N,Net-(U16-VIA)*%
X193635001Y-203022416D02*
X193635001Y-204864999D01*
X191000000Y-205750000D02*
X189699136Y-205750000D01*
X193635001Y-204864999D02*
X193500000Y-205000000D01*
X184500000Y-210250000D02*
X186000000Y-208750000D01*
X184500000Y-210425000D02*
X184500000Y-210250000D01*
X189699136Y-205750000D02*
X189649098Y-205800038D01*
%TO.N,Net-(U16-VOB)*%
X192364999Y-205770065D02*
X192364999Y-203022416D01*
X186750000Y-209250000D02*
X188099060Y-209250000D01*
X189649098Y-207699962D02*
X190435102Y-207699962D01*
X186000000Y-210425000D02*
X186000000Y-210000000D01*
X186000000Y-210000000D02*
X186750000Y-209250000D01*
X188099060Y-209250000D02*
X189649098Y-207699962D01*
X190435102Y-207699962D02*
X192364999Y-205770065D01*
D79*
%TO.N,Net-(U18-D)*%
X102990221Y-112000000D02*
X102990221Y-115027721D01*
X102990221Y-115027721D02*
X103000000Y-115037500D01*
D78*
%TO.N,Net-(R46-Pad2)*%
X144462500Y-153750000D02*
X144462500Y-155787500D01*
X144462500Y-155787500D02*
X144250000Y-156000000D01*
%TO.N,Net-(D9-K)*%
X139675000Y-183000000D02*
X136675000Y-186000000D01*
X136725000Y-187750000D02*
X136725000Y-186050000D01*
X136712500Y-189500000D02*
X136712500Y-187762500D01*
X126861927Y-157249936D02*
X130000000Y-157249936D01*
X136712500Y-187762500D02*
X136725000Y-187750000D01*
X153250000Y-182750000D02*
X153000000Y-183000000D01*
X136725000Y-186050000D02*
X136675000Y-186000000D01*
X126637299Y-157474564D02*
X126861927Y-157249936D01*
X153000000Y-183000000D02*
X139675000Y-183000000D01*
%TO.N,Net-(D10-K)*%
X123787500Y-202012500D02*
X124000000Y-202225000D01*
X128000000Y-203250000D02*
X126975000Y-202225000D01*
X130000000Y-157750064D02*
X128249936Y-157750064D01*
X126975000Y-202225000D02*
X124000000Y-202225000D01*
X122250000Y-202175000D02*
X123950000Y-202175000D01*
X123787500Y-200500000D02*
X123787500Y-202012500D01*
X128249936Y-157750064D02*
X128000000Y-158000000D01*
X123950000Y-202175000D02*
X124000000Y-202225000D01*
%TO.N,Net-(D11-K)*%
X139962500Y-156000000D02*
X139962500Y-157587500D01*
X139850000Y-159500000D02*
X139850000Y-161200000D01*
X125250000Y-162250000D02*
X125250000Y-157750000D01*
X125250000Y-157750000D02*
X126249936Y-156750064D01*
X139962500Y-157587500D02*
X139800000Y-157750000D01*
X139800000Y-159450000D02*
X139850000Y-159500000D01*
X137800000Y-163250000D02*
X126250000Y-163250000D01*
X139800000Y-157750000D02*
X139800000Y-159450000D01*
X139850000Y-161200000D02*
X137800000Y-163250000D01*
X126249936Y-156750064D02*
X130000000Y-156750064D01*
X126250000Y-163250000D02*
X125250000Y-162250000D01*
X139787500Y-159250000D02*
X139550000Y-159250000D01*
%TO.N,Net-(D8-A)*%
X149500000Y-174702502D02*
X149614999Y-174817501D01*
X151000000Y-171750000D02*
X149750000Y-171750000D01*
X151750000Y-172500000D02*
X151000000Y-171750000D01*
X131250000Y-165750000D02*
X129712500Y-165750000D01*
X129712500Y-165750000D02*
X128000000Y-164037500D01*
X149500000Y-172000000D02*
X149500000Y-174702502D01*
X149750000Y-171750000D02*
X149500000Y-172000000D01*
%TO.N,Net-(D9-A)*%
X135750000Y-190500000D02*
X137287500Y-190500000D01*
X135607498Y-191815005D02*
X135607498Y-190642502D01*
X136312496Y-192520003D02*
X135607498Y-191815005D01*
X135607498Y-190642502D02*
X135750000Y-190500000D01*
X136864998Y-192520003D02*
X136312496Y-192520003D01*
X137287500Y-190500000D02*
X138287500Y-189500000D01*
%TO.N,Net-(D10-A)*%
X118567500Y-200500000D02*
X122212500Y-200500000D01*
X118432499Y-200364999D02*
X118567500Y-200500000D01*
%TO.N,Net-(D11-A)*%
X141537500Y-153750000D02*
X141537500Y-156000000D01*
X141537500Y-156000000D02*
X141537500Y-157637500D01*
X141537500Y-157637500D02*
X141500000Y-157675000D01*
%TD*%
%TA.AperFunction,Conductor*%
%TO.N,+3.3V*%
G36*
X150243039Y-92219685D02*
G01*
X150288794Y-92272489D01*
X150300000Y-92324000D01*
X150300000Y-96376000D01*
X150280315Y-96443039D01*
X150227511Y-96488794D01*
X150176000Y-96500000D01*
X138424000Y-96500000D01*
X138356961Y-96480315D01*
X138311206Y-96427511D01*
X138300000Y-96376000D01*
X138300000Y-92324000D01*
X138319685Y-92256961D01*
X138372489Y-92211206D01*
X138424000Y-92200000D01*
X150176000Y-92200000D01*
X150243039Y-92219685D01*
G37*
%TD.AperFunction*%
%TD*%
%TA.AperFunction,Conductor*%
%TO.N,Net-(U5-SW)*%
G36*
X146307539Y-99294685D02*
G01*
X146353294Y-99347489D01*
X146364500Y-99399000D01*
X146364500Y-101051008D01*
X146372167Y-101122316D01*
X146383375Y-101173832D01*
X146397799Y-101222249D01*
X146457647Y-101322210D01*
X146457650Y-101322214D01*
X146457652Y-101322217D01*
X146485105Y-101353899D01*
X146503405Y-101375019D01*
X146503410Y-101375024D01*
X146560135Y-101427419D01*
X146596026Y-101487366D01*
X146600000Y-101518508D01*
X146600000Y-101536949D01*
X146580315Y-101603988D01*
X146527511Y-101649743D01*
X146502389Y-101658108D01*
X146501183Y-101658371D01*
X146501175Y-101658373D01*
X146501171Y-101658374D01*
X146501168Y-101658375D01*
X146452750Y-101672799D01*
X146352789Y-101732647D01*
X146352779Y-101732655D01*
X146299980Y-101778405D01*
X146299974Y-101778410D01*
X146249517Y-101833038D01*
X146249516Y-101833039D01*
X146197777Y-101937433D01*
X146197775Y-101937439D01*
X146178092Y-102004470D01*
X146164500Y-102099002D01*
X146164500Y-102151000D01*
X146144815Y-102218039D01*
X146092011Y-102263794D01*
X146040500Y-102275000D01*
X141524000Y-102275000D01*
X141456961Y-102255315D01*
X141411206Y-102202511D01*
X141400000Y-102151000D01*
X141400000Y-99399000D01*
X141419685Y-99331961D01*
X141472489Y-99286206D01*
X141524000Y-99275000D01*
X146240500Y-99275000D01*
X146307539Y-99294685D01*
G37*
%TD.AperFunction*%
%TD*%
%TA.AperFunction,Conductor*%
%TO.N,GND*%
G36*
X154443039Y-96494685D02*
G01*
X154488794Y-96547489D01*
X154500000Y-96599000D01*
X154500000Y-99078370D01*
X154480315Y-99145409D01*
X154463681Y-99166051D01*
X154438187Y-99191544D01*
X154388930Y-99297175D01*
X154388929Y-99297176D01*
X154382593Y-99345311D01*
X154382593Y-99900000D01*
X153700000Y-99900000D01*
X153700000Y-100075000D01*
X153688194Y-100063194D01*
X153679398Y-100059092D01*
X153618385Y-100030641D01*
X153573767Y-100009835D01*
X153573766Y-100009834D01*
X153525632Y-100003498D01*
X153525631Y-100003498D01*
X153427848Y-100003498D01*
X153376338Y-99992292D01*
X153286356Y-99951199D01*
X153238833Y-99937245D01*
X153219322Y-99931516D01*
X153219310Y-99931513D01*
X153076902Y-99911039D01*
X152514991Y-99911039D01*
X152447952Y-99891354D01*
X152402197Y-99838550D01*
X152395411Y-99819850D01*
X152393739Y-99813757D01*
X152393738Y-99813755D01*
X152393737Y-99813754D01*
X152393736Y-99813748D01*
X152366068Y-99737496D01*
X152331985Y-99684462D01*
X152288284Y-99616462D01*
X152288275Y-99616451D01*
X152242531Y-99563659D01*
X152242527Y-99563656D01*
X152242525Y-99563653D01*
X152133791Y-99469433D01*
X152133789Y-99469432D01*
X152133788Y-99469431D01*
X152072487Y-99441435D01*
X152036975Y-99410662D01*
X152036319Y-99411319D01*
X152027139Y-99402139D01*
X152019684Y-99395679D01*
X152019270Y-99394270D01*
X152000000Y-99375000D01*
X151840578Y-99375000D01*
X151822932Y-99373738D01*
X151793456Y-99369500D01*
X151793455Y-99369500D01*
X150724000Y-99369500D01*
X150723991Y-99369500D01*
X150723990Y-99369501D01*
X150676155Y-99374644D01*
X150669523Y-99375000D01*
X150100000Y-99375000D01*
X150100000Y-99951877D01*
X150098738Y-99969523D01*
X150094500Y-99998998D01*
X150094500Y-101051000D01*
X150074815Y-101118039D01*
X150022011Y-101163794D01*
X149970500Y-101175000D01*
X146824000Y-101175000D01*
X146756961Y-101155315D01*
X146711206Y-101102511D01*
X146700000Y-101051000D01*
X146700000Y-96959500D01*
X146719685Y-96892461D01*
X146772489Y-96846706D01*
X146824000Y-96835500D01*
X150175991Y-96835500D01*
X150176000Y-96835500D01*
X150247318Y-96827832D01*
X150298829Y-96816626D01*
X150347247Y-96802201D01*
X150350924Y-96800000D01*
X150447210Y-96742352D01*
X150447209Y-96742352D01*
X150447217Y-96742348D01*
X150500021Y-96696593D01*
X150550482Y-96641962D01*
X150571775Y-96599000D01*
X150599066Y-96543935D01*
X150646473Y-96492610D01*
X150710169Y-96475000D01*
X154376000Y-96475000D01*
X154443039Y-96494685D01*
G37*
%TD.AperFunction*%
%TD*%
%TA.AperFunction,Conductor*%
%TO.N,GND*%
G36*
X154382593Y-99954764D02*
G01*
X154388929Y-100002899D01*
X154388930Y-100002900D01*
X154421438Y-100072614D01*
X154431930Y-100141692D01*
X154421438Y-100177424D01*
X154388930Y-100247137D01*
X154388929Y-100247138D01*
X154382593Y-100295273D01*
X154382593Y-100904726D01*
X154388929Y-100952861D01*
X154388930Y-100952862D01*
X154421438Y-101022576D01*
X154431930Y-101091654D01*
X154421438Y-101127386D01*
X154388930Y-101197099D01*
X154388929Y-101197100D01*
X154382593Y-101245235D01*
X154382593Y-101854686D01*
X154383268Y-101859813D01*
X154372503Y-101928849D01*
X154326124Y-101981105D01*
X154260329Y-102000000D01*
X153939671Y-102000000D01*
X153872632Y-101980315D01*
X153826877Y-101927511D01*
X153816732Y-101859813D01*
X153817407Y-101854686D01*
X153817407Y-101245235D01*
X153811070Y-101197101D01*
X153811069Y-101197099D01*
X153778560Y-101127384D01*
X153768069Y-101058310D01*
X153778561Y-101022576D01*
X153811070Y-100952861D01*
X153817407Y-100904726D01*
X153817407Y-100350152D01*
X153837092Y-100283113D01*
X153842141Y-100275841D01*
X153930257Y-100158133D01*
X153930261Y-100158126D01*
X153980503Y-100023419D01*
X153980505Y-100023412D01*
X153986906Y-99963884D01*
X153986907Y-99963867D01*
X153986907Y-99900000D01*
X154382593Y-99900000D01*
X154382593Y-99954764D01*
G37*
%TD.AperFunction*%
%TD*%
%TA.AperFunction,Conductor*%
%TO.N,Net-(U5-SW)*%
G36*
X151860494Y-99894685D02*
G01*
X151906249Y-99947489D01*
X151916745Y-99985747D01*
X151920806Y-100023524D01*
X151942765Y-100082401D01*
X151947749Y-100152092D01*
X151942765Y-100169065D01*
X151921301Y-100226614D01*
X151921298Y-100226625D01*
X151914897Y-100286153D01*
X151914897Y-100350000D01*
X152123821Y-100350000D01*
X152167154Y-100357818D01*
X152307414Y-100410131D01*
X152307413Y-100410131D01*
X152314341Y-100410875D01*
X152367024Y-100416540D01*
X153076903Y-100416539D01*
X153143941Y-100436223D01*
X153189696Y-100489027D01*
X153200902Y-100540539D01*
X153200902Y-100659460D01*
X153181217Y-100726499D01*
X153128413Y-100772254D01*
X153076902Y-100783460D01*
X152367026Y-100783460D01*
X152367020Y-100783461D01*
X152307413Y-100789868D01*
X152167154Y-100842182D01*
X152123821Y-100850000D01*
X151914897Y-100850000D01*
X151914897Y-100913846D01*
X151921298Y-100973374D01*
X151921300Y-100973384D01*
X151942765Y-101030934D01*
X151947749Y-101100625D01*
X151942765Y-101117598D01*
X151920806Y-101176474D01*
X151920805Y-101176476D01*
X151914398Y-101236076D01*
X151914397Y-101236095D01*
X151914397Y-101251000D01*
X151894712Y-101318039D01*
X151841908Y-101363794D01*
X151790397Y-101375000D01*
X150724000Y-101375000D01*
X150656961Y-101355315D01*
X150611206Y-101302511D01*
X150600000Y-101251000D01*
X150600000Y-99999000D01*
X150619685Y-99931961D01*
X150672489Y-99886206D01*
X150724000Y-99875000D01*
X151793455Y-99875000D01*
X151860494Y-99894685D01*
G37*
%TD.AperFunction*%
%TD*%
%TA.AperFunction,Conductor*%
%TO.N,Net-(U13-W)*%
G36*
X132943039Y-167019685D02*
G01*
X132988794Y-167072489D01*
X133000000Y-167124000D01*
X133000000Y-170457884D01*
X132980315Y-170524923D01*
X132968545Y-170540415D01*
X132934959Y-170578075D01*
X132934956Y-170578079D01*
X132880611Y-170692712D01*
X132860926Y-170759752D01*
X132860924Y-170759760D01*
X132844500Y-170873999D01*
X132844500Y-175543482D01*
X132824815Y-175610521D01*
X132811755Y-175627437D01*
X131870997Y-176650000D01*
X127228397Y-181696304D01*
X127217113Y-181709685D01*
X127198708Y-181733525D01*
X127198707Y-181733527D01*
X127184956Y-181752441D01*
X127130612Y-181867072D01*
X127110926Y-181934114D01*
X127110924Y-181934122D01*
X127094500Y-182048361D01*
X127094184Y-182052782D01*
X127092956Y-182052694D01*
X127074815Y-182114476D01*
X127061277Y-182131910D01*
X116250000Y-193750000D01*
X116250000Y-200626000D01*
X116230315Y-200693039D01*
X116177511Y-200738794D01*
X116126000Y-200750000D01*
X108374000Y-200750000D01*
X108306961Y-200730315D01*
X108261206Y-200677511D01*
X108250000Y-200626000D01*
X108250000Y-190801362D01*
X108269685Y-190734323D01*
X108286319Y-190713681D01*
X114000000Y-185000000D01*
X114000000Y-181549640D01*
X114019685Y-181482601D01*
X114034252Y-181464076D01*
X124213357Y-170788430D01*
X124273864Y-170753496D01*
X124303099Y-170750000D01*
X127750000Y-170750000D01*
X127750000Y-167124000D01*
X127769685Y-167056961D01*
X127822489Y-167011206D01*
X127874000Y-167000000D01*
X132876000Y-167000000D01*
X132943039Y-167019685D01*
G37*
%TD.AperFunction*%
%TD*%
%TA.AperFunction,Conductor*%
%TO.N,VS*%
G36*
X153448661Y-101271773D02*
G01*
X153479937Y-101334252D01*
X153481907Y-101356270D01*
X153481907Y-101882368D01*
X153482094Y-101882711D01*
X153484923Y-101907957D01*
X153484937Y-101909530D01*
X153484937Y-101909535D01*
X153495082Y-101977234D01*
X153495931Y-101980465D01*
X153500000Y-102011970D01*
X153500000Y-107301000D01*
X153480315Y-107368039D01*
X153427511Y-107413794D01*
X153376000Y-107425000D01*
X146624000Y-107425000D01*
X146556961Y-107405315D01*
X146511206Y-107352511D01*
X146500000Y-107301000D01*
X146500000Y-102099000D01*
X146519685Y-102031961D01*
X146572489Y-101986206D01*
X146624000Y-101975000D01*
X150600000Y-101975000D01*
X150612263Y-101962736D01*
X150619685Y-101937461D01*
X150672489Y-101891706D01*
X150724000Y-101880500D01*
X151790387Y-101880500D01*
X151790397Y-101880500D01*
X151838242Y-101875355D01*
X151844874Y-101875000D01*
X152000000Y-101875000D01*
X152036319Y-101838681D01*
X152037479Y-101839841D01*
X152056957Y-101820363D01*
X152172940Y-101745825D01*
X152225744Y-101700070D01*
X152319964Y-101591336D01*
X152379735Y-101460459D01*
X152399420Y-101393420D01*
X152399421Y-101393416D01*
X152399421Y-101393411D01*
X152400031Y-101390309D01*
X152401317Y-101390561D01*
X152428173Y-101331757D01*
X152486951Y-101293983D01*
X152521886Y-101288960D01*
X153076893Y-101288960D01*
X153076903Y-101288960D01*
X153184358Y-101277407D01*
X153235869Y-101266201D01*
X153318747Y-101238615D01*
X153388572Y-101236122D01*
X153448661Y-101271773D01*
G37*
%TD.AperFunction*%
%TD*%
%TA.AperFunction,Conductor*%
%TO.N,/Power/W*%
G36*
X116193039Y-201105185D02*
G01*
X116238794Y-201157989D01*
X116250000Y-201209500D01*
X116250000Y-204500000D01*
X126443960Y-205919412D01*
X126467787Y-205925179D01*
X126586420Y-205966691D01*
X126586424Y-205966691D01*
X126586426Y-205966692D01*
X126586423Y-205966692D01*
X126749997Y-205985122D01*
X126750000Y-205985122D01*
X126826175Y-205976539D01*
X126857142Y-205976943D01*
X127239277Y-206030152D01*
X127290604Y-206049558D01*
X127338892Y-206081511D01*
X127374762Y-206105248D01*
X127438344Y-206134216D01*
X127549118Y-206166634D01*
X135738038Y-207336478D01*
X135801618Y-207365445D01*
X135839446Y-207424189D01*
X135844500Y-207459231D01*
X135844500Y-212126008D01*
X135853767Y-212212197D01*
X135864973Y-212263706D01*
X135864974Y-212263710D01*
X135887690Y-212335360D01*
X135954750Y-212443057D01*
X135969713Y-212460325D01*
X135998738Y-212523878D01*
X136000000Y-212541527D01*
X136000000Y-220376000D01*
X135980315Y-220443039D01*
X135927511Y-220488794D01*
X135876000Y-220500000D01*
X130624000Y-220500000D01*
X130556961Y-220480315D01*
X130511206Y-220427511D01*
X130500000Y-220376000D01*
X130500000Y-213000000D01*
X130499999Y-212999999D01*
X108357431Y-210014485D01*
X108293623Y-209986019D01*
X108255334Y-209927575D01*
X108250000Y-209891597D01*
X108250000Y-201209500D01*
X108269685Y-201142461D01*
X108322489Y-201096706D01*
X108374000Y-201085500D01*
X116126000Y-201085500D01*
X116193039Y-201105185D01*
G37*
%TD.AperFunction*%
%TD*%
%TA.AperFunction,Conductor*%
%TO.N,/Power/U*%
G36*
X132257042Y-193513189D02*
G01*
X132286032Y-193527748D01*
X132286045Y-193527754D01*
X132377312Y-193560604D01*
X132377316Y-193560605D01*
X132377324Y-193560608D01*
X132434736Y-193573784D01*
X132531204Y-193584018D01*
X134067173Y-193562184D01*
X134109117Y-193557321D01*
X134111722Y-193557020D01*
X134180582Y-193568854D01*
X134232113Y-193616039D01*
X134250000Y-193680195D01*
X134250000Y-196000000D01*
X139626000Y-196000000D01*
X139693039Y-196019685D01*
X139738794Y-196072489D01*
X139750000Y-196124000D01*
X139750000Y-205500000D01*
X145876000Y-205500000D01*
X145943039Y-205519685D01*
X145988794Y-205572489D01*
X146000000Y-205624000D01*
X146000000Y-220621500D01*
X145980315Y-220688539D01*
X145927511Y-220734294D01*
X145876000Y-220745500D01*
X140624000Y-220745500D01*
X140556961Y-220725815D01*
X140511206Y-220673011D01*
X140500000Y-220621500D01*
X140500000Y-212250000D01*
X136374000Y-212250000D01*
X136306961Y-212230315D01*
X136261206Y-212177511D01*
X136250000Y-212126000D01*
X136250000Y-206999999D01*
X127606464Y-205765209D01*
X127542882Y-205736241D01*
X127505054Y-205677497D01*
X127500000Y-205642455D01*
X127500000Y-205551397D01*
X127506959Y-205510442D01*
X127510613Y-205500000D01*
X127535368Y-205429255D01*
X127536174Y-205422094D01*
X127555565Y-205250003D01*
X127555565Y-205249996D01*
X127535369Y-205070750D01*
X127535367Y-205070742D01*
X127506958Y-204989552D01*
X127500000Y-204948598D01*
X127500000Y-204097896D01*
X127519685Y-204030857D01*
X127572489Y-203985102D01*
X127641647Y-203975158D01*
X127664955Y-203980855D01*
X127820737Y-204035366D01*
X127820743Y-204035367D01*
X127820745Y-204035368D01*
X127820746Y-204035368D01*
X127820750Y-204035369D01*
X127999996Y-204055565D01*
X128000000Y-204055565D01*
X128000004Y-204055565D01*
X128179249Y-204035369D01*
X128179252Y-204035368D01*
X128179255Y-204035368D01*
X128349522Y-203975789D01*
X128502262Y-203879816D01*
X128629816Y-203752262D01*
X128725789Y-203599522D01*
X128785368Y-203429255D01*
X128805565Y-203250000D01*
X128785368Y-203070745D01*
X128725789Y-202900478D01*
X128629816Y-202747738D01*
X128594759Y-202712681D01*
X128561274Y-202651358D01*
X128566258Y-202581666D01*
X128594759Y-202537319D01*
X128601183Y-202530895D01*
X128629816Y-202502262D01*
X128725789Y-202349522D01*
X128785368Y-202179255D01*
X128785369Y-202179249D01*
X128805565Y-202000003D01*
X128805565Y-201999996D01*
X128785369Y-201820750D01*
X128785368Y-201820745D01*
X128748096Y-201714229D01*
X128725789Y-201650478D01*
X128629816Y-201497738D01*
X128502262Y-201370184D01*
X128349523Y-201274211D01*
X128179254Y-201214631D01*
X128179249Y-201214630D01*
X128000004Y-201194435D01*
X127993037Y-201194435D01*
X127993037Y-201192277D01*
X127934432Y-201182009D01*
X127901697Y-201158528D01*
X127536319Y-200793150D01*
X127502834Y-200731827D01*
X127500000Y-200705469D01*
X127500000Y-193640084D01*
X127519685Y-193573045D01*
X127572489Y-193527290D01*
X127641647Y-193517346D01*
X127705200Y-193546369D01*
X127705209Y-193546377D01*
X127723124Y-193561903D01*
X127723125Y-193561903D01*
X127723128Y-193561906D01*
X127797736Y-193595983D01*
X127838526Y-193614614D01*
X127838528Y-193614614D01*
X127838529Y-193614615D01*
X127905842Y-193633344D01*
X127905844Y-193633344D01*
X127905847Y-193633345D01*
X127905852Y-193633346D01*
X127967193Y-193641276D01*
X128020300Y-193648142D01*
X128020301Y-193648143D01*
X128020301Y-193648142D01*
X128020302Y-193648143D01*
X130435168Y-193613815D01*
X130548458Y-193595985D01*
X130614833Y-193575599D01*
X130614837Y-193575597D01*
X130614840Y-193575596D01*
X130676936Y-193546371D01*
X130718605Y-193526760D01*
X130718616Y-193526753D01*
X130728269Y-193520404D01*
X130795095Y-193500007D01*
X130796414Y-193500000D01*
X132201392Y-193500000D01*
X132257042Y-193513189D01*
G37*
%TD.AperFunction*%
%TD*%
%TA.AperFunction,Conductor*%
%TO.N,Net-(U4-VDD)*%
G36*
X144943039Y-174019685D02*
G01*
X144988794Y-174072489D01*
X145000000Y-174124000D01*
X145000000Y-177500000D01*
X149626000Y-177500000D01*
X149693039Y-177519685D01*
X149738794Y-177572489D01*
X149750000Y-177624000D01*
X149750000Y-181376000D01*
X149730315Y-181443039D01*
X149677511Y-181488794D01*
X149626000Y-181500000D01*
X139500000Y-181500000D01*
X138029500Y-181500000D01*
X137962461Y-181480315D01*
X137916706Y-181427511D01*
X137905500Y-181376000D01*
X137905500Y-174529500D01*
X137925185Y-174462461D01*
X137977989Y-174416706D01*
X138029500Y-174405500D01*
X142375991Y-174405500D01*
X142376000Y-174405500D01*
X142462199Y-174396232D01*
X142513710Y-174385026D01*
X142585360Y-174362310D01*
X142693057Y-174295250D01*
X142745861Y-174249495D01*
X142815042Y-174171923D01*
X142862943Y-174070881D01*
X142909448Y-174018737D01*
X142974990Y-174000000D01*
X144876000Y-174000000D01*
X144943039Y-174019685D01*
G37*
%TD.AperFunction*%
%TD*%
%TA.AperFunction,Conductor*%
%TO.N,Net-(U13-U)*%
G36*
X142443039Y-167019685D02*
G01*
X142488794Y-167072489D01*
X142500000Y-167124000D01*
X142500000Y-173876000D01*
X142480315Y-173943039D01*
X142427511Y-173988794D01*
X142376000Y-174000000D01*
X137500000Y-174000000D01*
X137500000Y-183438942D01*
X137480315Y-183505981D01*
X137451604Y-183537227D01*
X134250001Y-185999998D01*
X134249999Y-186000001D01*
X134183641Y-193033908D01*
X134163325Y-193100759D01*
X134110092Y-193146013D01*
X134061409Y-193156725D01*
X132525440Y-193178559D01*
X132468028Y-193165383D01*
X132363885Y-193113081D01*
X132363883Y-193113080D01*
X132363882Y-193113080D01*
X132201131Y-193074507D01*
X130840826Y-193074507D01*
X130731927Y-193087235D01*
X130716369Y-193089054D01*
X130716366Y-193089055D01*
X130559198Y-193146259D01*
X130559196Y-193146260D01*
X130495779Y-193187970D01*
X130429404Y-193208356D01*
X128014538Y-193242684D01*
X127947225Y-193223955D01*
X127900724Y-193171806D01*
X127889799Y-193102796D01*
X127917917Y-193038834D01*
X127925082Y-193031028D01*
X128107925Y-192848186D01*
X128339091Y-192562720D01*
X128339091Y-192562719D01*
X128339095Y-192562715D01*
X128339096Y-192562713D01*
X128539148Y-192254659D01*
X128539151Y-192254655D01*
X128705913Y-191927365D01*
X128837551Y-191584436D01*
X128932622Y-191229626D01*
X128990085Y-190866823D01*
X129009309Y-190500000D01*
X128990085Y-190133177D01*
X128932622Y-189770374D01*
X128837551Y-189415564D01*
X128705913Y-189072635D01*
X128539151Y-188745346D01*
X128513420Y-188705723D01*
X128339092Y-188437281D01*
X128107928Y-188151818D01*
X128107925Y-188151814D01*
X127848186Y-187892075D01*
X127562720Y-187660909D01*
X127562714Y-187660905D01*
X127562701Y-187660896D01*
X127556465Y-187656846D01*
X127510962Y-187603825D01*
X127500000Y-187552851D01*
X127500000Y-182048362D01*
X127519685Y-181981323D01*
X127532742Y-181964410D01*
X133250000Y-175750000D01*
X133250000Y-170874000D01*
X133269685Y-170806961D01*
X133322489Y-170761206D01*
X133374000Y-170750000D01*
X136750000Y-170750000D01*
X136750000Y-169549106D01*
X136751052Y-169536409D01*
X136750836Y-169536392D01*
X136751260Y-169531280D01*
X136770426Y-169299975D01*
X136770425Y-169299971D01*
X136770426Y-169299968D01*
X136750837Y-169063560D01*
X136751051Y-169063542D01*
X136750000Y-169050844D01*
X136750000Y-167124000D01*
X136769685Y-167056961D01*
X136822489Y-167011206D01*
X136874000Y-167000000D01*
X142376000Y-167000000D01*
X142443039Y-167019685D01*
G37*
%TD.AperFunction*%
%TD*%
%TA.AperFunction,Conductor*%
%TO.N,Net-(J8-Pin_1)*%
G36*
X175943039Y-69519685D02*
G01*
X175988794Y-69572489D01*
X176000000Y-69624000D01*
X176000000Y-192876000D01*
X175980315Y-192943039D01*
X175927511Y-192988794D01*
X175876000Y-193000000D01*
X165124000Y-193000000D01*
X165056961Y-192980315D01*
X165011206Y-192927511D01*
X165000000Y-192876000D01*
X165000000Y-181500000D01*
X150374000Y-181500000D01*
X150306961Y-181480315D01*
X150261206Y-181427511D01*
X150250000Y-181376000D01*
X150250000Y-181159248D01*
X150263189Y-181103597D01*
X150291923Y-181046382D01*
X150291924Y-181046381D01*
X150330497Y-180883630D01*
X150330497Y-179523325D01*
X150315950Y-179398869D01*
X150286741Y-179318617D01*
X150257478Y-179238217D01*
X150250000Y-179195807D01*
X150250000Y-177624000D01*
X150269685Y-177556961D01*
X150322489Y-177511206D01*
X150374000Y-177500000D01*
X154250000Y-177500000D01*
X154250000Y-171000000D01*
X143029500Y-171000000D01*
X142962461Y-170980315D01*
X142916706Y-170927511D01*
X142905500Y-170876000D01*
X142905500Y-169299981D01*
X148149818Y-169299981D01*
X148168982Y-169531272D01*
X148168984Y-169531283D01*
X148225960Y-169756275D01*
X148319193Y-169968823D01*
X148446134Y-170163122D01*
X148446137Y-170163126D01*
X148446139Y-170163128D01*
X148603334Y-170333888D01*
X148603337Y-170333890D01*
X148603340Y-170333893D01*
X148786483Y-170476439D01*
X148786489Y-170476443D01*
X148786492Y-170476445D01*
X148990615Y-170586911D01*
X149104605Y-170626043D01*
X149210133Y-170662272D01*
X149210135Y-170662272D01*
X149210137Y-170662273D01*
X149439069Y-170700475D01*
X149439070Y-170700475D01*
X149671166Y-170700475D01*
X149671167Y-170700475D01*
X149900099Y-170662273D01*
X150119621Y-170586911D01*
X150323744Y-170476445D01*
X150506902Y-170333888D01*
X150664097Y-170163128D01*
X150791042Y-169968824D01*
X150884275Y-169756275D01*
X150941252Y-169531280D01*
X150941253Y-169531272D01*
X150960418Y-169299981D01*
X150960418Y-169299968D01*
X150941253Y-169068677D01*
X150941251Y-169068666D01*
X150884275Y-168843674D01*
X150791042Y-168631126D01*
X150664101Y-168436827D01*
X150664098Y-168436824D01*
X150664097Y-168436822D01*
X150506902Y-168266062D01*
X150506897Y-168266058D01*
X150506895Y-168266056D01*
X150323752Y-168123510D01*
X150323746Y-168123506D01*
X150119622Y-168013039D01*
X150119613Y-168013036D01*
X149900102Y-167937677D01*
X149728400Y-167909025D01*
X149671167Y-167899475D01*
X149439069Y-167899475D01*
X149393282Y-167907115D01*
X149210133Y-167937677D01*
X148990622Y-168013036D01*
X148990613Y-168013039D01*
X148786489Y-168123506D01*
X148786483Y-168123510D01*
X148603340Y-168266056D01*
X148603337Y-168266059D01*
X148446134Y-168436827D01*
X148319193Y-168631126D01*
X148225960Y-168843674D01*
X148168984Y-169068666D01*
X148168982Y-169068677D01*
X148149818Y-169299968D01*
X148149818Y-169299981D01*
X142905500Y-169299981D01*
X142905500Y-167124008D01*
X142905499Y-167123991D01*
X142896232Y-167037802D01*
X142890130Y-167009754D01*
X142885026Y-166986290D01*
X142862310Y-166914640D01*
X142795250Y-166806943D01*
X142795249Y-166806942D01*
X142795248Y-166806940D01*
X142749501Y-166754145D01*
X142749497Y-166754141D01*
X142749495Y-166754139D01*
X142671923Y-166684958D01*
X142671921Y-166684957D01*
X142671920Y-166684956D01*
X142671917Y-166684954D01*
X142570881Y-166637055D01*
X142518737Y-166590550D01*
X142500000Y-166525009D01*
X142500000Y-163124000D01*
X142519685Y-163056961D01*
X142572489Y-163011206D01*
X142624000Y-163000000D01*
X165500000Y-163000000D01*
X165500000Y-69624000D01*
X165519685Y-69556961D01*
X165572489Y-69511206D01*
X165624000Y-69500000D01*
X175876000Y-69500000D01*
X175943039Y-69519685D01*
G37*
%TD.AperFunction*%
%TD*%
M02*
