%TF.GenerationSoftware,KiCad,Pcbnew,7.0.6*%
%TF.CreationDate,2023-12-09T00:06:19+01:00*%
%TF.ProjectId,MecProInverter,4d656350-726f-4496-9e76-65727465722e,rev?*%
%TF.SameCoordinates,Original*%
%TF.FileFunction,Plated,1,4,PTH,Mixed*%
%TF.FilePolarity,Positive*%
%FSLAX46Y46*%
G04 Gerber Fmt 4.6, Leading zero omitted, Abs format (unit mm)*
G04 Created by KiCad (PCBNEW 7.0.6) date 2023-12-09 00:06:19*
%MOMM*%
%LPD*%
G01*
G04 APERTURE LIST*
%TA.AperFunction,ViaDrill*%
%ADD10C,0.300000*%
%TD*%
%TA.AperFunction,ViaDrill*%
%ADD11C,0.400000*%
%TD*%
G04 aperture for slot hole*
%TA.AperFunction,ComponentDrill*%
%ADD12O,0.600000X1.500000*%
%TD*%
G04 aperture for slot hole*
%TA.AperFunction,ComponentDrill*%
%ADD13O,0.600000X1.200000*%
%TD*%
%TA.AperFunction,ComponentDrill*%
%ADD14C,1.000000*%
%TD*%
%TA.AperFunction,ComponentDrill*%
%ADD15C,1.100000*%
%TD*%
%TA.AperFunction,ComponentDrill*%
%ADD16C,1.100025*%
%TD*%
%TA.AperFunction,ComponentDrill*%
%ADD17C,1.200000*%
%TD*%
%TA.AperFunction,ViaDrill*%
%ADD18C,1.250000*%
%TD*%
%TA.AperFunction,ComponentDrill*%
%ADD19C,1.250000*%
%TD*%
%TA.AperFunction,ComponentDrill*%
%ADD20C,1.300000*%
%TD*%
%TA.AperFunction,ComponentDrill*%
%ADD21C,1.500000*%
%TD*%
G04 aperture for slot hole*
%TA.AperFunction,ComponentDrill*%
%ADD22O,1.800000X2.500025*%
%TD*%
%TA.AperFunction,ComponentDrill*%
%ADD23C,2.286000*%
%TD*%
%TA.AperFunction,ComponentDrill*%
%ADD24C,3.200000*%
%TD*%
G04 APERTURE END LIST*
D10*
X145500000Y-100275000D03*
X145500000Y-100875000D03*
X146000000Y-195500000D03*
X146100000Y-100275000D03*
X146100000Y-100875000D03*
X150920000Y-101040000D03*
X150930000Y-100230000D03*
X151640000Y-100230000D03*
X151640000Y-101040000D03*
X154060000Y-100000000D03*
X154100000Y-99200000D03*
X154100000Y-100800000D03*
X154100000Y-101600000D03*
D11*
X95700000Y-80600000D03*
X98700000Y-147200000D03*
X99000000Y-97250000D03*
X99000000Y-102500000D03*
X99250000Y-93750000D03*
X100750000Y-114500000D03*
X101975462Y-88750000D03*
X102250000Y-103250000D03*
X104762299Y-92012299D03*
X105950000Y-145937500D03*
X106000000Y-92250000D03*
X108315088Y-57090088D03*
X113000000Y-61749987D03*
X113000000Y-61749987D03*
X113000000Y-72750000D03*
X113000000Y-83750000D03*
X114100000Y-106700000D03*
X115315088Y-57340088D03*
X121500000Y-90525500D03*
X122750000Y-91325402D03*
X123250000Y-54250000D03*
X123500000Y-157500000D03*
X123600000Y-107400000D03*
X123750000Y-57250000D03*
X123815332Y-155384668D03*
X124250000Y-148750000D03*
X124600000Y-107000000D03*
X124750000Y-81250000D03*
X125400000Y-105800000D03*
X126000000Y-104600000D03*
X126250000Y-71250000D03*
X126500000Y-162250000D03*
X126637299Y-157474564D03*
X126750000Y-205250000D03*
X127000000Y-104200000D03*
X127600000Y-103201034D03*
X128000000Y-158000000D03*
X128000000Y-202000000D03*
X128000000Y-203250000D03*
X128605447Y-102406375D03*
X129400000Y-101800000D03*
X129600000Y-100600000D03*
X129750000Y-76250000D03*
X129750000Y-159250000D03*
X129974951Y-92500451D03*
X130000000Y-69000000D03*
X130200000Y-99800000D03*
X130280959Y-155081361D03*
X130750000Y-116000000D03*
X131000000Y-99000000D03*
X131000000Y-162000000D03*
X131250000Y-165500000D03*
X131500127Y-157500127D03*
X131750000Y-115000000D03*
X131800000Y-98000000D03*
X132750000Y-148750000D03*
X133250000Y-159000000D03*
X133350000Y-108250000D03*
X133500000Y-60300000D03*
X133750000Y-84750000D03*
X134250000Y-61750000D03*
X135750000Y-85000000D03*
X135800000Y-83400000D03*
X136000000Y-158750000D03*
X136200000Y-82200000D03*
X136250000Y-71000000D03*
X136500000Y-65250000D03*
X137250000Y-71250000D03*
X137250000Y-156500000D03*
X137500000Y-64250000D03*
X137500000Y-72250000D03*
X137500000Y-73750000D03*
X137500000Y-81000000D03*
X138500000Y-74750000D03*
X140012299Y-75762299D03*
X140200000Y-93800000D03*
X140200000Y-95000000D03*
X140200000Y-96200000D03*
X140250000Y-74500000D03*
X140750000Y-78000000D03*
X141274952Y-75524952D03*
X141500000Y-60250000D03*
X141500000Y-160500000D03*
X141800000Y-92800000D03*
X143025146Y-65974854D03*
X143200000Y-92800000D03*
X143750000Y-60250000D03*
X144250000Y-71500000D03*
X144600000Y-92800000D03*
X145474500Y-78750000D03*
X145800000Y-94000000D03*
X145800000Y-95400000D03*
X145800000Y-96600000D03*
X146000000Y-60250000D03*
X146000000Y-63000000D03*
X146000000Y-69200000D03*
X146000000Y-74500000D03*
X146000000Y-75750000D03*
X147200000Y-99000000D03*
X147250000Y-74500000D03*
X147250000Y-172750000D03*
X148000000Y-60250000D03*
X148250000Y-77250000D03*
X148400000Y-99000000D03*
X149400000Y-66000000D03*
X149500000Y-218000000D03*
X149600000Y-99000000D03*
X150500000Y-60250000D03*
X150750000Y-213250000D03*
X150800000Y-99000000D03*
X151000000Y-61250000D03*
X151500000Y-64250000D03*
X151500000Y-65250000D03*
X151750000Y-68000000D03*
X151750000Y-77500000D03*
X151900000Y-97800000D03*
X152000000Y-79500000D03*
X152000000Y-83250000D03*
X152750000Y-172250000D03*
X153000000Y-74500000D03*
X153000000Y-97800000D03*
X153000000Y-173500000D03*
X153250000Y-83250000D03*
X153250000Y-182750000D03*
X154000000Y-97800000D03*
X154250000Y-84750000D03*
X154400000Y-94800000D03*
X154700000Y-61700000D03*
X154750000Y-62750000D03*
X154776915Y-63798448D03*
X155000000Y-96800000D03*
X156000000Y-60600000D03*
X156400000Y-101400000D03*
X158000000Y-66250000D03*
X159000000Y-206000000D03*
X160500000Y-212250000D03*
X161750000Y-155000000D03*
X162750000Y-205000000D03*
X163250000Y-111250000D03*
X163250000Y-184000000D03*
X163250000Y-208500000D03*
X163500000Y-153750000D03*
X165500000Y-212250000D03*
X166000000Y-195326000D03*
X166116000Y-205994000D03*
X168402000Y-210566000D03*
X169250000Y-216750000D03*
X169926000Y-210566000D03*
X170500000Y-65000000D03*
X171000000Y-194000000D03*
X173482000Y-208788000D03*
X174750000Y-195250000D03*
X175450000Y-65750000D03*
X176022000Y-208788000D03*
X176276000Y-209804000D03*
X177800000Y-196088000D03*
X182000000Y-195500000D03*
X182000000Y-209000000D03*
X182500000Y-205000000D03*
X185444767Y-205555233D03*
X186000000Y-208750000D03*
X187250000Y-204500000D03*
X189000000Y-93500000D03*
X189994685Y-92606367D03*
X190000000Y-204250000D03*
X190500000Y-196000000D03*
X191000000Y-205750000D03*
X191014452Y-63500000D03*
X191250000Y-194500000D03*
X191974284Y-65482278D03*
X192300000Y-192700000D03*
X192987701Y-206987701D03*
X193000000Y-208000000D03*
X193500000Y-205000000D03*
X193750000Y-64750000D03*
X195000000Y-192500000D03*
D12*
%TO.C,U3*%
X158675006Y-214174879D03*
D13*
X158675006Y-218375032D03*
D12*
X167324994Y-214174879D03*
D13*
X167324994Y-218375032D03*
D14*
%TO.C,J7*%
X96000000Y-86300000D03*
X96000000Y-88840000D03*
X96000000Y-91380000D03*
X96000000Y-93920000D03*
X96000000Y-96460000D03*
X96000000Y-99000000D03*
X96000000Y-101540000D03*
X96000000Y-104080000D03*
X96000000Y-106620000D03*
X96000000Y-109160000D03*
X96000000Y-111700000D03*
%TO.C,R1*%
X100250000Y-187375000D03*
X105330000Y-187375000D03*
%TO.C,U13*%
X117900051Y-143700025D03*
X119900051Y-140700025D03*
X121500000Y-143700025D03*
X123099949Y-140700025D03*
X124699898Y-143700025D03*
X126300102Y-140700025D03*
X127900051Y-143700025D03*
X129500000Y-140700025D03*
X131099949Y-143700025D03*
X132699898Y-140700025D03*
X136099949Y-143700025D03*
%TO.C,J5*%
X137110000Y-88600000D03*
%TO.C,U13*%
X137699898Y-140700025D03*
%TO.C,J5*%
X139650000Y-88600000D03*
%TO.C,U13*%
X141099949Y-143700025D03*
%TO.C,J5*%
X142190000Y-88600000D03*
%TO.C,U13*%
X142700152Y-140700025D03*
%TO.C,J5*%
X144730000Y-88600000D03*
%TO.C,U13*%
X146099949Y-143700025D03*
%TO.C,J5*%
X147270000Y-88600000D03*
%TO.C,J6*%
X148000000Y-190445000D03*
X148000000Y-192985000D03*
X148000000Y-195525000D03*
%TO.C,U13*%
X148100203Y-140700025D03*
%TO.C,J5*%
X149810000Y-88600000D03*
%TO.C,J9*%
X150000000Y-105250000D03*
%TO.C,J5*%
X152350000Y-88600000D03*
%TO.C,U12*%
X154750000Y-190260000D03*
X154750000Y-195340000D03*
X154750000Y-202960000D03*
X154750000Y-205500000D03*
%TO.C,J5*%
X154890000Y-88600000D03*
%TO.C,J8*%
X155500000Y-165250000D03*
D15*
%TO.C,J3*%
X173460000Y-217500000D03*
X176000000Y-217500000D03*
X178540000Y-217500000D03*
X181080000Y-217500000D03*
X183620000Y-217500000D03*
X186160000Y-217500000D03*
D16*
%TO.C,U21*%
X100500127Y-68064478D03*
X103000000Y-68064478D03*
X105500127Y-68064478D03*
D17*
%TO.C,Fan1*%
X98000000Y-117459995D03*
X98000000Y-120000000D03*
X98000000Y-122540005D03*
%TO.C,Fan2*%
X98000000Y-139459995D03*
X98000000Y-142000000D03*
X98000000Y-144540005D03*
%TO.C,U13*%
X116444882Y-169299975D03*
X121175133Y-169299975D03*
X125905131Y-169299975D03*
X130635128Y-169299975D03*
X135365126Y-169299975D03*
X140095123Y-169299975D03*
X144825121Y-169299975D03*
X149555118Y-169299975D03*
%TD*%
D18*
X110250000Y-165250000D03*
X114750000Y-153500000D03*
D19*
%TO.C,U4*%
X142000000Y-178000000D03*
X142000000Y-185500000D03*
X142000000Y-193000000D03*
X142000000Y-203000000D03*
D20*
%TO.C,K2*%
X99500000Y-156350000D03*
X99500000Y-171610000D03*
X99500000Y-176650000D03*
X99500000Y-181690000D03*
X107000000Y-156350000D03*
X107000000Y-171610000D03*
X107000000Y-176650000D03*
X107000000Y-181690000D03*
%TO.C,J10*%
X107000000Y-215500000D03*
X112000000Y-215500000D03*
X117000000Y-215500000D03*
X122000000Y-215500000D03*
%TO.C,J4*%
X128500000Y-215500000D03*
X133500000Y-215500000D03*
X138500000Y-215500000D03*
X143500000Y-215500000D03*
D21*
%TO.C,PS1*%
X108800000Y-111482500D03*
X108800000Y-119482500D03*
X153800000Y-111482500D03*
X153800000Y-132282500D03*
D22*
%TO.C,U21*%
X97919990Y-75064478D03*
X108080010Y-75064478D03*
D23*
%TO.C,C1*%
X171000000Y-74666750D03*
%TO.C,C2*%
X171000000Y-112666750D03*
%TO.C,C3*%
X171000000Y-150333500D03*
%TO.C,C4*%
X171000000Y-188333500D03*
%TO.C,C1*%
X181000000Y-74666750D03*
%TO.C,C2*%
X181000000Y-112666750D03*
%TO.C,C3*%
X181000000Y-150333500D03*
%TO.C,C4*%
X181000000Y-188333500D03*
D24*
%TO.C,H5*%
X99000000Y-58000000D03*
%TO.C,H4*%
X99000000Y-131000000D03*
%TO.C,H1*%
X99000000Y-216000000D03*
%TO.C,H6*%
X193000000Y-58000000D03*
%TO.C,H2*%
X193000000Y-131000000D03*
%TO.C,H3*%
X193000000Y-216000000D03*
M02*
