%TF.GenerationSoftware,KiCad,Pcbnew,7.0.8*%
%TF.CreationDate,2023-12-07T15:12:16+01:00*%
%TF.ProjectId,MecProInverter,4d656350-726f-4496-9e76-65727465722e,rev?*%
%TF.SameCoordinates,Original*%
%TF.FileFunction,Legend,Bot*%
%TF.FilePolarity,Positive*%
%FSLAX46Y46*%
G04 Gerber Fmt 4.6, Leading zero omitted, Abs format (unit mm)*
G04 Created by KiCad (PCBNEW 7.0.8) date 2023-12-07 15:12:16*
%MOMM*%
%LPD*%
G01*
G04 APERTURE LIST*
%ADD10C,0.150000*%
%ADD11C,0.100000*%
%ADD12C,0.152400*%
%ADD13C,0.254000*%
%ADD14C,0.059995*%
G04 APERTURE END LIST*
D10*
X175640419Y-112833416D02*
X175592800Y-112881035D01*
X175592800Y-112881035D02*
X175545180Y-113023892D01*
X175545180Y-113023892D02*
X175545180Y-113119130D01*
X175545180Y-113119130D02*
X175592800Y-113261987D01*
X175592800Y-113261987D02*
X175688038Y-113357225D01*
X175688038Y-113357225D02*
X175783276Y-113404844D01*
X175783276Y-113404844D02*
X175973752Y-113452463D01*
X175973752Y-113452463D02*
X176116609Y-113452463D01*
X176116609Y-113452463D02*
X176307085Y-113404844D01*
X176307085Y-113404844D02*
X176402323Y-113357225D01*
X176402323Y-113357225D02*
X176497561Y-113261987D01*
X176497561Y-113261987D02*
X176545180Y-113119130D01*
X176545180Y-113119130D02*
X176545180Y-113023892D01*
X176545180Y-113023892D02*
X176497561Y-112881035D01*
X176497561Y-112881035D02*
X176449942Y-112833416D01*
X176449942Y-112452463D02*
X176497561Y-112404844D01*
X176497561Y-112404844D02*
X176545180Y-112309606D01*
X176545180Y-112309606D02*
X176545180Y-112071511D01*
X176545180Y-112071511D02*
X176497561Y-111976273D01*
X176497561Y-111976273D02*
X176449942Y-111928654D01*
X176449942Y-111928654D02*
X176354704Y-111881035D01*
X176354704Y-111881035D02*
X176259466Y-111881035D01*
X176259466Y-111881035D02*
X176116609Y-111928654D01*
X176116609Y-111928654D02*
X175545180Y-112500082D01*
X175545180Y-112500082D02*
X175545180Y-111881035D01*
X175640419Y-74833416D02*
X175592800Y-74881035D01*
X175592800Y-74881035D02*
X175545180Y-75023892D01*
X175545180Y-75023892D02*
X175545180Y-75119130D01*
X175545180Y-75119130D02*
X175592800Y-75261987D01*
X175592800Y-75261987D02*
X175688038Y-75357225D01*
X175688038Y-75357225D02*
X175783276Y-75404844D01*
X175783276Y-75404844D02*
X175973752Y-75452463D01*
X175973752Y-75452463D02*
X176116609Y-75452463D01*
X176116609Y-75452463D02*
X176307085Y-75404844D01*
X176307085Y-75404844D02*
X176402323Y-75357225D01*
X176402323Y-75357225D02*
X176497561Y-75261987D01*
X176497561Y-75261987D02*
X176545180Y-75119130D01*
X176545180Y-75119130D02*
X176545180Y-75023892D01*
X176545180Y-75023892D02*
X176497561Y-74881035D01*
X176497561Y-74881035D02*
X176449942Y-74833416D01*
X175545180Y-73881035D02*
X175545180Y-74452463D01*
X175545180Y-74166749D02*
X176545180Y-74166749D01*
X176545180Y-74166749D02*
X176402323Y-74261987D01*
X176402323Y-74261987D02*
X176307085Y-74357225D01*
X176307085Y-74357225D02*
X176259466Y-74452463D01*
X175640419Y-188500166D02*
X175592800Y-188547785D01*
X175592800Y-188547785D02*
X175545180Y-188690642D01*
X175545180Y-188690642D02*
X175545180Y-188785880D01*
X175545180Y-188785880D02*
X175592800Y-188928737D01*
X175592800Y-188928737D02*
X175688038Y-189023975D01*
X175688038Y-189023975D02*
X175783276Y-189071594D01*
X175783276Y-189071594D02*
X175973752Y-189119213D01*
X175973752Y-189119213D02*
X176116609Y-189119213D01*
X176116609Y-189119213D02*
X176307085Y-189071594D01*
X176307085Y-189071594D02*
X176402323Y-189023975D01*
X176402323Y-189023975D02*
X176497561Y-188928737D01*
X176497561Y-188928737D02*
X176545180Y-188785880D01*
X176545180Y-188785880D02*
X176545180Y-188690642D01*
X176545180Y-188690642D02*
X176497561Y-188547785D01*
X176497561Y-188547785D02*
X176449942Y-188500166D01*
X176211847Y-187643023D02*
X175545180Y-187643023D01*
X176592800Y-187881118D02*
X175878514Y-188119213D01*
X175878514Y-188119213D02*
X175878514Y-187500166D01*
X175640419Y-150500166D02*
X175592800Y-150547785D01*
X175592800Y-150547785D02*
X175545180Y-150690642D01*
X175545180Y-150690642D02*
X175545180Y-150785880D01*
X175545180Y-150785880D02*
X175592800Y-150928737D01*
X175592800Y-150928737D02*
X175688038Y-151023975D01*
X175688038Y-151023975D02*
X175783276Y-151071594D01*
X175783276Y-151071594D02*
X175973752Y-151119213D01*
X175973752Y-151119213D02*
X176116609Y-151119213D01*
X176116609Y-151119213D02*
X176307085Y-151071594D01*
X176307085Y-151071594D02*
X176402323Y-151023975D01*
X176402323Y-151023975D02*
X176497561Y-150928737D01*
X176497561Y-150928737D02*
X176545180Y-150785880D01*
X176545180Y-150785880D02*
X176545180Y-150690642D01*
X176545180Y-150690642D02*
X176497561Y-150547785D01*
X176497561Y-150547785D02*
X176449942Y-150500166D01*
X176545180Y-150166832D02*
X176545180Y-149547785D01*
X176545180Y-149547785D02*
X176164228Y-149881118D01*
X176164228Y-149881118D02*
X176164228Y-149738261D01*
X176164228Y-149738261D02*
X176116609Y-149643023D01*
X176116609Y-149643023D02*
X176068990Y-149595404D01*
X176068990Y-149595404D02*
X175973752Y-149547785D01*
X175973752Y-149547785D02*
X175735657Y-149547785D01*
X175735657Y-149547785D02*
X175640419Y-149595404D01*
X175640419Y-149595404D02*
X175592800Y-149643023D01*
X175592800Y-149643023D02*
X175545180Y-149738261D01*
X175545180Y-149738261D02*
X175545180Y-150023975D01*
X175545180Y-150023975D02*
X175592800Y-150119213D01*
X175592800Y-150119213D02*
X175640419Y-150166832D01*
X134238094Y-154704819D02*
X134238094Y-155514342D01*
X134238094Y-155514342D02*
X134190475Y-155609580D01*
X134190475Y-155609580D02*
X134142856Y-155657200D01*
X134142856Y-155657200D02*
X134047618Y-155704819D01*
X134047618Y-155704819D02*
X133857142Y-155704819D01*
X133857142Y-155704819D02*
X133761904Y-155657200D01*
X133761904Y-155657200D02*
X133714285Y-155609580D01*
X133714285Y-155609580D02*
X133666666Y-155514342D01*
X133666666Y-155514342D02*
X133666666Y-154704819D01*
X132666666Y-155704819D02*
X133238094Y-155704819D01*
X132952380Y-155704819D02*
X132952380Y-154704819D01*
X132952380Y-154704819D02*
X133047618Y-154847676D01*
X133047618Y-154847676D02*
X133142856Y-154942914D01*
X133142856Y-154942914D02*
X133238094Y-154990533D01*
X132333332Y-154704819D02*
X131714285Y-154704819D01*
X131714285Y-154704819D02*
X132047618Y-155085771D01*
X132047618Y-155085771D02*
X131904761Y-155085771D01*
X131904761Y-155085771D02*
X131809523Y-155133390D01*
X131809523Y-155133390D02*
X131761904Y-155181009D01*
X131761904Y-155181009D02*
X131714285Y-155276247D01*
X131714285Y-155276247D02*
X131714285Y-155514342D01*
X131714285Y-155514342D02*
X131761904Y-155609580D01*
X131761904Y-155609580D02*
X131809523Y-155657200D01*
X131809523Y-155657200D02*
X131904761Y-155704819D01*
X131904761Y-155704819D02*
X132190475Y-155704819D01*
X132190475Y-155704819D02*
X132285713Y-155657200D01*
X132285713Y-155657200D02*
X132333332Y-155609580D01*
D11*
X133457419Y-189738095D02*
X134266942Y-189738095D01*
X134266942Y-189738095D02*
X134362180Y-189785714D01*
X134362180Y-189785714D02*
X134409800Y-189833333D01*
X134409800Y-189833333D02*
X134457419Y-189928571D01*
X134457419Y-189928571D02*
X134457419Y-190119047D01*
X134457419Y-190119047D02*
X134409800Y-190214285D01*
X134409800Y-190214285D02*
X134362180Y-190261904D01*
X134362180Y-190261904D02*
X134266942Y-190309523D01*
X134266942Y-190309523D02*
X133457419Y-190309523D01*
X133790752Y-191214285D02*
X134457419Y-191214285D01*
X133409800Y-190976190D02*
X134124085Y-190738095D01*
X134124085Y-190738095D02*
X134124085Y-191357142D01*
%TO.C,R1*%
X97750000Y-188875000D02*
X107750000Y-188875000D01*
X107750000Y-188875000D02*
X107750000Y-185875000D01*
X107750000Y-185875000D02*
X97750000Y-185875000D01*
X97750000Y-185875000D02*
X97750000Y-188875000D01*
X97750000Y-188875000D02*
X107750000Y-188875000D01*
X107750000Y-188875000D02*
X107750000Y-204875000D01*
X107750000Y-204875000D02*
X97750000Y-204875000D01*
X97750000Y-204875000D02*
X97750000Y-188875000D01*
D12*
%TO.C,C2*%
X171000000Y-94912150D02*
X171000000Y-93642150D01*
X171635000Y-94277150D02*
X170365000Y-94277150D01*
X193627600Y-112666750D02*
G75*
G03*
X193627600Y-112666750I-17627600J0D01*
G01*
%TO.C,C1*%
X171000000Y-56912150D02*
X171000000Y-55642150D01*
X171635000Y-56277150D02*
X170365000Y-56277150D01*
X193627600Y-74666750D02*
G75*
G03*
X193627600Y-74666750I-17627600J0D01*
G01*
%TO.C,C4*%
X171000000Y-170578900D02*
X171000000Y-169308900D01*
X171635000Y-169943900D02*
X170365000Y-169943900D01*
X193627600Y-188333500D02*
G75*
G03*
X193627600Y-188333500I-17627600J0D01*
G01*
%TO.C,C3*%
X171000000Y-132578900D02*
X171000000Y-131308900D01*
X171635000Y-131943900D02*
X170365000Y-131943900D01*
X193627600Y-150333500D02*
G75*
G03*
X193627600Y-150333500I-17627600J0D01*
G01*
D13*
%TO.C,U13*%
X151000076Y-166999949D02*
X151000076Y-160299975D01*
X151000076Y-145999924D02*
X151034163Y-157032004D01*
X115008763Y-167010109D02*
X115008763Y-160310160D01*
X115008763Y-146010109D02*
X114974676Y-157042139D01*
X115000025Y-166999949D02*
X151000076Y-166999949D01*
X115000025Y-145999924D02*
X151000076Y-145999924D01*
X151034163Y-157032005D02*
G75*
G03*
X151000077Y-160299973I-17043J-1633984D01*
G01*
X115008763Y-160310136D02*
G75*
G03*
X114974677Y-157042164I-17043J1633986D01*
G01*
D14*
X151191160Y-139900025D02*
G75*
G03*
X151191160Y-139900025I-29997J0D01*
G01*
D11*
%TO.C,U4*%
X139500000Y-175500000D02*
X144500000Y-175500000D01*
X144500000Y-175500000D02*
X144500000Y-205500000D01*
X144500000Y-205500000D02*
X139500000Y-205500000D01*
X139500000Y-205500000D02*
X139500000Y-175500000D01*
X116500000Y-175500000D02*
X144500000Y-175500000D01*
X144500000Y-175500000D02*
X144500000Y-205500000D01*
X144500000Y-205500000D02*
X116500000Y-205500000D01*
X116500000Y-205500000D02*
X116500000Y-175500000D01*
%TD*%
M02*
