%TF.GenerationSoftware,KiCad,Pcbnew,7.0.6*%
%TF.CreationDate,2023-12-09T00:06:22+01:00*%
%TF.ProjectId,MecProInverter,4d656350-726f-4496-9e76-65727465722e,rev?*%
%TF.SameCoordinates,Original*%
%TF.FileFunction,Copper,L1,Top*%
%TF.FilePolarity,Positive*%
%FSLAX46Y46*%
G04 Gerber Fmt 4.6, Leading zero omitted, Abs format (unit mm)*
G04 Created by KiCad (PCBNEW 7.0.6) date 2023-12-09 00:06:22*
%MOMM*%
%LPD*%
G01*
G04 APERTURE LIST*
G04 Aperture macros list*
%AMRoundRect*
0 Rectangle with rounded corners*
0 $1 Rounding radius*
0 $2 $3 $4 $5 $6 $7 $8 $9 X,Y pos of 4 corners*
0 Add a 4 corners polygon primitive as box body*
4,1,4,$2,$3,$4,$5,$6,$7,$8,$9,$2,$3,0*
0 Add four circle primitives for the rounded corners*
1,1,$1+$1,$2,$3*
1,1,$1+$1,$4,$5*
1,1,$1+$1,$6,$7*
1,1,$1+$1,$8,$9*
0 Add four rect primitives between the rounded corners*
20,1,$1+$1,$2,$3,$4,$5,0*
20,1,$1+$1,$4,$5,$6,$7,0*
20,1,$1+$1,$6,$7,$8,$9,0*
20,1,$1+$1,$8,$9,$2,$3,0*%
%AMFreePoly0*
4,1,6,0.850038,-0.850038,-0.849987,-0.850038,-0.849987,0.499975,-0.499975,0.849987,0.850038,0.849987,0.850038,-0.850038,0.850038,-0.850038,$1*%
G04 Aperture macros list end*
%TA.AperFunction,SMDPad,CuDef*%
%ADD10RoundRect,0.225000X-0.250000X0.225000X-0.250000X-0.225000X0.250000X-0.225000X0.250000X0.225000X0*%
%TD*%
%TA.AperFunction,SMDPad,CuDef*%
%ADD11RoundRect,0.218750X0.256250X-0.218750X0.256250X0.218750X-0.256250X0.218750X-0.256250X-0.218750X0*%
%TD*%
%TA.AperFunction,SMDPad,CuDef*%
%ADD12C,1.500000*%
%TD*%
%TA.AperFunction,SMDPad,CuDef*%
%ADD13RoundRect,0.225000X0.250000X-0.225000X0.250000X0.225000X-0.250000X0.225000X-0.250000X-0.225000X0*%
%TD*%
%TA.AperFunction,SMDPad,CuDef*%
%ADD14RoundRect,0.200000X0.200000X0.275000X-0.200000X0.275000X-0.200000X-0.275000X0.200000X-0.275000X0*%
%TD*%
%TA.AperFunction,SMDPad,CuDef*%
%ADD15RoundRect,0.218750X-0.256250X0.218750X-0.256250X-0.218750X0.256250X-0.218750X0.256250X0.218750X0*%
%TD*%
%TA.AperFunction,SMDPad,CuDef*%
%ADD16RoundRect,0.225000X-0.225000X-0.250000X0.225000X-0.250000X0.225000X0.250000X-0.225000X0.250000X0*%
%TD*%
%TA.AperFunction,SMDPad,CuDef*%
%ADD17RoundRect,0.200000X0.275000X-0.200000X0.275000X0.200000X-0.275000X0.200000X-0.275000X-0.200000X0*%
%TD*%
%TA.AperFunction,SMDPad,CuDef*%
%ADD18RoundRect,0.218750X-0.218750X-0.256250X0.218750X-0.256250X0.218750X0.256250X-0.218750X0.256250X0*%
%TD*%
%TA.AperFunction,SMDPad,CuDef*%
%ADD19RoundRect,0.225000X0.225000X0.250000X-0.225000X0.250000X-0.225000X-0.250000X0.225000X-0.250000X0*%
%TD*%
%TA.AperFunction,ComponentPad*%
%ADD20C,2.000000*%
%TD*%
%TA.AperFunction,ComponentPad*%
%ADD21R,1.500000X1.500000*%
%TD*%
%TA.AperFunction,ComponentPad*%
%ADD22C,1.500000*%
%TD*%
%TA.AperFunction,SMDPad,CuDef*%
%ADD23RoundRect,0.200000X-0.275000X0.200000X-0.275000X-0.200000X0.275000X-0.200000X0.275000X0.200000X0*%
%TD*%
%TA.AperFunction,SMDPad,CuDef*%
%ADD24R,0.532004X1.072009*%
%TD*%
%TA.AperFunction,SMDPad,CuDef*%
%ADD25R,1.900000X1.300000*%
%TD*%
%TA.AperFunction,SMDPad,CuDef*%
%ADD26RoundRect,0.250000X0.312500X0.625000X-0.312500X0.625000X-0.312500X-0.625000X0.312500X-0.625000X0*%
%TD*%
%TA.AperFunction,ComponentPad*%
%ADD27R,1.700000X1.700000*%
%TD*%
%TA.AperFunction,ComponentPad*%
%ADD28O,1.700000X1.700000*%
%TD*%
%TA.AperFunction,SMDPad,CuDef*%
%ADD29RoundRect,0.250000X0.625000X-0.312500X0.625000X0.312500X-0.625000X0.312500X-0.625000X-0.312500X0*%
%TD*%
%TA.AperFunction,SMDPad,CuDef*%
%ADD30RoundRect,0.150000X-0.150000X0.587500X-0.150000X-0.587500X0.150000X-0.587500X0.150000X0.587500X0*%
%TD*%
%TA.AperFunction,ComponentPad*%
%ADD31C,3.600000*%
%TD*%
%TA.AperFunction,ConnectorPad*%
%ADD32C,5.600000*%
%TD*%
%TA.AperFunction,SMDPad,CuDef*%
%ADD33R,1.500000X0.900000*%
%TD*%
%TA.AperFunction,SMDPad,CuDef*%
%ADD34RoundRect,0.250000X-0.625000X0.312500X-0.625000X-0.312500X0.625000X-0.312500X0.625000X0.312500X0*%
%TD*%
%TA.AperFunction,ComponentPad*%
%ADD35O,3.000000X2.000000*%
%TD*%
%TA.AperFunction,ComponentPad*%
%ADD36R,2.000000X3.000000*%
%TD*%
%TA.AperFunction,ComponentPad*%
%ADD37O,2.000000X3.000000*%
%TD*%
%TA.AperFunction,SMDPad,CuDef*%
%ADD38R,1.070003X0.532004*%
%TD*%
%TA.AperFunction,SMDPad,CuDef*%
%ADD39RoundRect,0.225000X0.225000X0.375000X-0.225000X0.375000X-0.225000X-0.375000X0.225000X-0.375000X0*%
%TD*%
%TA.AperFunction,SMDPad,CuDef*%
%ADD40RoundRect,0.200000X-0.200000X-0.275000X0.200000X-0.275000X0.200000X0.275000X-0.200000X0.275000X0*%
%TD*%
%TA.AperFunction,ComponentPad*%
%ADD41R,2.600000X2.600000*%
%TD*%
%TA.AperFunction,ComponentPad*%
%ADD42C,2.600000*%
%TD*%
%TA.AperFunction,SMDPad,CuDef*%
%ADD43RoundRect,0.225000X-0.225000X-0.375000X0.225000X-0.375000X0.225000X0.375000X-0.225000X0.375000X0*%
%TD*%
%TA.AperFunction,SMDPad,CuDef*%
%ADD44R,1.229997X1.359995*%
%TD*%
%TA.AperFunction,SMDPad,CuDef*%
%ADD45R,1.072009X0.532004*%
%TD*%
%TA.AperFunction,SMDPad,CuDef*%
%ADD46RoundRect,0.218750X0.218750X0.256250X-0.218750X0.256250X-0.218750X-0.256250X0.218750X-0.256250X0*%
%TD*%
%TA.AperFunction,ComponentPad*%
%ADD47R,2.200000X2.200000*%
%TD*%
%TA.AperFunction,ComponentPad*%
%ADD48C,2.200000*%
%TD*%
%TA.AperFunction,SMDPad,CuDef*%
%ADD49R,0.600000X1.100000*%
%TD*%
%TA.AperFunction,SMDPad,CuDef*%
%ADD50R,0.300000X1.100000*%
%TD*%
%TA.AperFunction,ComponentPad*%
%ADD51O,1.200000X2.000000*%
%TD*%
%TA.AperFunction,ComponentPad*%
%ADD52O,1.200000X1.800000*%
%TD*%
%TA.AperFunction,SMDPad,CuDef*%
%ADD53RoundRect,0.150000X0.150000X-0.875000X0.150000X0.875000X-0.150000X0.875000X-0.150000X-0.875000X0*%
%TD*%
%TA.AperFunction,SMDPad,CuDef*%
%ADD54O,0.588011X2.045009*%
%TD*%
%TA.AperFunction,SMDPad,CuDef*%
%ADD55O,1.864999X0.629997*%
%TD*%
%TA.AperFunction,SMDPad,CuDef*%
%ADD56R,0.800000X0.280010*%
%TD*%
%TA.AperFunction,SMDPad,CuDef*%
%ADD57R,0.280010X0.800000*%
%TD*%
%TA.AperFunction,SMDPad,CuDef*%
%ADD58FreePoly0,0.000000*%
%TD*%
%TA.AperFunction,ComponentPad*%
%ADD59C,1.800000*%
%TD*%
%TA.AperFunction,ComponentPad*%
%ADD60O,2.800000X3.500000*%
%TD*%
%TA.AperFunction,SMDPad,CuDef*%
%ADD61R,3.500000X2.950000*%
%TD*%
%TA.AperFunction,SMDPad,CuDef*%
%ADD62O,0.629997X1.864999*%
%TD*%
%TA.AperFunction,SMDPad,CuDef*%
%ADD63R,0.800000X0.400000*%
%TD*%
%TA.AperFunction,SMDPad,CuDef*%
%ADD64R,0.400000X0.800000*%
%TD*%
%TA.AperFunction,SMDPad,CuDef*%
%ADD65R,0.800000X0.800000*%
%TD*%
%TA.AperFunction,SMDPad,CuDef*%
%ADD66R,1.200000X1.200000*%
%TD*%
%TA.AperFunction,SMDPad,CuDef*%
%ADD67RoundRect,0.225000X-0.375000X0.225000X-0.375000X-0.225000X0.375000X-0.225000X0.375000X0.225000X0*%
%TD*%
%TA.AperFunction,ComponentPad*%
%ADD68R,3.000000X3.000000*%
%TD*%
%TA.AperFunction,ComponentPad*%
%ADD69C,3.000000*%
%TD*%
%TA.AperFunction,ComponentPad*%
%ADD70R,1.800000X1.800000*%
%TD*%
%TA.AperFunction,ComponentPad*%
%ADD71R,2.794000X2.794000*%
%TD*%
%TA.AperFunction,ComponentPad*%
%ADD72C,2.794000*%
%TD*%
%TA.AperFunction,ComponentPad*%
%ADD73C,1.600000*%
%TD*%
%TA.AperFunction,ComponentPad*%
%ADD74C,2.500000*%
%TD*%
%TA.AperFunction,ViaPad*%
%ADD75C,0.800000*%
%TD*%
%TA.AperFunction,ViaPad*%
%ADD76C,0.450000*%
%TD*%
%TA.AperFunction,ViaPad*%
%ADD77C,2.000000*%
%TD*%
%TA.AperFunction,Conductor*%
%ADD78C,0.250000*%
%TD*%
%TA.AperFunction,Conductor*%
%ADD79C,1.250000*%
%TD*%
%TA.AperFunction,Conductor*%
%ADD80C,0.400000*%
%TD*%
G04 APERTURE END LIST*
D10*
%TO.P,C49,1*%
%TO.N,VSS*%
X195000000Y-204975000D03*
%TO.P,C49,2*%
%TO.N,GNDS*%
X195000000Y-206525000D03*
%TD*%
D11*
%TO.P,D3V3,1,K*%
%TO.N,GND*%
X150800000Y-219287500D03*
%TO.P,D3V3,2,A*%
%TO.N,Net-(D3V3-A)*%
X150800000Y-217712500D03*
%TD*%
D12*
%TO.P,TP1,1,1*%
%TO.N,Net-(R53-Pad2)*%
X142250000Y-79750000D03*
%TD*%
D13*
%TO.P,C23,1*%
%TO.N,+3.3V*%
X137250000Y-61775000D03*
%TO.P,C23,2*%
%TO.N,GND*%
X137250000Y-60225000D03*
%TD*%
D14*
%TO.P,R19,1*%
%TO.N,Net-(Q2-G)*%
X101500000Y-104750000D03*
%TO.P,R19,2*%
%TO.N,GND*%
X99850000Y-104750000D03*
%TD*%
D15*
%TO.P,D8,1,K*%
%TO.N,/Power/CURRENT_AC*%
X128000000Y-162462500D03*
%TO.P,D8,2,A*%
%TO.N,Net-(D8-A)*%
X128000000Y-164037500D03*
%TD*%
D16*
%TO.P,C35,1*%
%TO.N,+3.3V*%
X167627000Y-195326000D03*
%TO.P,C35,2*%
%TO.N,GND*%
X169177000Y-195326000D03*
%TD*%
D10*
%TO.P,C25,1*%
%TO.N,+3.3V*%
X147700000Y-95825000D03*
%TO.P,C25,2*%
%TO.N,GND*%
X147700000Y-97375000D03*
%TD*%
D13*
%TO.P,C22,1*%
%TO.N,VS*%
X149600000Y-102175000D03*
%TO.P,C22,2*%
%TO.N,GND*%
X149600000Y-100625000D03*
%TD*%
D17*
%TO.P,R57,1*%
%TO.N,+15V*%
X99250000Y-112825000D03*
%TO.P,R57,2*%
%TO.N,Net-(Q2-D)*%
X99250000Y-111175000D03*
%TD*%
D18*
%TO.P,D9,1,K*%
%TO.N,Net-(D9-K)*%
X135864500Y-189428000D03*
%TO.P,D9,2,A*%
%TO.N,Net-(D9-A)*%
X137439500Y-189428000D03*
%TD*%
D19*
%TO.P,C18,1*%
%TO.N,Net-(U13-VS(W))*%
X137675000Y-147500000D03*
%TO.P,C18,2*%
%TO.N,Net-(U13-VB(W))*%
X136125000Y-147500000D03*
%TD*%
D17*
%TO.P,R29,1*%
%TO.N,Net-(Fan1-Pad3)*%
X111500000Y-105575000D03*
%TO.P,R29,2*%
%TO.N,/Control/FAN1_PWM_FB*%
X111500000Y-103925000D03*
%TD*%
D20*
%TO.P,Fan1,1*%
%TO.N,GND*%
X98000000Y-122540005D03*
%TO.P,Fan1,2*%
%TO.N,Net-(D5-K)*%
X98000000Y-120000000D03*
%TO.P,Fan1,3*%
%TO.N,Net-(Fan1-Pad3)*%
X98000000Y-117459995D03*
%TD*%
D21*
%TO.P,U12,1,+Vin*%
%TO.N,+5VD*%
X154750000Y-205500000D03*
D22*
%TO.P,U12,2,-Vin*%
%TO.N,GNDD*%
X154750000Y-202960000D03*
%TO.P,U12,5,-Vout*%
%TO.N,GND*%
X154750000Y-195340000D03*
%TO.P,U12,7,+Vout*%
%TO.N,+5V*%
X154750000Y-190260000D03*
%TD*%
D23*
%TO.P,R26,1*%
%TO.N,I2C_SDA*%
X137250000Y-84175000D03*
%TO.P,R26,2*%
%TO.N,Net-(J5-Pin_1)*%
X137250000Y-85825000D03*
%TD*%
D24*
%TO.P,U20,1,1*%
%TO.N,/Control/SPI_CLK*%
X100050038Y-100899098D03*
%TO.P,U20,2,2*%
%TO.N,GND*%
X101000000Y-100899098D03*
%TO.P,U20,3,3*%
%TO.N,/Control/SPI_CS*%
X101949962Y-100899098D03*
%TO.P,U20,4,4*%
%TO.N,/Control/SPI_MISO*%
X101949962Y-98600902D03*
%TO.P,U20,5,5*%
%TO.N,+3.3V*%
X101000000Y-98600902D03*
%TO.P,U20,6,6*%
%TO.N,/Control/SPI_MOSI*%
X100050038Y-98600902D03*
%TD*%
D10*
%TO.P,C11,1*%
%TO.N,Net-(U13-HIN(W))*%
X129500000Y-146000000D03*
%TO.P,C11,2*%
%TO.N,GND*%
X129500000Y-147550000D03*
%TD*%
%TO.P,C5,1*%
%TO.N,/Control/RGBLED*%
X177800000Y-64125000D03*
%TO.P,C5,2*%
%TO.N,GND*%
X177800000Y-65675000D03*
%TD*%
D14*
%TO.P,R23,1*%
%TO.N,+3.3V*%
X122075000Y-58750000D03*
%TO.P,R23,2*%
%TO.N,Net-(U1-EN)*%
X120425000Y-58750000D03*
%TD*%
D25*
%TO.P,SW2,1,1*%
%TO.N,+3.3V*%
X114799924Y-72749987D03*
%TO.P,SW2,2,2*%
%TO.N,unconnected-(SW2-Pad2)*%
X123199975Y-72749987D03*
%TO.P,SW2,3,3*%
%TO.N,unconnected-(SW2-Pad3)*%
X114799924Y-77249860D03*
%TO.P,SW2,4,4*%
%TO.N,Net-(R21-Pad1)*%
X123199975Y-77249860D03*
%TD*%
D26*
%TO.P,R64,1*%
%TO.N,Net-(R46-Pad2)*%
X144462500Y-153750000D03*
%TO.P,R64,2*%
%TO.N,Net-(D11-A)*%
X141537500Y-153750000D03*
%TD*%
D24*
%TO.P,U14,1,1*%
%TO.N,unconnected-(U14-Pad1)*%
X162300038Y-206149098D03*
%TO.P,U14,2,2*%
%TO.N,GNDD*%
X163250000Y-206149098D03*
%TO.P,U14,3,3*%
%TO.N,unconnected-(U14-Pad3)*%
X164199962Y-206149098D03*
%TO.P,U14,4,4*%
%TO.N,Net-(U2-UD+)*%
X164199962Y-203850902D03*
%TO.P,U14,5,5*%
%TO.N,+5VD*%
X163250000Y-203850902D03*
%TO.P,U14,6,6*%
%TO.N,Net-(U2-UD-)*%
X162300038Y-203850902D03*
%TD*%
D12*
%TO.P,TP2,1,1*%
%TO.N,Net-(R54-Pad2)*%
X144750000Y-82000000D03*
%TD*%
D17*
%TO.P,R54,1*%
%TO.N,Net-(J5-Pin_4)*%
X144750000Y-85825000D03*
%TO.P,R54,2*%
%TO.N,Net-(R54-Pad2)*%
X144750000Y-84175000D03*
%TD*%
%TO.P,R4,1*%
%TO.N,I2C_SDA*%
X133000000Y-75575000D03*
%TO.P,R4,2*%
%TO.N,Net-(U1-IO8)*%
X133000000Y-73925000D03*
%TD*%
D27*
%TO.P,J7,1,Pin_1*%
%TO.N,GND*%
X96000000Y-111700000D03*
D28*
%TO.P,J7,2,Pin_2*%
%TO.N,+15V*%
X96000000Y-109160000D03*
%TO.P,J7,3,Pin_3*%
%TO.N,+3.3V*%
X96000000Y-106620000D03*
%TO.P,J7,4,Pin_4*%
%TO.N,/Control/SPI_CS*%
X96000000Y-104080000D03*
%TO.P,J7,5,Pin_5*%
%TO.N,/Control/SPI_CLK*%
X96000000Y-101540000D03*
%TO.P,J7,6,Pin_6*%
%TO.N,/Control/SPI_MOSI*%
X96000000Y-99000000D03*
%TO.P,J7,7,Pin_7*%
%TO.N,/Control/SPI_MISO*%
X96000000Y-96460000D03*
%TO.P,J7,8,Pin_8*%
%TO.N,/Control/UART_TX*%
X96000000Y-93920000D03*
%TO.P,J7,9,Pin_9*%
%TO.N,/Control/UART_RX*%
X96000000Y-91380000D03*
%TO.P,J7,10,Pin_10*%
%TO.N,Net-(J7-Pin_10)*%
X96000000Y-88840000D03*
%TO.P,J7,11,Pin_11*%
%TO.N,Net-(J7-Pin_11)*%
X96000000Y-86300000D03*
%TD*%
D16*
%TO.P,C54,1*%
%TO.N,Net-(U8-AIN0{slash}GPIO0)*%
X131300000Y-150250000D03*
%TO.P,C54,2*%
%TO.N,GND*%
X132850000Y-150250000D03*
%TD*%
D29*
%TO.P,R63,1*%
%TO.N,Net-(J8-Pin_1)*%
X144250000Y-163675000D03*
%TO.P,R63,2*%
%TO.N,Net-(R46-Pad1)*%
X144250000Y-160750000D03*
%TD*%
D13*
%TO.P,C45,1*%
%TO.N,GND*%
X120500000Y-201275000D03*
%TO.P,C45,2*%
%TO.N,+3.3V*%
X120500000Y-199725000D03*
%TD*%
D30*
%TO.P,Q1,1,G*%
%TO.N,Net-(Q1-G)*%
X109400000Y-148000000D03*
%TO.P,Q1,2,S*%
%TO.N,GND*%
X107500000Y-148000000D03*
%TO.P,Q1,3,D*%
%TO.N,Net-(D4-A)*%
X108450000Y-149875000D03*
%TD*%
D13*
%TO.P,C30,1*%
%TO.N,/Control/SW3OUT*%
X125500000Y-85025000D03*
%TO.P,C30,2*%
%TO.N,GND*%
X125500000Y-83475000D03*
%TD*%
D14*
%TO.P,R62,1*%
%TO.N,Net-(U8-AIN1{slash}GPIO1)*%
X126575000Y-155750000D03*
%TO.P,R62,2*%
%TO.N,GND*%
X124925000Y-155750000D03*
%TD*%
D31*
%TO.P,H1,1,1*%
%TO.N,Earth*%
X99000000Y-216000000D03*
D32*
X99000000Y-216000000D03*
%TD*%
D16*
%TO.P,C56,1*%
%TO.N,GND*%
X126475000Y-161000000D03*
%TO.P,C56,2*%
%TO.N,/Power/CURRENT_AC*%
X128025000Y-161000000D03*
%TD*%
D33*
%TO.P,D3,1,VDD*%
%TO.N,+3.3V*%
X170550000Y-63350000D03*
%TO.P,D3,2,DOUT*%
%TO.N,unconnected-(D3-DOUT-Pad2)*%
X170550000Y-66650000D03*
%TO.P,D3,3,VSS*%
%TO.N,GND*%
X175450000Y-66650000D03*
%TO.P,D3,4,DIN*%
%TO.N,/Control/RGBLED*%
X175450000Y-63350000D03*
%TD*%
D17*
%TO.P,R49,1*%
%TO.N,Net-(J3-Pin_1)*%
X181500000Y-212075000D03*
%TO.P,R49,2*%
%TO.N,Net-(U15-VIA)*%
X181500000Y-210425000D03*
%TD*%
D23*
%TO.P,R50,1*%
%TO.N,Net-(U15-VOB)*%
X183000000Y-210425000D03*
%TO.P,R50,2*%
%TO.N,Net-(J3-Pin_2)*%
X183000000Y-212075000D03*
%TD*%
D34*
%TO.P,R31,1*%
%TO.N,Net-(U18-D)*%
X103000000Y-115037500D03*
%TO.P,R31,2*%
%TO.N,Net-(D5-K)*%
X103000000Y-117962500D03*
%TD*%
D12*
%TO.P,TP3,1,1*%
%TO.N,Net-(R55-Pad2)*%
X147250000Y-79750000D03*
%TD*%
D35*
%TO.P,K2,11*%
%TO.N,Net-(U4-~Phase)*%
X107000000Y-176650000D03*
X99500000Y-176650000D03*
%TO.P,K2,12*%
%TO.N,unconnected-(K2-Pad12)*%
X107000000Y-171610000D03*
X99500000Y-171610000D03*
%TO.P,K2,14*%
%TO.N,/Power/AC_L*%
X107000000Y-181690000D03*
X99500000Y-181690000D03*
D36*
%TO.P,K2,A1*%
%TO.N,Net-(D4-K)*%
X99500000Y-156350000D03*
D37*
%TO.P,K2,A2*%
%TO.N,Net-(D4-A)*%
X107000000Y-156350000D03*
%TD*%
D20*
%TO.P,Fan2,1*%
%TO.N,GND*%
X98000000Y-144540005D03*
%TO.P,Fan2,2*%
%TO.N,Net-(D5-K)*%
X98000000Y-142000000D03*
%TO.P,Fan2,3*%
%TO.N,Net-(Fan2-Pad3)*%
X98000000Y-139459995D03*
%TD*%
D23*
%TO.P,R14,1*%
%TO.N,+15V*%
X148000000Y-214425000D03*
%TO.P,R14,2*%
%TO.N,Net-(D15V1-A)*%
X148000000Y-216075000D03*
%TD*%
D38*
%TO.P,U18,1,G*%
%TO.N,Net-(Q2-D)*%
X101009779Y-111050038D03*
%TO.P,U18,2,S*%
%TO.N,+15V*%
X101009779Y-112949962D03*
%TO.P,U18,3,D*%
%TO.N,Net-(U18-D)*%
X102990221Y-112000000D03*
%TD*%
D39*
%TO.P,D6,1,K*%
%TO.N,VS*%
X139400000Y-105000000D03*
%TO.P,D6,2,A*%
%TO.N,+15V*%
X136100000Y-105000000D03*
%TD*%
D40*
%TO.P,R66,1*%
%TO.N,Net-(U3-CC2)*%
X165175000Y-211000000D03*
%TO.P,R66,2*%
%TO.N,GNDD*%
X166825000Y-211000000D03*
%TD*%
D25*
%TO.P,SW1,1,1*%
%TO.N,+3.3V*%
X114799924Y-61749987D03*
%TO.P,SW1,2,2*%
%TO.N,unconnected-(SW1-Pad2)*%
X123199975Y-61749987D03*
%TO.P,SW1,3,3*%
%TO.N,unconnected-(SW1-Pad3)*%
X114799924Y-66249860D03*
%TO.P,SW1,4,4*%
%TO.N,Net-(R20-Pad1)*%
X123199975Y-66249860D03*
%TD*%
D17*
%TO.P,R8,1*%
%TO.N,Net-(U13-LIN(U))*%
X128000000Y-138825000D03*
%TO.P,R8,2*%
%TO.N,LINU*%
X128000000Y-137175000D03*
%TD*%
D41*
%TO.P,J4,1,Pin_1*%
%TO.N,GND*%
X128500000Y-215500000D03*
D42*
%TO.P,J4,2,Pin_2*%
%TO.N,/Power/W*%
X133500000Y-215500000D03*
%TO.P,J4,3,Pin_3*%
%TO.N,/Power/V*%
X138500000Y-215500000D03*
%TO.P,J4,4,Pin_4*%
%TO.N,/Power/U*%
X143500000Y-215500000D03*
%TD*%
D14*
%TO.P,R11,1*%
%TO.N,Net-(U5-VFB)*%
X151125000Y-93600000D03*
%TO.P,R11,2*%
%TO.N,+3.3V*%
X149475000Y-93600000D03*
%TD*%
D19*
%TO.P,C41,1*%
%TO.N,GND*%
X137427000Y-187678000D03*
%TO.P,C41,2*%
%TO.N,Net-(D9-K)*%
X135877000Y-187678000D03*
%TD*%
D43*
%TO.P,D4,1,K*%
%TO.N,Net-(D4-K)*%
X101800000Y-149687500D03*
%TO.P,D4,2,A*%
%TO.N,Net-(D4-A)*%
X105100000Y-149687500D03*
%TD*%
D23*
%TO.P,R51,1*%
%TO.N,Net-(U16-VIA)*%
X184500000Y-210425000D03*
%TO.P,R51,2*%
%TO.N,Net-(J3-Pin_3)*%
X184500000Y-212075000D03*
%TD*%
D31*
%TO.P,H6,1,1*%
%TO.N,Earth*%
X193000000Y-58000000D03*
D32*
X193000000Y-58000000D03*
%TD*%
D13*
%TO.P,C38,1*%
%TO.N,GND*%
X134750000Y-159750000D03*
%TO.P,C38,2*%
%TO.N,+3.3V*%
X134750000Y-158200000D03*
%TD*%
D40*
%TO.P,R35,1*%
%TO.N,Net-(U8-DECAP)*%
X132175000Y-162250000D03*
%TO.P,R35,2*%
%TO.N,Net-(U8-ADDR)*%
X133825000Y-162250000D03*
%TD*%
D13*
%TO.P,C43,1*%
%TO.N,GND*%
X137850000Y-193430004D03*
%TO.P,C43,2*%
%TO.N,+3.3V*%
X137850000Y-191880004D03*
%TD*%
D40*
%TO.P,R41,1*%
%TO.N,+3.3V*%
X114675000Y-138500000D03*
%TO.P,R41,2*%
%TO.N,Net-(U13-ITRIP)*%
X116325000Y-138500000D03*
%TD*%
D16*
%TO.P,C24,1*%
%TO.N,+3.3V*%
X155350000Y-97900000D03*
%TO.P,C24,2*%
%TO.N,Net-(U5-VBST)*%
X156900000Y-97900000D03*
%TD*%
D19*
%TO.P,C55,1*%
%TO.N,Net-(D11-K)*%
X139800000Y-157750000D03*
%TO.P,C55,2*%
%TO.N,GND*%
X138250000Y-157750000D03*
%TD*%
D44*
%TO.P,Reset,1,1*%
%TO.N,GND*%
X115315088Y-55750000D03*
%TO.P,Reset,2,2*%
%TO.N,Net-(U1-EN)*%
X119684912Y-55750000D03*
%TD*%
D45*
%TO.P,U5,1,GND*%
%TO.N,GND*%
X152950902Y-99650038D03*
%TO.P,U5,2,SW*%
%TO.N,Net-(U5-SW)*%
X152950902Y-100600000D03*
%TO.P,U5,3,VIN*%
%TO.N,VS*%
X152950902Y-101549962D03*
%TO.P,U5,4,VFB*%
%TO.N,Net-(U5-VFB)*%
X155249098Y-101549962D03*
%TO.P,U5,5,EN*%
%TO.N,VS*%
X155249098Y-100600000D03*
%TO.P,U5,6,VBST*%
%TO.N,Net-(U5-VBST)*%
X155249098Y-99650038D03*
%TD*%
D23*
%TO.P,R17,1*%
%TO.N,GND*%
X127250000Y-83425000D03*
%TO.P,R17,2*%
%TO.N,/Control/SW3OUT*%
X127250000Y-85075000D03*
%TD*%
D19*
%TO.P,C31,1*%
%TO.N,Net-(U1-IO0)*%
X111525000Y-58750000D03*
%TO.P,C31,2*%
%TO.N,GND*%
X109975000Y-58750000D03*
%TD*%
D17*
%TO.P,R10,1*%
%TO.N,Net-(U13-LIN(W))*%
X124500000Y-138825000D03*
%TO.P,R10,2*%
%TO.N,LINW*%
X124500000Y-137175000D03*
%TD*%
D40*
%TO.P,R40,1*%
%TO.N,+3.3V*%
X119675000Y-138500000D03*
%TO.P,R40,2*%
%TO.N,VFO*%
X121325000Y-138500000D03*
%TD*%
D17*
%TO.P,R58,1*%
%TO.N,+3.3V*%
X113250000Y-105575000D03*
%TO.P,R58,2*%
%TO.N,/Control/FAN1_PWM_FB*%
X113250000Y-103925000D03*
%TD*%
D40*
%TO.P,R2,1*%
%TO.N,Net-(J7-Pin_11)*%
X99175000Y-86250000D03*
%TO.P,R2,2*%
%TO.N,I2C_SDA*%
X100825000Y-86250000D03*
%TD*%
D46*
%TO.P,D10,1,K*%
%TO.N,Net-(D10-K)*%
X123787500Y-200500000D03*
%TO.P,D10,2,A*%
%TO.N,Net-(D10-A)*%
X122212500Y-200500000D03*
%TD*%
D23*
%TO.P,R27,1*%
%TO.N,I2C_SCL*%
X139750000Y-84175000D03*
%TO.P,R27,2*%
%TO.N,Net-(J5-Pin_2)*%
X139750000Y-85825000D03*
%TD*%
D47*
%TO.P,J3,1,Pin_1*%
%TO.N,Net-(J3-Pin_1)*%
X173460000Y-217500000D03*
D48*
%TO.P,J3,2,Pin_2*%
%TO.N,Net-(J3-Pin_2)*%
X176000000Y-217500000D03*
%TO.P,J3,3,Pin_3*%
%TO.N,Net-(J3-Pin_3)*%
X178540000Y-217500000D03*
%TO.P,J3,4,Pin_4*%
%TO.N,Net-(J3-Pin_4)*%
X181080000Y-217500000D03*
%TO.P,J3,5,Pin_5*%
%TO.N,VSS*%
X183620000Y-217500000D03*
%TO.P,J3,6,Pin_6*%
%TO.N,GNDS*%
X186160000Y-217500000D03*
%TD*%
D13*
%TO.P,C37,1*%
%TO.N,+5VD*%
X169500000Y-215275000D03*
%TO.P,C37,2*%
%TO.N,GNDD*%
X169500000Y-213725000D03*
%TD*%
D31*
%TO.P,H5,1,1*%
%TO.N,Earth*%
X99000000Y-58000000D03*
D32*
X99000000Y-58000000D03*
%TD*%
D49*
%TO.P,U3,1,GND*%
%TO.N,GNDD*%
X159799975Y-213624968D03*
%TO.P,U3,2,VBUS*%
%TO.N,+5VD*%
X160600076Y-213624968D03*
D50*
%TO.P,U3,3,SBU2*%
%TO.N,unconnected-(U3-SBU2-Pad3)*%
X161250064Y-213624968D03*
%TO.P,U3,4,CC1*%
%TO.N,Net-(U3-CC1)*%
X161750191Y-213624968D03*
%TO.P,U3,5,DN2*%
%TO.N,Net-(U3-DN1)*%
X162250064Y-213624968D03*
%TO.P,U3,6,DP1*%
%TO.N,Net-(U3-DP1)*%
X162749936Y-213624968D03*
%TO.P,U3,7,DN1*%
%TO.N,Net-(U3-DN1)*%
X163250064Y-213624968D03*
%TO.P,U3,8,DP2*%
%TO.N,Net-(U3-DP1)*%
X163749936Y-213624968D03*
%TO.P,U3,9,SBU1*%
%TO.N,unconnected-(U3-SBU1-Pad9)*%
X164250064Y-213624968D03*
%TO.P,U3,10,CC2*%
%TO.N,Net-(U3-CC2)*%
X164750191Y-213624968D03*
D49*
%TO.P,U3,11,VBUS*%
%TO.N,+5VD*%
X165400178Y-213624968D03*
%TO.P,U3,12,GND*%
%TO.N,GNDD*%
X166200025Y-213624968D03*
D51*
%TO.P,U3,13,SHELL*%
X158675006Y-214174879D03*
D52*
X158675006Y-218375032D03*
D51*
%TO.P,U3,14,SHELL*%
X167324994Y-214174879D03*
D52*
X167324994Y-218375032D03*
%TD*%
D19*
%TO.P,C32,1*%
%TO.N,+15V*%
X99025000Y-114750000D03*
%TO.P,C32,2*%
%TO.N,GND*%
X97475000Y-114750000D03*
%TD*%
D53*
%TO.P,U2,1,VBUS1*%
%TO.N,+5VD*%
X167805000Y-206900000D03*
%TO.P,U2,2,GND1*%
%TO.N,GNDD*%
X169075000Y-206900000D03*
%TO.P,U2,3,VDD1*%
%TO.N,Net-(U2-PDEN)*%
X170345000Y-206900000D03*
%TO.P,U2,4,PDEN*%
X171615000Y-206900000D03*
%TO.P,U2,5,SPU*%
X172885000Y-206900000D03*
%TO.P,U2,6,UD-*%
%TO.N,Net-(U2-UD-)*%
X174155000Y-206900000D03*
%TO.P,U2,7,UD+*%
%TO.N,Net-(U2-UD+)*%
X175425000Y-206900000D03*
%TO.P,U2,8,GND1*%
%TO.N,GNDD*%
X176695000Y-206900000D03*
%TO.P,U2,9,GND2*%
%TO.N,GND*%
X176695000Y-197600000D03*
%TO.P,U2,10,DD+*%
%TO.N,/Control/USB_P*%
X175425000Y-197600000D03*
%TO.P,U2,11,DD-*%
%TO.N,/Control/USB_N*%
X174155000Y-197600000D03*
%TO.P,U2,12,PIN*%
%TO.N,+3.3V*%
X172885000Y-197600000D03*
%TO.P,U2,13,SPD*%
X171615000Y-197600000D03*
%TO.P,U2,14,VDD2*%
X170345000Y-197600000D03*
%TO.P,U2,15,GND2*%
%TO.N,GND*%
X169075000Y-197600000D03*
%TO.P,U2,16,VBUS2*%
%TO.N,+3.3V*%
X167805000Y-197600000D03*
%TD*%
D23*
%TO.P,R37,1*%
%TO.N,Net-(U2-UD-)*%
X162000000Y-207675000D03*
%TO.P,R37,2*%
%TO.N,Net-(U3-DN1)*%
X162000000Y-209325000D03*
%TD*%
%TO.P,R36,1*%
%TO.N,Net-(U2-UD+)*%
X164500000Y-207675000D03*
%TO.P,R36,2*%
%TO.N,Net-(U3-DP1)*%
X164500000Y-209325000D03*
%TD*%
D54*
%TO.P,U15,1,VDD1*%
%TO.N,+3.3V*%
X185655004Y-197477584D03*
%TO.P,U15,2,VOA*%
%TO.N,/Control/ISO_GPIO_1*%
X184385001Y-197477584D03*
%TO.P,U15,3,VIB*%
%TO.N,/Control/ISO_GPIO_2*%
X183114999Y-197477584D03*
%TO.P,U15,4,GND1*%
%TO.N,GND*%
X181844996Y-197477584D03*
%TO.P,U15,5,GND2*%
%TO.N,GNDS*%
X181844996Y-203022416D03*
%TO.P,U15,6,VOB*%
%TO.N,Net-(U15-VOB)*%
X183114999Y-203022416D03*
%TO.P,U15,7,VIA*%
%TO.N,Net-(U15-VIA)*%
X184385001Y-203022416D03*
%TO.P,U15,8,VDD2*%
%TO.N,VSS*%
X185655004Y-203022416D03*
%TD*%
D17*
%TO.P,R55,1*%
%TO.N,Net-(J5-Pin_5)*%
X147250000Y-85825000D03*
%TO.P,R55,2*%
%TO.N,Net-(R55-Pad2)*%
X147250000Y-84175000D03*
%TD*%
D19*
%TO.P,C20,1*%
%TO.N,+15V*%
X122525000Y-147750000D03*
%TO.P,C20,2*%
%TO.N,GND*%
X120975000Y-147750000D03*
%TD*%
D16*
%TO.P,C39,1*%
%TO.N,+3.3V*%
X131475000Y-160500000D03*
%TO.P,C39,2*%
%TO.N,GND*%
X133025000Y-160500000D03*
%TD*%
D17*
%TO.P,R15,1*%
%TO.N,GND*%
X129000000Y-67825000D03*
%TO.P,R15,2*%
%TO.N,/Control/SW1OUT*%
X129000000Y-66175000D03*
%TD*%
D54*
%TO.P,U16,1,VDD1*%
%TO.N,+3.3V*%
X194905004Y-197477584D03*
%TO.P,U16,2,VOA*%
%TO.N,/Control/UART_RX*%
X193635001Y-197477584D03*
%TO.P,U16,3,VIB*%
%TO.N,/Control/UART_TX*%
X192364999Y-197477584D03*
%TO.P,U16,4,GND1*%
%TO.N,GND*%
X191094996Y-197477584D03*
%TO.P,U16,5,GND2*%
%TO.N,GNDS*%
X191094996Y-203022416D03*
%TO.P,U16,6,VOB*%
%TO.N,Net-(U16-VOB)*%
X192364999Y-203022416D03*
%TO.P,U16,7,VIA*%
%TO.N,Net-(U16-VIA)*%
X193635001Y-203022416D03*
%TO.P,U16,8,VDD2*%
%TO.N,VSS*%
X194905004Y-203022416D03*
%TD*%
D17*
%TO.P,R53,1*%
%TO.N,Net-(J5-Pin_3)*%
X142250000Y-85825000D03*
%TO.P,R53,2*%
%TO.N,Net-(R53-Pad2)*%
X142250000Y-84175000D03*
%TD*%
D31*
%TO.P,H4,1,1*%
%TO.N,Earth*%
X99000000Y-131000000D03*
D32*
X99000000Y-131000000D03*
%TD*%
D26*
%TO.P,R18,1*%
%TO.N,Net-(D4-K)*%
X99412500Y-149687500D03*
%TO.P,R18,2*%
%TO.N,+15V*%
X96487500Y-149687500D03*
%TD*%
D23*
%TO.P,R44,1*%
%TO.N,Net-(D10-K)*%
X122250000Y-202175000D03*
%TO.P,R44,2*%
%TO.N,GND*%
X122250000Y-203825000D03*
%TD*%
D19*
%TO.P,C7,1*%
%TO.N,Net-(U1-EN)*%
X118275000Y-58750000D03*
%TO.P,C7,2*%
%TO.N,GND*%
X116725000Y-58750000D03*
%TD*%
D23*
%TO.P,R30,1*%
%TO.N,/Control/FAN2_PWM_FB*%
X116750000Y-103925000D03*
%TO.P,R30,2*%
%TO.N,Net-(Fan2-Pad3)*%
X116750000Y-105575000D03*
%TD*%
D17*
%TO.P,R48,1*%
%TO.N,Net-(Q1-G)*%
X109450000Y-144262500D03*
%TO.P,R48,2*%
%TO.N,RELAY*%
X109450000Y-142612500D03*
%TD*%
D25*
%TO.P,SW3,1,1*%
%TO.N,+3.3V*%
X114799924Y-83749987D03*
%TO.P,SW3,2,2*%
%TO.N,unconnected-(SW3-Pad2)*%
X123199975Y-83749987D03*
%TO.P,SW3,3,3*%
%TO.N,unconnected-(SW3-Pad3)*%
X114799924Y-88249860D03*
%TO.P,SW3,4,4*%
%TO.N,Net-(R22-Pad1)*%
X123199975Y-88249860D03*
%TD*%
D27*
%TO.P,J8,1,Pin_1*%
%TO.N,Net-(J8-Pin_1)*%
X155500000Y-165250000D03*
%TD*%
D40*
%TO.P,R33,1*%
%TO.N,Net-(U8-AIN0{slash}GPIO0)*%
X131250000Y-152250000D03*
%TO.P,R33,2*%
%TO.N,GND*%
X132900000Y-152250000D03*
%TD*%
D24*
%TO.P,U19,1,1*%
%TO.N,/Control/UART_RX*%
X100800038Y-92899098D03*
%TO.P,U19,2,2*%
%TO.N,GND*%
X101750000Y-92899098D03*
%TO.P,U19,3,3*%
%TO.N,/Control/UART_TX*%
X102699962Y-92899098D03*
%TO.P,U19,4,4*%
%TO.N,I2C_SDA*%
X102699962Y-90600902D03*
%TO.P,U19,5,5*%
%TO.N,+3.3V*%
X101750000Y-90600902D03*
%TO.P,U19,6,6*%
%TO.N,I2C_SCL*%
X100800038Y-90600902D03*
%TD*%
D13*
%TO.P,C29,1*%
%TO.N,/Control/SW2OUT*%
X125500000Y-74025000D03*
%TO.P,C29,2*%
%TO.N,GND*%
X125500000Y-72475000D03*
%TD*%
D29*
%TO.P,R46,1*%
%TO.N,Net-(R46-Pad1)*%
X144250000Y-158925000D03*
%TO.P,R46,2*%
%TO.N,Net-(R46-Pad2)*%
X144250000Y-156000000D03*
%TD*%
D13*
%TO.P,C42,1*%
%TO.N,GND*%
X124000000Y-203775000D03*
%TO.P,C42,2*%
%TO.N,Net-(D10-K)*%
X124000000Y-202225000D03*
%TD*%
D12*
%TO.P,TP5,1,1*%
%TO.N,Net-(U1-IO39)*%
X182000000Y-55000000D03*
%TD*%
D23*
%TO.P,R16,1*%
%TO.N,GND*%
X127250000Y-72425000D03*
%TO.P,R16,2*%
%TO.N,/Control/SW2OUT*%
X127250000Y-74075000D03*
%TD*%
D14*
%TO.P,R24,1*%
%TO.N,+3.3V*%
X136325000Y-77250000D03*
%TO.P,R24,2*%
%TO.N,I2C_SCL*%
X134675000Y-77250000D03*
%TD*%
D18*
%TO.P,D11,1,K*%
%TO.N,Net-(D11-K)*%
X139962500Y-156000000D03*
%TO.P,D11,2,A*%
%TO.N,Net-(D11-A)*%
X141537500Y-156000000D03*
%TD*%
D12*
%TO.P,TP8,1,1*%
%TO.N,Net-(U1-IO41)*%
X174000000Y-55000000D03*
%TD*%
D17*
%TO.P,R6,1*%
%TO.N,Net-(U13-HIN(V))*%
X131500000Y-138825000D03*
%TO.P,R6,2*%
%TO.N,HINV*%
X131500000Y-137175000D03*
%TD*%
D16*
%TO.P,C47,1*%
%TO.N,+3.3V*%
X187225000Y-196000000D03*
%TO.P,C47,2*%
%TO.N,GND*%
X188775000Y-196000000D03*
%TD*%
%TO.P,C15,1*%
%TO.N,Net-(U13-VB(V))*%
X140925000Y-145900000D03*
%TO.P,C15,2*%
%TO.N,Net-(U13-VS(V))*%
X142475000Y-145900000D03*
%TD*%
D55*
%TO.P,U10,1,IP+*%
%TO.N,Net-(U13-U)*%
X130667501Y-191250000D03*
%TO.P,U10,2,IP+*%
X130667501Y-192520003D03*
%TO.P,U10,3,IP-*%
%TO.N,/Power/U*%
X130667501Y-193790005D03*
%TO.P,U10,4,IP-*%
X130667501Y-195060008D03*
%TO.P,U10,5,GND*%
%TO.N,GND*%
X136032499Y-195060008D03*
%TO.P,U10,6,NC*%
%TO.N,unconnected-(U10-NC-Pad6)*%
X136032499Y-193790005D03*
%TO.P,U10,7,OUT*%
%TO.N,Net-(D9-A)*%
X136032499Y-192520003D03*
%TO.P,U10,8,VCC*%
%TO.N,+3.3V*%
X136032499Y-191250000D03*
%TD*%
D31*
%TO.P,H2,1,1*%
%TO.N,Earth*%
X193000000Y-131000000D03*
D32*
X193000000Y-131000000D03*
%TD*%
D17*
%TO.P,R42,1*%
%TO.N,+3.3V*%
X150750000Y-195325000D03*
%TO.P,R42,2*%
%TO.N,/Control/TEMP_HEATSINK*%
X150750000Y-193675000D03*
%TD*%
D55*
%TO.P,U11,1,IP+*%
%TO.N,Net-(U13-W)*%
X113067501Y-199094996D03*
%TO.P,U11,2,IP+*%
X113067501Y-200364999D03*
%TO.P,U11,3,IP-*%
%TO.N,/Power/W*%
X113067501Y-201635001D03*
%TO.P,U11,4,IP-*%
X113067501Y-202905004D03*
%TO.P,U11,5,GND*%
%TO.N,GND*%
X118432499Y-202905004D03*
%TO.P,U11,6,NC*%
%TO.N,unconnected-(U11-NC-Pad6)*%
X118432499Y-201635001D03*
%TO.P,U11,7,OUT*%
%TO.N,Net-(D10-A)*%
X118432499Y-200364999D03*
%TO.P,U11,8,VCC*%
%TO.N,+3.3V*%
X118432499Y-199094996D03*
%TD*%
D16*
%TO.P,C46,1*%
%TO.N,VSS*%
X187475000Y-203000000D03*
%TO.P,C46,2*%
%TO.N,GNDS*%
X189025000Y-203000000D03*
%TD*%
D13*
%TO.P,C48,1*%
%TO.N,+3.3V*%
X195000000Y-195275000D03*
%TO.P,C48,2*%
%TO.N,GND*%
X195000000Y-193725000D03*
%TD*%
D10*
%TO.P,C51,1*%
%TO.N,Net-(U13-ITRIP)*%
X116250000Y-140225000D03*
%TO.P,C51,2*%
%TO.N,GND*%
X116250000Y-141775000D03*
%TD*%
D27*
%TO.P,J5,1,Pin_1*%
%TO.N,Net-(J5-Pin_1)*%
X137110000Y-88600000D03*
D28*
%TO.P,J5,2,Pin_2*%
%TO.N,Net-(J5-Pin_2)*%
X139650000Y-88600000D03*
%TO.P,J5,3,Pin_3*%
%TO.N,Net-(J5-Pin_3)*%
X142190000Y-88600000D03*
%TO.P,J5,4,Pin_4*%
%TO.N,Net-(J5-Pin_4)*%
X144730000Y-88600000D03*
%TO.P,J5,5,Pin_5*%
%TO.N,Net-(J5-Pin_5)*%
X147270000Y-88600000D03*
%TO.P,J5,6,Pin_6*%
%TO.N,Net-(J5-Pin_6)*%
X149810000Y-88600000D03*
%TO.P,J5,7,Pin_7*%
%TO.N,+3.3V*%
X152350000Y-88600000D03*
%TO.P,J5,8,Pin_8*%
%TO.N,GND*%
X154890000Y-88600000D03*
%TD*%
D19*
%TO.P,C6,1*%
%TO.N,+15V*%
X122525000Y-146000000D03*
%TO.P,C6,2*%
%TO.N,GND*%
X120975000Y-146000000D03*
%TD*%
D27*
%TO.P,J9,1,Pin_1*%
%TO.N,VS*%
X150000000Y-105250000D03*
%TD*%
D10*
%TO.P,C8,1*%
%TO.N,Net-(U13-LIN(W))*%
X124250000Y-145975000D03*
%TO.P,C8,2*%
%TO.N,GND*%
X124250000Y-147525000D03*
%TD*%
D56*
%TO.P,U8,1,AIN2/GPIO2*%
%TO.N,Net-(D11-K)*%
X130000000Y-156750064D03*
%TO.P,U8,2,AIN3/GPIO3*%
%TO.N,Net-(D9-K)*%
X130000000Y-157249936D03*
%TO.P,U8,3,AIN4/GPIO4*%
%TO.N,Net-(D10-K)*%
X130000000Y-157750064D03*
%TO.P,U8,4,AIN5/GPIO5*%
%TO.N,/Power/CURRENT_AC*%
X130000000Y-158249936D03*
D57*
%TO.P,U8,5,AIN6/GPIO6*%
%TO.N,unconnected-(U8-AIN6{slash}GPIO6-Pad5)*%
X130750064Y-159000000D03*
%TO.P,U8,6,AIN7/GPIO7*%
%TO.N,unconnected-(U8-AIN7{slash}GPIO7-Pad6)*%
X131249936Y-159000000D03*
%TO.P,U8,7,AVDD*%
%TO.N,+3.3V*%
X131750064Y-159000000D03*
%TO.P,U8,8,DECAP*%
%TO.N,Net-(U8-DECAP)*%
X132249936Y-159000000D03*
D56*
%TO.P,U8,9,GND*%
%TO.N,GND*%
X133000000Y-158249936D03*
%TO.P,U8,10,DVDD*%
%TO.N,+3.3V*%
X133000000Y-157750064D03*
%TO.P,U8,11,ADDR*%
%TO.N,Net-(U8-ADDR)*%
X133000000Y-157249936D03*
%TO.P,U8,12,NC*%
%TO.N,unconnected-(U8-NC-Pad12)*%
X133000000Y-156750064D03*
D57*
%TO.P,U8,13,SCL*%
%TO.N,I2C_SCL*%
X132249936Y-156000000D03*
%TO.P,U8,14,SDA*%
%TO.N,I2C_SDA*%
X131750064Y-156000000D03*
%TO.P,U8,15,AIN0/GPIO0*%
%TO.N,Net-(U8-AIN0{slash}GPIO0)*%
X131249936Y-156000000D03*
%TO.P,U8,16,AIN1/GPIO1*%
%TO.N,Net-(U8-AIN1{slash}GPIO1)*%
X130750064Y-156000000D03*
D58*
%TO.P,U8,17,GND*%
%TO.N,GND*%
X131500127Y-157500127D03*
%TD*%
D17*
%TO.P,R9,1*%
%TO.N,Net-(U13-LIN(V))*%
X126250000Y-138825000D03*
%TO.P,R9,2*%
%TO.N,LINV*%
X126250000Y-137175000D03*
%TD*%
D10*
%TO.P,C28,1*%
%TO.N,/Control/SW1OUT*%
X130750000Y-66225000D03*
%TO.P,C28,2*%
%TO.N,GND*%
X130750000Y-67775000D03*
%TD*%
D17*
%TO.P,R56,1*%
%TO.N,Net-(J5-Pin_6)*%
X149750000Y-85825000D03*
%TO.P,R56,2*%
%TO.N,Net-(R56-Pad2)*%
X149750000Y-84175000D03*
%TD*%
D31*
%TO.P,H3,1,1*%
%TO.N,Earth*%
X193000000Y-216000000D03*
D32*
X193000000Y-216000000D03*
%TD*%
D10*
%TO.P,C9,1*%
%TO.N,Net-(U13-LIN(V))*%
X126000000Y-145975000D03*
%TO.P,C9,2*%
%TO.N,GND*%
X126000000Y-147525000D03*
%TD*%
D23*
%TO.P,R13,1*%
%TO.N,+3.3V*%
X150750000Y-214500000D03*
%TO.P,R13,2*%
%TO.N,Net-(D3V3-A)*%
X150750000Y-216150000D03*
%TD*%
D14*
%TO.P,R38,1*%
%TO.N,/Control/FAN_CONTROL*%
X105000000Y-104750000D03*
%TO.P,R38,2*%
%TO.N,Net-(Q2-G)*%
X103350000Y-104750000D03*
%TD*%
%TO.P,R28,1*%
%TO.N,Net-(Q1-G)*%
X109275000Y-145937500D03*
%TO.P,R28,2*%
%TO.N,GND*%
X107625000Y-145937500D03*
%TD*%
D23*
%TO.P,R52,1*%
%TO.N,Net-(U16-VOB)*%
X186000000Y-210425000D03*
%TO.P,R52,2*%
%TO.N,Net-(J3-Pin_4)*%
X186000000Y-212075000D03*
%TD*%
D17*
%TO.P,R59,1*%
%TO.N,+3.3V*%
X115000000Y-105575000D03*
%TO.P,R59,2*%
%TO.N,/Control/FAN2_PWM_FB*%
X115000000Y-103925000D03*
%TD*%
D16*
%TO.P,C19,1*%
%TO.N,Net-(U13-VB(W))*%
X136125000Y-145900000D03*
%TO.P,C19,2*%
%TO.N,Net-(U13-VS(W))*%
X137675000Y-145900000D03*
%TD*%
D19*
%TO.P,C26,1*%
%TO.N,GND*%
X150275000Y-172750000D03*
%TO.P,C26,2*%
%TO.N,+3.3V*%
X148725000Y-172750000D03*
%TD*%
D16*
%TO.P,C33,1*%
%TO.N,+5VD*%
X167627000Y-209042000D03*
%TO.P,C33,2*%
%TO.N,GNDD*%
X169177000Y-209042000D03*
%TD*%
D40*
%TO.P,R39,1*%
%TO.N,Net-(U8-ADDR)*%
X134675000Y-156500000D03*
%TO.P,R39,2*%
%TO.N,GND*%
X136325000Y-156500000D03*
%TD*%
D19*
%TO.P,C53,1*%
%TO.N,Net-(U8-AIN1{slash}GPIO1)*%
X126525000Y-154000000D03*
%TO.P,C53,2*%
%TO.N,GND*%
X124975000Y-154000000D03*
%TD*%
%TO.P,C50,1*%
%TO.N,/Control/POT1OUT*%
X102475000Y-65400000D03*
%TO.P,C50,2*%
%TO.N,GND*%
X100925000Y-65400000D03*
%TD*%
D16*
%TO.P,C34,1*%
%TO.N,Net-(U2-PDEN)*%
X172707000Y-210058000D03*
%TO.P,C34,2*%
%TO.N,GNDD*%
X174257000Y-210058000D03*
%TD*%
D23*
%TO.P,R60,1*%
%TO.N,ITRIP*%
X118000000Y-136925000D03*
%TO.P,R60,2*%
%TO.N,Net-(U13-ITRIP)*%
X118000000Y-138575000D03*
%TD*%
D40*
%TO.P,R20,1*%
%TO.N,Net-(R20-Pad1)*%
X125675000Y-66250000D03*
%TO.P,R20,2*%
%TO.N,/Control/SW1OUT*%
X127325000Y-66250000D03*
%TD*%
D59*
%TO.P,U21,1,1*%
%TO.N,+3.3V*%
X105500127Y-68064478D03*
%TO.P,U21,2,2*%
%TO.N,/Control/POT1OUT*%
X103000000Y-68064478D03*
%TO.P,U21,3,3*%
%TO.N,GND*%
X100500127Y-68064478D03*
D60*
%TO.P,U21,4,4*%
X108080010Y-75064478D03*
%TO.P,U21,5,5*%
X97919990Y-75064478D03*
%TD*%
D61*
%TO.P,L1,1,1*%
%TO.N,Net-(U5-SW)*%
X143100000Y-100800000D03*
%TO.P,L1,2,2*%
%TO.N,+3.3V*%
X143100000Y-95350000D03*
%TD*%
D40*
%TO.P,R43,1*%
%TO.N,Net-(D9-K)*%
X135827000Y-185928000D03*
%TO.P,R43,2*%
%TO.N,GND*%
X137477000Y-185928000D03*
%TD*%
D41*
%TO.P,J10,1,Pin_1*%
%TO.N,/Power/AC_L*%
X107000000Y-215500000D03*
D42*
%TO.P,J10,2,Pin_2*%
%TO.N,/Power/AC_N*%
X112000000Y-215500000D03*
%TO.P,J10,3,Pin_3*%
%TO.N,Earth*%
X117000000Y-215500000D03*
%TO.P,J10,4,Pin_4*%
X122000000Y-215500000D03*
%TD*%
D23*
%TO.P,R47,1*%
%TO.N,Net-(D11-A)*%
X141500000Y-157675000D03*
%TO.P,R47,2*%
%TO.N,GND*%
X141500000Y-159325000D03*
%TD*%
D11*
%TO.P,D15V1,1,K*%
%TO.N,GND*%
X148000000Y-219187500D03*
%TO.P,D15V1,2,A*%
%TO.N,Net-(D15V1-A)*%
X148000000Y-217612500D03*
%TD*%
D17*
%TO.P,R21,1*%
%TO.N,Net-(R21-Pad1)*%
X125500000Y-77325000D03*
%TO.P,R21,2*%
%TO.N,/Control/SW2OUT*%
X125500000Y-75675000D03*
%TD*%
D10*
%TO.P,C13,1*%
%TO.N,Net-(U13-HIN(U))*%
X132750000Y-145975000D03*
%TO.P,C13,2*%
%TO.N,GND*%
X132750000Y-147525000D03*
%TD*%
D17*
%TO.P,R22,1*%
%TO.N,Net-(R22-Pad1)*%
X125500000Y-88325000D03*
%TO.P,R22,2*%
%TO.N,/Control/SW3OUT*%
X125500000Y-86675000D03*
%TD*%
D13*
%TO.P,C21,1*%
%TO.N,VS*%
X147800000Y-102175000D03*
%TO.P,C21,2*%
%TO.N,GND*%
X147800000Y-100625000D03*
%TD*%
D14*
%TO.P,R67,1*%
%TO.N,Net-(U3-CC1)*%
X161325000Y-211000000D03*
%TO.P,R67,2*%
%TO.N,GNDD*%
X159675000Y-211000000D03*
%TD*%
D12*
%TO.P,TP6,1,1*%
%TO.N,Net-(U1-IO40)*%
X178000000Y-55000000D03*
%TD*%
D17*
%TO.P,R5,1*%
%TO.N,Net-(U13-HIN(U))*%
X133250000Y-138825000D03*
%TO.P,R5,2*%
%TO.N,HINU*%
X133250000Y-137175000D03*
%TD*%
D62*
%TO.P,U9,1,IP+*%
%TO.N,Net-(U4-VDD)*%
X148344996Y-180182499D03*
%TO.P,U9,2,IP+*%
X149614999Y-180182499D03*
%TO.P,U9,3,IP-*%
%TO.N,Net-(J8-Pin_1)*%
X150885001Y-180182499D03*
%TO.P,U9,4,IP-*%
X152155004Y-180182499D03*
%TO.P,U9,5,GND*%
%TO.N,GND*%
X152155004Y-174817501D03*
%TO.P,U9,6,NC*%
%TO.N,unconnected-(U9-NC-Pad6)*%
X150885001Y-174817501D03*
%TO.P,U9,7,OUT*%
%TO.N,Net-(D8-A)*%
X149614999Y-174817501D03*
%TO.P,U9,8,VCC*%
%TO.N,+3.3V*%
X148344996Y-174817501D03*
%TD*%
D17*
%TO.P,R32,1*%
%TO.N,I2C_SCL*%
X134750000Y-75575000D03*
%TO.P,R32,2*%
%TO.N,Net-(U1-IO9)*%
X134750000Y-73925000D03*
%TD*%
D12*
%TO.P,TP7,1,1*%
%TO.N,Net-(U1-IO42)*%
X170000000Y-55000000D03*
%TD*%
D17*
%TO.P,R7,1*%
%TO.N,Net-(U13-HIN(W))*%
X129750000Y-138825000D03*
%TO.P,R7,2*%
%TO.N,HINW*%
X129750000Y-137175000D03*
%TD*%
D14*
%TO.P,R61,1*%
%TO.N,+3.3V*%
X129825000Y-154000000D03*
%TO.P,R61,2*%
%TO.N,Net-(U8-AIN1{slash}GPIO1)*%
X128175000Y-154000000D03*
%TD*%
D12*
%TO.P,TP4,1,1*%
%TO.N,Net-(R56-Pad2)*%
X149750000Y-82000000D03*
%TD*%
D14*
%TO.P,R65,1*%
%TO.N,/Power/CURRENT_AC*%
X128075000Y-159500000D03*
%TO.P,R65,2*%
%TO.N,GND*%
X126425000Y-159500000D03*
%TD*%
%TO.P,R45,1*%
%TO.N,Net-(D11-K)*%
X139850000Y-159500000D03*
%TO.P,R45,2*%
%TO.N,GND*%
X138200000Y-159500000D03*
%TD*%
%TO.P,R25,1*%
%TO.N,I2C_SDA*%
X133075000Y-77250000D03*
%TO.P,R25,2*%
%TO.N,+3.3V*%
X131425000Y-77250000D03*
%TD*%
D19*
%TO.P,C14,1*%
%TO.N,Net-(U13-VS(V))*%
X142475000Y-147500000D03*
%TO.P,C14,2*%
%TO.N,Net-(U13-VB(V))*%
X140925000Y-147500000D03*
%TD*%
%TO.P,C36,1*%
%TO.N,+3.3V*%
X172479000Y-195326000D03*
%TO.P,C36,2*%
%TO.N,GND*%
X170929000Y-195326000D03*
%TD*%
D23*
%TO.P,R12,1*%
%TO.N,Net-(U5-VFB)*%
X152600000Y-94775000D03*
%TO.P,R12,2*%
%TO.N,GND*%
X152600000Y-96425000D03*
%TD*%
D10*
%TO.P,C10,1*%
%TO.N,Net-(U13-LIN(U))*%
X127750000Y-145975000D03*
%TO.P,C10,2*%
%TO.N,GND*%
X127750000Y-147525000D03*
%TD*%
%TO.P,C12,1*%
%TO.N,Net-(U13-HIN(V))*%
X131250000Y-145975000D03*
%TO.P,C12,2*%
%TO.N,GND*%
X131250000Y-147525000D03*
%TD*%
D63*
%TO.P,U1,1,GND*%
%TO.N,GND*%
X139024892Y-60024892D03*
%TO.P,U1,2,GND*%
X139024892Y-60874778D03*
%TO.P,U1,3,3V3*%
%TO.N,+3.3V*%
X139024892Y-61724917D03*
%TO.P,U1,4,IO0*%
%TO.N,Net-(U1-IO0)*%
X139024892Y-62574803D03*
%TO.P,U1,5,IO1*%
%TO.N,/Control/FAN_CONTROL*%
X139024892Y-63424943D03*
%TO.P,U1,6,IO2*%
%TO.N,VFO*%
X139024892Y-64274829D03*
%TO.P,U1,7,IO3*%
%TO.N,unconnected-(U1-IO3-Pad7)*%
X139024892Y-65124968D03*
%TO.P,U1,8,IO4*%
%TO.N,/Control/POT1OUT*%
X139024892Y-65974854D03*
%TO.P,U1,9,IO5*%
%TO.N,/Control/SW1OUT*%
X139024892Y-66824740D03*
%TO.P,U1,10,IO6*%
%TO.N,/Control/SW2OUT*%
X139024892Y-67674879D03*
%TO.P,U1,11,IO7*%
%TO.N,/Control/SW3OUT*%
X139024892Y-68524765D03*
%TO.P,U1,12,IO8*%
%TO.N,Net-(U1-IO8)*%
X139024892Y-69374905D03*
%TO.P,U1,13,IO9*%
%TO.N,Net-(U1-IO9)*%
X139024892Y-70224790D03*
%TO.P,U1,14,IO10*%
%TO.N,LINW*%
X139024892Y-71074930D03*
%TO.P,U1,15,IO11*%
%TO.N,LINV*%
X139024892Y-71924816D03*
D64*
%TO.P,U1,16,IO12*%
%TO.N,LINU*%
X140050038Y-73000000D03*
%TO.P,U1,17,IO13*%
%TO.N,HINW*%
X140899924Y-73000000D03*
%TO.P,U1,18,IO14*%
%TO.N,HINV*%
X141750064Y-73000000D03*
%TO.P,U1,19,IO15*%
%TO.N,HINU*%
X142599949Y-73000000D03*
%TO.P,U1,20,IO16*%
%TO.N,RELAY*%
X143450089Y-73000000D03*
%TO.P,U1,21,IO17*%
%TO.N,/Control/RGBLED*%
X144299975Y-73000000D03*
%TO.P,U1,22,IO18*%
%TO.N,/Control/TEMP_HEATSINK*%
X145150114Y-73000000D03*
%TO.P,U1,23,IO19*%
%TO.N,/Control/USB_N*%
X146000000Y-73000000D03*
%TO.P,U1,24,IO20*%
%TO.N,/Control/USB_P*%
X146849886Y-73000000D03*
%TO.P,U1,25,IO21*%
%TO.N,/Control/ISO_GPIO_1*%
X147700025Y-73000000D03*
%TO.P,U1,26,IO26*%
%TO.N,unconnected-(U1-IO26-Pad26)*%
X148549911Y-73000000D03*
%TO.P,U1,27,IO47*%
%TO.N,/Control/FAN2_PWM_FB*%
X149400051Y-73000000D03*
%TO.P,U1,28,IO33*%
%TO.N,ITRIP*%
X150249936Y-73000000D03*
%TO.P,U1,29,IO34*%
%TO.N,/Control/SPI_CS*%
X151100076Y-73000000D03*
%TO.P,U1,30,IO48*%
%TO.N,/Control/FAN1_PWM_FB*%
X151949962Y-73000000D03*
D63*
%TO.P,U1,31,IO35*%
%TO.N,/Control/SPI_MOSI*%
X152975108Y-71924816D03*
%TO.P,U1,32,IO36*%
%TO.N,/Control/SPI_CLK*%
X152975108Y-71074930D03*
%TO.P,U1,33,IO37*%
%TO.N,/Control/SPI_MISO*%
X152975108Y-70224790D03*
%TO.P,U1,34,IO38*%
%TO.N,/Control/ISO_GPIO_2*%
X152975108Y-69374905D03*
%TO.P,U1,35,IO39*%
%TO.N,Net-(U1-IO39)*%
X152975108Y-68524765D03*
%TO.P,U1,36,IO40*%
%TO.N,Net-(U1-IO40)*%
X152975108Y-67674879D03*
%TO.P,U1,37,IO41*%
%TO.N,Net-(U1-IO41)*%
X152975108Y-66824740D03*
%TO.P,U1,38,IO42*%
%TO.N,Net-(U1-IO42)*%
X152975108Y-65974854D03*
%TO.P,U1,39,TXD0*%
%TO.N,/Control/UART_TX*%
X152975108Y-65124968D03*
%TO.P,U1,40,RXD0*%
%TO.N,/Control/UART_RX*%
X152975108Y-64274829D03*
%TO.P,U1,41,IO45*%
%TO.N,unconnected-(U1-IO45-Pad41)*%
X152975108Y-63424943D03*
%TO.P,U1,42,GND*%
%TO.N,GND*%
X152975108Y-62574803D03*
%TO.P,U1,43,GND*%
X152975108Y-61724917D03*
%TO.P,U1,44,IO46*%
%TO.N,unconnected-(U1-IO46-Pad44)*%
X152975108Y-60874778D03*
%TO.P,U1,45,EN*%
%TO.N,Net-(U1-EN)*%
X152975108Y-60024892D03*
D64*
%TO.P,U1,46,GND*%
%TO.N,GND*%
X151949962Y-58949962D03*
%TO.P,U1,47,GND*%
X151100076Y-58949962D03*
%TO.P,U1,48,GND*%
X150249936Y-58949962D03*
%TO.P,U1,49,GND*%
X149400051Y-58949962D03*
%TO.P,U1,50,GND*%
X148549911Y-58949962D03*
%TO.P,U1,51,GND*%
X147700025Y-58949962D03*
%TO.P,U1,52,GND*%
X146849886Y-58949962D03*
%TO.P,U1,53,GND*%
X146000000Y-58949962D03*
%TO.P,U1,54,GND*%
X145150114Y-58949962D03*
%TO.P,U1,55,GND*%
X144299975Y-58949962D03*
%TO.P,U1,56,GND*%
X143450089Y-58949962D03*
%TO.P,U1,57,GND*%
X142599949Y-58949962D03*
%TO.P,U1,58,GND*%
X141750064Y-58949962D03*
%TO.P,U1,59,GND*%
X140899924Y-58949962D03*
%TO.P,U1,60,GND*%
X140050038Y-58949962D03*
D65*
%TO.P,U1,GND*%
%TO.N,N/C*%
X139000000Y-58974854D03*
X139000000Y-72974854D03*
D66*
X144350013Y-64324867D03*
X144350013Y-65974854D03*
X144350013Y-67624841D03*
X146000000Y-64324867D03*
X146000000Y-65974854D03*
X146000000Y-67624841D03*
X147649987Y-64324867D03*
X147649987Y-65974854D03*
X147649987Y-67624841D03*
D65*
X153000000Y-58974854D03*
X153000000Y-72974854D03*
%TD*%
D19*
%TO.P,C17,1*%
%TO.N,Net-(U13-VS(U))*%
X147675000Y-147500000D03*
%TO.P,C17,2*%
%TO.N,Net-(U13-VB(U))*%
X146125000Y-147500000D03*
%TD*%
D44*
%TO.P,Boot,1,1*%
%TO.N,GND*%
X108315088Y-55750000D03*
%TO.P,Boot,2,2*%
%TO.N,Net-(U1-IO0)*%
X112684912Y-55750000D03*
%TD*%
D45*
%TO.P,U17,1,1*%
%TO.N,Net-(U16-VOB)*%
X189649098Y-207699962D03*
%TO.P,U17,2,2*%
%TO.N,GNDS*%
X189649098Y-206750000D03*
%TO.P,U17,3,3*%
%TO.N,Net-(U16-VIA)*%
X189649098Y-205800038D03*
%TO.P,U17,4,4*%
%TO.N,Net-(U15-VIA)*%
X187350902Y-205800038D03*
%TO.P,U17,5,5*%
%TO.N,VSS*%
X187350902Y-206750000D03*
%TO.P,U17,6,6*%
%TO.N,Net-(U15-VOB)*%
X187350902Y-207699962D03*
%TD*%
D67*
%TO.P,D5,1,K*%
%TO.N,Net-(D5-K)*%
X103000000Y-119850000D03*
%TO.P,D5,2,A*%
%TO.N,GND*%
X103000000Y-123150000D03*
%TD*%
D13*
%TO.P,C27,1*%
%TO.N,+3.3V*%
X135500000Y-61775000D03*
%TO.P,C27,2*%
%TO.N,GND*%
X135500000Y-60225000D03*
%TD*%
D27*
%TO.P,J6,1,Pin_1*%
%TO.N,+3.3V*%
X148000000Y-195525000D03*
D28*
%TO.P,J6,2,Pin_2*%
%TO.N,/Control/TEMP_HEATSINK*%
X148000000Y-192985000D03*
%TO.P,J6,3,Pin_3*%
%TO.N,GND*%
X148000000Y-190445000D03*
%TD*%
D16*
%TO.P,C16,1*%
%TO.N,Net-(U13-VB(U))*%
X146125000Y-145900000D03*
%TO.P,C16,2*%
%TO.N,Net-(U13-VS(U))*%
X147675000Y-145900000D03*
%TD*%
D40*
%TO.P,R34,1*%
%TO.N,+15V*%
X128000000Y-152250000D03*
%TO.P,R34,2*%
%TO.N,Net-(U8-AIN0{slash}GPIO0)*%
X129650000Y-152250000D03*
%TD*%
D13*
%TO.P,C52,1*%
%TO.N,Net-(U8-DECAP)*%
X129750000Y-162025000D03*
%TO.P,C52,2*%
%TO.N,GND*%
X129750000Y-160475000D03*
%TD*%
D30*
%TO.P,Q2,1,G*%
%TO.N,Net-(Q2-G)*%
X101700000Y-106875000D03*
%TO.P,Q2,2,S*%
%TO.N,GND*%
X99800000Y-106875000D03*
%TO.P,Q2,3,D*%
%TO.N,Net-(Q2-D)*%
X100750000Y-108750000D03*
%TD*%
D40*
%TO.P,R3,1*%
%TO.N,Net-(J7-Pin_10)*%
X99175000Y-88750000D03*
%TO.P,R3,2*%
%TO.N,I2C_SCL*%
X100825000Y-88750000D03*
%TD*%
D10*
%TO.P,C40,1*%
%TO.N,+3.3V*%
X149300000Y-95825000D03*
%TO.P,C40,2*%
%TO.N,GND*%
X149300000Y-97375000D03*
%TD*%
D43*
%TO.P,D7,1,K*%
%TO.N,VS*%
X155850000Y-105000000D03*
%TO.P,D7,2,A*%
%TO.N,+5V*%
X159150000Y-105000000D03*
%TD*%
D68*
%TO.P,PS1,1,AC/L*%
%TO.N,/Power/AC_L*%
X153800000Y-132282500D03*
D69*
%TO.P,PS1,2,AC/N*%
%TO.N,/Power/AC_N*%
X153800000Y-111482500D03*
%TO.P,PS1,3,-Vo*%
%TO.N,GND*%
X108800000Y-111482500D03*
%TO.P,PS1,4,+Vo*%
%TO.N,+15V*%
X108800000Y-119482500D03*
%TD*%
D70*
%TO.P,R1,1*%
%TO.N,/Power/AC_L*%
X100250000Y-187375000D03*
D59*
%TO.P,R1,2*%
%TO.N,Net-(U4-~Phase)*%
X105330000Y-187375000D03*
%TD*%
D71*
%TO.P,C2,1*%
%TO.N,Net-(J8-Pin_1)*%
X171000000Y-112666750D03*
D72*
%TO.P,C2,2*%
%TO.N,GND*%
X181000000Y-112666750D03*
%TD*%
D71*
%TO.P,C1,1*%
%TO.N,Net-(J8-Pin_1)*%
X171000000Y-74666750D03*
D72*
%TO.P,C1,2*%
%TO.N,GND*%
X181000000Y-74666750D03*
%TD*%
D71*
%TO.P,C4,1*%
%TO.N,Net-(J8-Pin_1)*%
X171000000Y-188333500D03*
D72*
%TO.P,C4,2*%
%TO.N,GND*%
X181000000Y-188333500D03*
%TD*%
D71*
%TO.P,C3,1*%
%TO.N,Net-(J8-Pin_1)*%
X171000000Y-150333500D03*
D72*
%TO.P,C3,2*%
%TO.N,GND*%
X181000000Y-150333500D03*
%TD*%
D73*
%TO.P,U13,1,VS(U)*%
%TO.N,Net-(U13-VS(U))*%
X148100203Y-140700025D03*
%TO.P,U13,2,VB(U)*%
%TO.N,Net-(U13-VB(U))*%
X146099949Y-143700025D03*
%TO.P,U13,3,VS(V)*%
%TO.N,Net-(U13-VS(V))*%
X142700152Y-140700025D03*
%TO.P,U13,4,VB(V)*%
%TO.N,Net-(U13-VB(V))*%
X141099949Y-143700025D03*
%TO.P,U13,5,VS(W)*%
%TO.N,Net-(U13-VS(W))*%
X137699898Y-140700025D03*
%TO.P,U13,6,VB(W)*%
%TO.N,Net-(U13-VB(W))*%
X136099949Y-143700025D03*
%TO.P,U13,7,HIN(U)*%
%TO.N,Net-(U13-HIN(U))*%
X132699898Y-140700025D03*
%TO.P,U13,8,HIN(V)*%
%TO.N,Net-(U13-HIN(V))*%
X131099949Y-143700025D03*
%TO.P,U13,9,HIN(W)*%
%TO.N,Net-(U13-HIN(W))*%
X129500000Y-140700025D03*
%TO.P,U13,10,LIN(U)*%
%TO.N,Net-(U13-LIN(U))*%
X127900051Y-143700025D03*
%TO.P,U13,11,LIN(V)*%
%TO.N,Net-(U13-LIN(V))*%
X126300102Y-140700025D03*
%TO.P,U13,12,LIN(W)*%
%TO.N,Net-(U13-LIN(W))*%
X124699898Y-143700025D03*
%TO.P,U13,13,VDD*%
%TO.N,+15V*%
X123099949Y-140700025D03*
%TO.P,U13,14,VFO*%
%TO.N,VFO*%
X121500000Y-143700025D03*
%TO.P,U13,15,ITRIP*%
%TO.N,Net-(U13-ITRIP)*%
X119900051Y-140700025D03*
%TO.P,U13,16,VSS*%
%TO.N,GND*%
X117900051Y-143700025D03*
D20*
%TO.P,U13,17,NW*%
X116444882Y-169299975D03*
%TO.P,U13,18,NV*%
X121175133Y-169299975D03*
%TO.P,U13,19,NU*%
X125905131Y-169299975D03*
%TO.P,U13,20,W*%
%TO.N,Net-(U13-W)*%
X130635128Y-169299975D03*
%TO.P,U13,21,V*%
%TO.N,/Power/V*%
X135365126Y-169299975D03*
%TO.P,U13,22,U*%
%TO.N,Net-(U13-U)*%
X140095123Y-169299975D03*
%TO.P,U13,23,P*%
%TO.N,Net-(J8-Pin_1)*%
X144825121Y-169299975D03*
%TO.P,U13,24,NC*%
%TO.N,unconnected-(U13-NC-Pad24)*%
X149555118Y-169299975D03*
%TD*%
D74*
%TO.P,U4,1,VDD*%
%TO.N,Net-(U4-VDD)*%
X142000000Y-178000000D03*
%TO.P,U4,2,~Phase*%
%TO.N,Net-(U4-~Phase)*%
X142000000Y-185500000D03*
%TO.P,U4,3,~Neutral*%
%TO.N,/Power/AC_N*%
X142000000Y-193000000D03*
%TO.P,U4,4,GND*%
%TO.N,GND*%
X142000000Y-203000000D03*
%TD*%
D75*
%TO.N,*%
X146000000Y-63000000D03*
X133500000Y-60300000D03*
X146000000Y-69200000D03*
X149400000Y-66000000D03*
X153000000Y-74500000D03*
X143025146Y-65974854D03*
X156000000Y-60600000D03*
X137500000Y-73750000D03*
%TO.N,+15V*%
X163250000Y-184000000D03*
X98700000Y-147200000D03*
X163500000Y-153750000D03*
X163250000Y-111250000D03*
X133350000Y-108250000D03*
X100750000Y-114500000D03*
D76*
%TO.N,GND*%
X154100000Y-100800000D03*
X154060000Y-100000000D03*
D75*
X149600000Y-99000000D03*
X124750000Y-81250000D03*
X147200000Y-99000000D03*
X131500127Y-157500127D03*
X130000000Y-69000000D03*
X133250000Y-159000000D03*
X171000000Y-194000000D03*
X123815332Y-155384668D03*
X149500000Y-218000000D03*
X132750000Y-148750000D03*
D76*
X154100000Y-99200000D03*
D75*
X146000000Y-60250000D03*
X129750000Y-159250000D03*
X175450000Y-65750000D03*
X195000000Y-192500000D03*
X126500000Y-162250000D03*
X141500000Y-160500000D03*
D76*
X154100000Y-101600000D03*
D75*
X150800000Y-99000000D03*
X99000000Y-102500000D03*
X182000000Y-195500000D03*
X141500000Y-60250000D03*
X148400000Y-99000000D03*
X148000000Y-60250000D03*
X143750000Y-60250000D03*
X115315088Y-57340088D03*
X105950000Y-145937500D03*
X126750000Y-205250000D03*
X102250000Y-103250000D03*
X124250000Y-148750000D03*
X150500000Y-60250000D03*
X154700000Y-61700000D03*
X99250000Y-93750000D03*
X190500000Y-196000000D03*
X108315088Y-57090088D03*
X153000000Y-97800000D03*
X177800000Y-196088000D03*
X154000000Y-97800000D03*
X129974951Y-92500451D03*
X137250000Y-156500000D03*
X151900000Y-97800000D03*
X153000000Y-173500000D03*
X126250000Y-71250000D03*
%TO.N,+3.3V*%
X99000000Y-97250000D03*
X131000000Y-162000000D03*
X130280959Y-155081361D03*
X113000000Y-61749987D03*
X136000000Y-158750000D03*
X140200000Y-96200000D03*
X191250000Y-194500000D03*
X166000000Y-195326000D03*
X145800000Y-95400000D03*
X170500000Y-65000000D03*
X140200000Y-93800000D03*
X155000000Y-96800000D03*
X129750000Y-76250000D03*
X150750000Y-213250000D03*
X147250000Y-172750000D03*
X137500000Y-81000000D03*
X134250000Y-61750000D03*
X145800000Y-96600000D03*
D76*
X146000000Y-195500000D03*
D75*
X144600000Y-92800000D03*
X101975462Y-88750000D03*
X123500000Y-157500000D03*
X128000000Y-202000000D03*
X113000000Y-72750000D03*
X114100000Y-106700000D03*
X113000000Y-83750000D03*
X141800000Y-92800000D03*
X174750000Y-195250000D03*
X123600000Y-107400000D03*
X143200000Y-92800000D03*
X140200000Y-95000000D03*
X145800000Y-94000000D03*
X113000000Y-61749987D03*
X192300000Y-192700000D03*
%TO.N,/Control/RGBLED*%
X158000000Y-66250000D03*
X144250000Y-71500000D03*
D77*
%TO.N,/Power/AC_L*%
X110250000Y-165250000D03*
D75*
%TO.N,Net-(U1-IO0)*%
X123250000Y-54250000D03*
%TO.N,/Control/FAN_CONTROL*%
X136250000Y-71000000D03*
X136500000Y-65250000D03*
%TO.N,/Control/FAN2_PWM_FB*%
X131000000Y-99000000D03*
X145474500Y-78750000D03*
%TO.N,/Control/FAN1_PWM_FB*%
X131800000Y-98000000D03*
X151750000Y-77500000D03*
%TO.N,LINW*%
X125400000Y-105800000D03*
X137250000Y-71250000D03*
%TO.N,LINV*%
X137500000Y-72250000D03*
X126000000Y-104600000D03*
%TO.N,LINU*%
X138500000Y-74750000D03*
X127000000Y-104200000D03*
%TO.N,HINW*%
X140250000Y-74500000D03*
X127600000Y-103201034D03*
%TO.N,HINV*%
X140012299Y-75762299D03*
X128605447Y-102406375D03*
%TO.N,HINU*%
X141274952Y-75524952D03*
X129400000Y-101800000D03*
%TO.N,RELAY*%
X130200000Y-99800000D03*
X140750000Y-78000000D03*
%TO.N,/Control/TEMP_HEATSINK*%
X146000000Y-75750000D03*
%TO.N,/Control/USB_N*%
X146000000Y-74500000D03*
X189000000Y-93500000D03*
%TO.N,/Control/USB_P*%
X147250000Y-74500000D03*
X189994685Y-92606367D03*
%TO.N,/Control/SPI_MISO*%
X133750000Y-84750000D03*
X154250000Y-84750000D03*
%TO.N,/Control/SPI_MOSI*%
X136200000Y-82200000D03*
X152000000Y-83250000D03*
%TO.N,/Control/SPI_CLK*%
X153250000Y-83250000D03*
X135800000Y-83400000D03*
%TO.N,/Control/SPI_CS*%
X152000000Y-79500000D03*
X135750000Y-85000000D03*
%TO.N,/Control/UART_TX*%
X154776915Y-63798448D03*
X151500000Y-65250000D03*
X106000000Y-92250000D03*
X191014452Y-63500000D03*
%TO.N,/Control/UART_RX*%
X193750000Y-64750000D03*
X104762299Y-92012299D03*
X154750000Y-62750000D03*
X151500000Y-64250000D03*
%TO.N,Net-(U1-EN)*%
X151000000Y-61250000D03*
X123750000Y-57250000D03*
%TO.N,Net-(U2-UD-)*%
X173482000Y-208788000D03*
X162750000Y-205000000D03*
%TO.N,Net-(U2-UD+)*%
X176022000Y-208788000D03*
X166116000Y-205994000D03*
D76*
%TO.N,Net-(U5-SW)*%
X145500000Y-100275000D03*
X150930000Y-100230000D03*
X151640000Y-101040000D03*
X145500000Y-100875000D03*
X146100000Y-100875000D03*
X151640000Y-100230000D03*
X146100000Y-100275000D03*
X150920000Y-101040000D03*
D75*
%TO.N,Net-(U5-VFB)*%
X154400000Y-94800000D03*
X156400000Y-101400000D03*
%TO.N,I2C_SDA*%
X130750000Y-116000000D03*
X121500000Y-90525500D03*
%TO.N,I2C_SCL*%
X131750000Y-115000000D03*
X122750000Y-91325402D03*
%TO.N,Earth*%
X95700000Y-80600000D03*
D77*
%TO.N,/Power/AC_N*%
X114750000Y-153500000D03*
D75*
%TO.N,VFO*%
X137500000Y-64250000D03*
X124600000Y-107000000D03*
%TO.N,ITRIP*%
X148250000Y-77250000D03*
X129600000Y-100600000D03*
%TO.N,+5VD*%
X160500000Y-212250000D03*
X168402000Y-210566000D03*
X165500000Y-212250000D03*
X169250000Y-216750000D03*
X159000000Y-206000000D03*
%TO.N,GNDD*%
X169926000Y-210566000D03*
X163250000Y-208500000D03*
X176276000Y-209804000D03*
%TO.N,/Control/ISO_GPIO_1*%
X191974284Y-65482278D03*
X151750000Y-68000000D03*
%TO.N,VSS*%
X192987701Y-206987701D03*
X187250000Y-204500000D03*
%TO.N,Net-(U15-VIA)*%
X182000000Y-209000000D03*
X185444767Y-205555233D03*
%TO.N,GNDS*%
X182500000Y-205000000D03*
X193000000Y-208000000D03*
X190000000Y-204250000D03*
%TO.N,+5V*%
X161750000Y-155000000D03*
%TO.N,Net-(U16-VIA)*%
X193500000Y-205000000D03*
X191000000Y-205750000D03*
X186000000Y-208750000D03*
%TO.N,Net-(D9-K)*%
X126637299Y-157474564D03*
X153250000Y-182750000D03*
%TO.N,Net-(D10-K)*%
X128000000Y-203250000D03*
X128000000Y-158000000D03*
%TO.N,Net-(D8-A)*%
X152750000Y-172250000D03*
X131250000Y-165500000D03*
%TD*%
D78*
%TO.N,Net-(D10-K)*%
X123900000Y-202125000D02*
X124000000Y-202225000D01*
X123900000Y-200612500D02*
X123900000Y-202125000D01*
X123787500Y-200500000D02*
X123900000Y-200612500D01*
%TO.N,GND*%
X125000000Y-154025000D02*
X124975000Y-154000000D01*
X125000000Y-155675000D02*
X125000000Y-154025000D01*
X124925000Y-155750000D02*
X125000000Y-155675000D01*
X124300000Y-154900000D02*
X124975000Y-154900000D01*
X123815332Y-155384668D02*
X124300000Y-154900000D01*
X124975000Y-154900000D02*
X124975000Y-154000000D01*
D79*
%TO.N,/Power/AC_N*%
X107800000Y-211300000D02*
X112000000Y-215500000D01*
X102400000Y-211300000D02*
X107800000Y-211300000D01*
X97000000Y-205900000D02*
X102400000Y-211300000D01*
X97000000Y-197600000D02*
X97000000Y-205900000D01*
X113000000Y-169100000D02*
X113000000Y-184500000D01*
X107000000Y-190500000D02*
X104100000Y-190500000D01*
X121174646Y-160925354D02*
X113000000Y-169100000D01*
X104100000Y-190500000D02*
X97000000Y-197600000D01*
X121174646Y-156774646D02*
X121174646Y-160925354D01*
X117900000Y-153500000D02*
X121174646Y-156774646D01*
X114750000Y-153500000D02*
X117900000Y-153500000D01*
X113000000Y-184500000D02*
X107000000Y-190500000D01*
D80*
%TO.N,+3.3V*%
X123500000Y-156200000D02*
X123500000Y-157500000D01*
X114750000Y-147450000D02*
X123500000Y-156200000D01*
X114750000Y-138575000D02*
X114750000Y-147450000D01*
X114675000Y-138500000D02*
X114750000Y-138575000D01*
%TO.N,*%
X146000000Y-69250000D02*
X146000000Y-69200000D01*
X146000000Y-64324867D02*
X146000000Y-65974854D01*
X143000000Y-66000000D02*
X143025146Y-65974854D01*
X144350013Y-64324867D02*
X144350013Y-65974854D01*
X147649987Y-67624841D02*
X147649987Y-65974854D01*
X156000000Y-60250000D02*
X154724854Y-58974854D01*
X146000000Y-65974854D02*
X147649987Y-65974854D01*
X144350013Y-67624841D02*
X146000000Y-67624841D01*
X137500000Y-73750000D02*
X138275146Y-72974854D01*
X154724854Y-58974854D02*
X153000000Y-58974854D01*
X146000000Y-67624841D02*
X146000000Y-65974854D01*
X144350013Y-64324867D02*
X146000000Y-64324867D01*
X134625146Y-58974854D02*
X133300000Y-60300000D01*
X156000000Y-60600000D02*
X156000000Y-60250000D01*
X146000000Y-67624841D02*
X146000000Y-69250000D01*
X146000000Y-67624841D02*
X147649987Y-67624841D01*
X139000000Y-58974854D02*
X134625146Y-58974854D01*
X144350013Y-65974854D02*
X144350013Y-67624841D01*
X146000000Y-64324867D02*
X146000000Y-63000000D01*
X147649987Y-64324867D02*
X146000000Y-64324867D01*
X147649987Y-65974854D02*
X147649987Y-64324867D01*
X144350013Y-65974854D02*
X146000000Y-65974854D01*
X144350013Y-65974854D02*
X143025146Y-65974854D01*
X138275146Y-72974854D02*
X139000000Y-72974854D01*
X147649987Y-65974854D02*
X149224854Y-65974854D01*
X153000000Y-74500000D02*
X153000000Y-72974854D01*
X133300000Y-60300000D02*
X133500000Y-60300000D01*
X149374854Y-65974854D02*
X149400000Y-66000000D01*
X149224854Y-65974854D02*
X149374854Y-65974854D01*
D78*
%TO.N,+15V*%
X122500000Y-147775000D02*
X122525000Y-147750000D01*
X148000000Y-201242462D02*
X148000000Y-214425000D01*
D80*
X99025000Y-114750000D02*
X99025000Y-113050000D01*
D78*
X163500000Y-153750000D02*
X163250000Y-153500000D01*
D80*
X123099949Y-145425051D02*
X122525000Y-146000000D01*
D79*
X136100000Y-105400000D02*
X136100000Y-105000000D01*
D78*
X163250000Y-153500000D02*
X163250000Y-111250000D01*
D79*
X133350000Y-108150000D02*
X136100000Y-105400000D01*
X133350000Y-108250000D02*
X133350000Y-108150000D01*
D80*
X122525000Y-147750000D02*
X122525000Y-146000000D01*
D78*
X152525000Y-196717462D02*
X148000000Y-201242462D01*
X122500000Y-149250000D02*
X122500000Y-147775000D01*
X128000000Y-152250000D02*
X125500000Y-152250000D01*
D80*
X99025000Y-114750000D02*
X100500000Y-114750000D01*
D78*
X155500000Y-185250000D02*
X152525000Y-188225000D01*
D80*
X96487500Y-149412500D02*
X96487500Y-149687500D01*
D78*
X162000000Y-185250000D02*
X155500000Y-185250000D01*
X163250000Y-184000000D02*
X162000000Y-185250000D01*
D80*
X99025000Y-113050000D02*
X99250000Y-112825000D01*
X99250000Y-112825000D02*
X100884817Y-112825000D01*
D78*
X152525000Y-188225000D02*
X152525000Y-196717462D01*
D80*
X123099949Y-140700025D02*
X123099949Y-145425051D01*
X100500000Y-114750000D02*
X100750000Y-114500000D01*
D78*
X125500000Y-152250000D02*
X122500000Y-149250000D01*
D80*
X98700000Y-147200000D02*
X96487500Y-149412500D01*
X100884817Y-112825000D02*
X101009779Y-112949962D01*
%TO.N,GND*%
X107500000Y-146062500D02*
X107625000Y-145937500D01*
D78*
X195000000Y-193725000D02*
X195000000Y-192500000D01*
X101750000Y-92899098D02*
X101750000Y-93685102D01*
X133750000Y-158750000D02*
X134750000Y-159750000D01*
D80*
X151100076Y-58949962D02*
X150249936Y-58949962D01*
X103000000Y-123150000D02*
X102390005Y-122540005D01*
D78*
X132900000Y-152250000D02*
X132900000Y-150300000D01*
X170929000Y-194071000D02*
X170929000Y-195326000D01*
X181844996Y-195655004D02*
X182000000Y-195500000D01*
X126500000Y-71500000D02*
X126250000Y-71250000D01*
X136032499Y-195060008D02*
X136960212Y-195060008D01*
D80*
X120200026Y-146000000D02*
X117900051Y-143700025D01*
X154675083Y-61724917D02*
X154700000Y-61700000D01*
X102390005Y-122540005D02*
X98000000Y-122540005D01*
D78*
X124250000Y-147525000D02*
X124250000Y-148750000D01*
D80*
X146000000Y-58949962D02*
X146849886Y-58949962D01*
D78*
X132900000Y-150300000D02*
X132850000Y-150250000D01*
X116250000Y-142049974D02*
X117900051Y-143700025D01*
X142000000Y-198134000D02*
X142000000Y-203000000D01*
X127750000Y-147525000D02*
X126000000Y-147525000D01*
X125500000Y-82000000D02*
X124750000Y-81250000D01*
X99000000Y-102500000D02*
X100185102Y-102500000D01*
X169075000Y-197600000D02*
X169075000Y-195428000D01*
D80*
X139824892Y-60024892D02*
X140050038Y-59799746D01*
D78*
X132750000Y-147525000D02*
X132750000Y-148750000D01*
D80*
X139024892Y-60874778D02*
X139024892Y-60024892D01*
D78*
X132750000Y-147525000D02*
X131250000Y-147525000D01*
X130000000Y-67775000D02*
X129050000Y-67775000D01*
X118869996Y-202905004D02*
X118432499Y-202905004D01*
X152155004Y-174200000D02*
X152155004Y-174817501D01*
X190500000Y-196000000D02*
X191094996Y-196594996D01*
X129750000Y-160475000D02*
X129750000Y-159250000D01*
X99850000Y-104750000D02*
X99850000Y-106825000D01*
X120500000Y-201275000D02*
X118869996Y-202905004D01*
X101000000Y-101685102D02*
X101000000Y-100899098D01*
X100185102Y-102500000D02*
X101000000Y-101685102D01*
D80*
X143450089Y-58949962D02*
X143450089Y-59950089D01*
X120975000Y-147750000D02*
X120975000Y-146000000D01*
D78*
X133750000Y-158750000D02*
X133500000Y-159000000D01*
X133249936Y-158249936D02*
X133750000Y-158750000D01*
X100500127Y-65824873D02*
X100500127Y-68064478D01*
X99850000Y-106825000D02*
X99800000Y-106875000D01*
X138200000Y-159500000D02*
X138200000Y-157800000D01*
D80*
X147700025Y-58949962D02*
X148549911Y-58949962D01*
X143450089Y-59950089D02*
X143750000Y-60250000D01*
D78*
X136960212Y-195060008D02*
X137850000Y-194170220D01*
D80*
X175450000Y-65750000D02*
X175525000Y-65675000D01*
D78*
X126425000Y-160950000D02*
X126475000Y-161000000D01*
X132750000Y-150150000D02*
X132850000Y-150250000D01*
X115315088Y-55750000D02*
X115315088Y-57340088D01*
X133500000Y-159000000D02*
X133250000Y-159000000D01*
X133000000Y-158249936D02*
X133249936Y-158249936D01*
D80*
X149500000Y-218000000D02*
X149500000Y-219287500D01*
D78*
X133025000Y-159225000D02*
X133250000Y-159000000D01*
X139178000Y-188976000D02*
X137880000Y-187678000D01*
D80*
X107625000Y-145937500D02*
X105950000Y-145937500D01*
D78*
X176695000Y-197193000D02*
X177800000Y-196088000D01*
D80*
X146000000Y-58949962D02*
X146000000Y-60250000D01*
X142599949Y-58949962D02*
X143450089Y-58949962D01*
D78*
X132750000Y-148750000D02*
X132750000Y-150150000D01*
D80*
X152975108Y-61724917D02*
X154675083Y-61724917D01*
X175525000Y-65675000D02*
X177800000Y-65675000D01*
D78*
X170929000Y-195326000D02*
X169177000Y-195326000D01*
X126000000Y-147525000D02*
X124250000Y-147525000D01*
X127250000Y-83425000D02*
X126500000Y-83425000D01*
X129525000Y-147525000D02*
X129500000Y-147550000D01*
X101435102Y-94000000D02*
X99500000Y-94000000D01*
X100925000Y-65400000D02*
X100500127Y-65824873D01*
X191094996Y-196594996D02*
X191094996Y-197477584D01*
X137477000Y-185928000D02*
X137477000Y-187628000D01*
X99850000Y-104750000D02*
X101350000Y-103250000D01*
D80*
X138824784Y-60225000D02*
X139024892Y-60024892D01*
X137250000Y-60225000D02*
X138824784Y-60225000D01*
D78*
X125550000Y-83425000D02*
X125500000Y-83475000D01*
X101350000Y-103250000D02*
X102250000Y-103250000D01*
X126425000Y-159500000D02*
X126425000Y-160950000D01*
X127775000Y-147550000D02*
X127750000Y-147525000D01*
D80*
X140899924Y-58949962D02*
X141750064Y-58949962D01*
D78*
X131250000Y-147525000D02*
X129525000Y-147525000D01*
D80*
X96750000Y-114750000D02*
X96000000Y-114000000D01*
X148549911Y-58949962D02*
X149400051Y-58949962D01*
D78*
X126475000Y-161000000D02*
X126475000Y-162225000D01*
X132249936Y-158249936D02*
X131500127Y-157500127D01*
X133025000Y-160500000D02*
X133025000Y-159225000D01*
X126500000Y-72425000D02*
X126500000Y-71500000D01*
X137850000Y-194170220D02*
X137850000Y-193430004D01*
X181844996Y-197477584D02*
X181844996Y-195655004D01*
X129050000Y-67775000D02*
X129000000Y-67825000D01*
D80*
X120975000Y-146000000D02*
X120200026Y-146000000D01*
D78*
X116250000Y-141775000D02*
X116250000Y-142049974D01*
D80*
X148549911Y-58949962D02*
X148549911Y-59700089D01*
D78*
X126750000Y-205250000D02*
X125475000Y-205250000D01*
X152155004Y-174344996D02*
X152155004Y-174817501D01*
X101750000Y-93685102D02*
X101435102Y-94000000D01*
X109975000Y-58750000D02*
X108315088Y-57090088D01*
X137850000Y-193430004D02*
X137850000Y-193984000D01*
X129500000Y-147550000D02*
X127775000Y-147550000D01*
X126500000Y-72425000D02*
X125550000Y-72425000D01*
X137880000Y-187678000D02*
X137427000Y-187678000D01*
D80*
X135500000Y-60225000D02*
X137250000Y-60225000D01*
D78*
X137850000Y-193984000D02*
X142000000Y-198134000D01*
X137477000Y-187628000D02*
X137427000Y-187678000D01*
D80*
X140899924Y-59649924D02*
X141500000Y-60250000D01*
D78*
X121330004Y-202905004D02*
X118432499Y-202905004D01*
D80*
X175450000Y-65750000D02*
X175450000Y-66650000D01*
D78*
X127250000Y-72425000D02*
X126500000Y-72425000D01*
X150275000Y-172750000D02*
X150705004Y-172750000D01*
D80*
X144299975Y-58949962D02*
X145150114Y-58949962D01*
X140050038Y-58949962D02*
X140899924Y-58949962D01*
D78*
X130750000Y-67775000D02*
X130000000Y-67775000D01*
D80*
X143450089Y-58949962D02*
X144299975Y-58949962D01*
D78*
X126475000Y-162225000D02*
X126500000Y-162250000D01*
X171000000Y-194000000D02*
X170929000Y-194071000D01*
X153000000Y-173500000D02*
X152155004Y-174344996D01*
D80*
X148000000Y-219287500D02*
X150750000Y-219287500D01*
D78*
X125550000Y-72425000D02*
X125500000Y-72475000D01*
X137250000Y-156500000D02*
X136325000Y-156500000D01*
D80*
X151100076Y-58949962D02*
X151100076Y-59649924D01*
D78*
X138200000Y-157800000D02*
X138250000Y-157750000D01*
X125475000Y-205250000D02*
X124000000Y-203775000D01*
X130000000Y-67775000D02*
X130000000Y-69000000D01*
X146531000Y-188976000D02*
X139178000Y-188976000D01*
D80*
X97475000Y-114750000D02*
X96750000Y-114750000D01*
D78*
X137250000Y-156500000D02*
X137250000Y-156750000D01*
X169075000Y-195428000D02*
X169177000Y-195326000D01*
X108315088Y-57090088D02*
X108315088Y-55750000D01*
X150705004Y-172750000D02*
X152155004Y-174200000D01*
X125500000Y-83475000D02*
X125500000Y-82000000D01*
X115315088Y-57340088D02*
X116725000Y-58750000D01*
D80*
X151100076Y-58949962D02*
X151949962Y-58949962D01*
D78*
X141500000Y-159325000D02*
X141500000Y-160500000D01*
D80*
X139024892Y-60024892D02*
X139824892Y-60024892D01*
X146849886Y-58949962D02*
X147700025Y-58949962D01*
X141750064Y-58949962D02*
X142599949Y-58949962D01*
X145150114Y-58949962D02*
X146000000Y-58949962D01*
X107500000Y-148000000D02*
X107500000Y-146062500D01*
X148549911Y-59700089D02*
X148000000Y-60250000D01*
D78*
X188775000Y-196000000D02*
X190500000Y-196000000D01*
D80*
X149400051Y-58949962D02*
X150249936Y-58949962D01*
X96000000Y-114000000D02*
X96000000Y-111700000D01*
X140899924Y-58949962D02*
X140899924Y-59649924D01*
X151100076Y-59649924D02*
X150500000Y-60250000D01*
D78*
X126500000Y-83425000D02*
X125550000Y-83425000D01*
X122300000Y-203775000D02*
X122250000Y-203825000D01*
X122250000Y-203825000D02*
X121330004Y-202905004D01*
X124000000Y-203775000D02*
X122300000Y-203775000D01*
D80*
X140050038Y-59799746D02*
X140050038Y-58949962D01*
X149500000Y-219287500D02*
X150750000Y-219287500D01*
D78*
X148000000Y-190445000D02*
X146531000Y-188976000D01*
X137250000Y-156750000D02*
X138250000Y-157750000D01*
X99500000Y-94000000D02*
X99250000Y-93750000D01*
X176695000Y-197600000D02*
X176695000Y-197193000D01*
D80*
X152975108Y-62574803D02*
X152975108Y-61724917D01*
D78*
X133000000Y-158249936D02*
X132249936Y-158249936D01*
D80*
%TO.N,+3.3V*%
X174674000Y-195326000D02*
X172479000Y-195326000D01*
D78*
X119446244Y-61749987D02*
X113000000Y-61749987D01*
X148344996Y-174817501D02*
X148344996Y-173130004D01*
X119075013Y-61749987D02*
X113000000Y-61749987D01*
X120500000Y-199725000D02*
X121225000Y-199000000D01*
X137850000Y-191880004D02*
X137850000Y-191698000D01*
X146000000Y-195500000D02*
X145250000Y-194750000D01*
X136325000Y-77250000D02*
X136250000Y-77325000D01*
X194905004Y-195369996D02*
X195000000Y-195275000D01*
X124000000Y-199000000D02*
X125000000Y-199000000D01*
D80*
X174750000Y-195250000D02*
X174674000Y-195326000D01*
D78*
X136000000Y-158750000D02*
X135300000Y-158750000D01*
X130750000Y-77250000D02*
X129750000Y-76250000D01*
X155100000Y-96800000D02*
X155000000Y-96800000D01*
X113250000Y-105575000D02*
X114000000Y-105575000D01*
X170345000Y-197600000D02*
X170345000Y-198717000D01*
X145500000Y-94300000D02*
X144150000Y-94300000D01*
X125000000Y-199000000D02*
X128000000Y-202000000D01*
X167894000Y-195593000D02*
X167894000Y-197511000D01*
X194905004Y-197477584D02*
X194905004Y-195369996D01*
X101000000Y-97814898D02*
X100435102Y-97250000D01*
X186500000Y-196000000D02*
X187225000Y-196000000D01*
X155350000Y-97900000D02*
X155350000Y-97050000D01*
X114100000Y-106700000D02*
X114100000Y-105675000D01*
X114799924Y-72749987D02*
X113000013Y-72749987D01*
D80*
X135500000Y-61775000D02*
X137250000Y-61775000D01*
D78*
X131475000Y-160500000D02*
X131475000Y-161525000D01*
X171615000Y-196431000D02*
X171615000Y-197600000D01*
X172479000Y-195326000D02*
X172479000Y-195567000D01*
X133000000Y-157750064D02*
X134300064Y-157750064D01*
X192300000Y-192700000D02*
X192425000Y-192700000D01*
X118432499Y-199094996D02*
X119869996Y-199094996D01*
X101000000Y-98600902D02*
X101000000Y-97814898D01*
X136250000Y-79750000D02*
X137500000Y-81000000D01*
X119869996Y-199094996D02*
X120500000Y-199725000D01*
X113000013Y-83749987D02*
X113000000Y-83750000D01*
X144018000Y-189484000D02*
X140208000Y-189484000D01*
X146000000Y-195500000D02*
X146025000Y-195525000D01*
X145250000Y-190716000D02*
X144018000Y-189484000D01*
X167894000Y-197511000D02*
X167805000Y-197600000D01*
X114100000Y-105675000D02*
X114000000Y-105575000D01*
D80*
X166000000Y-195326000D02*
X167627000Y-195326000D01*
X134275000Y-61775000D02*
X134250000Y-61750000D01*
X147250000Y-172750000D02*
X148725000Y-172750000D01*
D78*
X155000000Y-96800000D02*
X155000000Y-96700000D01*
X134300064Y-157750064D02*
X134750000Y-158200000D01*
X137850000Y-191842000D02*
X137850000Y-191880004D01*
D80*
X187225000Y-196000000D02*
X188725000Y-194500000D01*
D78*
X167627000Y-195326000D02*
X167894000Y-195593000D01*
D80*
X188725000Y-194500000D02*
X191250000Y-194500000D01*
D78*
X135300000Y-158750000D02*
X134750000Y-158200000D01*
X122000000Y-59196231D02*
X119446244Y-61749987D01*
X114799924Y-83749987D02*
X113000013Y-83749987D01*
X131425000Y-77250000D02*
X130750000Y-77250000D01*
X146025000Y-195525000D02*
X148000000Y-195525000D01*
X145250000Y-194750000D02*
X145250000Y-190716000D01*
X172479000Y-195567000D02*
X171615000Y-196431000D01*
X170345000Y-198717000D02*
X169926000Y-199136000D01*
X145800000Y-94000000D02*
X145500000Y-94300000D01*
D80*
X117175000Y-137625000D02*
X117275000Y-137725000D01*
D78*
X168148000Y-199136000D02*
X167805000Y-198793000D01*
X140208000Y-189484000D02*
X137850000Y-191842000D01*
X171615000Y-197600000D02*
X172885000Y-197600000D01*
X137850000Y-191698000D02*
X137402000Y-191250000D01*
X155000000Y-96700000D02*
X155100000Y-96800000D01*
X140700000Y-94300000D02*
X142050000Y-94300000D01*
X122000000Y-57500000D02*
X122000000Y-59196231D01*
X185655004Y-197477584D02*
X185655004Y-196844996D01*
X142050000Y-94300000D02*
X143100000Y-95350000D01*
D79*
X143375000Y-95625000D02*
X143100000Y-95350000D01*
D78*
X167805000Y-198793000D02*
X167805000Y-197600000D01*
X148344996Y-173130004D02*
X148725000Y-172750000D01*
X144150000Y-94300000D02*
X143100000Y-95350000D01*
X148275000Y-195250000D02*
X150675000Y-195250000D01*
X170345000Y-197600000D02*
X171615000Y-197600000D01*
X113000013Y-72749987D02*
X113000000Y-72750000D01*
D80*
X123600000Y-107400000D02*
X123600000Y-134575000D01*
D78*
X155350000Y-97050000D02*
X155100000Y-96800000D01*
D80*
X139024892Y-61724917D02*
X137300083Y-61724917D01*
D78*
X129825000Y-154625402D02*
X130280959Y-155081361D01*
X129825000Y-154000000D02*
X129825000Y-154625402D01*
X137402000Y-191250000D02*
X136032499Y-191250000D01*
X121225000Y-199000000D02*
X124000000Y-199000000D01*
X131750064Y-160224936D02*
X131750064Y-159000000D01*
X101975462Y-88750000D02*
X101750000Y-88975462D01*
D80*
X123600000Y-134575000D02*
X119675000Y-138500000D01*
D78*
X185655004Y-196844996D02*
X186500000Y-196000000D01*
D80*
X118900000Y-137725000D02*
X119675000Y-138500000D01*
D78*
X140200000Y-93800000D02*
X140700000Y-94300000D01*
X131475000Y-160500000D02*
X131750064Y-160224936D01*
X101750000Y-88975462D02*
X101750000Y-90600902D01*
X100435102Y-97250000D02*
X99000000Y-97250000D01*
D80*
X170550000Y-63350000D02*
X170550000Y-64950000D01*
D78*
X113000000Y-61749987D02*
X114799924Y-61749987D01*
D80*
X135500000Y-61775000D02*
X134275000Y-61775000D01*
D78*
X192425000Y-192700000D02*
X195000000Y-195275000D01*
X114000000Y-105575000D02*
X115000000Y-105575000D01*
D80*
X117275000Y-137725000D02*
X118900000Y-137725000D01*
D78*
X169926000Y-199136000D02*
X168148000Y-199136000D01*
X136250000Y-77325000D02*
X136250000Y-79750000D01*
D80*
X137300083Y-61724917D02*
X137250000Y-61775000D01*
X150750000Y-213250000D02*
X150750000Y-214500000D01*
D78*
X150675000Y-195250000D02*
X150750000Y-195325000D01*
D80*
X170550000Y-64950000D02*
X170500000Y-65000000D01*
X115550000Y-137625000D02*
X117175000Y-137625000D01*
D78*
X131475000Y-161525000D02*
X131000000Y-162000000D01*
D80*
X115475000Y-137700000D02*
X115550000Y-137625000D01*
X114675000Y-138500000D02*
X115475000Y-137700000D01*
D78*
X148000000Y-195525000D02*
X148275000Y-195250000D01*
D80*
%TO.N,Net-(D5-K)*%
X96250000Y-142000000D02*
X98000000Y-142000000D01*
D78*
X103000000Y-119850000D02*
X102850000Y-120000000D01*
D80*
X95100000Y-122900000D02*
X95100000Y-140850000D01*
X102850000Y-120000000D02*
X98000000Y-120000000D01*
X103000000Y-117962500D02*
X103000000Y-119850000D01*
X95100000Y-140850000D02*
X96250000Y-142000000D01*
X98000000Y-120000000D02*
X95100000Y-122900000D01*
D78*
%TO.N,Net-(Fan1-Pad3)*%
X98000000Y-117459995D02*
X98959995Y-116500000D01*
X98959995Y-116500000D02*
X108250000Y-116500000D01*
X111500000Y-113250000D02*
X111500000Y-105575000D01*
X108250000Y-116500000D02*
X111500000Y-113250000D01*
%TO.N,/Control/RGBLED*%
X175450000Y-63350000D02*
X175450000Y-62700000D01*
X144250000Y-71500000D02*
X144250000Y-72950025D01*
X175450000Y-62700000D02*
X175000000Y-62250000D01*
X177800000Y-64125000D02*
X177025000Y-63350000D01*
X144250000Y-72950025D02*
X144299975Y-73000000D01*
X169750000Y-62250000D02*
X165750000Y-66250000D01*
X165750000Y-66250000D02*
X158000000Y-66250000D01*
X175000000Y-62250000D02*
X169750000Y-62250000D01*
X177025000Y-63350000D02*
X175450000Y-63350000D01*
D79*
%TO.N,/Power/AC_L*%
X110250000Y-165250000D02*
X110750000Y-165750000D01*
X110750000Y-165750000D02*
X110750000Y-180750000D01*
X110750000Y-180750000D02*
X109810000Y-181690000D01*
X109810000Y-181690000D02*
X107000000Y-181690000D01*
D78*
%TO.N,Net-(U13-ITRIP)*%
X118700025Y-140700025D02*
X118250000Y-140250000D01*
X119900051Y-140700025D02*
X118700025Y-140700025D01*
X119900051Y-140700025D02*
X116725025Y-140700025D01*
X118250000Y-138825000D02*
X118000000Y-138575000D01*
X116325000Y-138500000D02*
X117925000Y-138500000D01*
X118250000Y-140250000D02*
X118250000Y-138825000D01*
X116725025Y-140700025D02*
X116250000Y-140225000D01*
X117925000Y-138500000D02*
X118000000Y-138575000D01*
D80*
%TO.N,Net-(D4-K)*%
X99412500Y-149687500D02*
X101800000Y-149687500D01*
X99412500Y-149687500D02*
X99700000Y-149975000D01*
X99500000Y-149775000D02*
X99412500Y-149687500D01*
X99500000Y-156350000D02*
X99500000Y-149775000D01*
%TO.N,Net-(D4-A)*%
X108262500Y-149687500D02*
X108450000Y-149875000D01*
X107000000Y-149887500D02*
X107200000Y-149687500D01*
X105100000Y-149687500D02*
X108262500Y-149687500D01*
X107200000Y-149687500D02*
X108262500Y-149687500D01*
X107000000Y-156350000D02*
X107000000Y-149887500D01*
D78*
%TO.N,Net-(Q1-G)*%
X109400000Y-148000000D02*
X109400000Y-146062500D01*
X109400000Y-146062500D02*
X109275000Y-145937500D01*
X109275000Y-144437500D02*
X109450000Y-144262500D01*
X109275000Y-145937500D02*
X109275000Y-144437500D01*
%TO.N,Net-(Q2-G)*%
X101500000Y-105500000D02*
X101750000Y-105750000D01*
X103350000Y-104750000D02*
X101500000Y-104750000D01*
X101500000Y-104750000D02*
X101500000Y-105500000D01*
X101750000Y-105750000D02*
X101750000Y-106825000D01*
X101750000Y-106825000D02*
X101700000Y-106875000D01*
%TO.N,Net-(Fan2-Pad3)*%
X112750000Y-110250000D02*
X116750000Y-106250000D01*
X101540005Y-139459995D02*
X112750000Y-128250000D01*
X112750000Y-128250000D02*
X112750000Y-110250000D01*
X98000000Y-139459995D02*
X101540005Y-139459995D01*
X116750000Y-106250000D02*
X116750000Y-105575000D01*
%TO.N,Net-(R20-Pad1)*%
X123199975Y-66249860D02*
X125674860Y-66249860D01*
X125674860Y-66249860D02*
X125675000Y-66250000D01*
%TO.N,Net-(R21-Pad1)*%
X125424860Y-77249860D02*
X125500000Y-77325000D01*
X123199975Y-77249860D02*
X125424860Y-77249860D01*
%TO.N,Net-(R22-Pad1)*%
X125424860Y-88249860D02*
X125500000Y-88325000D01*
X123199975Y-88249860D02*
X125424860Y-88249860D01*
%TO.N,Net-(U1-IO0)*%
X123250000Y-54250000D02*
X127500000Y-58500000D01*
X127500000Y-62250000D02*
X129000000Y-63750000D01*
X123250000Y-54250000D02*
X114184912Y-54250000D01*
X129000000Y-63750000D02*
X132500000Y-63750000D01*
X111525000Y-58750000D02*
X112684912Y-57590088D01*
X112684912Y-57590088D02*
X112684912Y-55750000D01*
X114184912Y-54250000D02*
X112684912Y-55750000D01*
X132500000Y-63750000D02*
X133675197Y-62574803D01*
X127500000Y-58500000D02*
X127500000Y-62250000D01*
X133675197Y-62574803D02*
X139024892Y-62574803D01*
%TO.N,Net-(D3V3-A)*%
X150750000Y-217787500D02*
X150750000Y-216150000D01*
%TO.N,Net-(D15V1-A)*%
X148000000Y-216075000D02*
X148000000Y-217787500D01*
%TO.N,/Control/FAN_CONTROL*%
X141000000Y-89250000D02*
X139250000Y-91000000D01*
X136250000Y-71000000D02*
X136250000Y-74250000D01*
X131500000Y-95250000D02*
X110750000Y-95250000D01*
X110750000Y-95250000D02*
X105000000Y-101000000D01*
X141000000Y-81000000D02*
X141000000Y-89250000D01*
X137299752Y-63424943D02*
X139024892Y-63424943D01*
X140000000Y-80000000D02*
X141000000Y-81000000D01*
X139250000Y-91000000D02*
X135750000Y-91000000D01*
X136500000Y-65250000D02*
X136500000Y-64224695D01*
X105000000Y-101000000D02*
X105000000Y-104750000D01*
X135750000Y-91000000D02*
X131500000Y-95250000D01*
X140000000Y-78000000D02*
X140000000Y-80000000D01*
X136250000Y-74250000D02*
X140000000Y-78000000D01*
X136500000Y-64224695D02*
X137299752Y-63424943D01*
%TO.N,/Control/FAN2_PWM_FB*%
X124700000Y-102500000D02*
X118250000Y-102500000D01*
X118250000Y-102500000D02*
X116825000Y-103925000D01*
X128200000Y-99000000D02*
X124700000Y-102500000D01*
X148224694Y-76000000D02*
X149400051Y-74824643D01*
X145474500Y-78750000D02*
X148224500Y-76000000D01*
X148224500Y-76000000D02*
X148224694Y-76000000D01*
X116825000Y-103925000D02*
X116750000Y-103925000D01*
X131000000Y-99000000D02*
X128200000Y-99000000D01*
X149400051Y-74824643D02*
X149400051Y-73000000D01*
X115000000Y-103925000D02*
X116750000Y-103925000D01*
%TO.N,/Control/FAN1_PWM_FB*%
X113250000Y-103925000D02*
X111500000Y-103925000D01*
X118000000Y-101750000D02*
X117000000Y-102750000D01*
X131800000Y-98000000D02*
X128200000Y-98000000D01*
X151750000Y-77500000D02*
X151949962Y-77300038D01*
X128200000Y-98000000D02*
X124450000Y-101750000D01*
X117000000Y-102750000D02*
X114425000Y-102750000D01*
X151949962Y-77300038D02*
X151949962Y-73000000D01*
X124450000Y-101750000D02*
X118000000Y-101750000D01*
X114425000Y-102750000D02*
X113250000Y-103925000D01*
%TO.N,/Control/POT1OUT*%
X107164478Y-63900000D02*
X127500000Y-63900000D01*
X103000000Y-68064478D02*
X103000000Y-65925000D01*
X134074854Y-65974854D02*
X139024892Y-65974854D01*
X128700000Y-65100000D02*
X133200000Y-65100000D01*
X103000000Y-68064478D02*
X107164478Y-63900000D01*
X103000000Y-65925000D02*
X102475000Y-65400000D01*
X133200000Y-65100000D02*
X134074854Y-65974854D01*
X127500000Y-63900000D02*
X128700000Y-65100000D01*
%TO.N,LINW*%
X139024892Y-71074930D02*
X137425070Y-71074930D01*
X125600000Y-135400000D02*
X124500000Y-136500000D01*
X125400000Y-105800000D02*
X125600000Y-106000000D01*
X137425070Y-71074930D02*
X137250000Y-71250000D01*
X125600000Y-106000000D02*
X125600000Y-135400000D01*
X124500000Y-136500000D02*
X124500000Y-137175000D01*
%TO.N,LINV*%
X137825184Y-71924816D02*
X137500000Y-72250000D01*
X139024892Y-71924816D02*
X137825184Y-71924816D01*
X126000000Y-104600000D02*
X126400000Y-105000000D01*
X126400000Y-105000000D02*
X126400000Y-136350000D01*
X126250000Y-136500000D02*
X126250000Y-137175000D01*
X126400000Y-136350000D02*
X126250000Y-136500000D01*
%TO.N,LINU*%
X128000000Y-136500000D02*
X128000000Y-137175000D01*
X138500000Y-74750000D02*
X140050038Y-73199962D01*
X127200000Y-135700000D02*
X128000000Y-136500000D01*
X140050038Y-73199962D02*
X140050038Y-73000000D01*
X127200000Y-104400000D02*
X127200000Y-135700000D01*
X127000000Y-104200000D02*
X127200000Y-104400000D01*
%TO.N,HINW*%
X140250000Y-74500000D02*
X140899924Y-73850076D01*
X140899924Y-73850076D02*
X140899924Y-73000000D01*
X128000000Y-134750000D02*
X129750000Y-136500000D01*
X128000000Y-103601034D02*
X128000000Y-134750000D01*
X129750000Y-136500000D02*
X129750000Y-137175000D01*
X127600000Y-103201034D02*
X128000000Y-103601034D01*
%TO.N,HINV*%
X128750000Y-102550928D02*
X128750000Y-133750000D01*
X140013006Y-75762299D02*
X141750064Y-74025241D01*
X140012299Y-75762299D02*
X140013006Y-75762299D01*
X128605447Y-102406375D02*
X128750000Y-102550928D01*
X141750064Y-74025241D02*
X141750064Y-73000000D01*
X128750000Y-133750000D02*
X131500000Y-136500000D01*
X131500000Y-136500000D02*
X131500000Y-137175000D01*
%TO.N,HINU*%
X142599949Y-74199955D02*
X141274952Y-75524952D01*
X129500000Y-101900000D02*
X129500000Y-132750000D01*
X133250000Y-136500000D02*
X133250000Y-137175000D01*
X129500000Y-132750000D02*
X133250000Y-136500000D01*
X129400000Y-101800000D02*
X129500000Y-101900000D01*
X142599949Y-73000000D02*
X142599949Y-74199955D01*
%TO.N,RELAY*%
X117750000Y-106500000D02*
X113500000Y-110750000D01*
X130200000Y-99800000D02*
X128200000Y-99800000D01*
X140750000Y-78000000D02*
X143450089Y-75299911D01*
X109500000Y-132750000D02*
X109500000Y-142562500D01*
X121500000Y-106500000D02*
X117750000Y-106500000D01*
X113500000Y-128750000D02*
X109500000Y-132750000D01*
X128200000Y-99800000D02*
X121500000Y-106500000D01*
X113500000Y-110750000D02*
X113500000Y-128750000D01*
X109500000Y-142562500D02*
X109450000Y-142612500D01*
X143450089Y-75299911D02*
X143450089Y-73000000D01*
%TO.N,/Control/TEMP_HEATSINK*%
X150750000Y-193675000D02*
X149675000Y-193675000D01*
X145150114Y-73000000D02*
X145150114Y-74900114D01*
X148985000Y-192985000D02*
X148000000Y-192985000D01*
X149675000Y-193675000D02*
X148985000Y-192985000D01*
X145150114Y-74900114D02*
X146000000Y-75750000D01*
%TO.N,Net-(J3-Pin_1)*%
X173460000Y-217500000D02*
X173500000Y-217500000D01*
X181500000Y-212075000D02*
X181500000Y-212750000D01*
X181500000Y-212750000D02*
X181000000Y-213250000D01*
X177710000Y-213250000D02*
X173460000Y-217500000D01*
X181000000Y-213250000D02*
X177710000Y-213250000D01*
%TO.N,Net-(J3-Pin_2)*%
X182000000Y-214000000D02*
X179500000Y-214000000D01*
X179500000Y-214000000D02*
X176000000Y-217500000D01*
X183000000Y-213000000D02*
X182000000Y-214000000D01*
X176000000Y-216500000D02*
X176000000Y-217500000D01*
X183000000Y-212075000D02*
X183000000Y-213000000D01*
%TO.N,/Control/USB_N*%
X177278249Y-194050000D02*
X183813604Y-194050000D01*
X185478000Y-136076396D02*
X185478000Y-123765604D01*
X187000000Y-191800000D02*
X187250000Y-191550000D01*
X187250000Y-191550000D02*
X187250000Y-137848396D01*
X174155000Y-197600000D02*
X174155000Y-197173249D01*
X186063604Y-191800000D02*
X187000000Y-191800000D01*
X174155000Y-197173249D02*
X177278249Y-194050000D01*
X183813604Y-194050000D02*
X186063604Y-191800000D01*
X185478000Y-123765604D02*
X189500000Y-119743604D01*
X189500000Y-94000000D02*
X189000000Y-93500000D01*
X189500000Y-119743604D02*
X189500000Y-94000000D01*
X187250000Y-137848396D02*
X185478000Y-136076396D01*
X146000000Y-73000000D02*
X146000000Y-74500000D01*
%TO.N,/Control/USB_P*%
X187750000Y-137712000D02*
X185928000Y-135890000D01*
X175425000Y-196539645D02*
X177464645Y-194500000D01*
X189955000Y-119925000D02*
X189955000Y-92949695D01*
X185928000Y-135890000D02*
X185928000Y-123952000D01*
X177464645Y-194500000D02*
X184000000Y-194500000D01*
X184000000Y-194500000D02*
X186250000Y-192250000D01*
X185928000Y-123952000D02*
X189955000Y-119925000D01*
X187750000Y-191686396D02*
X187750000Y-137712000D01*
X186250000Y-192250000D02*
X187186396Y-192250000D01*
X189950000Y-92651052D02*
X189994685Y-92606367D01*
X189955000Y-92949695D02*
X189950000Y-92944695D01*
X146849886Y-73000000D02*
X146849886Y-74099886D01*
X175425000Y-197600000D02*
X175425000Y-196539645D01*
X189950000Y-92944695D02*
X189950000Y-92651052D01*
X187186396Y-192250000D02*
X187750000Y-191686396D01*
X146849886Y-74099886D02*
X147250000Y-74500000D01*
%TO.N,Net-(J3-Pin_3)*%
X184500000Y-212750000D02*
X182500000Y-214750000D01*
X182500000Y-214750000D02*
X181290000Y-214750000D01*
X184500000Y-212075000D02*
X184500000Y-212750000D01*
X181290000Y-214750000D02*
X178540000Y-217500000D01*
%TO.N,/Control/SW1OUT*%
X129000000Y-66175000D02*
X130700000Y-66175000D01*
X133824740Y-66824740D02*
X139024892Y-66824740D01*
X130750000Y-66225000D02*
X133225000Y-66225000D01*
X130700000Y-66175000D02*
X130750000Y-66225000D01*
X127325000Y-66250000D02*
X128925000Y-66250000D01*
X128925000Y-66250000D02*
X129000000Y-66175000D01*
X133225000Y-66225000D02*
X133824740Y-66824740D01*
%TO.N,Net-(J3-Pin_4)*%
X186000000Y-212075000D02*
X186000000Y-212580000D01*
X186000000Y-212580000D02*
X181080000Y-217500000D01*
%TO.N,/Control/SW2OUT*%
X127250000Y-74075000D02*
X127250000Y-74000000D01*
X127200000Y-74025000D02*
X127250000Y-74075000D01*
X125500000Y-74025000D02*
X127200000Y-74025000D01*
X125500000Y-75675000D02*
X125500000Y-74025000D01*
X139000013Y-67650000D02*
X139024892Y-67674879D01*
X127250000Y-74000000D02*
X133600000Y-67650000D01*
X133600000Y-67650000D02*
X139000013Y-67650000D01*
%TO.N,/Control/SW3OUT*%
X128700000Y-73700000D02*
X133875235Y-68524765D01*
X133875235Y-68524765D02*
X139024892Y-68524765D01*
X128700000Y-84300000D02*
X128700000Y-73700000D01*
X125500000Y-86675000D02*
X125500000Y-85025000D01*
X127250000Y-85075000D02*
X127925000Y-85075000D01*
X125500000Y-85025000D02*
X127200000Y-85025000D01*
X127200000Y-85025000D02*
X127250000Y-85075000D01*
X127925000Y-85075000D02*
X128700000Y-84300000D01*
%TO.N,Net-(R46-Pad1)*%
X144250000Y-160750000D02*
X144250000Y-158925000D01*
%TO.N,/Control/SPI_MISO*%
X134000000Y-85000000D02*
X134000000Y-89500000D01*
X133750000Y-84750000D02*
X134000000Y-85000000D01*
X134000000Y-89500000D02*
X130250000Y-93250000D01*
X154250000Y-83000000D02*
X154250000Y-84750000D01*
X153625108Y-70224790D02*
X156000000Y-72599682D01*
X109500000Y-93250000D02*
X104000000Y-98750000D01*
X152975108Y-70224790D02*
X153625108Y-70224790D01*
X100595064Y-96460000D02*
X101949962Y-97814898D01*
X96000000Y-96460000D02*
X100595064Y-96460000D01*
X130250000Y-93250000D02*
X109500000Y-93250000D01*
X156000000Y-81250000D02*
X154250000Y-83000000D01*
X104000000Y-98750000D02*
X102099060Y-98750000D01*
X156000000Y-72599682D02*
X156000000Y-81250000D01*
X102099060Y-98750000D02*
X101949962Y-98600902D01*
X101949962Y-97814898D02*
X101949962Y-98600902D01*
%TO.N,/Control/SPI_MOSI*%
X98399098Y-98600902D02*
X100050038Y-98600902D01*
X96000000Y-99000000D02*
X98000000Y-99000000D01*
X155000000Y-73299708D02*
X155000000Y-80250000D01*
X100125038Y-99461906D02*
X100050038Y-99386906D01*
X153625108Y-71924816D02*
X155000000Y-73299708D01*
X135400000Y-82200000D02*
X134550000Y-83050000D01*
X98000000Y-99000000D02*
X98399098Y-98600902D01*
X136200000Y-82200000D02*
X135400000Y-82200000D01*
X109750000Y-93750000D02*
X104038094Y-99461906D01*
X104038094Y-99461906D02*
X100125038Y-99461906D01*
X152975108Y-71924816D02*
X153625108Y-71924816D01*
X155000000Y-80250000D02*
X152000000Y-83250000D01*
X134550000Y-89950000D02*
X130750000Y-93750000D01*
X130750000Y-93750000D02*
X109750000Y-93750000D01*
X100050038Y-99386906D02*
X100050038Y-98600902D01*
X134550000Y-83050000D02*
X134550000Y-89950000D01*
%TO.N,/Control/SPI_CLK*%
X155500000Y-79250000D02*
X155500000Y-80775305D01*
X110000000Y-94250000D02*
X104250000Y-100000000D01*
X152975108Y-71074930D02*
X153625108Y-71074930D01*
X100163132Y-100000000D02*
X100050038Y-100113094D01*
X155500000Y-80775305D02*
X153250000Y-83025305D01*
X130886396Y-94250000D02*
X110000000Y-94250000D01*
X135800000Y-83400000D02*
X135400000Y-83400000D01*
X155500000Y-72949822D02*
X155500000Y-79250000D01*
X135400000Y-83400000D02*
X135000000Y-83800000D01*
X99409136Y-101540000D02*
X100050038Y-100899098D01*
X153625108Y-71074930D02*
X155500000Y-72949822D01*
X104250000Y-100000000D02*
X100163132Y-100000000D01*
X153250000Y-83025305D02*
X153250000Y-83250000D01*
X135000000Y-90136396D02*
X130886396Y-94250000D01*
X135000000Y-83800000D02*
X135000000Y-90136396D01*
X96000000Y-101540000D02*
X99409136Y-101540000D01*
X100050038Y-100113094D02*
X100050038Y-100899098D01*
%TO.N,/Control/SPI_CS*%
X101949962Y-101685102D02*
X101949962Y-100899098D01*
X150500000Y-76512653D02*
X151100076Y-75912577D01*
X135500000Y-90500000D02*
X131250000Y-94750000D01*
X135750000Y-85000000D02*
X135500000Y-85250000D01*
X152000000Y-79500000D02*
X150500000Y-78000000D01*
X96000000Y-104080000D02*
X96580000Y-103500000D01*
X96580000Y-103500000D02*
X100135064Y-103500000D01*
X100135064Y-103500000D02*
X101949962Y-101685102D01*
X150500000Y-78000000D02*
X150500000Y-76512653D01*
X131250000Y-94750000D02*
X110500000Y-94750000D01*
X110500000Y-94750000D02*
X104350902Y-100899098D01*
X151100076Y-75912577D02*
X151100076Y-73000000D01*
X104350902Y-100899098D02*
X101949962Y-100899098D01*
X135500000Y-85250000D02*
X135500000Y-90500000D01*
%TO.N,Net-(U1-IO39)*%
X157450000Y-64699873D02*
X153625108Y-68524765D01*
X172500000Y-57500000D02*
X165300127Y-64699873D01*
X182000000Y-55000000D02*
X179500000Y-57500000D01*
X153625108Y-68524765D02*
X152975108Y-68524765D01*
X165300127Y-64699873D02*
X157450000Y-64699873D01*
X179500000Y-57500000D02*
X172500000Y-57500000D01*
%TO.N,Net-(U1-IO40)*%
X172363604Y-57000000D02*
X176000000Y-57000000D01*
X165113731Y-64249873D02*
X172363604Y-57000000D01*
X153625108Y-67674879D02*
X157050114Y-64249873D01*
X157050114Y-64249873D02*
X165113731Y-64249873D01*
X176000000Y-57000000D02*
X178000000Y-55000000D01*
X152975108Y-67674879D02*
X153625108Y-67674879D01*
%TO.N,Net-(U1-IO42)*%
X170000000Y-58000000D02*
X170000000Y-55000000D01*
X152975108Y-65974854D02*
X153625108Y-65974854D01*
X156250089Y-63349873D02*
X164650127Y-63349873D01*
X164650127Y-63349873D02*
X170000000Y-58000000D01*
X153625108Y-65974854D02*
X156250089Y-63349873D01*
%TO.N,Net-(U1-IO41)*%
X153625108Y-66824740D02*
X156649975Y-63799873D01*
X164927335Y-63799873D02*
X173727208Y-55000000D01*
X156649975Y-63799873D02*
X164927335Y-63799873D01*
X152975108Y-66824740D02*
X153625108Y-66824740D01*
X173727208Y-55000000D02*
X174000000Y-55000000D01*
%TO.N,/Control/UART_TX*%
X190250000Y-192474695D02*
X192364999Y-194589694D01*
X96830000Y-94750000D02*
X102000000Y-94750000D01*
X191014452Y-63500000D02*
X191017311Y-63500000D01*
X192364999Y-194589694D02*
X192364999Y-197477584D01*
X193000000Y-121000000D02*
X188250000Y-125750000D01*
X191017311Y-63500000D02*
X193000000Y-65482689D01*
X96000000Y-93920000D02*
X96830000Y-94750000D01*
X188250000Y-125750000D02*
X188250000Y-134500000D01*
X105350902Y-92899098D02*
X102699962Y-92899098D01*
X193000000Y-65482689D02*
X193000000Y-121000000D01*
X153450395Y-65124968D02*
X154776915Y-63798448D01*
X190250000Y-136500000D02*
X190250000Y-192474695D01*
X106000000Y-92250000D02*
X105350902Y-92899098D01*
X102699962Y-94050038D02*
X102699962Y-92899098D01*
X152975108Y-65124968D02*
X153450395Y-65124968D01*
X188250000Y-134500000D02*
X190250000Y-136500000D01*
X102000000Y-94750000D02*
X102699962Y-94050038D01*
X151625032Y-65124968D02*
X151500000Y-65250000D01*
X152975108Y-65124968D02*
X151625032Y-65124968D01*
%TO.N,/Control/UART_RX*%
X100963132Y-91950000D02*
X100800038Y-92113094D01*
X193750000Y-64750000D02*
X193750000Y-121500000D01*
X153225171Y-64274829D02*
X152975108Y-64274829D01*
X104562299Y-92012299D02*
X104500000Y-91950000D01*
X152975108Y-64274829D02*
X151524829Y-64274829D01*
X104762299Y-92012299D02*
X104562299Y-92012299D01*
X193750000Y-121500000D02*
X189000000Y-126250000D01*
X104500000Y-91950000D02*
X100963132Y-91950000D01*
X96000000Y-91380000D02*
X97519098Y-92899098D01*
X100800038Y-92113094D02*
X100800038Y-92899098D01*
X191000000Y-136250000D02*
X191000000Y-192588299D01*
X189000000Y-126250000D02*
X189000000Y-134250000D01*
X97519098Y-92899098D02*
X100800038Y-92899098D01*
X189000000Y-134250000D02*
X191000000Y-136250000D01*
X193635001Y-195223300D02*
X193635001Y-197477584D01*
X154750000Y-62750000D02*
X153225171Y-64274829D01*
X151524829Y-64274829D02*
X151500000Y-64250000D01*
X191000000Y-192588299D02*
X193635001Y-195223300D01*
%TO.N,Net-(U1-EN)*%
X151000000Y-61250000D02*
X152225108Y-60024892D01*
X118944824Y-58750000D02*
X119684912Y-58009912D01*
X118275000Y-58750000D02*
X118944824Y-58750000D01*
X123750000Y-57250000D02*
X122250000Y-55750000D01*
X122250000Y-55750000D02*
X119684912Y-55750000D01*
X119684912Y-55750000D02*
X119684912Y-58009912D01*
X152225108Y-60024892D02*
X152975108Y-60024892D01*
X119684912Y-58009912D02*
X120425000Y-58750000D01*
%TO.N,Net-(U2-PDEN)*%
X172707000Y-210058000D02*
X172707000Y-209791000D01*
X172707000Y-209791000D02*
X171704000Y-208788000D01*
X171615000Y-206900000D02*
X172885000Y-206900000D01*
X170345000Y-206900000D02*
X171615000Y-206900000D01*
X171704000Y-206989000D02*
X171615000Y-206900000D01*
X171704000Y-208788000D02*
X171704000Y-206989000D01*
%TO.N,Net-(U2-UD-)*%
X161250000Y-205000000D02*
X162750000Y-205000000D01*
X161250000Y-206925000D02*
X162000000Y-207675000D01*
X173482000Y-208788000D02*
X174155000Y-208115000D01*
X161250000Y-205000000D02*
X161250000Y-206925000D01*
X162300038Y-203949962D02*
X161250000Y-205000000D01*
X162300038Y-203850902D02*
X162300038Y-203949962D01*
X174155000Y-208115000D02*
X174155000Y-206900000D01*
%TO.N,Net-(U2-UD+)*%
X164199962Y-203850902D02*
X165250000Y-204900940D01*
X165250000Y-205994000D02*
X165250000Y-206925000D01*
X165250000Y-204900940D02*
X165250000Y-205994000D01*
X166116000Y-205994000D02*
X165250000Y-205994000D01*
X175425000Y-208191000D02*
X175425000Y-206900000D01*
X176022000Y-208788000D02*
X175425000Y-208191000D01*
X165250000Y-206925000D02*
X164500000Y-207675000D01*
%TO.N,Net-(U3-CC2)*%
X164750191Y-213624968D02*
X164750191Y-211424809D01*
X164750191Y-211424809D02*
X165175000Y-211000000D01*
%TO.N,Net-(U3-DN1)*%
X163250064Y-214447936D02*
X163250064Y-213624968D01*
X162578400Y-214750000D02*
X162948000Y-214750000D01*
X162948000Y-214750000D02*
X163250064Y-214447936D01*
X162250064Y-209325064D02*
X162250000Y-209325000D01*
X162250064Y-214421664D02*
X162578400Y-214750000D01*
X162250064Y-209575064D02*
X162000000Y-209325000D01*
X162250064Y-213624968D02*
X162250064Y-209575064D01*
X162250064Y-213624968D02*
X162250064Y-214421664D01*
%TO.N,Net-(U3-DP1)*%
X162749936Y-213624968D02*
X162749936Y-212775096D01*
X163749936Y-212774840D02*
X163749936Y-213624968D01*
X162749936Y-212775096D02*
X163025032Y-212500000D01*
X163475096Y-210349904D02*
X163475096Y-212500000D01*
X163025032Y-212500000D02*
X163475096Y-212500000D01*
X164500000Y-209325000D02*
X163475096Y-210349904D01*
X163475096Y-212500000D02*
X163749936Y-212774840D01*
%TO.N,Net-(U3-CC1)*%
X161750191Y-213624968D02*
X161750191Y-211425191D01*
X161750191Y-211425191D02*
X161325000Y-211000000D01*
%TO.N,Net-(U8-AIN1{slash}GPIO1)*%
X126575000Y-155750000D02*
X126575000Y-154050000D01*
X128175000Y-154000000D02*
X130175000Y-156000000D01*
X126525000Y-154000000D02*
X128175000Y-154000000D01*
X126575000Y-154050000D02*
X126525000Y-154000000D01*
X130175000Y-156000000D02*
X130750064Y-156000000D01*
%TO.N,VS*%
X152950902Y-101549962D02*
X152950902Y-102350902D01*
X157200000Y-101000000D02*
X156800000Y-100600000D01*
X156800000Y-100600000D02*
X155249098Y-100600000D01*
X157200000Y-102000000D02*
X157200000Y-101000000D01*
X156600000Y-102600000D02*
X157200000Y-102000000D01*
X152950902Y-102350902D02*
X153200000Y-102600000D01*
X153200000Y-102600000D02*
X156600000Y-102600000D01*
%TO.N,Net-(U5-VFB)*%
X152600000Y-94775000D02*
X152600000Y-93900000D01*
X154300000Y-94800000D02*
X152625000Y-94800000D01*
X152600000Y-93900000D02*
X152300000Y-93600000D01*
X152300000Y-93600000D02*
X151125000Y-93600000D01*
X156250038Y-101549962D02*
X156400000Y-101400000D01*
X152625000Y-94800000D02*
X152600000Y-94775000D01*
X155249098Y-101549962D02*
X156250038Y-101549962D01*
%TO.N,Net-(U5-VBST)*%
X155249098Y-99650038D02*
X156449962Y-99650038D01*
X156449962Y-99650038D02*
X156900000Y-99200000D01*
X156900000Y-99200000D02*
X156900000Y-97900000D01*
%TO.N,Net-(U8-AIN0{slash}GPIO0)*%
X131300000Y-152200000D02*
X131250000Y-152250000D01*
X129650000Y-152250000D02*
X131250000Y-152250000D01*
X131249936Y-152250064D02*
X131249936Y-156000000D01*
X131250000Y-152250000D02*
X131249936Y-152250064D01*
X131300000Y-150250000D02*
X131300000Y-152200000D01*
%TO.N,I2C_SDA*%
X100825000Y-86250000D02*
X101750000Y-86250000D01*
X140550000Y-84592462D02*
X140550000Y-81550000D01*
X137250000Y-84750000D02*
X137500000Y-85000000D01*
X133000000Y-75575000D02*
X133000000Y-77175000D01*
X139500000Y-78136396D02*
X136013604Y-74650000D01*
X102699962Y-87199962D02*
X102699962Y-90600902D01*
X133750000Y-141500000D02*
X135000000Y-140250000D01*
X136013604Y-74650000D02*
X133925000Y-74650000D01*
X133075000Y-77250000D02*
X133075000Y-81175000D01*
X135000000Y-140250000D02*
X135000000Y-135500000D01*
X137500000Y-85000000D02*
X140142462Y-85000000D01*
X140550000Y-81550000D02*
X139500000Y-80500000D01*
X131750064Y-155309867D02*
X133750000Y-153309931D01*
X131750064Y-156000000D02*
X131750064Y-155309867D01*
X127000000Y-87250000D02*
X127000000Y-88750000D01*
X135000000Y-135500000D02*
X130750000Y-131250000D01*
X101750000Y-86250000D02*
X102699962Y-87199962D01*
X133075000Y-81175000D02*
X127000000Y-87250000D01*
X140142462Y-85000000D02*
X140550000Y-84592462D01*
X133750000Y-153309931D02*
X133750000Y-141500000D01*
X133925000Y-74650000D02*
X133000000Y-75575000D01*
X139500000Y-80500000D02*
X139500000Y-78136396D01*
X125149098Y-90600902D02*
X102699962Y-90600902D01*
X130750000Y-131250000D02*
X130750000Y-116000000D01*
X127000000Y-88750000D02*
X125149098Y-90600902D01*
X133000000Y-77175000D02*
X133075000Y-77250000D01*
X137250000Y-84175000D02*
X137250000Y-84750000D01*
%TO.N,I2C_SCL*%
X125250000Y-91250000D02*
X109250000Y-91250000D01*
X122674598Y-91250000D02*
X122750000Y-91325402D01*
X100913132Y-91500000D02*
X100800038Y-91386906D01*
X138750000Y-80750000D02*
X139750000Y-81750000D01*
X134750000Y-75575000D02*
X134750000Y-77175000D01*
X138750000Y-78457538D02*
X138750000Y-80750000D01*
X134500000Y-153499968D02*
X132249936Y-155750032D01*
X133525000Y-78400000D02*
X133525000Y-81475000D01*
X127500000Y-87500000D02*
X127500000Y-89000000D01*
X127500000Y-89000000D02*
X125250000Y-91250000D01*
X134750000Y-75575000D02*
X135867462Y-75575000D01*
X104000000Y-91250000D02*
X103750000Y-91500000D01*
X139750000Y-81750000D02*
X139750000Y-84175000D01*
X103750000Y-91500000D02*
X100913132Y-91500000D01*
X109250000Y-91250000D02*
X104000000Y-91250000D01*
X100800038Y-90600902D02*
X100800038Y-88774962D01*
X133525000Y-81475000D02*
X127500000Y-87500000D01*
X100800038Y-88774962D02*
X100825000Y-88750000D01*
X109250000Y-91250000D02*
X122674598Y-91250000D01*
X134675000Y-77250000D02*
X133525000Y-78400000D01*
X135867462Y-75575000D02*
X138750000Y-78457538D01*
X132249936Y-155750032D02*
X132249936Y-156000000D01*
X136000000Y-135250000D02*
X136000000Y-140500000D01*
X131750000Y-131000000D02*
X136000000Y-135250000D01*
X136000000Y-140500000D02*
X134500000Y-142000000D01*
X134500000Y-142000000D02*
X134500000Y-153499968D01*
X100800038Y-91386906D02*
X100800038Y-90600902D01*
X131750000Y-115000000D02*
X131750000Y-131000000D01*
%TO.N,Net-(U8-ADDR)*%
X135000000Y-156500000D02*
X134675000Y-156500000D01*
X136750000Y-158250000D02*
X135000000Y-156500000D01*
X136750000Y-159750000D02*
X136750000Y-158250000D01*
X133825000Y-162250000D02*
X134250000Y-162250000D01*
X134675000Y-156500000D02*
X133925064Y-157249936D01*
X134250000Y-162250000D02*
X136750000Y-159750000D01*
X133925064Y-157249936D02*
X133000000Y-157249936D01*
%TO.N,Net-(U8-DECAP)*%
X129750000Y-162025000D02*
X130475000Y-162750000D01*
X132249936Y-159000000D02*
X132249936Y-162175064D01*
X130475000Y-162750000D02*
X131675000Y-162750000D01*
X132249936Y-162175064D02*
X132175000Y-162250000D01*
X131675000Y-162750000D02*
X132175000Y-162250000D01*
%TO.N,Net-(U1-IO8)*%
X133000000Y-70750000D02*
X133000000Y-73925000D01*
X139024892Y-69374905D02*
X134375095Y-69374905D01*
X134375095Y-69374905D02*
X133000000Y-70750000D01*
%TO.N,/Power/CURRENT_AC*%
X128075000Y-160950000D02*
X128025000Y-161000000D01*
X129325064Y-158249936D02*
X130000000Y-158249936D01*
X128075000Y-159500000D02*
X128075000Y-160950000D01*
X128000000Y-162462500D02*
X128000000Y-161025000D01*
X128075000Y-159500000D02*
X129325064Y-158249936D01*
X128000000Y-161025000D02*
X128025000Y-161000000D01*
D79*
%TO.N,Net-(U13-VS(U))*%
X147675000Y-145900000D02*
X148100203Y-145474797D01*
X147675000Y-147500000D02*
X147675000Y-145900000D01*
X148100203Y-145474797D02*
X148100203Y-140700025D01*
%TO.N,Net-(U13-VB(U))*%
X146125000Y-145900000D02*
X146125000Y-143725076D01*
X146125000Y-143725076D02*
X146099949Y-143700025D01*
X146125000Y-147500000D02*
X146125000Y-145900000D01*
%TO.N,Net-(U13-VS(V))*%
X142724949Y-140724822D02*
X142700152Y-140700025D01*
X142475000Y-145900000D02*
X142724949Y-145650051D01*
X142475000Y-147500000D02*
X142475000Y-145900000D01*
X142724949Y-145650051D02*
X142724949Y-140724822D01*
%TO.N,Net-(U13-VB(V))*%
X140925000Y-143874974D02*
X141099949Y-143700025D01*
X140925000Y-145900000D02*
X140925000Y-143874974D01*
X140925000Y-147500000D02*
X140925000Y-145900000D01*
%TO.N,Net-(U13-VS(W))*%
X137724949Y-145850051D02*
X137724949Y-140725076D01*
X137675000Y-145900000D02*
X137724949Y-145850051D01*
X137724949Y-140725076D02*
X137699898Y-140700025D01*
X137675000Y-147500000D02*
X137675000Y-145900000D01*
%TO.N,Net-(U13-VB(W))*%
X136125000Y-145900000D02*
X136125000Y-143725076D01*
X136125000Y-147500000D02*
X136125000Y-145900000D01*
X136125000Y-143725076D02*
X136099949Y-143700025D01*
D78*
%TO.N,Net-(U13-HIN(U))*%
X133250000Y-138825000D02*
X133250000Y-140149923D01*
X133250000Y-140149923D02*
X132699898Y-140700025D01*
X132750000Y-145975000D02*
X132699898Y-145924898D01*
X132699898Y-145924898D02*
X132699898Y-140700025D01*
%TO.N,Net-(U13-HIN(V))*%
X131099949Y-143700025D02*
X131099949Y-139225051D01*
X131250000Y-143850076D02*
X131099949Y-143700025D01*
X131099949Y-139225051D02*
X131500000Y-138825000D01*
X131250000Y-145975000D02*
X131250000Y-143850076D01*
%TO.N,Net-(U13-HIN(W))*%
X129500000Y-146000000D02*
X129500000Y-140700025D01*
X129750000Y-140450025D02*
X129500000Y-140700025D01*
X129750000Y-138825000D02*
X129750000Y-140450025D01*
%TO.N,Net-(U13-LIN(U))*%
X127900051Y-138924949D02*
X128000000Y-138825000D01*
X127750000Y-143850076D02*
X127900051Y-143700025D01*
X127750000Y-145975000D02*
X127750000Y-143850076D01*
X127900051Y-143700025D02*
X127900051Y-138924949D01*
%TO.N,Net-(U13-LIN(V))*%
X126000000Y-145975000D02*
X126300102Y-145674898D01*
X126300102Y-145674898D02*
X126300102Y-140700025D01*
X126300102Y-140700025D02*
X126300102Y-138875102D01*
X126300102Y-138875102D02*
X126250000Y-138825000D01*
%TO.N,Net-(U13-LIN(W))*%
X124250000Y-144149923D02*
X124699898Y-143700025D01*
X124250000Y-145975000D02*
X124250000Y-144149923D01*
X124500000Y-138825000D02*
X124699898Y-139024898D01*
X124699898Y-139024898D02*
X124699898Y-143700025D01*
%TO.N,Net-(U1-IO9)*%
X135525210Y-70224790D02*
X134750000Y-71000000D01*
X134750000Y-71000000D02*
X134750000Y-73925000D01*
X139024892Y-70224790D02*
X135525210Y-70224790D01*
%TO.N,Net-(J5-Pin_1)*%
X137110000Y-85965000D02*
X137250000Y-85825000D01*
X137110000Y-88600000D02*
X137110000Y-85965000D01*
%TO.N,Net-(J5-Pin_2)*%
X139650000Y-85925000D02*
X139750000Y-85825000D01*
X139650000Y-88600000D02*
X139650000Y-85925000D01*
D79*
%TO.N,/Power/AC_N*%
X153982500Y-111482500D02*
X153800000Y-111482500D01*
D78*
%TO.N,Net-(J5-Pin_3)*%
X142190000Y-85885000D02*
X142250000Y-85825000D01*
X142190000Y-88600000D02*
X142190000Y-85885000D01*
%TO.N,Net-(J5-Pin_4)*%
X144730000Y-88600000D02*
X144730000Y-85845000D01*
X144730000Y-85845000D02*
X144750000Y-85825000D01*
%TO.N,Net-(J5-Pin_5)*%
X147270000Y-88600000D02*
X147270000Y-85845000D01*
X147270000Y-85845000D02*
X147250000Y-85825000D01*
%TO.N,VFO*%
X137524829Y-64274829D02*
X137500000Y-64250000D01*
X124600000Y-107000000D02*
X124600000Y-135225000D01*
X139024892Y-64274829D02*
X137524829Y-64274829D01*
X121500000Y-143700025D02*
X121500000Y-138675000D01*
X121500000Y-138675000D02*
X121325000Y-138500000D01*
X124600000Y-135225000D02*
X121325000Y-138500000D01*
%TO.N,ITRIP*%
X129600000Y-100600000D02*
X128400000Y-100600000D01*
X128400000Y-100600000D02*
X122800000Y-106200000D01*
X150249936Y-75250064D02*
X150249936Y-73000000D01*
X122800000Y-134200000D02*
X120075000Y-136925000D01*
X122800000Y-106200000D02*
X122800000Y-134200000D01*
X120075000Y-136925000D02*
X118000000Y-136925000D01*
X148250000Y-77250000D02*
X150249936Y-75250064D01*
%TO.N,Net-(J7-Pin_10)*%
X96000000Y-88840000D02*
X99085000Y-88840000D01*
X99085000Y-88840000D02*
X99175000Y-88750000D01*
%TO.N,Net-(J7-Pin_11)*%
X99125000Y-86300000D02*
X99175000Y-86250000D01*
X96000000Y-86300000D02*
X99125000Y-86300000D01*
%TO.N,Net-(J5-Pin_6)*%
X149810000Y-88600000D02*
X149810000Y-85885000D01*
X149810000Y-85885000D02*
X149750000Y-85825000D01*
%TO.N,Net-(Q2-D)*%
X99250000Y-111175000D02*
X100884817Y-111175000D01*
X100884817Y-111175000D02*
X101009779Y-111050038D01*
X100750000Y-110790259D02*
X101009779Y-111050038D01*
X100750000Y-108750000D02*
X100750000Y-110790259D01*
%TO.N,Net-(R53-Pad2)*%
X142250000Y-84175000D02*
X142250000Y-79750000D01*
%TO.N,Net-(R54-Pad2)*%
X144750000Y-84175000D02*
X144750000Y-82000000D01*
%TO.N,Net-(R55-Pad2)*%
X147250000Y-84175000D02*
X147250000Y-79750000D01*
%TO.N,Net-(R56-Pad2)*%
X149750000Y-84175000D02*
X149750000Y-82000000D01*
%TO.N,+5VD*%
X167627000Y-209791000D02*
X168402000Y-210566000D01*
X163250000Y-203850902D02*
X163250000Y-203539237D01*
X163250000Y-203539237D02*
X162700660Y-202989897D01*
D80*
X169500000Y-215275000D02*
X169500000Y-216500000D01*
X160600076Y-213624968D02*
X160600076Y-212350076D01*
D78*
X167627000Y-209042000D02*
X167627000Y-209791000D01*
D80*
X160600076Y-212350076D02*
X160500000Y-212250000D01*
X169500000Y-216500000D02*
X169250000Y-216750000D01*
D78*
X167805000Y-206900000D02*
X167805000Y-208864000D01*
X167805000Y-208864000D02*
X167627000Y-209042000D01*
D80*
X165400178Y-212349822D02*
X165400178Y-213624968D01*
X165500000Y-212250000D02*
X165400178Y-212349822D01*
D78*
X162700660Y-202989897D02*
X161899416Y-202989897D01*
X161899416Y-202989897D02*
X159000000Y-205889313D01*
X159000000Y-205889313D02*
X159000000Y-206000000D01*
%TO.N,GNDD*%
X166200025Y-213624968D02*
X166825000Y-212999993D01*
X169164000Y-209804000D02*
X169164000Y-209055000D01*
X169075000Y-206900000D02*
X169075000Y-208940000D01*
X159799975Y-213624968D02*
X159675000Y-213499993D01*
X166775083Y-213624968D02*
X167324994Y-214174879D01*
X169500000Y-213725000D02*
X167774873Y-213725000D01*
X166200025Y-213624968D02*
X166775083Y-213624968D01*
X169164000Y-209055000D02*
X169177000Y-209042000D01*
X174257000Y-210058000D02*
X176022000Y-210058000D01*
X159675000Y-213499993D02*
X159675000Y-211000000D01*
X176747000Y-206952000D02*
X176695000Y-206900000D01*
X159224917Y-213624968D02*
X158675006Y-214174879D01*
X176022000Y-210058000D02*
X176276000Y-209804000D01*
X159799975Y-213624968D02*
X159224917Y-213624968D01*
X169075000Y-208940000D02*
X169177000Y-209042000D01*
X176276000Y-209804000D02*
X176747000Y-209333000D01*
X163250000Y-206149098D02*
X163250000Y-208500000D01*
X176747000Y-209333000D02*
X176747000Y-206952000D01*
X167774873Y-213725000D02*
X167324994Y-214174879D01*
X169926000Y-210566000D02*
X169164000Y-209804000D01*
X166825000Y-212999993D02*
X166825000Y-211000000D01*
%TO.N,/Control/ISO_GPIO_1*%
X184385001Y-196614999D02*
X184385001Y-197477584D01*
X187500000Y-135000000D02*
X189500000Y-137000000D01*
X187500000Y-125000000D02*
X187500000Y-135000000D01*
X192000000Y-120500000D02*
X187500000Y-125000000D01*
X188000000Y-193750000D02*
X187250000Y-193750000D01*
X192000000Y-65456562D02*
X192000000Y-120500000D01*
X191974284Y-65482278D02*
X192000000Y-65456562D01*
X189500000Y-192250000D02*
X188000000Y-193750000D01*
X187250000Y-193750000D02*
X184385001Y-196614999D01*
X147700025Y-72049975D02*
X147700025Y-73000000D01*
X151750000Y-68000000D02*
X147700025Y-72049975D01*
X189500000Y-137000000D02*
X189500000Y-192250000D01*
%TO.N,/Control/ISO_GPIO_2*%
X169500000Y-61500000D02*
X187250000Y-61500000D01*
X183114999Y-196635001D02*
X183114999Y-197477584D01*
X186750000Y-135442000D02*
X188750000Y-137442000D01*
X187750000Y-193000000D02*
X186750000Y-193000000D01*
X152975108Y-69374905D02*
X153625095Y-69374905D01*
X188750000Y-137442000D02*
X188750000Y-192000000D01*
X191250000Y-120000000D02*
X186750000Y-124500000D01*
X186750000Y-193000000D02*
X183114999Y-196635001D01*
X191250000Y-65500000D02*
X191250000Y-120000000D01*
X187250000Y-61500000D02*
X191250000Y-65500000D01*
X186750000Y-124500000D02*
X186750000Y-135442000D01*
X157500000Y-65500000D02*
X165500000Y-65500000D01*
X153625095Y-69374905D02*
X157500000Y-65500000D01*
X188750000Y-192000000D02*
X187750000Y-193000000D01*
X165500000Y-65500000D02*
X169500000Y-61500000D01*
%TO.N,VSS*%
X187500000Y-204500000D02*
X187250000Y-204500000D01*
X188250000Y-205250000D02*
X187500000Y-204500000D01*
X194905004Y-204880004D02*
X195000000Y-204975000D01*
X187452584Y-203022416D02*
X187475000Y-203000000D01*
X187250000Y-203225000D02*
X187475000Y-203000000D01*
X187250000Y-204500000D02*
X187250000Y-203225000D01*
X187350902Y-206750000D02*
X188136906Y-206750000D01*
X192987701Y-206987299D02*
X195000000Y-204975000D01*
X188136906Y-206750000D02*
X188250000Y-206636906D01*
X192987701Y-206987701D02*
X192987701Y-206987299D01*
X188250000Y-206636906D02*
X188250000Y-205250000D01*
X185655004Y-203022416D02*
X187452584Y-203022416D01*
X194905004Y-203022416D02*
X194905004Y-204880004D01*
%TO.N,Net-(U15-VIA)*%
X185444767Y-205305233D02*
X185757430Y-204992570D01*
X187350902Y-205800038D02*
X186564898Y-205800038D01*
X181500000Y-209500000D02*
X182000000Y-209000000D01*
X186564898Y-205800038D02*
X185757430Y-204992570D01*
X185757430Y-204992570D02*
X184385001Y-203620141D01*
X184385001Y-203620141D02*
X184385001Y-203022416D01*
X181500000Y-210425000D02*
X181500000Y-209500000D01*
X185444767Y-205555233D02*
X185444767Y-205305233D01*
%TO.N,Net-(U15-VOB)*%
X183000000Y-210425000D02*
X185725038Y-207699962D01*
X185725038Y-207699962D02*
X186564898Y-207699962D01*
X187350902Y-207699962D02*
X186564898Y-207699962D01*
X183114999Y-204250063D02*
X183114999Y-203022416D01*
X186564898Y-207699962D02*
X183114999Y-204250063D01*
%TO.N,GNDS*%
X193000000Y-208000000D02*
X194475000Y-206525000D01*
X188788094Y-203236906D02*
X188788094Y-204500000D01*
X188863094Y-206750000D02*
X189649098Y-206750000D01*
X191072580Y-203000000D02*
X191094996Y-203022416D01*
X181844996Y-203022416D02*
X181844996Y-204344996D01*
X191094996Y-203022416D02*
X191094996Y-203155004D01*
X188788094Y-204500000D02*
X188788094Y-206675000D01*
X191094996Y-203155004D02*
X190000000Y-204250000D01*
X189750000Y-204500000D02*
X190000000Y-204250000D01*
X181844996Y-204344996D02*
X182500000Y-205000000D01*
X188788094Y-204500000D02*
X189750000Y-204500000D01*
X189025000Y-203000000D02*
X188788094Y-203236906D01*
X188788094Y-206675000D02*
X188863094Y-206750000D01*
X194475000Y-206525000D02*
X195000000Y-206525000D01*
D79*
%TO.N,+5V*%
X160000000Y-105000000D02*
X159150000Y-105000000D01*
X161750000Y-155000000D02*
X161750000Y-106750000D01*
X161750000Y-106750000D02*
X160000000Y-105000000D01*
D78*
%TO.N,Net-(U16-VIA)*%
X193635001Y-203022416D02*
X193635001Y-204864999D01*
X191000000Y-205750000D02*
X189699136Y-205750000D01*
X193635001Y-204864999D02*
X193500000Y-205000000D01*
X184500000Y-210250000D02*
X186000000Y-208750000D01*
X184500000Y-210425000D02*
X184500000Y-210250000D01*
X189699136Y-205750000D02*
X189649098Y-205800038D01*
%TO.N,Net-(U16-VOB)*%
X192364999Y-205770065D02*
X192364999Y-203022416D01*
X186750000Y-209250000D02*
X188099060Y-209250000D01*
X189649098Y-207699962D02*
X190435102Y-207699962D01*
X186000000Y-210425000D02*
X186000000Y-210000000D01*
X186000000Y-210000000D02*
X186750000Y-209250000D01*
X188099060Y-209250000D02*
X189649098Y-207699962D01*
X190435102Y-207699962D02*
X192364999Y-205770065D01*
D80*
%TO.N,Net-(U18-D)*%
X102990221Y-112000000D02*
X102990221Y-115027721D01*
X102990221Y-115027721D02*
X103000000Y-115037500D01*
D78*
%TO.N,Net-(R46-Pad2)*%
X144462500Y-153750000D02*
X144462500Y-155787500D01*
X144462500Y-155787500D02*
X144250000Y-156000000D01*
%TO.N,Net-(D9-K)*%
X135877000Y-187678000D02*
X135877000Y-185978000D01*
X139005000Y-182750000D02*
X135827000Y-185928000D01*
X135864500Y-189428000D02*
X135864500Y-187690500D01*
X126861927Y-157249936D02*
X130000000Y-157249936D01*
X135864500Y-187690500D02*
X135877000Y-187678000D01*
X153250000Y-182750000D02*
X139005000Y-182750000D01*
X135877000Y-185978000D02*
X135827000Y-185928000D01*
X126637299Y-157474564D02*
X126861927Y-157249936D01*
%TO.N,Net-(D10-K)*%
X128000000Y-203250000D02*
X126975000Y-202225000D01*
X130000000Y-157750064D02*
X128249936Y-157750064D01*
X126975000Y-202225000D02*
X124000000Y-202225000D01*
X122250000Y-202175000D02*
X123950000Y-202175000D01*
X128249936Y-157750064D02*
X128000000Y-158000000D01*
X123950000Y-202175000D02*
X124000000Y-202225000D01*
%TO.N,Net-(D11-K)*%
X139962500Y-156000000D02*
X139962500Y-157587500D01*
X139850000Y-159500000D02*
X139850000Y-161200000D01*
X125250000Y-162250000D02*
X125250000Y-157750000D01*
X125250000Y-157750000D02*
X126249936Y-156750064D01*
X139962500Y-157587500D02*
X139800000Y-157750000D01*
X139800000Y-159450000D02*
X139850000Y-159500000D01*
X137800000Y-163250000D02*
X126250000Y-163250000D01*
X139800000Y-157750000D02*
X139800000Y-159450000D01*
X139850000Y-161200000D02*
X137800000Y-163250000D01*
X126249936Y-156750064D02*
X130000000Y-156750064D01*
X126250000Y-163250000D02*
X125250000Y-162250000D01*
X139787500Y-159250000D02*
X139550000Y-159250000D01*
%TO.N,Net-(D8-A)*%
X131250000Y-165500000D02*
X129462500Y-165500000D01*
X152750000Y-172250000D02*
X152250000Y-171750000D01*
X129462500Y-165500000D02*
X128000000Y-164037500D01*
X152250000Y-171750000D02*
X149750000Y-171750000D01*
X149750000Y-171750000D02*
X149500000Y-172000000D01*
X149500000Y-172000000D02*
X149500000Y-174702502D01*
X149500000Y-174702502D02*
X149614999Y-174817501D01*
%TO.N,Net-(D9-A)*%
X134700000Y-192115217D02*
X134700000Y-191000000D01*
X136367500Y-190500000D02*
X137439500Y-189428000D01*
X136032499Y-192520003D02*
X135104786Y-192520003D01*
X134700000Y-191000000D02*
X135200000Y-190500000D01*
X135200000Y-190500000D02*
X136367500Y-190500000D01*
X135104786Y-192520003D02*
X134700000Y-192115217D01*
%TO.N,Net-(D10-A)*%
X118567500Y-200500000D02*
X122212500Y-200500000D01*
X118432499Y-200364999D02*
X118567500Y-200500000D01*
%TO.N,Net-(D11-A)*%
X141537500Y-153750000D02*
X141537500Y-156000000D01*
X141537500Y-156000000D02*
X141537500Y-157637500D01*
X141537500Y-157637500D02*
X141500000Y-157675000D01*
%TD*%
%TA.AperFunction,Conductor*%
%TO.N,+3.3V*%
G36*
X150243039Y-92219685D02*
G01*
X150288794Y-92272489D01*
X150300000Y-92324000D01*
X150300000Y-92665003D01*
X150280315Y-92732042D01*
X150227511Y-92777797D01*
X150158353Y-92787741D01*
X150111850Y-92771120D01*
X149964395Y-92681980D01*
X149964396Y-92681980D01*
X149802105Y-92631409D01*
X149802106Y-92631409D01*
X149731572Y-92625000D01*
X149725000Y-92625000D01*
X149725000Y-94574999D01*
X149731581Y-94574999D01*
X149802102Y-94568591D01*
X149802107Y-94568590D01*
X149964398Y-94518018D01*
X150111849Y-94428880D01*
X150179404Y-94411043D01*
X150245878Y-94432560D01*
X150290166Y-94486600D01*
X150300000Y-94534996D01*
X150300000Y-95025333D01*
X150280315Y-95092372D01*
X150227511Y-95138127D01*
X150158353Y-95148071D01*
X150094797Y-95119046D01*
X150088319Y-95113014D01*
X150002732Y-95027427D01*
X150002728Y-95027424D01*
X149858492Y-94938457D01*
X149858481Y-94938452D01*
X149697606Y-94885144D01*
X149598322Y-94875000D01*
X149550000Y-94875000D01*
X149550000Y-95951000D01*
X149530315Y-96018039D01*
X149477511Y-96063794D01*
X149426000Y-96075000D01*
X146725001Y-96075000D01*
X146725001Y-96098322D01*
X146735144Y-96197607D01*
X146781333Y-96336996D01*
X146783735Y-96406824D01*
X146748003Y-96466866D01*
X146685483Y-96498059D01*
X146663627Y-96500000D01*
X145474000Y-96500000D01*
X145406961Y-96480315D01*
X145361206Y-96427511D01*
X145350000Y-96376000D01*
X145350000Y-95600000D01*
X140850000Y-95600000D01*
X140850000Y-96376000D01*
X140830315Y-96443039D01*
X140777511Y-96488794D01*
X140726000Y-96500000D01*
X138424000Y-96500000D01*
X138356961Y-96480315D01*
X138311206Y-96427511D01*
X138300000Y-96376000D01*
X138300000Y-95575000D01*
X146725000Y-95575000D01*
X147450000Y-95575000D01*
X147950000Y-95575000D01*
X149050000Y-95575000D01*
X149050000Y-94875000D01*
X149049999Y-94874999D01*
X149001693Y-94875000D01*
X149001675Y-94875001D01*
X148902392Y-94885144D01*
X148741518Y-94938452D01*
X148741507Y-94938457D01*
X148597271Y-95027424D01*
X148597265Y-95027428D01*
X148587678Y-95037016D01*
X148526354Y-95070499D01*
X148456662Y-95065512D01*
X148412322Y-95037016D01*
X148402734Y-95027428D01*
X148402728Y-95027424D01*
X148258492Y-94938457D01*
X148258481Y-94938452D01*
X148097606Y-94885144D01*
X147998322Y-94875000D01*
X147950000Y-94875000D01*
X147950000Y-95575000D01*
X147450000Y-95575000D01*
X147450000Y-94875000D01*
X147449999Y-94874999D01*
X147401693Y-94875000D01*
X147401675Y-94875001D01*
X147302392Y-94885144D01*
X147141518Y-94938452D01*
X147141507Y-94938457D01*
X146997271Y-95027424D01*
X146997267Y-95027427D01*
X146877427Y-95147267D01*
X146877424Y-95147271D01*
X146788457Y-95291507D01*
X146788452Y-95291518D01*
X146735144Y-95452393D01*
X146725000Y-95551677D01*
X146725000Y-95575000D01*
X138300000Y-95575000D01*
X138300000Y-95100000D01*
X140850000Y-95100000D01*
X142850000Y-95100000D01*
X142850000Y-93375000D01*
X143350000Y-93375000D01*
X143350000Y-95100000D01*
X145350000Y-95100000D01*
X145350000Y-93850000D01*
X148575001Y-93850000D01*
X148575001Y-93931582D01*
X148581408Y-94002102D01*
X148581409Y-94002107D01*
X148631981Y-94164396D01*
X148719927Y-94309877D01*
X148840122Y-94430072D01*
X148985604Y-94518019D01*
X148985603Y-94518019D01*
X149147894Y-94568590D01*
X149147893Y-94568590D01*
X149218408Y-94574998D01*
X149218426Y-94574999D01*
X149224999Y-94574998D01*
X149225000Y-94574998D01*
X149225000Y-93850000D01*
X148575001Y-93850000D01*
X145350000Y-93850000D01*
X145350000Y-93827172D01*
X145349999Y-93827155D01*
X145343598Y-93767627D01*
X145343596Y-93767620D01*
X145293354Y-93632913D01*
X145293350Y-93632906D01*
X145207190Y-93517812D01*
X145207187Y-93517809D01*
X145092093Y-93431649D01*
X145092086Y-93431645D01*
X144957379Y-93381403D01*
X144957372Y-93381401D01*
X144897844Y-93375000D01*
X143350000Y-93375000D01*
X142850000Y-93375000D01*
X141302155Y-93375000D01*
X141242627Y-93381401D01*
X141242620Y-93381403D01*
X141107913Y-93431645D01*
X141107906Y-93431649D01*
X140992812Y-93517809D01*
X140992809Y-93517812D01*
X140906649Y-93632906D01*
X140906645Y-93632913D01*
X140856403Y-93767620D01*
X140856401Y-93767627D01*
X140850000Y-93827155D01*
X140850000Y-95100000D01*
X138300000Y-95100000D01*
X138300000Y-93350000D01*
X148575000Y-93350000D01*
X149225000Y-93350000D01*
X149225000Y-92625000D01*
X149224999Y-92624999D01*
X149218436Y-92625000D01*
X149218417Y-92625001D01*
X149147897Y-92631408D01*
X149147892Y-92631409D01*
X148985603Y-92681981D01*
X148840122Y-92769927D01*
X148719927Y-92890122D01*
X148631980Y-93035604D01*
X148581409Y-93197893D01*
X148575000Y-93268427D01*
X148575000Y-93350000D01*
X138300000Y-93350000D01*
X138300000Y-92324000D01*
X138319685Y-92256961D01*
X138372489Y-92211206D01*
X138424000Y-92200000D01*
X150176000Y-92200000D01*
X150243039Y-92219685D01*
G37*
%TD.AperFunction*%
%TD*%
%TA.AperFunction,Conductor*%
%TO.N,Net-(U5-SW)*%
G36*
X146307539Y-99294685D02*
G01*
X146353294Y-99347489D01*
X146364500Y-99399000D01*
X146364500Y-101051008D01*
X146372167Y-101122316D01*
X146383375Y-101173832D01*
X146397799Y-101222249D01*
X146457647Y-101322210D01*
X146457650Y-101322214D01*
X146457652Y-101322217D01*
X146457655Y-101322220D01*
X146503405Y-101375019D01*
X146503410Y-101375024D01*
X146560135Y-101427419D01*
X146596026Y-101487366D01*
X146600000Y-101518508D01*
X146600000Y-101536949D01*
X146580315Y-101603988D01*
X146527511Y-101649743D01*
X146502389Y-101658108D01*
X146501183Y-101658371D01*
X146501175Y-101658373D01*
X146501171Y-101658374D01*
X146501164Y-101658375D01*
X146501168Y-101658375D01*
X146452750Y-101672799D01*
X146352789Y-101732647D01*
X146352779Y-101732655D01*
X146299980Y-101778405D01*
X146299974Y-101778410D01*
X146249517Y-101833038D01*
X146249516Y-101833039D01*
X146197777Y-101937433D01*
X146197775Y-101937439D01*
X146178092Y-102004470D01*
X146164500Y-102099002D01*
X146164500Y-102151000D01*
X146144815Y-102218039D01*
X146092011Y-102263794D01*
X146040500Y-102275000D01*
X141524000Y-102275000D01*
X141456961Y-102255315D01*
X141411206Y-102202511D01*
X141400000Y-102151000D01*
X141400000Y-99399000D01*
X141419685Y-99331961D01*
X141472489Y-99286206D01*
X141524000Y-99275000D01*
X146240500Y-99275000D01*
X146307539Y-99294685D01*
G37*
%TD.AperFunction*%
%TD*%
%TA.AperFunction,Conductor*%
%TO.N,GND*%
G36*
X148716444Y-96494685D02*
G01*
X148724331Y-96500197D01*
X148773605Y-96537563D01*
X148775184Y-96538760D01*
X148917241Y-96594780D01*
X149006508Y-96605500D01*
X149006514Y-96605500D01*
X149593486Y-96605500D01*
X149593492Y-96605500D01*
X149682759Y-96594780D01*
X149824816Y-96538760D01*
X149826395Y-96537563D01*
X149875669Y-96500197D01*
X149940981Y-96475373D01*
X149950595Y-96475000D01*
X154165031Y-96475000D01*
X154232070Y-96494685D01*
X154277825Y-96547489D01*
X154287769Y-96616647D01*
X154284607Y-96629581D01*
X154284857Y-96629638D01*
X154283307Y-96636423D01*
X154264878Y-96799996D01*
X154264878Y-96800003D01*
X154283307Y-96963574D01*
X154337676Y-97118953D01*
X154337677Y-97118955D01*
X154425258Y-97258341D01*
X154463681Y-97296764D01*
X154497166Y-97358087D01*
X154500000Y-97384445D01*
X154500000Y-99078370D01*
X154480315Y-99145409D01*
X154463681Y-99166051D01*
X154438187Y-99191544D01*
X154388930Y-99297175D01*
X154388929Y-99297176D01*
X154382593Y-99345311D01*
X154382593Y-99954764D01*
X154388929Y-100002899D01*
X154388930Y-100002900D01*
X154421438Y-100072614D01*
X154431930Y-100141692D01*
X154421438Y-100177424D01*
X154388930Y-100247137D01*
X154388929Y-100247138D01*
X154382593Y-100295273D01*
X154382593Y-100904726D01*
X154388929Y-100952861D01*
X154388930Y-100952862D01*
X154421438Y-101022575D01*
X154431930Y-101091652D01*
X154421438Y-101127384D01*
X154388931Y-101197096D01*
X154388929Y-101197100D01*
X154382593Y-101245235D01*
X154382593Y-101854686D01*
X154383268Y-101859813D01*
X154372503Y-101928849D01*
X154326124Y-101981105D01*
X154260329Y-102000000D01*
X153939671Y-102000000D01*
X153872632Y-101980315D01*
X153826877Y-101927511D01*
X153816732Y-101859813D01*
X153817407Y-101854686D01*
X153817407Y-101245235D01*
X153811070Y-101197101D01*
X153800764Y-101175000D01*
X153778560Y-101127384D01*
X153768069Y-101058310D01*
X153778559Y-101022579D01*
X153811070Y-100952861D01*
X153817407Y-100904726D01*
X153817407Y-100295274D01*
X153811070Y-100247139D01*
X153761813Y-100141507D01*
X153736318Y-100116012D01*
X153730672Y-100105672D01*
X153688194Y-100063194D01*
X153679398Y-100059092D01*
X153618385Y-100030641D01*
X153573767Y-100009835D01*
X153573766Y-100009834D01*
X153525632Y-100003498D01*
X153525631Y-100003498D01*
X153427848Y-100003498D01*
X153376338Y-99992292D01*
X153286356Y-99951199D01*
X153238833Y-99937245D01*
X153219322Y-99931516D01*
X153219310Y-99931513D01*
X153076902Y-99911039D01*
X152514991Y-99911039D01*
X152447952Y-99891354D01*
X152402197Y-99838550D01*
X152395411Y-99819850D01*
X152393739Y-99813757D01*
X152393738Y-99813755D01*
X152393737Y-99813754D01*
X152393736Y-99813748D01*
X152366068Y-99737496D01*
X152331793Y-99684164D01*
X152288284Y-99616462D01*
X152288275Y-99616451D01*
X152242531Y-99563659D01*
X152242527Y-99563656D01*
X152242525Y-99563653D01*
X152133791Y-99469433D01*
X152133789Y-99469432D01*
X152133788Y-99469431D01*
X152072487Y-99441435D01*
X152036975Y-99410662D01*
X152036319Y-99411319D01*
X152027139Y-99402139D01*
X152019684Y-99395679D01*
X152019270Y-99394270D01*
X152000000Y-99375000D01*
X151840578Y-99375000D01*
X151822932Y-99373738D01*
X151793456Y-99369500D01*
X151793455Y-99369500D01*
X151014412Y-99369500D01*
X150987981Y-99370885D01*
X150987972Y-99370885D01*
X150987970Y-99370886D01*
X150952055Y-99374660D01*
X150945571Y-99375000D01*
X150100000Y-99375000D01*
X150100000Y-99977377D01*
X150098738Y-99995023D01*
X150094500Y-100024498D01*
X150094500Y-101051000D01*
X150074815Y-101118039D01*
X150022011Y-101163794D01*
X149970500Y-101175000D01*
X146824000Y-101175000D01*
X146756961Y-101155315D01*
X146711206Y-101102511D01*
X146700000Y-101051000D01*
X146700000Y-96930944D01*
X146719685Y-96863905D01*
X146772489Y-96818150D01*
X146788745Y-96812061D01*
X146835266Y-96798268D01*
X146897786Y-96767075D01*
X146960241Y-96726703D01*
X147036311Y-96638443D01*
X147056819Y-96603981D01*
X147108016Y-96556441D01*
X147176792Y-96544125D01*
X147208862Y-96552041D01*
X147317241Y-96594780D01*
X147406508Y-96605500D01*
X147406514Y-96605500D01*
X147993486Y-96605500D01*
X147993492Y-96605500D01*
X148082759Y-96594780D01*
X148224816Y-96538760D01*
X148226395Y-96537563D01*
X148275669Y-96500197D01*
X148340981Y-96475373D01*
X148350595Y-96475000D01*
X148649405Y-96475000D01*
X148716444Y-96494685D01*
G37*
%TD.AperFunction*%
%TD*%
%TA.AperFunction,Conductor*%
%TO.N,Net-(U5-SW)*%
G36*
X151860494Y-99894685D02*
G01*
X151906249Y-99947489D01*
X151916745Y-99985747D01*
X151920806Y-100023524D01*
X151942765Y-100082401D01*
X151947749Y-100152092D01*
X151942765Y-100169065D01*
X151921301Y-100226614D01*
X151921298Y-100226625D01*
X151914897Y-100286153D01*
X151914897Y-100350000D01*
X152123821Y-100350000D01*
X152167154Y-100357818D01*
X152307414Y-100410131D01*
X152307413Y-100410131D01*
X152314341Y-100410875D01*
X152367024Y-100416540D01*
X153076903Y-100416539D01*
X153143941Y-100436223D01*
X153189696Y-100489027D01*
X153200902Y-100540539D01*
X153200902Y-100659460D01*
X153181217Y-100726499D01*
X153128413Y-100772254D01*
X153076902Y-100783460D01*
X152367026Y-100783460D01*
X152367020Y-100783461D01*
X152307413Y-100789868D01*
X152167154Y-100842182D01*
X152123821Y-100850000D01*
X151914897Y-100850000D01*
X151914897Y-100913846D01*
X151921298Y-100973374D01*
X151921300Y-100973384D01*
X151942765Y-101030934D01*
X151947749Y-101100625D01*
X151942765Y-101117598D01*
X151920806Y-101176474D01*
X151920805Y-101176476D01*
X151914398Y-101236076D01*
X151914397Y-101236095D01*
X151914397Y-101251000D01*
X151894712Y-101318039D01*
X151841908Y-101363794D01*
X151790397Y-101375000D01*
X150724000Y-101375000D01*
X150656961Y-101355315D01*
X150611206Y-101302511D01*
X150600000Y-101251000D01*
X150600000Y-100024500D01*
X150619685Y-99957461D01*
X150672489Y-99911706D01*
X150724000Y-99900500D01*
X150894644Y-99900500D01*
X150894646Y-99900500D01*
X151001865Y-99877709D01*
X151027646Y-99875000D01*
X151793455Y-99875000D01*
X151860494Y-99894685D01*
G37*
%TD.AperFunction*%
%TD*%
%TA.AperFunction,Conductor*%
%TO.N,Net-(U13-W)*%
G36*
X132943039Y-167019685D02*
G01*
X132988794Y-167072489D01*
X133000000Y-167124000D01*
X133000000Y-169946391D01*
X132980315Y-170013430D01*
X132946200Y-170048606D01*
X132795010Y-170152440D01*
X132794995Y-170152452D01*
X132742201Y-170198198D01*
X132671827Y-170267149D01*
X132671822Y-170267155D01*
X132566698Y-170413718D01*
X132566694Y-170413725D01*
X132518648Y-170528060D01*
X132496818Y-170580009D01*
X132477132Y-170647048D01*
X132469981Y-170674479D01*
X132464694Y-170694761D01*
X132444499Y-170873995D01*
X132444499Y-175387472D01*
X132424814Y-175454511D01*
X132411754Y-175471427D01*
X126928169Y-181431845D01*
X126909262Y-181454266D01*
X126905748Y-181458433D01*
X126882075Y-181489099D01*
X126816696Y-181588082D01*
X126816691Y-181588091D01*
X126746813Y-181754382D01*
X126736419Y-181789781D01*
X126727131Y-181821414D01*
X126720153Y-181848181D01*
X126714696Y-181869114D01*
X126714695Y-181869122D01*
X126694500Y-182048353D01*
X126694500Y-182477288D01*
X126674815Y-182544327D01*
X126661277Y-182561761D01*
X116250000Y-193750000D01*
X116250000Y-200626000D01*
X116230315Y-200693039D01*
X116177511Y-200738794D01*
X116126000Y-200750000D01*
X114407611Y-200750000D01*
X114340572Y-200730315D01*
X114198478Y-200638997D01*
X114000704Y-200559820D01*
X114000702Y-200559819D01*
X113791520Y-200519503D01*
X113791519Y-200519503D01*
X112396862Y-200519503D01*
X112237930Y-200534678D01*
X112237930Y-200534679D01*
X112237926Y-200534680D01*
X112033528Y-200594696D01*
X111844168Y-200692318D01*
X111804557Y-200723470D01*
X111739693Y-200749438D01*
X111727905Y-200750000D01*
X108374000Y-200750000D01*
X108306961Y-200730315D01*
X108261206Y-200677511D01*
X108250000Y-200626000D01*
X108250000Y-200519503D01*
X108249999Y-191317319D01*
X108269684Y-191250284D01*
X108286313Y-191229647D01*
X113974511Y-185541449D01*
X113977337Y-185538798D01*
X114032869Y-185489925D01*
X114058121Y-185458651D01*
X114099581Y-185407302D01*
X114099580Y-185407302D01*
X114168039Y-185326108D01*
X114171071Y-185320939D01*
X114181544Y-185305793D01*
X114185311Y-185301130D01*
X114237113Y-185208399D01*
X114290851Y-185116826D01*
X114292967Y-185111217D01*
X114300728Y-185094522D01*
X114303653Y-185089288D01*
X114339035Y-184989143D01*
X114376527Y-184889799D01*
X114377663Y-184883918D01*
X114382492Y-184866146D01*
X114384491Y-184860493D01*
X114402441Y-184755803D01*
X114422603Y-184651558D01*
X114422730Y-184645562D01*
X114424486Y-184627239D01*
X114425500Y-184621328D01*
X114425500Y-184515115D01*
X114427754Y-184408957D01*
X114426864Y-184403014D01*
X114425500Y-184384670D01*
X114425500Y-181103383D01*
X114445185Y-181036344D01*
X114459748Y-181017824D01*
X124213357Y-170788430D01*
X124273864Y-170753496D01*
X124303099Y-170750000D01*
X124797448Y-170750000D01*
X124864487Y-170769685D01*
X124867299Y-170771546D01*
X124892064Y-170788430D01*
X125002357Y-170863626D01*
X125245490Y-170980713D01*
X125503359Y-171060255D01*
X125503360Y-171060255D01*
X125503363Y-171060256D01*
X125770194Y-171100474D01*
X125770199Y-171100474D01*
X125770202Y-171100475D01*
X125770203Y-171100475D01*
X126040059Y-171100475D01*
X126040060Y-171100475D01*
X126040067Y-171100474D01*
X126306898Y-171060256D01*
X126306899Y-171060255D01*
X126306903Y-171060255D01*
X126564772Y-170980713D01*
X126807906Y-170863626D01*
X126942961Y-170771546D01*
X127009439Y-170750046D01*
X127012812Y-170750000D01*
X127750000Y-170750000D01*
X127750000Y-167124000D01*
X127769685Y-167056961D01*
X127822489Y-167011206D01*
X127874000Y-167000000D01*
X132876000Y-167000000D01*
X132943039Y-167019685D01*
G37*
%TD.AperFunction*%
%TD*%
%TA.AperFunction,Conductor*%
%TO.N,VS*%
G36*
X153448661Y-101271773D02*
G01*
X153479937Y-101334252D01*
X153481907Y-101356270D01*
X153481907Y-101882368D01*
X153482094Y-101882711D01*
X153484923Y-101907957D01*
X153484937Y-101909530D01*
X153484937Y-101909535D01*
X153495082Y-101977234D01*
X153495931Y-101980465D01*
X153500000Y-102011970D01*
X153499999Y-103799999D01*
X153500000Y-103800000D01*
X156500000Y-103800000D01*
X156576000Y-103800000D01*
X156643039Y-103819685D01*
X156688794Y-103872489D01*
X156700000Y-103924000D01*
X156700000Y-107276000D01*
X156680315Y-107343039D01*
X156627511Y-107388794D01*
X156576000Y-107400000D01*
X153490590Y-107400000D01*
X153449996Y-107422166D01*
X153423638Y-107425000D01*
X146576362Y-107425000D01*
X146509323Y-107405315D01*
X146502727Y-107400000D01*
X146500000Y-107400000D01*
X138624000Y-107400000D01*
X138556961Y-107380315D01*
X138511206Y-107327511D01*
X138500000Y-107276000D01*
X138500000Y-103924000D01*
X138519685Y-103856961D01*
X138572489Y-103811206D01*
X138624000Y-103800000D01*
X146499999Y-103800000D01*
X146500000Y-103800000D01*
X146500000Y-102099000D01*
X146519685Y-102031961D01*
X146572489Y-101986206D01*
X146624000Y-101975000D01*
X150600000Y-101975000D01*
X150612263Y-101962736D01*
X150619685Y-101937461D01*
X150672489Y-101891706D01*
X150724000Y-101880500D01*
X151790387Y-101880500D01*
X151790397Y-101880500D01*
X151838242Y-101875355D01*
X151844874Y-101875000D01*
X152000000Y-101875000D01*
X152036319Y-101838681D01*
X152037479Y-101839841D01*
X152056957Y-101820363D01*
X152172940Y-101745825D01*
X152225744Y-101700070D01*
X152319964Y-101591336D01*
X152379735Y-101460459D01*
X152399420Y-101393420D01*
X152399421Y-101393416D01*
X152399421Y-101393411D01*
X152400031Y-101390309D01*
X152401317Y-101390561D01*
X152428173Y-101331757D01*
X152486951Y-101293983D01*
X152521886Y-101288960D01*
X153076893Y-101288960D01*
X153076903Y-101288960D01*
X153184358Y-101277407D01*
X153235869Y-101266201D01*
X153318747Y-101238615D01*
X153388572Y-101236122D01*
X153448661Y-101271773D01*
G37*
%TD.AperFunction*%
%TD*%
%TA.AperFunction,Conductor*%
%TO.N,/Power/W*%
G36*
X112200387Y-201452917D02*
G01*
X112343483Y-201480497D01*
X113738133Y-201480497D01*
X113738140Y-201480497D01*
X113897072Y-201465321D01*
X113929193Y-201455888D01*
X113999061Y-201455887D01*
X114012151Y-201460542D01*
X114113630Y-201503185D01*
X114157729Y-201516134D01*
X114180669Y-201522870D01*
X114228363Y-201535303D01*
X114228368Y-201535303D01*
X114228370Y-201535304D01*
X114407606Y-201555499D01*
X114407607Y-201555500D01*
X116126000Y-201555500D01*
X116193039Y-201575185D01*
X116238794Y-201627989D01*
X116250000Y-201679500D01*
X116249999Y-204499999D01*
X116250000Y-204499999D01*
X116250000Y-204500000D01*
X124534195Y-205653495D01*
X124597878Y-205682237D01*
X124604774Y-205688629D01*
X124762166Y-205846021D01*
X124774799Y-205860811D01*
X124783431Y-205872692D01*
X124783432Y-205872693D01*
X124836507Y-205920482D01*
X124838862Y-205922717D01*
X124854866Y-205938721D01*
X124854876Y-205938730D01*
X124872469Y-205952977D01*
X124874937Y-205955085D01*
X124896260Y-205974283D01*
X124928008Y-206002870D01*
X124936137Y-206007563D01*
X124940719Y-206010209D01*
X124956752Y-206021228D01*
X124966184Y-206028865D01*
X124968160Y-206030465D01*
X125011494Y-206052545D01*
X125031791Y-206062887D01*
X125034637Y-206064432D01*
X125096492Y-206100144D01*
X125110451Y-206104679D01*
X125128428Y-206112126D01*
X125141500Y-206118787D01*
X125141502Y-206118787D01*
X125141503Y-206118788D01*
X125210500Y-206137276D01*
X125213585Y-206138189D01*
X125281518Y-206160262D01*
X125296116Y-206161795D01*
X125315240Y-206165340D01*
X125329422Y-206169141D01*
X125400783Y-206172880D01*
X125403930Y-206173127D01*
X125426496Y-206175500D01*
X125449134Y-206175500D01*
X125452377Y-206175584D01*
X125523703Y-206179323D01*
X125538200Y-206177026D01*
X125557598Y-206175500D01*
X125935225Y-206175500D01*
X126002264Y-206195185D01*
X126018761Y-206207861D01*
X126023435Y-206212122D01*
X126212595Y-206329245D01*
X126212596Y-206329245D01*
X126212599Y-206329247D01*
X126420060Y-206409618D01*
X126638757Y-206450500D01*
X126638759Y-206450500D01*
X126861241Y-206450500D01*
X126861243Y-206450500D01*
X127079940Y-206409618D01*
X127240478Y-206347424D01*
X127310100Y-206341562D01*
X127371064Y-206373522D01*
X127430303Y-206430290D01*
X127585040Y-206522981D01*
X127648622Y-206551949D01*
X127694083Y-206571003D01*
X127775297Y-206592095D01*
X127868656Y-206616342D01*
X127868666Y-206616344D01*
X135338038Y-207683396D01*
X135401618Y-207712363D01*
X135439446Y-207771107D01*
X135444500Y-207806149D01*
X135444500Y-212126008D01*
X135462909Y-212297226D01*
X135474116Y-212348739D01*
X135483864Y-212388629D01*
X135483865Y-212388632D01*
X135483866Y-212388635D01*
X135550335Y-212556316D01*
X135652450Y-212705002D01*
X135698205Y-212757806D01*
X135767158Y-212828180D01*
X135913730Y-212933308D01*
X135913733Y-212933309D01*
X135913738Y-212933312D01*
X135924032Y-212937637D01*
X135978213Y-212981753D01*
X135999942Y-213048158D01*
X136000000Y-213051956D01*
X136000000Y-218576000D01*
X135980315Y-218643039D01*
X135927511Y-218688794D01*
X135876000Y-218700000D01*
X130624000Y-218700000D01*
X130556961Y-218680315D01*
X130511206Y-218627511D01*
X130500000Y-218576000D01*
X130500000Y-217226288D01*
X130519007Y-217160314D01*
X130525789Y-217149522D01*
X130585368Y-216979255D01*
X130600500Y-216844954D01*
X130600500Y-214155046D01*
X130585368Y-214020745D01*
X130525789Y-213850478D01*
X130519005Y-213839681D01*
X130500000Y-213773710D01*
X130500000Y-213000000D01*
X130499999Y-212999999D01*
X108471046Y-210029803D01*
X108424860Y-210013863D01*
X108416825Y-210009148D01*
X108411212Y-210007030D01*
X108394530Y-209999275D01*
X108389288Y-209996347D01*
X108389287Y-209996346D01*
X108389286Y-209996346D01*
X108358390Y-209985430D01*
X108332689Y-209976349D01*
X108276037Y-209935456D01*
X108250487Y-209870426D01*
X108250000Y-209859455D01*
X108250000Y-201679499D01*
X108269685Y-201612461D01*
X108322489Y-201566706D01*
X108374000Y-201555500D01*
X111737500Y-201555500D01*
X111756681Y-201555043D01*
X111778052Y-201554024D01*
X111865164Y-201545106D01*
X112039071Y-201497237D01*
X112086248Y-201478349D01*
X112103934Y-201471270D01*
X112117567Y-201465321D01*
X112127388Y-201461035D01*
X112196704Y-201452266D01*
X112200387Y-201452917D01*
G37*
%TD.AperFunction*%
%TD*%
%TA.AperFunction,Conductor*%
%TO.N,/Power/U*%
G36*
X128304548Y-193522557D02*
G01*
X128342890Y-193548436D01*
X128356633Y-193562069D01*
X128504685Y-193665100D01*
X128671953Y-193732604D01*
X128739265Y-193751333D01*
X128787124Y-193763084D01*
X128907695Y-193774937D01*
X128966619Y-193780730D01*
X128966625Y-193780730D01*
X128966633Y-193780731D01*
X128966642Y-193780730D01*
X128966646Y-193780731D01*
X129273210Y-193776373D01*
X129299490Y-193774937D01*
X129299491Y-193774937D01*
X129353819Y-193769182D01*
X129380988Y-193766306D01*
X129554895Y-193718437D01*
X129619759Y-193692469D01*
X129664932Y-193672760D01*
X129735810Y-193628893D01*
X129803173Y-193610352D01*
X129824530Y-193612574D01*
X129838795Y-193615324D01*
X129943482Y-193635501D01*
X129943483Y-193635501D01*
X131338133Y-193635501D01*
X131338140Y-193635501D01*
X131497072Y-193620325D01*
X131514096Y-193615325D01*
X131583964Y-193615324D01*
X131595464Y-193619802D01*
X131595625Y-193619404D01*
X131599834Y-193621102D01*
X131599835Y-193621103D01*
X131767103Y-193688606D01*
X131827404Y-193705384D01*
X131834416Y-193707335D01*
X131882274Y-193719086D01*
X132061769Y-193736731D01*
X132061776Y-193736731D01*
X132061784Y-193736732D01*
X132061793Y-193736731D01*
X132061798Y-193736732D01*
X133901211Y-193710583D01*
X133903505Y-193710474D01*
X133954333Y-193708072D01*
X134102285Y-193679241D01*
X134171849Y-193685740D01*
X134226859Y-193728817D01*
X134249847Y-193794797D01*
X134250000Y-193800952D01*
X134250000Y-196000000D01*
X134777956Y-196000000D01*
X134844995Y-196019685D01*
X134901517Y-196056009D01*
X134901522Y-196056012D01*
X135099296Y-196135189D01*
X135164168Y-196147692D01*
X135308480Y-196175506D01*
X135308481Y-196175506D01*
X136703131Y-196175506D01*
X136703138Y-196175506D01*
X136862070Y-196160330D01*
X137066475Y-196100311D01*
X137234313Y-196013783D01*
X137291133Y-196000000D01*
X138505783Y-196000000D01*
X138572822Y-196019685D01*
X138593464Y-196036319D01*
X139713681Y-197156535D01*
X139747166Y-197217858D01*
X139750000Y-197244216D01*
X139750000Y-205500000D01*
X145876000Y-205500000D01*
X145943039Y-205519685D01*
X145988794Y-205572489D01*
X146000000Y-205624000D01*
X146000000Y-220075499D01*
X145980315Y-220142538D01*
X145927511Y-220188293D01*
X145876000Y-220199499D01*
X140624000Y-220199499D01*
X140556961Y-220179814D01*
X140511206Y-220127010D01*
X140500000Y-220075499D01*
X140500000Y-216166321D01*
X140507160Y-216124795D01*
X140527334Y-216068032D01*
X140585798Y-215786686D01*
X140605408Y-215500000D01*
X140585798Y-215213314D01*
X140527334Y-214931968D01*
X140507160Y-214875203D01*
X140500000Y-214833678D01*
X140500000Y-212250000D01*
X136374000Y-212250000D01*
X136306961Y-212230315D01*
X136261206Y-212177511D01*
X136250000Y-212126000D01*
X136250000Y-206999999D01*
X127982581Y-205818940D01*
X127918999Y-205789972D01*
X127881171Y-205731228D01*
X127880851Y-205662254D01*
X127935115Y-205471536D01*
X127955643Y-205250000D01*
X127935115Y-205028464D01*
X127874229Y-204814472D01*
X127782259Y-204629772D01*
X127769998Y-204560987D01*
X127796871Y-204496492D01*
X127854347Y-204456764D01*
X127893259Y-204450500D01*
X128111241Y-204450500D01*
X128111243Y-204450500D01*
X128329940Y-204409618D01*
X128537401Y-204329247D01*
X128726562Y-204212124D01*
X128890981Y-204062236D01*
X129025058Y-203884689D01*
X129124229Y-203685528D01*
X129185115Y-203471536D01*
X129205643Y-203250000D01*
X129185115Y-203028464D01*
X129124229Y-202814472D01*
X129057403Y-202680270D01*
X129045143Y-202611487D01*
X129057403Y-202569730D01*
X129124229Y-202435528D01*
X129185115Y-202221536D01*
X129205643Y-202000000D01*
X129185115Y-201778464D01*
X129124229Y-201564472D01*
X129124224Y-201564461D01*
X129025061Y-201365316D01*
X129025056Y-201365308D01*
X128890979Y-201187761D01*
X128726562Y-201037876D01*
X128726560Y-201037874D01*
X128537404Y-200920754D01*
X128537398Y-200920752D01*
X128329940Y-200840382D01*
X128145433Y-200805891D01*
X128083154Y-200774224D01*
X128080539Y-200771684D01*
X127536319Y-200227464D01*
X127502834Y-200166141D01*
X127500000Y-200139783D01*
X127500000Y-194093846D01*
X127519685Y-194026807D01*
X127560248Y-193987490D01*
X127753051Y-193871929D01*
X128072709Y-193634855D01*
X128172294Y-193544595D01*
X128235185Y-193514160D01*
X128304548Y-193522557D01*
G37*
%TD.AperFunction*%
%TD*%
%TA.AperFunction,Conductor*%
%TO.N,Net-(U4-VDD)*%
G36*
X144943039Y-174019685D02*
G01*
X144988794Y-174072489D01*
X145000000Y-174124000D01*
X145000000Y-176500000D01*
X147990654Y-176500000D01*
X148031210Y-176506819D01*
X148080811Y-176523987D01*
X148291677Y-176554305D01*
X148504470Y-176544168D01*
X148672125Y-176503494D01*
X148701359Y-176500000D01*
X149260657Y-176500000D01*
X149301214Y-176506820D01*
X149356396Y-176525919D01*
X149355918Y-176527299D01*
X149410230Y-176558646D01*
X149442256Y-176620743D01*
X149444500Y-176644229D01*
X149444500Y-178582585D01*
X149452700Y-178697228D01*
X149457722Y-178732156D01*
X149457724Y-178732164D01*
X149497476Y-178891294D01*
X149577383Y-179052987D01*
X149577389Y-179052998D01*
X149615163Y-179111776D01*
X149643061Y-179152400D01*
X149643066Y-179152406D01*
X149643069Y-179152410D01*
X149717186Y-179232837D01*
X149748140Y-179295472D01*
X149750000Y-179316866D01*
X149750000Y-181376000D01*
X149730315Y-181443039D01*
X149677511Y-181488794D01*
X149626000Y-181500000D01*
X139500000Y-181500000D01*
X138429500Y-181500000D01*
X138362461Y-181480315D01*
X138316706Y-181427511D01*
X138305500Y-181376000D01*
X138305500Y-174929500D01*
X138325185Y-174862461D01*
X138377989Y-174816706D01*
X138429500Y-174805500D01*
X142375991Y-174805500D01*
X142376000Y-174805500D01*
X142547228Y-174787090D01*
X142598739Y-174775884D01*
X142638635Y-174766134D01*
X142806316Y-174699665D01*
X142955002Y-174597550D01*
X143007806Y-174551795D01*
X143078180Y-174482842D01*
X143183308Y-174336270D01*
X143253185Y-174169981D01*
X143272870Y-174102942D01*
X143275534Y-174092719D01*
X143311495Y-174032813D01*
X143374134Y-174001859D01*
X143395525Y-174000000D01*
X144876000Y-174000000D01*
X144943039Y-174019685D01*
G37*
%TD.AperFunction*%
%TD*%
%TA.AperFunction,Conductor*%
%TO.N,Net-(U13-U)*%
G36*
X142443039Y-167019685D02*
G01*
X142488794Y-167072489D01*
X142500000Y-167124000D01*
X142500000Y-173876000D01*
X142480315Y-173943039D01*
X142427511Y-173988794D01*
X142376000Y-174000000D01*
X137500000Y-174000000D01*
X137500000Y-182894782D01*
X137480315Y-182961821D01*
X137463681Y-182982463D01*
X135829962Y-184616181D01*
X135768639Y-184649666D01*
X135742282Y-184652500D01*
X135568981Y-184652500D01*
X135568964Y-184652501D01*
X135532923Y-184655704D01*
X135449584Y-184663113D01*
X135253954Y-184719089D01*
X135163771Y-184766196D01*
X135073593Y-184813302D01*
X135073591Y-184813303D01*
X135073590Y-184813304D01*
X134915890Y-184941890D01*
X134787304Y-185099590D01*
X134693089Y-185279954D01*
X134637114Y-185475583D01*
X134637113Y-185475586D01*
X134626500Y-185594965D01*
X134626500Y-185649326D01*
X134606815Y-185716365D01*
X134578104Y-185747611D01*
X134250000Y-185999998D01*
X134249999Y-186000000D01*
X134209588Y-190131398D01*
X134189249Y-190198242D01*
X134173276Y-190217866D01*
X134103976Y-190287167D01*
X134089186Y-190299800D01*
X134077304Y-190308433D01*
X134029525Y-190361497D01*
X134027294Y-190363849D01*
X134011280Y-190379863D01*
X133997034Y-190397454D01*
X133994929Y-190399919D01*
X133947130Y-190453007D01*
X133947127Y-190453011D01*
X133939783Y-190465730D01*
X133928773Y-190481750D01*
X133919539Y-190493153D01*
X133919536Y-190493158D01*
X133887118Y-190556779D01*
X133885572Y-190559626D01*
X133849856Y-190621492D01*
X133845316Y-190635461D01*
X133837878Y-190653418D01*
X133831211Y-190666503D01*
X133819770Y-190709201D01*
X133812723Y-190735498D01*
X133811808Y-190738587D01*
X133789738Y-190806517D01*
X133789737Y-190806523D01*
X133788203Y-190821116D01*
X133784658Y-190840240D01*
X133780860Y-190854412D01*
X133780858Y-190854425D01*
X133777121Y-190925740D01*
X133776867Y-190928975D01*
X133774500Y-190951496D01*
X133774500Y-190974132D01*
X133774415Y-190977377D01*
X133770677Y-191048703D01*
X133772973Y-191063198D01*
X133774500Y-191082598D01*
X133774500Y-192032619D01*
X133772973Y-192052018D01*
X133770677Y-192066512D01*
X133774415Y-192137837D01*
X133774500Y-192141083D01*
X133774500Y-192163720D01*
X133776867Y-192186242D01*
X133777121Y-192189477D01*
X133780858Y-192260793D01*
X133780859Y-192260798D01*
X133784658Y-192274975D01*
X133788203Y-192294101D01*
X133789458Y-192306037D01*
X133789738Y-192308699D01*
X133789740Y-192308705D01*
X133811805Y-192376616D01*
X133812721Y-192379707D01*
X133814775Y-192387372D01*
X133831211Y-192448713D01*
X133837876Y-192461794D01*
X133845317Y-192479759D01*
X133849854Y-192493720D01*
X133849856Y-192493725D01*
X133853101Y-192499345D01*
X133885570Y-192555584D01*
X133887108Y-192558417D01*
X133919535Y-192622057D01*
X133919540Y-192622063D01*
X133919542Y-192622066D01*
X133928772Y-192633465D01*
X133939790Y-192649496D01*
X133947128Y-192662206D01*
X133947132Y-192662211D01*
X133979549Y-192698214D01*
X134009779Y-192761206D01*
X134001154Y-192830541D01*
X133956412Y-192884206D01*
X133889760Y-192905164D01*
X133889162Y-192905173D01*
X132050334Y-192931313D01*
X131983021Y-192912584D01*
X131981532Y-192911642D01*
X131798478Y-192794001D01*
X131600702Y-192714823D01*
X131391520Y-192674507D01*
X131391519Y-192674507D01*
X129996862Y-192674507D01*
X129837929Y-192689682D01*
X129837930Y-192689683D01*
X129837926Y-192689684D01*
X129633528Y-192749700D01*
X129444169Y-192847322D01*
X129320381Y-192944670D01*
X129255517Y-192970638D01*
X129245492Y-192971186D01*
X128955186Y-192975312D01*
X128887874Y-192956583D01*
X128841373Y-192904434D01*
X128830448Y-192835424D01*
X128853825Y-192777460D01*
X128871929Y-192753051D01*
X129076530Y-192411695D01*
X129246687Y-192051929D01*
X129380761Y-191677216D01*
X129477462Y-191291166D01*
X129535857Y-190897497D01*
X129555385Y-190500000D01*
X129535857Y-190102503D01*
X129477462Y-189708834D01*
X129380761Y-189322784D01*
X129246687Y-188948071D01*
X129076530Y-188588305D01*
X128871929Y-188246949D01*
X128634855Y-187927291D01*
X128634850Y-187927285D01*
X128367590Y-187632409D01*
X128072714Y-187365149D01*
X128018393Y-187324862D01*
X127753051Y-187128071D01*
X127738050Y-187119080D01*
X127560251Y-187012511D01*
X127512869Y-186961162D01*
X127500000Y-186906153D01*
X127500000Y-184616181D01*
X127500000Y-182048358D01*
X127519684Y-181981323D01*
X127532735Y-181964417D01*
X133250000Y-175750000D01*
X133249999Y-170874000D01*
X133269685Y-170806961D01*
X133322489Y-170761206D01*
X133374000Y-170750000D01*
X134257443Y-170750000D01*
X134324482Y-170769685D01*
X134327294Y-170771546D01*
X134423480Y-170837123D01*
X134462352Y-170863626D01*
X134705485Y-170980713D01*
X134963354Y-171060255D01*
X134963355Y-171060255D01*
X134963358Y-171060256D01*
X135230189Y-171100474D01*
X135230194Y-171100474D01*
X135230197Y-171100475D01*
X135230198Y-171100475D01*
X135500054Y-171100475D01*
X135500055Y-171100475D01*
X135500062Y-171100474D01*
X135766893Y-171060256D01*
X135766894Y-171060255D01*
X135766898Y-171060255D01*
X136024767Y-170980713D01*
X136267901Y-170863626D01*
X136402956Y-170771546D01*
X136469434Y-170750046D01*
X136472807Y-170750000D01*
X136750000Y-170750000D01*
X136750000Y-170494565D01*
X136769685Y-170427526D01*
X136777045Y-170417261D01*
X136856941Y-170317077D01*
X136991869Y-170083373D01*
X137090460Y-169832170D01*
X137150509Y-169569078D01*
X137170675Y-169299975D01*
X137150509Y-169030872D01*
X137090460Y-168767780D01*
X136991869Y-168516577D01*
X136856941Y-168282873D01*
X136856938Y-168282869D01*
X136777053Y-168182695D01*
X136750644Y-168118009D01*
X136750000Y-168105383D01*
X136750000Y-167124000D01*
X136769685Y-167056961D01*
X136822489Y-167011206D01*
X136874000Y-167000000D01*
X142376000Y-167000000D01*
X142443039Y-167019685D01*
G37*
%TD.AperFunction*%
%TD*%
%TA.AperFunction,Conductor*%
%TO.N,Net-(J8-Pin_1)*%
G36*
X175943039Y-69519685D02*
G01*
X175988794Y-69572489D01*
X176000000Y-69624000D01*
X176000000Y-192876000D01*
X175980315Y-192943039D01*
X175927511Y-192988794D01*
X175876000Y-193000000D01*
X171700670Y-193000000D01*
X171635394Y-192981427D01*
X171537401Y-192920753D01*
X171329940Y-192840382D01*
X171111243Y-192799500D01*
X170888757Y-192799500D01*
X170670060Y-192840382D01*
X170617766Y-192860641D01*
X170462601Y-192920752D01*
X170462600Y-192920752D01*
X170451684Y-192927511D01*
X170364605Y-192981427D01*
X170299330Y-193000000D01*
X165124000Y-193000000D01*
X165056961Y-192980315D01*
X165011206Y-192927511D01*
X165000000Y-192876000D01*
X165000000Y-181500000D01*
X150718220Y-181500000D01*
X150651181Y-181480315D01*
X150605426Y-181427511D01*
X150595482Y-181358353D01*
X150609951Y-181319580D01*
X150608296Y-181318727D01*
X150611000Y-181313480D01*
X150611003Y-181313476D01*
X150690180Y-181115702D01*
X150730497Y-180906517D01*
X150730497Y-179511860D01*
X150715321Y-179352928D01*
X150655302Y-179148523D01*
X150557684Y-178959171D01*
X150557682Y-178959169D01*
X150557681Y-178959166D01*
X150425997Y-178791717D01*
X150425993Y-178791713D01*
X150292797Y-178676297D01*
X150255023Y-178617518D01*
X150250000Y-178582584D01*
X150250000Y-176624000D01*
X150269685Y-176556961D01*
X150322489Y-176511206D01*
X150374000Y-176500000D01*
X150530659Y-176500000D01*
X150571215Y-176506819D01*
X150620816Y-176523987D01*
X150831682Y-176554305D01*
X151044475Y-176544168D01*
X151212130Y-176503494D01*
X151241364Y-176500000D01*
X151800662Y-176500000D01*
X151841218Y-176506819D01*
X151890819Y-176523987D01*
X152101685Y-176554305D01*
X152314478Y-176544168D01*
X152482133Y-176503494D01*
X152511367Y-176500000D01*
X154250000Y-176500000D01*
X154250000Y-171000000D01*
X152838372Y-171000000D01*
X152771333Y-170980315D01*
X152760338Y-170972367D01*
X152756849Y-170969542D01*
X152756846Y-170969540D01*
X152756840Y-170969535D01*
X152693200Y-170937108D01*
X152690367Y-170935570D01*
X152628508Y-170899856D01*
X152628504Y-170899854D01*
X152628503Y-170899854D01*
X152614542Y-170895317D01*
X152596577Y-170887876D01*
X152583496Y-170881211D01*
X152544679Y-170870810D01*
X152514490Y-170862721D01*
X152511410Y-170861808D01*
X152443482Y-170839738D01*
X152443477Y-170839737D01*
X152443475Y-170839737D01*
X152428884Y-170838203D01*
X152409758Y-170834658D01*
X152395581Y-170830859D01*
X152395576Y-170830858D01*
X152324260Y-170827121D01*
X152321025Y-170826867D01*
X152310362Y-170825746D01*
X152298504Y-170824500D01*
X152298503Y-170824500D01*
X152275866Y-170824500D01*
X152272622Y-170824415D01*
X152201297Y-170820677D01*
X152201296Y-170820677D01*
X152201295Y-170820677D01*
X152190521Y-170822383D01*
X152186799Y-170822973D01*
X152167402Y-170824500D01*
X150875140Y-170824500D01*
X150808101Y-170804815D01*
X150762346Y-170752011D01*
X150752402Y-170682853D01*
X150781427Y-170619297D01*
X150790799Y-170609601D01*
X150878675Y-170528064D01*
X150878675Y-170528062D01*
X150878679Y-170528060D01*
X151046933Y-170317077D01*
X151181861Y-170083373D01*
X151280452Y-169832170D01*
X151340501Y-169569078D01*
X151347223Y-169479377D01*
X151360667Y-169299979D01*
X151360667Y-169299970D01*
X151340501Y-169030873D01*
X151280453Y-168767786D01*
X151280452Y-168767780D01*
X151181861Y-168516577D01*
X151046933Y-168282873D01*
X150878679Y-168071890D01*
X150878678Y-168071889D01*
X150878675Y-168071885D01*
X150680859Y-167888340D01*
X150680858Y-167888339D01*
X150457893Y-167736324D01*
X150457887Y-167736321D01*
X150457886Y-167736320D01*
X150457885Y-167736319D01*
X150214761Y-167619238D01*
X150214763Y-167619238D01*
X149956891Y-167539695D01*
X149956885Y-167539693D01*
X149690054Y-167499475D01*
X149690047Y-167499475D01*
X149420189Y-167499475D01*
X149420181Y-167499475D01*
X149153350Y-167539693D01*
X149153344Y-167539695D01*
X148895476Y-167619237D01*
X148652348Y-167736321D01*
X148429376Y-167888340D01*
X148231560Y-168071885D01*
X148063303Y-168282873D01*
X147928376Y-168516574D01*
X147928374Y-168516578D01*
X147829784Y-168767779D01*
X147829782Y-168767786D01*
X147769734Y-169030873D01*
X147749569Y-169299970D01*
X147749569Y-169299979D01*
X147769734Y-169569076D01*
X147807126Y-169732899D01*
X147829784Y-169832170D01*
X147928375Y-170083373D01*
X148063303Y-170317077D01*
X148140374Y-170413720D01*
X148231560Y-170528064D01*
X148319437Y-170609601D01*
X148429377Y-170711610D01*
X148488635Y-170752011D01*
X148520221Y-170773546D01*
X148564523Y-170827575D01*
X148572583Y-170896978D01*
X148541840Y-170959721D01*
X148482056Y-170995883D01*
X148450370Y-171000000D01*
X143429500Y-171000000D01*
X143362461Y-170980315D01*
X143316706Y-170927511D01*
X143305500Y-170876000D01*
X143305500Y-167124008D01*
X143305499Y-167123991D01*
X143287090Y-166952773D01*
X143275884Y-166901261D01*
X143266135Y-166861370D01*
X143266134Y-166861365D01*
X143199665Y-166693684D01*
X143097550Y-166544998D01*
X143051795Y-166492194D01*
X143051794Y-166492193D01*
X142982845Y-166421823D01*
X142982844Y-166421822D01*
X142982842Y-166421820D01*
X142836270Y-166316692D01*
X142669981Y-166246815D01*
X142669982Y-166246815D01*
X142669979Y-166246814D01*
X142602940Y-166227129D01*
X142592719Y-166224465D01*
X142532813Y-166188505D01*
X142501859Y-166125866D01*
X142500000Y-166104475D01*
X142500000Y-163124000D01*
X142519685Y-163056961D01*
X142572489Y-163011206D01*
X142624000Y-163000000D01*
X165500000Y-163000000D01*
X165500000Y-69624000D01*
X165519685Y-69556961D01*
X165572489Y-69511206D01*
X165624000Y-69500000D01*
X175876000Y-69500000D01*
X175943039Y-69519685D01*
G37*
%TD.AperFunction*%
%TD*%
M02*
